<?xml version="1.0" encoding="utf-8" ?>
<svg xmlns="http://www.w3.org/2000/svg" xmlns:xlink="http://www.w3.org/1999/xlink" width="1820" height="1024">
	<path fill="#FFFFFA" d="M0 0L1818.44 0C1820.58 3.35778 1819.99 8.22266 1820 12.0828L1820 742.336L1820.01 943.951L1820 997.417C1819.99 1004.76 1820.98 1013.76 1819.75 1020.9C1819.56 1022.02 1819.05 1023.05 1818.44 1024L0 1024L0 0Z"/>
	<path d="M915.341 391.254C916.592 391.4 917.311 391.513 918.345 392.277C919.257 392.95 919.042 392.64 919.445 393.48C924.838 404.73 926.428 419.024 930.295 431.037C936.944 451.695 951.128 481.978 954.414 501.856C956.304 513.291 954.054 527.565 947.084 537.047C940.529 545.965 931.195 548.343 920.877 549.948C917.869 550.379 914.556 550.151 911.576 549.613C902.656 548.001 892.376 543.811 887.161 536.058C881.606 527.8 880.693 516.244 881.899 506.62C883.861 490.967 891.525 474.754 896.587 459.849C904.289 437.174 910.863 414.799 915.341 391.254Z"/>
	<path fill="#CB6A53" d="M904.856 453.142C906.905 482.781 911.17 517.749 926.891 543.624C918.851 544.798 910.756 545.13 903.051 541.995C896.725 539.42 892.218 534.697 889.706 528.368C887.1 521.804 886.477 514.258 887.323 507.283C889.056 493.007 899.051 466.771 904.856 453.142Z"/>
	<path fill="#FFFFFA" d="M904.856 453.142C909.271 437.756 913.333 422.195 917.972 406.885Q924.744 432.866 933.999 458.068C939.321 472.849 948.239 490.089 949.961 505.727C950.869 513.972 949.037 523.469 944.795 530.631C940.457 537.954 934.736 541.13 926.891 543.624C911.17 517.749 906.905 482.781 904.856 453.142Z"/>
	<path d="M366.963 157.712C380.174 156.39 394.784 157.032 407.967 158.112C458.517 162.254 492.118 178.73 533.089 207.194C548.643 218 563.729 230.75 580.107 240.209C598.298 238.906 615.724 231.288 629.865 219.863C638.706 212.72 647.544 203.238 658.876 200.452C663.778 199.246 670.044 198.975 674.411 201.938C677.167 203.809 678.47 206.766 678.878 209.986C680 218.828 674.228 229.663 669.02 236.376C656.538 252.465 635.827 259.69 616.319 262.122C621.111 265.117 626.164 268.765 631.508 270.658C646.949 276.127 668.466 270.606 684.061 267.037C713.589 260.279 716.402 251.965 731.496 227.982C736.035 220.771 743.418 213.004 752.11 211.171C756.537 210.237 760.508 211.338 764.2 213.852C767.354 216 769.266 218.919 769.881 222.669C772.007 235.647 759.06 262.134 751.473 272.955C736.773 293.922 718.365 301.657 693.92 305.891C711.489 309.801 752.653 308.39 769.573 302.551C796.569 293.234 822.533 267.036 853.441 276.258C859.171 277.967 865.744 282.186 868.383 287.771C869.391 289.902 869.159 292.323 868.293 294.457C860.184 314.442 788.967 340.654 767.867 349.823C790.169 347.594 812.634 344.723 834.369 339.089C866.198 330.838 899.81 309.19 933.583 317.607C936.975 318.453 940.433 320.166 942.168 323.355C943.448 325.708 943.819 328.808 942.949 331.359C939.482 341.532 913.193 350.132 903.489 354.42C904.948 355.34 906.435 356.265 907.79 357.335C910.389 359.387 912.435 362.304 912.719 365.682C913.024 369.296 911.124 372.513 908.745 375.052C893.957 390.834 841.77 401.889 819.414 407.085C765.908 419.521 713.547 423.233 658.808 418.007C642.428 416.444 625.937 414.624 609.984 410.456C590.132 405.268 570.905 397.107 552.686 387.717C511.026 366.245 472.959 337.76 432.669 313.867C401.1 295.146 367.559 279.23 330.339 277.318C274.806 274.465 217.511 293.448 168.858 319.188C153.992 327.053 139.43 335.885 125.3 344.996C118.945 349.094 112.867 353.91 106.28 357.608C104.112 358.825 101.757 360.056 99.2329 360.114C99.0508 359.252 98.7727 359.024 99.2753 358.246C104.372 350.358 117.01 344.327 124.899 339.307C173.171 308.59 220.189 286.975 276.711 275.771C299.847 272.185 323.396 270.438 346.668 273.953C433.219 287.026 511.795 373.254 598.229 401.619C641.133 415.699 695.932 417.299 740.822 414.361Q760.43 413.071 779.816 409.854C804.625 405.674 891.936 388.154 906.11 370.724C907.051 369.567 908.094 367.75 907.859 366.184C907.486 363.704 905.939 362.187 903.967 360.811C882.598 345.891 825.539 361.597 800.043 366.153C757.174 373.813 714.869 374.032 672.011 365.972C666.356 364.908 656.682 364.185 652.063 360.792C650.289 359.489 649.405 358.581 649.027 356.381C650.338 355.873 686.446 363.229 692.087 363.728Q671.868 356.35 652.334 347.311C615.686 330.476 579.335 311.937 543.593 293.242C531.853 287.101 519.079 281.952 507.844 275.054C505.408 273.559 503.21 272.219 501.932 269.573L502.626 268.274C504.958 268.029 506.929 268.84 509.01 269.782C514.504 272.267 519.628 275.663 525.077 278.305C556.427 293.503 587.374 309.673 618.556 325.236C638.394 335.137 658.439 345.36 679.15 353.318C678.09 351.667 676.996 349.988 676.167 348.207C674.07 343.7 673.049 337.591 674.91 332.846C676.594 328.552 680.35 325.629 684.5 323.905C695.03 319.528 704.955 323.204 714.833 327.269C680.468 298.018 626.505 275.569 587.002 251.117C554.899 231.247 526.355 205.783 493.093 187.746C389.736 131.698 274.694 180.187 171.926 210.611C160.85 213.89 99.0821 231.669 91.2864 227.434L91.5885 225.897C94.7374 222.822 137.269 214.813 145.213 212.706C195.205 199.45 243.577 180.547 294.045 168.912C318.338 163.311 342.078 159.511 366.963 157.712Z"/>
	<path fill="#FFFFFA" d="M689.611 326.386C702.893 325.705 717.378 333.514 728.069 340.952C733.786 344.93 746.179 354.333 747.043 361.346C747.267 363.162 746.791 363.58 745.808 364.986C742.949 366.547 741.117 367.312 737.819 367.306Q732.154 367.371 726.515 366.813Q720.877 366.256 715.334 365.083C703.845 362.631 686.124 356.729 679.727 346.387C678.308 344.091 677.563 341.438 678.355 338.774C679.918 333.517 685.043 328.989 689.611 326.386Z"/>
	<path fill="#FFFFFA" d="M665.214 204.681C666.775 204.885 668.32 205.121 669.743 205.833C671.792 206.859 673.214 208.661 673.759 210.886C674.969 215.829 672.201 221.305 669.854 225.487C661.187 240.932 646.328 250.035 629.7 254.739C620.401 257.37 610.9 259.269 602.126 254.352Q594.746 249.704 587.457 244.917C600.451 241.942 612.758 237.485 624.101 230.382C637.827 221.786 648.544 207.103 665.214 204.681Z"/>
	<path fill="#FFFFFA" d="M910.233 321.213C917.27 320.538 931.263 320.759 936.945 325.11C938.485 326.288 938.344 326.912 938.569 328.714C934.705 337.442 905.996 347.538 896.264 351.558C860.763 343.362 815.472 359.295 779.365 364.264C774.308 365.125 758.796 368.022 754.455 366.665C752.602 366.086 751.573 365.228 750.843 363.458C749.671 360.618 750.848 357.378 751.836 354.666C786.309 354.082 821.025 349.462 853.923 338.796C873.101 332.579 889.835 323.718 910.233 321.213Z"/>
	<path fill="#FFFFFA" d="M751.949 217.03C754.532 216.589 758.301 216.016 760.718 217.273C762.494 218.196 764.175 220.492 764.569 222.444C766.892 233.958 753.219 261.86 746.165 271.533C730.854 292.53 710.649 298.001 686.38 301.799L671.18 292.486C662.781 287.601 654.263 282.908 645.796 278.141C672.098 275.625 711.186 272.179 726.446 247.35C734.365 234.464 737.05 223.856 751.949 217.03Z"/>
	<path fill="#FFFFFA" d="M834.256 280.285C842.746 279.651 852.656 280.637 860.028 285.183C862.655 286.803 863.381 288.28 864.11 291.157C863.803 292.566 863.377 293.79 862.556 294.991C854.208 307.187 793.25 335.227 777.224 340.65C766.619 344.238 755.783 346.295 744.778 348.195L739.642 343.097C728.391 331.666 716.453 322.585 703.916 312.688C734.561 312.863 762.598 313.585 790.475 298.925C805.236 291.163 817.362 282.826 834.256 280.285Z"/>
	<path fill="#BDBDBD" d="M964.508 185.61C964.655 185.589 964.803 185.576 964.949 185.546C967.375 185.055 991.211 158.313 995.428 154.507C1012.35 139.231 1032.21 127.775 1053.15 118.883C1189.77 60.8542 1394.02 139.9 1513.32 212.481Q1542.5 230.386 1570.46 250.128Q1598.43 269.87 1625.07 291.367C1632.11 297.002 1642.26 303.789 1647.38 311.017L1647.47 312.755C1650.93 313.609 1655.26 314.202 1658.09 316.451C1658.28 317.541 1658.38 318.112 1657.95 319.147C1658.09 319.351 1658.23 319.557 1658.37 319.76C1665.3 329.635 1682.25 343.185 1691.4 352.679C1738.14 401.159 1797 466.437 1785.27 539.654C1780.78 567.664 1765.98 590.339 1743.13 606.771C1710.16 630.481 1666.63 630.908 1628.12 624.473C1603.7 620.393 1579.17 613.175 1556.17 604.044C1539.34 597.365 1522.14 590.576 1505.73 582.924C1497.63 579.148 1462.58 559.192 1456.57 559.525C1456.36 559.536 1455.76 559.66 1455.56 559.716C1455.31 559.783 1455.07 559.866 1454.82 559.941C1450.39 552.842 1416.83 521.823 1408.55 513.707C1385.51 491.133 1363.23 467.307 1339.48 445.528C1338.13 444.297 1336.79 443.5 1335.13 442.762C1326.17 442.644 1307.14 440.599 1299.63 443.73C1297.82 444.483 1297.48 445.414 1296.87 447.236C1296.65 447.894 1296.58 448.61 1296.27 449.242C1291.68 458.616 1246.05 495.724 1236.84 498.628C1236.82 498.557 1236.83 498.48 1236.8 498.416C1235.62 496.12 1187.03 485.47 1180.16 483.725Q1169.89 481.053 1159.72 478.029Q1149.54 475.006 1139.48 471.635Q1129.42 468.264 1119.48 464.549Q1109.53 460.834 1099.73 456.78Q1089.92 452.726 1080.26 448.338Q1070.59 443.949 1061.09 439.231Q1051.58 434.513 1042.24 429.471Q1032.9 424.43 1023.74 419.07Q1019.45 409.243 1014.83 399.569C1000.97 371.118 979.799 338.339 952.088 321.596C944.293 316.886 936.088 314.013 927.5 311.063C928.364 287.772 933.547 264.797 938.514 242.117C927.735 237.949 913.808 232.433 906.616 223.033C904.014 219.631 902.188 215.272 903.013 210.928C903.595 207.86 905.409 205.509 908.034 203.872C918.187 197.537 935.242 201.228 946.267 203.634C946.267 199.303 946.286 195.245 949.093 191.635C952.763 186.914 959.024 186.389 964.508 185.61Z"/>
	<path d="M1123.6 182.36C1111.14 176.873 1061.98 155.223 1057.81 143.887C1057.13 142.055 1057.73 141.293 1058.41 139.575C1066.43 132.174 1088.34 132.61 1098.81 133.054C1147.67 135.127 1192.61 158.141 1240.41 166.444C1266.58 170.989 1271.68 165.413 1295.55 162.032C1320.5 158.498 1348.48 161.787 1372.71 168.23C1427.41 182.778 1458.93 219.623 1504.31 249.026C1548.57 277.701 1596.91 298.146 1647.47 312.755C1650.93 313.609 1655.26 314.202 1658.09 316.451C1658.28 317.541 1658.38 318.112 1657.95 319.147L1657.41 320.101C1651.72 321.017 1623.73 311.118 1616.81 308.752C1575.92 294.777 1536.92 276.92 1500.83 253.025C1480.04 239.257 1461.13 223.235 1441.14 208.419C1393.93 173.421 1350.56 163.38 1292.32 167.33Q1293.2 167.909 1294.02 168.577C1299.72 173.184 1307.54 183.252 1308.19 190.548L1307.41 191.433C1298.7 187.664 1295.18 174.203 1286.68 169.099C1286.5 168.992 1286.31 168.897 1286.13 168.795C1246.79 187.313 1171.87 148.763 1129.92 142.928C1130.25 143.724 1130.27 143.639 1130.41 144.387C1132.4 155.029 1124.92 165.52 1119.16 173.706C1121.31 176.709 1157.91 187.147 1164.71 189.624C1172.96 192.631 1181.09 195.894 1188.87 199.977C1209.57 210.831 1223.02 225.865 1238.75 242.554C1242.91 246.967 1248.69 252.378 1248.5 258.988L1247.57 259.382C1237.59 253.56 1232.18 239.759 1222.12 233.973C1221.9 233.849 1221.68 233.732 1221.46 233.611C1222.06 234.783 1222.55 235.975 1222.65 237.301C1223.04 242.115 1221.68 247.223 1221.46 252.056C1221.12 259.453 1222.08 267.131 1221.08 274.467C1220.85 276.203 1220.55 277.411 1219.38 278.775L1218.14 278.648C1212.61 272.346 1219.92 239.15 1217.05 231.198C1216.97 230.997 1216.88 230.803 1216.8 230.605C1214.86 234.734 1204.25 240.975 1200.2 244.14C1194.73 248.411 1188.98 252.533 1184.12 257.495C1177.84 263.886 1171.81 272.431 1164.63 277.662C1162.93 278.897 1162.24 279.39 1160.11 279.074C1158.53 270.456 1175.09 262.815 1178.22 255.482C1178.35 255.195 1178.45 254.902 1178.57 254.611C1166.16 259.291 1151.37 260.462 1138.22 262.12C1052.04 272.979 1022.64 229.157 948.253 210.393C945.434 219.04 943.477 228.536 939.997 236.857C981.695 254.2 1020.27 277.928 1061.44 296.423C1078.59 304.132 1095.48 311.689 1114.14 314.91C1148.09 320.771 1184 313.645 1217.9 309.986C1269.35 304.433 1339.7 296.012 1390.1 306.706C1411.54 311.253 1432.24 319.724 1451.53 330.011C1486.72 348.777 1519.6 373.155 1552.42 395.756C1568.62 406.911 1584.6 418.46 1601.06 429.224C1611.9 436.313 1623.52 442.697 1633.99 450.273C1636.46 452.052 1638.71 453.818 1640.39 456.386L1640.18 457.678C1636.87 458.131 1633.5 456.13 1630.68 454.582C1616.2 446.635 1602.27 436.272 1588.56 427.003C1554.14 403.74 1520.54 379.114 1485.7 356.506C1469.2 345.797 1452.32 335.608 1434.47 327.283Q1427.54 324.004 1420.38 321.243Q1413.22 318.482 1405.88 316.254Q1398.54 314.026 1391.06 312.344Q1383.58 310.661 1375.99 309.533C1351.62 305.995 1326.18 307.233 1301.65 308.468Q1249.4 311.444 1197.39 317.338C1170 320.433 1142.64 325.289 1115.14 320.55C1059.23 310.917 992.956 263.517 938.514 242.117C927.735 237.949 913.808 232.433 906.616 223.033C904.014 219.631 902.188 215.272 903.013 210.928C903.595 207.86 905.409 205.509 908.034 203.872C918.187 197.537 935.242 201.228 946.267 203.634C946.267 199.303 946.286 195.245 949.093 191.635C952.763 186.914 959.024 186.389 964.508 185.61C971.507 186.167 978.094 187.051 984.893 188.831C989.304 189.986 1007.64 197.37 1010.77 196.855C1010.72 190.322 1010.04 186.356 1015.05 181.423C1018.48 178.041 1023.32 177.206 1027.96 177.362C1042.85 177.861 1057.24 187.825 1069.28 195.736C1072 197.53 1075.92 199.509 1078.22 201.767C1078.78 202.316 1078.77 202.36 1079.12 202.925C1089.61 194.856 1095.32 190.596 1109.23 192.427C1110.19 192.552 1111.04 192.755 1111.96 193.033C1114.09 190.674 1116.23 188.07 1118.62 185.98C1120.08 184.702 1122.41 183.758 1123.6 182.36Z"/>
	<path fill="#FFFFFA" d="M953.812 206.272C952.042 204.445 951.698 203.044 951.356 200.627C951.142 199.123 951.73 197.36 952.721 196.205C955.819 192.595 959.937 192.036 964.356 191.531C961.315 195.977 957.795 202.924 953.812 206.272Z"/>
	<path fill="#BDBDBD" d="M1150.56 191.548C1151.28 191.554 1151.55 191.532 1152.22 191.613C1165.77 193.239 1205.18 212.49 1213.33 223.512C1214.26 224.779 1214.14 224.789 1213.94 226.346L1210.88 227.993C1210.72 228.261 1210.61 228.557 1210.41 228.798C1209.92 229.409 1208.26 230.64 1207.49 230.724C1193.55 232.219 1162.03 200.237 1150.56 191.548Z"/>
	<path fill="#FFFFFA" d="M939.997 236.857C930.399 232.733 913.275 226.778 908.937 216.533C908.013 214.348 908.151 212.694 908.982 210.53C910.365 208.806 911.577 207.786 913.659 206.98C922.322 203.628 939.781 206.509 948.253 210.393C945.434 219.04 943.477 228.536 939.997 236.857Z"/>
	<path fill="#BDBDBD" d="M1076.49 139.101C1092.48 137.37 1109.37 138.544 1125.1 141.763C1125.48 143.113 1125.73 144.507 1125.57 145.913C1125.23 149.022 1118.4 171.875 1116.96 173.015L1112.44 172.008C1108.61 168.803 1092.11 161.505 1086.16 158.088C1077.58 153.167 1069.56 147.227 1060.97 142.445L1076.49 139.101Z"/>
	<path fill="#BDBDBD" d="M1125.6 187.106C1127.27 186.829 1128.94 186.599 1130.64 186.69C1142.48 187.321 1170.4 216.949 1181.72 225.23C1186.98 229.077 1195.64 231.671 1199.82 236.287C1198.01 239.723 1193.51 242.335 1190.25 244.246C1176.06 241.949 1131.95 205.437 1116.28 195.703C1119.52 193.366 1122.19 189.651 1125.6 187.106Z"/>
	<path fill="#BDBDBD" d="M1096.96 197.773C1101.59 197.287 1106.55 197.237 1110.9 199.108C1123.21 204.405 1147.24 224.997 1160.02 233.542C1167.29 238.406 1176.28 242.107 1183.01 247.422C1178.93 249.75 1174.72 250.616 1170.06 250.226C1165.97 247.309 1158.59 245.704 1153.8 243.707C1148.45 241.482 1143.25 238.885 1138.09 236.266C1119.33 226.739 1101.73 214.934 1082.93 205.636C1087.8 202.868 1091.59 199.764 1096.96 197.773Z"/>
	<path fill="#BDBDBD" d="M1025.77 182.595C1045.04 183.701 1062.69 198.345 1078.39 208.339Q1092.74 217.452 1107.41 226.025C1120.62 233.787 1134.22 240.558 1147.97 247.303L1147.15 247.25L1147.99 247.85L1139.56 246.7C1125.27 242.281 1110.49 239.872 1096.4 234.599C1070.41 224.872 1045.91 211.494 1020.07 201.348C1019.05 199.265 1017.85 197.049 1017.24 194.814C1016.56 192.352 1016.27 189.152 1017.71 186.888C1019.45 184.169 1022.82 183.269 1025.77 182.595Z"/>
	<path fill="#BDBDBD" d="M964.356 191.531C1004.31 192.99 1059.58 227.582 1098.91 241.463C1110.04 245.389 1121.67 248.24 1133.24 250.542C1139.32 251.754 1146.18 252.298 1152 254.325C1142.95 256.402 1133.1 257.319 1123.85 258.05C1065.79 262.633 1031.33 235.895 980.313 214.974C972.871 211.923 961.67 206.262 953.812 206.272C957.795 202.924 961.315 195.977 964.356 191.531Z"/>
	<path fill="#BDBDBD" d="M964.508 185.61C964.655 185.589 964.803 185.576 964.949 185.546C967.375 185.055 991.211 158.313 995.428 154.507C1012.35 139.231 1032.21 127.775 1053.15 118.883C1189.77 60.8542 1394.02 139.9 1513.32 212.481Q1542.5 230.386 1570.46 250.128Q1598.43 269.87 1625.07 291.367C1632.11 297.002 1642.26 303.789 1647.38 311.017L1647.47 312.755C1596.91 298.146 1548.57 277.701 1504.31 249.026C1458.93 219.623 1427.41 182.778 1372.71 168.23C1348.48 161.787 1320.5 158.498 1295.55 162.032C1271.68 165.413 1266.58 170.989 1240.41 166.444C1192.61 158.141 1147.67 135.127 1098.81 133.054C1088.34 132.61 1066.43 132.174 1058.41 139.575C1057.73 141.293 1057.13 142.055 1057.81 143.887C1061.98 155.223 1111.14 176.873 1123.6 182.36C1122.41 183.758 1120.08 184.702 1118.62 185.98C1116.23 188.07 1114.09 190.674 1111.96 193.033C1111.04 192.755 1110.19 192.552 1109.23 192.427C1095.32 190.596 1089.61 194.856 1079.12 202.925C1078.77 202.36 1078.78 202.316 1078.22 201.767C1075.92 199.509 1072 197.53 1069.28 195.736C1057.24 187.825 1042.85 177.861 1027.96 177.362C1023.32 177.206 1018.48 178.041 1015.05 181.423C1010.04 186.356 1010.72 190.322 1010.77 196.855C1007.64 197.37 989.304 189.986 984.893 188.831C978.094 187.051 971.507 186.167 964.508 185.61Z"/>
	<path d="M497.097 442.376L529.885 442.496C540.231 449.919 549.232 460.262 558.617 468.9C568.612 478.099 579.789 486.288 590.88 494.12C710.412 578.529 908.017 590.193 1047.79 565.853C1105.59 555.787 1162.74 539.9 1214.93 512.574C1221.02 509.382 1232.92 504.201 1236.84 498.628C1246.05 495.724 1291.68 458.616 1296.27 449.242C1296.58 448.61 1296.65 447.894 1296.87 447.236C1297.48 445.414 1297.82 444.483 1299.63 443.73C1307.14 440.599 1326.17 442.644 1335.13 442.762C1336.79 443.5 1338.13 444.297 1339.48 445.528C1363.23 467.307 1385.51 491.133 1408.55 513.707C1416.83 521.823 1450.39 552.842 1454.82 559.941C1460.41 563.569 1465.5 569.376 1470.32 574.004C1486.17 589.238 1505.35 611.179 1522.2 623.838C1531.34 630.71 1541.54 636.474 1551.08 642.811Q1585.42 665.98 1620.49 688.02C1628.6 693.193 1647.59 703.342 1653.37 709.518C1660.32 709.472 1680.48 707.702 1685.9 710.905C1686.58 711.307 1686.48 711.968 1686.64 712.7C1686.44 712.935 1686.24 713.182 1686.02 713.405C1682.44 717.07 1666.94 715.643 1661.97 715.686C1668.68 718.32 1675.47 724.476 1682.41 725.677C1683.51 725.867 1682.86 725.71 1683.97 725.989L1685.72 726.437C1687.23 733.245 1687.53 788.555 1685.05 792.939L1342.96 793.418C1343.54 794.356 1344.02 795.368 1344.22 796.461C1345.56 803.699 1345.49 867.487 1342.98 871.502C1358.46 871.612 1415.67 869.939 1426.36 872.849C1427.35 873.118 1427.35 873.643 1427.84 874.488C1427.23 876.57 1427.42 876.875 1425.5 878.057C1387.32 878.442 1349.11 878.093 1310.93 878.044C1291.12 878.019 1270.99 878.972 1251.22 878.194C1248.02 878.069 1244.65 877.916 1241.68 876.636L1241.12 874.992C1241.49 874.489 1241.86 874.018 1242.32 873.591C1245.77 870.393 1287.62 871.922 1295.41 871.86C1296.01 871.042 1296.42 870.236 1296.71 869.255C1298.71 862.465 1297.66 807.148 1296.56 797.661C1296.38 796.162 1295.85 794.908 1295.05 793.635C1225.21 792.174 1155.19 793.392 1085.33 793.178L534.224 793.742L534.053 872.018C543.07 872.084 586.057 870.875 590.995 873.361C591.691 873.711 591.661 874.309 591.903 875.012C591.184 876.241 590.94 876.993 589.514 877.518C587.233 878.358 408.621 879.332 403.278 877.182C401.97 876.656 402.011 876.152 401.434 874.884L402.306 873.594C409.435 870.089 474.098 872.136 488.123 872.076C488.221 845.925 489.079 819.765 489.381 793.612L157.686 792.845C158.329 777.325 156.327 744.273 158.688 731.32C158.79 730.76 158.88 729.65 159.166 729.199C159.334 728.935 181.335 714.732 183.483 713.222C176.305 713.235 165.441 714.666 158.742 712.628C157.998 712.402 157.869 711.642 157.519 710.983L158.488 709.74C166.469 706.217 181.78 708.565 190.58 708.839C216.788 689.183 245.741 672.575 272.782 653.998C299.424 635.695 323.873 614.976 347.895 593.403C383.226 561.673 416.851 527.045 449.606 492.667Q460.546 481.225 471.132 469.456C478.948 460.659 487.153 448.703 497.097 442.376Z"/>
	<path fill="#FFFFFA" d="M1342 715.105L1344.57 714.887C1346.26 715.834 1346.43 715.971 1346.94 717.87C1347.73 720.765 1346.46 725.044 1345.03 727.567L1343.39 727.89C1341.65 725.267 1342.4 718.53 1342 715.105Z"/>
	<path fill="#FFFFFA" d="M365.231 712.834C368.629 712.841 372.217 712.013 375.475 713.158L376.073 714.526L374.26 718.266C372.538 719.607 372.289 719.791 370.129 719.96C367.592 718.494 366.516 715.37 365.231 712.834Z"/>
	<path fill="#FFFFFA" d="M1310.61 715.997C1312.65 715.516 1314.66 715.377 1316.74 715.216C1317.48 715.603 1318.88 716.064 1319.28 716.792C1320.89 719.76 1319.49 723.641 1318.55 726.674C1316.17 725.64 1312.75 718.338 1310.61 715.997Z"/>
	<path fill="#FFFFFA" d="M384.609 713.639C385.784 714.966 386.166 718.002 386.27 719.802C386.38 721.717 385.736 723.88 384.372 725.279C382.84 726.851 379.931 726.352 377.828 726.415L377.221 725.785C377.385 722.288 382.529 716.609 384.609 713.639Z"/>
	<path fill="#FFFFFA" d="M1102.61 715.096C1104.18 714.957 1105.32 714.998 1106.87 715.291C1107.74 716.295 1108.6 716.881 1108.71 718.257C1108.97 721.492 1106.54 724.446 1104.5 726.688L1104.22 728.308L1102.99 728.271C1101.49 724.339 1101.85 719.173 1102.61 715.096Z"/>
	<path fill="#FFFFFA" d="M1129.94 694.658C1131.61 696.289 1132.26 699.921 1132.5 702.286C1132.7 704.239 1132.29 706.626 1130.95 708.141C1129.39 709.898 1126.5 709.28 1124.28 709.301L1123.81 708.933C1123.31 706.229 1128.65 697.587 1129.94 694.658Z"/>
	<path fill="#FFFFFA" d="M511.88 713.548C514.598 713.408 517.169 713.011 519.676 714.261C520.256 717.366 517.74 721.215 516.428 724.144L514.839 727.27L513.595 727.635C513.454 727.501 513.29 727.386 513.17 727.232C511.049 724.523 511.837 716.981 511.88 713.548Z"/>
	<path fill="#FFFFFA" d="M1451.47 715.106C1452.4 715.113 1453.35 715.329 1454.27 715.471C1455.53 716.951 1456.87 718.491 1457.88 720.153C1459.59 722.944 1461.07 725.255 1460.31 728.435L1451.24 728.432C1452.3 724.038 1451.77 719.567 1451.47 715.106Z"/>
	<path fill="#FFFFFA" d="M913.024 715.447L927.654 715.486C926.229 718.157 924.632 720.763 923.121 723.389C922.372 724.53 921.637 725.252 920.627 726.145C917.178 724.651 914.835 718.657 913.024 715.447Z"/>
	<path fill="#FFFFFA" d="M445.776 712.204C451.356 714.487 453.47 721.167 455.981 726.349C451.954 726.49 448.974 727.077 445.739 724.402C444.31 721.032 445.443 715.822 445.776 712.204Z"/>
	<path fill="#FFFFFA" d="M552.705 713.38C555.598 713.342 559.681 712.604 562.145 714.249C562.48 717.001 559.804 720.814 558.505 723.252C557.233 725.15 556.691 726.39 554.566 727.45L553.544 726.7C552.13 722.585 552.653 717.692 552.705 713.38Z"/>
	<path fill="#FFFFFA" d="M1618.51 715.998C1620.91 715.679 1622.54 716.214 1624.64 717.402C1626.67 718.548 1628.33 720.145 1628.87 722.495C1629.29 724.314 1628.23 726.008 1627.41 727.557C1627.25 727.632 1627.09 727.728 1626.92 727.784C1624.84 728.466 1622.53 728.493 1620.61 727.627C1618.81 724.37 1619.44 720.328 1618.67 716.702L1618.51 715.998Z"/>
	<path fill="#FFFFFA" d="M728.77 714.26C730.622 715.339 731.453 717.111 732.505 718.921C733.866 721.264 735.507 724.096 734.79 726.88L731.451 727.366C729.993 727.395 728.422 727.508 726.973 727.352C724.748 727.112 724.337 726.983 722.988 725.22C723.165 721.534 726.764 717.334 728.77 714.26Z"/>
	<path fill="#FFFFFA" d="M793.232 713.623C799.593 715.769 801.967 721.993 805.247 727.509L793.217 727.626L793.232 713.623Z"/>
	<path fill="#FFFFFA" d="M352.571 712.135C353.531 712.255 354.415 712.366 355.339 712.67C359.936 714.181 362.818 722.061 364.952 726.158L352.538 726.213L352.571 712.135Z"/>
	<path fill="#FFFFFA" d="M222.881 713.635C223.759 717.452 223.241 722.241 223.256 726.183L206.865 726.195L207 724.968C211.614 720.611 217.599 717.166 222.881 713.635Z"/>
	<path fill="#FFFFFA" d="M1123.52 715.992C1125.42 715.614 1127.33 715.484 1129.25 715.32C1131.24 716.494 1132.59 717.924 1133.09 720.345C1133.54 722.457 1132.53 726.194 1131.14 727.819C1130.23 728.878 1128.11 728.58 1126.72 728.636L1123.19 728.302C1118.35 724.785 1124.64 721.081 1123.52 715.992Z"/>
	<path fill="#FFFFFA" d="M998.626 715.186C1000.51 715.157 1002.24 715.346 1004.1 715.659C1008.01 718.743 1010.15 723.883 1012.75 728.074L998.609 728.101L998.626 715.186Z"/>
	<path fill="#FFFFFA" d="M1013.47 715.093L1029.07 715.157C1028.89 718.524 1026.3 721.756 1024.53 724.568C1023.92 725.802 1023.13 726.592 1022.17 727.546L1020.16 727.211C1016.91 724.641 1014.11 719.183 1013.47 715.093Z"/>
	<path fill="#FFFFFA" d="M1285.82 715.997C1288.29 715.648 1292.49 714.63 1294.8 715.687C1295.97 716.222 1296.97 716.95 1297.45 718.146C1298.51 720.787 1296.94 724.953 1295.85 727.387C1295.59 727.56 1295.36 727.765 1295.08 727.904C1292.78 729.077 1290.21 728.774 1288.11 727.667C1286.37 723.93 1286.72 719.988 1285.82 715.997Z"/>
	<path fill="#FFFFFA" d="M1389.65 715.11L1394.46 714.955C1396.23 716.239 1397.26 717.603 1397.85 719.776C1398.56 722.406 1397.25 724.577 1396.04 726.805C1393.43 728.718 1391.95 728.205 1388.77 728.164L1385.34 728.018L1384.3 726.883C1384.12 722.834 1387.48 718.397 1389.65 715.11Z"/>
	<path fill="#FFFFFA" d="M703.504 714.056L714.299 714.396L714.416 727.563L703.388 727.668L703.504 714.056Z"/>
	<path fill="#FFFFFA" d="M1303.26 747.999C1307.42 747.725 1312.66 746.896 1316.77 747.67C1319.16 748.121 1319.57 748.446 1320.89 750.303C1320.63 752.68 1320.16 754.039 1318.79 756.002C1318.27 756.194 1318.13 756.262 1317.51 756.378C1314.22 756.988 1308.34 757.891 1305.65 755.788C1303.34 753.978 1303.55 750.758 1303.26 747.999Z"/>
	<path fill="#FFFFFA" d="M805.281 714.628L824.191 714.784L819.275 723.748L817.766 726.384C815.951 727.356 815.968 727.504 813.836 727.038C809.998 724.057 807.676 718.796 805.281 714.628Z"/>
	<path fill="#FFFFFA" d="M703.94 687.897C709.219 693.061 713.623 702.315 717.625 708.613L703.643 708.699Q703.538 698.294 703.94 687.897Z"/>
	<path fill="#FFFFFA" d="M536.526 713.322C539.036 713.174 541.261 712.864 543.639 713.861C544.893 715.25 546.125 716.688 546.36 718.617C546.674 721.194 546.227 725.167 544.588 727.216C542.876 727.307 540.933 727.548 539.236 727.357C537.359 727.147 536.552 726.419 535.467 724.952C533.321 722.051 534.51 718.194 535.047 714.902C535.204 713.941 535.764 713.868 536.526 713.322Z"/>
	<path fill="#FFFFFA" d="M832.613 714.708C834.926 714.615 836.826 714.4 838.981 715.418C840.102 717.052 841.144 718.677 841.363 720.696C841.629 723.145 840.659 725.531 839.13 727.387L835.573 727.697L824.673 727.522L832.613 714.708Z"/>
	<path fill="#FFFFFA" d="M1201.22 715.997C1202.44 715.824 1203.86 715.546 1205.09 715.623C1207.59 715.779 1210.33 719.152 1211.75 721.044C1213.35 723.192 1213.03 724.607 1212.71 727.076C1210.38 728.826 1208.54 728.256 1205.71 728.212L1193.64 728.206C1197.06 725.112 1200.02 720.464 1201.22 715.997Z"/>
	<path fill="#FFFFFA" d="M895.787 715.304C898.113 715.216 900.882 714.921 903.156 715.423C907.899 716.468 910.747 724.053 912.795 727.959L895.83 728.002L895.787 715.304Z"/>
	<path fill="#FFFFFA" d="M1553.41 715.111C1557.78 714.531 1562.46 714.81 1566.87 714.772C1567.61 715.99 1568 716.994 1568.24 718.41C1568.89 722.251 1568.7 725.28 1566.42 728.445C1564.34 728.761 1562.6 728.739 1560.52 728.488C1556.59 725.838 1555.04 719.434 1553.41 715.111Z"/>
	<path fill="#FFFFFA" d="M627.419 714.536C629.215 714.494 630.762 714.603 632.517 714.996C634.925 717.216 638.488 720.022 639.466 723.243C640.001 725.001 639.959 725.251 639.094 726.833L634.734 727L618.964 727.106C622.322 723.043 625.057 719.297 627.419 714.536Z"/>
	<path fill="#FFFFFA" d="M512.299 746.791L527.882 746.796L527.828 757.957L512.12 757.956C512.057 754.248 512.236 750.502 512.299 746.791Z"/>
	<path fill="#FFFFFA" d="M1477.37 715.11C1480.67 714.707 1484.12 714.799 1487.46 714.72Q1487.71 715.654 1487.94 716.595C1488.69 719.678 1489.78 723.961 1488.03 726.823C1485.47 728.699 1484.23 728.358 1481.11 728.444L1471.09 728.448C1473.89 724.792 1476.83 719.737 1477.37 715.11Z"/>
	<path fill="#FFFFFA" d="M600.482 713.569C604.074 713.523 609.711 712.691 613.095 713.761C614.85 714.315 614.996 714.979 615.834 716.487C616.038 719.718 614.458 722.689 613.258 725.612L612.557 726.3C609.01 727.598 604.311 726.996 600.543 726.943L600.482 713.569Z"/>
	<path fill="#FFFFFA" d="M935.326 715.42L946.912 715.359C947.045 718.852 948.058 724.936 945.897 727.83L943.103 728.183L927.826 728.193C930.194 723.871 932.817 719.662 935.326 715.42Z"/>
	<path fill="#FFFFFA" d="M1214.36 715.996C1220.57 714.84 1227.46 715.336 1233.79 715.345C1234.11 715.89 1234.4 716.394 1234.62 716.991C1236 720.737 1235.3 724.096 1233.7 727.559C1230.72 728.984 1224.5 728.128 1221.1 728.099C1221 724.061 1216.86 719.1 1214.36 715.996Z"/>
	<path fill="#FFFFFA" d="M526.855 482.569L527.645 483.642C528.885 500.91 523.282 508.408 515.587 523.173L514.567 521.813C514.145 502.621 515.388 498.136 526.855 482.569Z"/>
	<path fill="#FFFFFA" d="M511.699 793.681L528.074 793.639C525.283 801.617 520.933 809.459 517.319 817.121C515.506 820.739 513.51 824.271 511.57 827.822C511.387 816.45 511.619 805.055 511.699 793.681Z"/>
	<path fill="#FFFFFA" d="M1052.8 715.111C1055.39 715.035 1055.92 714.8 1058 716.267C1059.81 720.134 1058.58 724.567 1057.38 728.465L1033.3 728.551C1032.38 728.535 1031.75 728.24 1030.89 727.918C1031.2 723.383 1036.21 720.042 1036.74 715.264L1052.8 715.111Z"/>
	<path fill="#FFFFFA" d="M1303.33 794.221C1308.78 793.547 1314.43 793.808 1319.91 793.791C1320.59 794.842 1320.97 795.639 1321.19 796.883C1322.23 802.736 1323.1 820.475 1319.79 825.202C1318.44 815.577 1304.31 805.558 1303.33 794.221Z"/>
	<path fill="#FFFFFA" d="M1352.72 715.11C1362.02 714.058 1371.83 714.73 1381.19 714.787C1381.22 715.098 1381.26 715.409 1381.28 715.721C1381.43 719.042 1378.99 721.702 1376.9 723.962L1376.63 726.219C1372.32 730.195 1357.78 728.253 1351.78 728.154C1354.22 724.063 1353.5 719.572 1352.72 715.11Z"/>
	<path fill="#FFFFFA" d="M571.532 713.027C578.863 713.018 586.211 713.251 593.543 713.371C593.686 716.965 594.761 723.485 592.372 726.422L589.412 726.685C581.105 726.671 572.788 726.862 564.482 726.959C566.706 722.259 569.163 717.656 571.532 713.027Z"/>
	<path fill="#FFFFFA" d="M1242.42 715.111L1264.78 715.217C1267.42 717.042 1269.67 720.808 1270.95 723.694C1271.91 725.877 1271.77 725.971 1270.93 728.127C1261.05 728.694 1250.78 728.202 1240.86 728.213C1243.03 724.511 1242.41 719.295 1242.42 715.111Z"/>
	<path fill="#FFFFFA" d="M1241.02 675.103C1241.78 675.263 1242.54 675.718 1243.25 676.046C1246.87 681.791 1260.65 701.874 1261.76 707.577C1261.83 707.987 1261.39 709.303 1261.28 709.779C1254.91 710.945 1247.14 710.119 1240.6 710.088C1243.85 703.892 1242.7 682.273 1241.02 675.103Z"/>
	<path fill="#FFFFFA" d="M456.399 712.803C467.339 712.621 478.301 712.814 489.243 712.859L489.221 726.697C480.559 726.955 471.804 726.565 463.134 726.436L456.399 712.803Z"/>
	<path fill="#FFFFFA" d="M1064.98 715.101C1074.5 714.11 1084.53 714.731 1094.11 714.738C1095.04 716.308 1095.41 717.733 1095.64 719.528C1096.09 723.121 1095.56 725.648 1093.35 728.447C1084.27 729.594 1073.27 728.461 1064.05 728.272C1066.22 724.026 1065.77 719.656 1064.98 715.101Z"/>
	<path fill="#FFFFFA" d="M592.992 668.122C595.616 676.315 593.706 698.963 593.578 708.47L574.463 708.423C573.839 704.545 589.831 673.834 592.992 668.122Z"/>
	<path fill="#FFFFFA" d="M526.679 515.456C528.86 518.246 527.76 542.568 527.755 547.554C522.869 554.745 518.931 562.738 514.753 570.361L513.967 569.662C511.149 546.409 516.602 535.408 526.679 515.456Z"/>
	<path fill="#BDBDBD" d="M1302.96 476.885L1305.14 477.653C1308.8 481.949 1318.55 492.071 1318.74 497.416C1318.81 497.541 1318.89 497.662 1318.95 497.79C1321.08 501.942 1320.92 522.205 1319.6 526.673C1312.85 522.383 1309.67 507.794 1302.46 502.743C1305.11 496.822 1303.92 483.341 1302.96 476.885Z"/>
	<path fill="#FFFFFA" d="M953.599 714.947L991.711 714.874L991.738 728.166L953.521 728.183L953.599 714.947Z"/>
	<path fill="#FFFFFA" d="M527.401 560.645C528.209 564.92 527.822 570.112 527.921 574.488C528.411 596.203 524.325 604.137 514.176 622.522C514.112 622.338 514.035 622.158 513.985 621.971C512.985 618.26 513.364 612.916 513.256 609.019C512.656 587.417 517.081 578.96 527.401 560.645Z"/>
	<path fill="#FFFFFA" d="M527.398 611.305C529.524 621.217 527.88 636.431 527.838 646.822C522.697 655.181 518.199 663.899 513.617 672.571C513.473 672.238 513.213 671.684 513.11 671.303C512.245 668.094 512.56 663.777 512.448 660.376C511.795 640.548 518.309 628.254 527.398 611.305Z"/>
	<path fill="#FFFFFA" d="M527.45 660.174C529.184 667.363 529.494 701.674 525.825 707.831C521.854 709.121 517.002 708.598 512.851 708.571C509.314 690.182 519.423 675.658 527.45 660.174Z"/>
	<path fill="#FFFFFA" d="M1574.01 715.11C1586.35 713.674 1599.73 714.706 1612.18 714.768C1612.87 715.78 1613.16 716.678 1613.41 717.889C1614.07 721.189 1614.06 724.749 1612.22 727.657C1605.26 729.961 1581.8 728.575 1573.23 728.549C1575.46 724.504 1574.72 719.47 1574.01 715.11Z"/>
	<path fill="#FFFFFA" d="M1303.48 515.998L1304.83 516.686C1308.49 522.105 1318.34 533.302 1319.3 539.356C1321.63 544.001 1321.29 568.392 1319.51 573.78C1302.88 540.544 1304.41 555.123 1303.48 515.998Z"/>
	<path fill="#FFFFFA" d="M846.768 714.707Q868.146 714.727 889.518 715.199L889.645 728.128L846.869 727.964L846.768 714.707Z"/>
	<path fill="#FFFFFA" d="M1402.65 715.11C1415.94 713.447 1430.83 714.686 1444.3 714.733C1444.78 715.489 1445.05 716.09 1445.26 716.978C1446.04 720.398 1446.13 724.512 1444.29 727.591C1439.22 730.005 1409.38 728.449 1401.71 728.403C1403.86 724.134 1403.61 719.674 1402.65 715.11Z"/>
	<path fill="#FFFFFA" d="M1303.14 660.885L1305.12 661.63C1308.67 666.388 1318.26 679.925 1318.43 685.47C1319.09 686.594 1319.42 687.595 1319.57 688.897C1320.14 693.901 1321.23 705.345 1318.1 709.36C1317.39 709.67 1317.76 709.551 1316.79 709.712C1313.84 710.199 1310.21 710.914 1307.77 708.771C1300.37 702.275 1304.53 671.843 1303.24 661.686L1303.14 660.885Z"/>
	<path fill="#FFFFFA" d="M1360.57 514.63L1362.46 513.162C1372.46 515.451 1390.41 533.887 1399.45 534.255C1400.37 534.588 1401.09 534.901 1401.87 535.507C1408.06 540.295 1445.73 575.722 1446.36 580.273C1442.11 574.732 1406.15 550.567 1397.94 544.319C1385.29 534.685 1373.25 524.135 1360.57 514.63Z"/>
	<path fill="#BDBDBD" d="M715.126 728.878C715.307 730.242 715.598 731.591 715.861 732.941C719.529 734.911 858.742 733.455 873.59 733.453C883.021 733.452 908.061 731.687 915.278 734.641C911.752 737.137 861.756 735.756 853.569 735.742C832.417 735.669 657.92 737.427 650.999 734.557L651.027 733.907C660.409 730.493 696.647 735.619 710.056 733.159C713.05 732.609 713.593 731.19 715.126 728.878Z"/>
	<path fill="#BDBDBD" d="M1262.78 503.046C1268.22 499.651 1293.21 480.416 1295 475.252C1295.05 475.097 1295.07 474.932 1295.11 474.772C1297.24 479.115 1297.96 506.108 1296.63 510.65C1296.49 511.103 1296.13 511.763 1295.94 512.146C1284.89 510.151 1273.7 503.86 1262.78 503.046Z"/>
	<path fill="#FFFFFA" d="M738.044 714.149C754.235 713.353 770.776 714.063 787.005 714.078L786.931 727.677L744.969 727.484C741.732 723.35 738.586 719.536 738.044 714.149Z"/>
	<path fill="#FFFFFA" d="M392.45 712.776L438.999 712.814L439.028 726.284L392.405 726.307L392.45 712.776Z"/>
	<path fill="#FFFFFA" d="M230.468 712.838L282.852 712.785L278.048 722.243L277.239 723.969C271.983 727.618 238.802 725.761 230.499 725.789L230.468 712.838Z"/>
	<path fill="#FFFFFA" d="M1303.22 611.107L1304.65 611.489C1308.6 615.586 1312.21 621.534 1314.75 626.615C1320.11 637.372 1323.41 659.678 1319.51 671.563C1313.88 668.944 1308.76 651.916 1302.56 647.181C1305.39 641.158 1304.27 618.367 1303.22 611.107Z"/>
	<path fill="#FFFFFA" d="M1303.05 561.327L1304.68 561.687C1308.51 565.207 1311.86 570.79 1314.3 575.371C1316.5 579.507 1318.52 584.177 1319.54 588.76C1321.25 596.411 1321.9 616.005 1319.6 623.559C1308.05 609.635 1303.73 596.389 1303.74 578.622C1303.74 573.172 1304.15 567.432 1303.19 562.051L1303.05 561.327Z"/>
	<path fill="#FFFFFA" d="M294.618 712.913L345.42 712.638L345.364 726.221C328.47 725.572 311.467 726.049 294.56 726.162L294.618 712.913Z"/>
	<path fill="#FFFFFA" d="M1138.16 715.991C1148.43 713.252 1181.07 715.198 1193.53 715.27C1193.56 715.448 1193.62 715.624 1193.62 715.805C1193.65 718.693 1190.37 722.038 1188.52 723.977C1188.52 724.93 1188.08 725.893 1187.79 726.798C1183.34 730.391 1146.22 728.263 1137.86 728.194C1137.99 727.922 1138.14 727.652 1138.27 727.377C1140.08 723.591 1139.42 719.801 1138.16 715.991Z"/>
	<path fill="#FFFFFA" d="M640.754 714.041C659.363 713.377 678.112 713.844 696.737 713.859L696.678 727.898Q672.994 727.431 649.306 727.436C646.285 723.047 643.359 718.697 640.754 714.041Z"/>
	<path fill="#FFFFFA" d="M1494.35 715.11C1510.87 713.986 1527.81 714.75 1544.37 714.787C1547.76 717.412 1549.85 722.505 1550.82 726.591L1549.32 728.309Q1521.46 728.209 1493.6 728.517C1495.76 724.773 1494.95 719.233 1494.35 715.11Z"/>
	<path fill="#FFFFFA" d="M697.206 592.635C698.302 600.744 697.623 609.635 697.604 617.827L697.508 663.965L689.142 651.09Q683.034 640.726 676.765 630.459C683.753 617.945 690.085 605.086 697.206 592.635Z"/>
	<path fill="#FFFFFA" d="M600.786 658.37C603.323 660.273 628.865 704.471 629.594 708.299C619.872 708.759 609.999 708.432 600.26 708.454Q600.223 683.409 600.786 658.37Z"/>
	<path fill="#BDBDBD" d="M1339.46 474.711C1343.62 477.035 1398.86 531.894 1399.26 533.393C1399.33 533.677 1399.39 533.967 1399.45 534.255C1390.41 533.887 1372.46 515.451 1362.46 513.162L1360.57 514.63C1356.41 509.703 1345.87 498.793 1340.24 496.073C1341.79 490.765 1342.1 479.627 1339.46 474.711Z"/>
	<path fill="#FFFFFA" d="M527.156 811.256C529.578 818.277 527.76 861.651 527.678 872.056L511.234 871.962C509.236 862.939 510.872 850.68 511.042 841.347C516.945 831.591 522.009 821.422 527.156 811.256Z"/>
	<path fill="#FFFFFA" d="M1233.64 657.327L1234.91 658.495C1236.05 665.94 1236.7 704.469 1233.93 710.008C1227.94 710.134 1215.86 711.7 1210.72 708.615C1210.62 707.918 1210.22 707.192 1209.98 706.516C1207.23 698.688 1229.09 667.287 1233.34 657.986L1233.64 657.327Z"/>
	<path fill="#FFFFFA" d="M1303.27 811.997L1304.65 812.437C1308.24 816.314 1319.87 832.437 1320.32 836.933C1320.75 837.78 1321.08 838.621 1321.23 839.568C1322.1 845.231 1323.12 866.801 1319.85 871.057C1317.15 872.853 1305.86 871.83 1302.26 871.804C1305.22 867.022 1304.1 820.135 1303.27 811.997Z"/>
	<path fill="#FFFFFA" d="M1135.38 589.768L1136.15 589.944C1139.83 592.762 1157.08 624.584 1159.14 630.865C1157.01 637.66 1150.69 650.071 1145.2 654.665C1145.28 655.306 1145.32 655.321 1145.18 656.067C1144.37 660.432 1139.39 666.787 1135.94 669.478C1136.12 669.129 1136.3 668.779 1136.45 668.418C1138.23 664.17 1137.23 594.436 1135.38 589.768Z"/>
	<path fill="#FFFFFA" d="M837.861 592.26C855.223 593.536 872.625 594.187 889.973 595.657Q882.22 610.105 874.266 624.444C871.345 629.38 868.939 634.792 866.376 639.933C860.394 630.433 840.692 601.48 837.861 592.26Z"/>
	<path fill="#FFFFFA" d="M995.951 592.453L997.506 592.2L997.922 593.331C989.683 609.418 980.121 624.887 971.221 640.623L963.243 626.237C957.91 615.966 951.706 606.198 946.679 595.756Q971.305 593.95 995.951 592.453Z"/>
	<path fill="#FFFFFA" d="M490.444 475.428C493.024 478.522 491.403 496.11 491.343 500.921C460.389 531.019 431.159 553.315 395.074 577.063C394.472 576.655 394.777 576.965 394.465 575.91C426.772 542.673 459.546 510.009 490.444 475.428Z"/>
	<path fill="#FFFFFA" d="M313.716 653.283L314.01 653.55C314.135 654.015 314.439 654.466 314.384 654.944C314.176 656.761 289.704 701.688 286.259 708.411L232.919 708.452C232.427 708.054 232.462 707.68 232.298 707.085C241.106 700.269 251.125 694.47 260.46 688.353L313.716 653.283Z"/>
	<path fill="#FFFFFA" d="M1419.44 652.887C1420.26 653.357 1420.89 653.666 1421.46 654.443C1425.57 659.962 1428.48 668.19 1431.74 674.353C1437.18 684.642 1444.79 695.615 1448.97 706.387C1449.32 707.303 1449.26 708.347 1449.14 709.303L1421.65 709.283L1390.98 709.191C1397.45 704.38 1415.41 662.422 1419.44 652.887Z"/>
	<path fill="#FFFFFA" d="M417.209 653.711C420.726 656.041 442.354 700.421 446.844 708.381L417.827 708.421L387.176 708.315L417.209 653.711Z"/>
	<path fill="#FFFFFA" d="M762.593 654.794C766.814 660.369 770.168 667.314 773.661 673.415L794.069 709.17L763.772 709.181L732.46 708.909Q747.183 681.66 762.593 654.794Z"/>
	<path fill="#FFFFFA" d="M1071.32 657.305C1072.98 657.593 1073.48 657.557 1074.62 658.905C1078.83 663.848 1103.29 705.002 1102.94 709.449L1071.52 709.436L1039.54 709.402C1043.52 706.27 1070.36 662.585 1071.32 657.305Z"/>
	<path fill="#FFFFFA" d="M465.49 550.363C463.976 556.915 449.712 579.079 445.638 586.466Q431.514 612.123 418.166 638.192L412.078 625.554L398.04 597.93C421.68 583.805 443.432 566.79 465.49 550.363Z"/>
	<path fill="#FFFFFA" d="M1372.5 552.44C1374.79 552.477 1376.42 553.251 1378.37 554.413C1388.91 560.7 1398.63 568.859 1408.62 575.996C1417.86 582.592 1430.12 589.403 1437.94 597.451C1437.97 597.763 1437.98 597.736 1437.96 598.119C1437.65 604.402 1429.9 620.309 1425.18 624.451C1425.2 624.611 1425.25 624.77 1425.26 624.932C1425.51 628.983 1421.28 635.198 1418.72 638.162C1418.72 638.053 1418.73 637.943 1418.73 637.834C1418.74 632.764 1378.13 558.26 1372.5 552.44Z"/>
	<path fill="#FFFFFA" d="M970.899 653.09C975.683 657.728 996.921 700.246 1002.18 709.447L969.985 709.507L938.431 709.506C941.354 702.992 945.659 696.611 949.222 690.4Q959.883 671.642 970.899 653.09Z"/>
	<path fill="#FFFFFA" d="M866.136 652.976C869.969 655.795 895.876 701.617 900.999 709.542L870.722 709.51L834.936 709.449Q851.035 681.488 866.136 652.976Z"/>
	<path fill="#FFFFFA" d="M1519.75 651.108C1520.46 651.061 1521.15 651.044 1521.85 651.202C1526.44 652.238 1608.93 704.88 1611.69 708.89C1606.89 710.705 1557.73 709.22 1548.7 709.172C1548.74 708.852 1548.86 708.23 1548.83 707.864C1548.52 704.383 1522.57 653.778 1519.75 651.108Z"/>
	<path fill="#FFFFFA" d="M326.423 645.958C332.698 653.276 350.4 695.997 356.157 708.149L323.776 708.445L293.837 708.459C297.283 700.262 301.917 692.28 305.973 684.357C312.578 671.454 318.95 658.388 326.423 645.958Z"/>
	<path fill="#FFFFFA" d="M1509.37 644.887L1511.04 645.767C1515.16 653.554 1542.12 704.513 1541.72 709.253L1513.19 709.201L1478.75 709.221C1478.9 709.079 1479.04 708.933 1479.19 708.794C1486.27 702.345 1503.93 657.313 1509.37 644.887Z"/>
	<path fill="#FFFFFA" d="M722.003 571.393C745.27 578.751 770.241 582.824 794.284 586.793Q784.503 603.679 775.208 620.838L762.925 641.843C749.732 618.293 733.87 595.587 722.003 571.393Z"/>
	<path fill="#FFFFFA" d="M1112.41 571.109C1113.07 571.528 1113.26 571.939 1113.66 572.59C1109.9 581.588 1077.63 638.927 1071.86 643.142C1071.92 642.573 1071.95 641.963 1071.86 641.397C1071.15 636.898 1064.09 625.506 1060.54 622.583C1060 617.239 1043.18 589.914 1038.93 586.196C1055 584.777 1097.69 576.137 1112.41 571.109Z"/>
	<path fill="#FFFFFA" d="M672.434 637.828C678.693 642.336 692.316 669.054 697.354 677.3L696.977 708.552L660.728 708.547L633.779 708.466C644.782 684.32 659.755 661.199 672.434 637.828Z"/>
	<path fill="#FFFFFA" d="M1163.05 637.775C1164.81 638.743 1198.43 697.212 1200.23 703.177C1200.24 703.446 1200.3 703.717 1200.26 703.982C1199.95 706.079 1197.91 708.227 1196.48 709.651L1174.6 709.648L1137 709.648C1137.45 708.913 1137.88 708.115 1138.1 707.274C1139.41 702.19 1139.5 685.082 1137.12 680.929C1143.63 675.595 1157.83 646.855 1163.05 637.775Z"/>
	<path fill="#FFFFFA" d="M617.491 531.961C643.541 545.297 670.597 555.498 698.276 564.881C698.854 579.444 689.64 592.248 682.965 604.736L672.862 623.77Q644.938 578.009 617.491 531.961Z"/>
	<path fill="#FFFFFA" d="M1341.94 747.998C1354.27 745.814 1371.11 747.441 1383.79 747.459L1473.84 747.517L1607.59 747.535C1628.66 747.5 1656.49 745.793 1676.84 747.871L1677.94 749.716C1677.89 752.097 1677.6 753.294 1676.18 755.219C1668.76 757.346 1635.98 756.199 1625.42 756.229L1497.25 756.459L1393.09 756.592C1377.32 756.609 1358.74 758.297 1343.37 756.112L1341.94 747.998Z"/>
	<path fill="#FFFFFA" d="M1215.83 531.996L1217.62 532.395L1217.67 533.695C1211.38 544.612 1166.6 620.822 1162.29 624.589C1162.34 624.183 1162.4 623.882 1162.36 623.484C1162.01 619.672 1156.33 610.926 1153.49 608.349C1153.59 601.111 1140.81 585.957 1137.62 578.198C1135.81 573.782 1137.36 568.988 1135.04 564.604C1151.02 561.146 1202.2 541.453 1215.83 531.996Z"/>
	<path fill="#FFFFFA" d="M174.115 746.723L489.536 746.752L489.53 757.915L480.105 757.994L255.806 758.213L192.964 758.227C183.913 758.23 173.405 759.303 164.527 757.987C163.653 757.857 163.489 757.184 162.991 756.499C164.625 752.595 170.81 749.208 174.115 746.723Z"/>
	<path fill="#FFFFFA" d="M1262.78 503.046C1273.7 503.86 1284.89 510.151 1295.94 512.146C1296.48 512.959 1296.88 513.743 1297.1 514.705C1298.26 519.661 1298.67 532.176 1296.2 536.448C1296.24 537.215 1296.28 537.721 1296.07 538.468C1293.95 545.826 1246.26 627.911 1241.2 631.096C1243.25 621.676 1243.46 526.018 1241.22 517.834C1247.93 515.49 1258.1 508.476 1262.78 503.046Z"/>
	<path fill="#FFFFFA" d="M1123.03 569.316L1125.36 569.469C1127.08 570.899 1128.09 572.433 1128.78 574.559C1129.71 577.416 1131.83 668.985 1131.23 676.444C1131.13 677.634 1130.68 678.735 1130.16 679.798C1130.2 680.19 1130.29 680.886 1130.23 681.318C1129.57 686.022 1115.34 708.813 1111.16 711.63C1111.19 711.183 1111.21 711.063 1111.19 710.568C1110.96 705.826 1104 695.544 1100.45 692.241C1100.55 687.485 1079.88 653.786 1076.06 649.524C1079.83 646.009 1121.72 573.419 1123.03 569.316Z"/>
	<path fill="#FFFFFA" d="M710.596 567.626C716.822 572.079 751.022 635.148 759.234 647.645C752.09 661.574 743.608 675.007 735.876 688.642Q730.484 698.601 724.929 708.469Q714.789 691.124 704.134 674.09L703.872 617.408C703.851 604.713 702.475 590.188 705.474 577.796C706.35 574.174 708.663 570.778 710.596 567.626Z"/>
	<path fill="#FFFFFA" d="M391.489 602.546C395.667 604.25 410.939 638.273 414.335 645.069C402.48 665.704 390.62 687.129 379.964 708.379C375.518 708.294 369.907 709.507 365.64 708.245C362.827 707.414 362.458 705.631 361.245 703.249L331.844 641.23C350.525 627.132 371.708 615.051 391.489 602.546Z"/>
	<path fill="#FFFFFA" d="M1443.48 601.332C1443.65 601.346 1443.83 601.343 1444 601.372C1446.23 601.756 1501.03 636.589 1503 639.624C1503.05 640.033 1503.11 640.477 1503.11 640.895C1503.15 646.058 1479.54 698.795 1475.6 702.667C1475.69 703.131 1475.74 703.231 1475.69 703.773C1475.46 706.105 1474.25 707.736 1472.65 709.33L1457.21 709.316C1455.42 703.028 1425.88 648.662 1421.81 645.34C1426.53 641.43 1441.4 608.463 1443.48 601.332Z"/>
	<path fill="#FFFFFA" d="M534.29 470.765C542.783 475.98 550.734 484.871 558.431 491.404C569.662 500.938 581.523 509.492 593.671 517.805Q594.205 575.547 593.792 633.29C586.949 627.861 543.081 545.845 534.219 530.142Q534.105 500.452 534.29 470.765Z"/>
	<path fill="#FFFFFA" d="M1295.31 552.44L1296.4 552.7C1296.74 553.216 1297.04 553.61 1297.15 554.24C1298.79 563.668 1297.36 592.052 1297.35 603.746C1297.32 637.283 1298.7 671.371 1297.3 704.824C1297.21 706.937 1296.96 708.392 1295.85 710.223L1269.49 710.215C1269.5 710.048 1269.54 709.882 1269.54 709.715C1269.46 705.772 1262.8 695.553 1259.81 692.889C1259.82 692.612 1259.86 692.073 1259.8 691.764C1258.93 686.998 1244.16 663.949 1240.65 661.197C1243.17 655.596 1240.24 649.242 1242.45 644.049C1246 635.73 1251.96 627.455 1256.64 619.688C1266.96 602.541 1277.49 585.485 1287.53 568.171C1290.35 563.309 1293.91 557.901 1295.31 552.44Z"/>
	<path fill="#FFFFFA" d="M534.266 546.344C538.013 549.374 588.191 638.881 594.457 649.489Q584.814 669.775 574.91 689.935L566.129 708.459C555.608 708.191 545.019 708.475 534.493 708.52L534.266 546.344Z"/>
	<path fill="#FFFFFA" d="M1232.81 523.106L1234.51 523.472C1234.68 523.786 1234.97 524.282 1235.09 524.65C1236.11 527.829 1235.85 627.73 1235.36 638.357C1235.28 640.143 1235.02 641.373 1234.1 642.95C1234.09 643.234 1234.09 643.518 1234.08 643.801C1233.91 646.429 1206.92 693.246 1204.02 695.965C1200.29 689.317 1196.15 679.156 1190.52 674.199C1190.55 674.014 1190.6 673.831 1190.6 673.644C1190.61 669.095 1169.79 633.984 1166.06 630.377C1171.39 626.348 1175.93 615.993 1179.48 610.054L1211.35 556.386C1217.95 545.272 1224.06 532.64 1232.81 523.106Z"/>
	<path fill="#FFFFFA" d="M600.637 522.619C603.108 523.724 604.965 525.682 606.566 527.818C615.354 539.54 622.525 553.429 630.15 565.978C643.144 587.361 656.594 608.598 669.09 630.272L645.851 672.371C641.019 680.948 636.488 689.716 631.842 698.396C624.088 683.507 606.327 658.164 601.65 644.151C598.621 635.073 600.62 539.867 600.637 522.619Z"/>
	<path fill="#FFFFFA" d="M1027.71 587.952C1030.04 587.675 1032.11 587.235 1034.37 588.078C1040.37 599.013 1067.77 641.377 1068.57 649.051C1068.58 649.406 1068.62 649.986 1068.55 650.367C1067.94 653.762 1035.43 707.299 1032.46 709.496L1013.75 709.523L1010.97 709.386C1005.04 705.811 979.503 655.686 974.552 646.449C985.531 628.243 996.213 609.997 1006.09 591.164C1013.22 589.763 1020.54 589.227 1027.71 587.952Z"/>
	<path fill="#FFFFFA" d="M896.047 595.878C910.551 595.861 925.072 596.182 939.576 596.338C949.66 611.947 958.413 629.557 967.109 646.02C957.099 665.96 945.376 685.199 934.13 704.468L931.222 709.612L908.374 709.678C894.935 688.995 882.517 667.695 870.009 646.444C877.551 629.206 887.632 612.746 896.047 595.878Z"/>
	<path fill="#FFFFFA" d="M799.802 588.03C809.811 588.836 819.836 590.526 829.789 591.874C840.841 610.015 852.162 628.013 862.358 646.653Q845.738 678.164 828.112 709.122Q814.513 709.02 800.918 708.639C790.211 688.239 778.107 668.349 766.656 648.345Q783.948 618.583 799.802 588.03Z"/>
	<path fill="#FFFFFA" d="M534.659 747.037L1035.97 747.387L1216.58 747.532C1240.9 747.592 1265.36 746.774 1289.65 747.428C1292.37 747.501 1294.93 747.311 1297.09 749.027C1297.34 751.259 1297.4 753.147 1297.04 755.368L1294.23 756.889C1285.06 757.433 1275.6 756.971 1266.4 756.983L1209.95 757.049L1040.84 757.191L534.535 757.911L534.659 747.037Z"/>
	<path fill="#FFFFFA" d="M490.234 529.571L490.773 530.032C492.663 533.692 489.508 689.511 489.504 708.409L453.982 708.436L443.249 688.394Q432.216 666.948 421.794 645.198C430.601 625.219 442.809 605.539 453.348 586.392C462.044 570.596 470.164 552.948 480.689 538.336C483.183 534.873 486.908 532.199 490.234 529.571Z"/>
	<path fill="#FFFFFA" d="M1341.53 524.887C1345.99 526.009 1355.07 535.092 1357.88 538.772C1364.57 547.54 1416.09 640.501 1415.38 645.463C1415.43 645.784 1415.55 646.423 1415.52 646.791C1415.24 650.253 1398.16 685.068 1394.81 688.439C1394.86 688.752 1394.96 689.227 1394.93 689.568C1394.65 693.753 1387.73 706.244 1384.67 709.117C1370.14 709.394 1355.57 709.236 1341.03 709.291Q1341.62 708.284 1341.97 707.171Q1342.31 706.057 1342.4 704.894C1343.84 684.25 1342.24 662.554 1342.09 641.81L1341.53 524.887Z"/>
</svg>
