<?xml version="1.0" encoding="utf-8" ?>
<svg xmlns="http://www.w3.org/2000/svg" xmlns:xlink="http://www.w3.org/1999/xlink" width="1024" height="1024">
	<path d="M573.018 62.7258C573.215 62.872 573.434 62.9934 573.61 63.1646C577.6 67.036 574.41 86.6049 574.328 92.5139C575.557 87.0616 576.642 81.4579 578.329 76.1291C578.95 74.1667 579.708 71.0915 581.63 70.092L582.42 70.5085C585.756 76.491 581.362 84.4889 581.741 90.8032C583.181 89.3376 586.056 78.6803 588.357 75.3112C589.17 74.1209 589.632 73.6964 591.024 73.3816L591.733 74.16C593.913 82.7807 589.794 94.4123 587.537 102.717C589.417 98.6991 594.287 85.4612 598.303 83.8607L598.843 84.6962C599.854 94.4414 596.483 104.28 593.4 113.417C596.037 109.339 599.548 103.25 603.626 100.484C604.378 99.9735 604.45 99.9106 605.361 100.096C605.607 100.613 605.65 100.627 605.75 101.29C606.76 108.04 596.496 127.159 592.886 132.82C597.438 128.579 601.656 123.788 606.478 119.866C607.696 118.875 608.604 118.183 610.192 118.339C610.399 118.876 610.465 118.936 610.48 119.603C610.655 127.268 593.713 146.495 588.56 152.465C592.424 149.641 596.348 146.846 600.042 143.802C605.417 139.374 610.421 134.442 616.627 131.186C610.481 145.328 599.623 155.548 587.565 164.764C595.615 161.469 603.115 156.649 611.354 153.935C604.775 164.671 594.358 169.581 584.822 177.04L584.362 177.405C592.507 173.799 599.627 170.753 608.587 169.883L608.339 170.186L607.918 170.685C600.231 179.944 588.574 184.798 578.675 191.222C584.099 189.778 589.523 188.272 594.979 186.953C597.432 186.359 601.72 185.168 603.955 186.517L603.897 187.447C598.921 193.693 585.133 198.944 577.82 202.685C579.871 202.112 581.949 201.694 584.045 201.328C588.072 200.624 598.035 198.998 601.304 201.297C601.247 201.504 601.212 201.719 601.133 201.92C598.606 208.355 575.912 211.076 569.582 213.671C569.445 213.727 569.309 213.788 569.172 213.847C578.498 213.005 588.292 211.059 597.583 212.803C583.831 223.547 560.748 223.086 543.962 223.467C555.484 236.159 568.21 247.574 581.381 258.536C590.798 266.374 601.075 272.971 608.811 282.637L599.599 280.928C594.644 280.021 589.879 278.81 585.108 277.192C589.298 279.48 593.642 281.7 597.418 284.64C599.273 286.085 601.654 287.792 601.946 290.22L600.903 290.864C592.271 291.512 580.377 284.892 572.38 281.663C577.956 285.189 583.902 288.927 588.923 293.223C590.415 294.5 592.036 295.843 592.19 297.874L591.063 298.395C582.908 298.136 572 292.414 565.089 288.367C571.595 294.285 577.952 299.397 583.686 306.193C571.692 303.191 561.744 296.904 550.993 291.05C544.631 287.586 538.136 284.403 531.731 281.023C503.897 266.335 475.252 249.271 465.533 217.107C461.268 202.992 461.092 191.253 468.068 178.175C463.446 177.142 458.87 176.403 454.426 174.705C455.732 172.379 457.063 170.105 458.658 167.961C462.821 162.366 469.013 156.639 476.212 155.8C480.44 155.307 484.94 156.351 488.24 159.113C493.214 163.275 495.147 169.906 495.706 176.121C511.48 160.852 512.141 150.923 521.15 132.667C522.02 143.426 519.328 152.124 516.761 162.424C523.869 147.422 525.838 132.673 531.483 117.575C532.922 127.976 530.942 139.309 530.046 149.725C531.581 144.95 533.017 140.174 534.026 135.253C535.985 125.692 536.199 115.132 541.557 106.698C543.629 114.09 543.568 121.821 543.335 129.425C544.778 125.894 545.138 121.326 545.751 117.533C547.388 107.418 548.352 96.4967 551.454 86.7387C554.883 93.4406 554.318 106.788 555.722 109.004C556.791 99.4686 556.599 89.7607 557.843 80.2481C558.128 78.0722 558.536 74.6212 560.322 73.2421C560.46 73.3578 560.612 73.4579 560.735 73.5892C563.955 77.029 564.445 90.934 564.689 95.6143C566.129 85.9137 568.464 71.3119 573.018 62.7258ZM468.721 162.415C465.869 164.219 462.186 167.111 461.4 170.612C461.21 171.457 461.393 171.649 461.658 172.43C462.714 173.161 463.721 173.263 464.963 173.009C466.403 172.715 467.892 172.225 469.278 171.739L469.297 170.043L468.712 169.621C467.498 169.946 466.203 170.583 464.997 170.201C464.583 169.079 464.633 168.608 464.939 167.459C465.982 166.466 466.044 166.486 467.543 166.508C468.176 166.517 468.852 166.626 469.477 166.697L470.002 166.232C470.003 164.829 469.843 163.956 469.39 162.66L468.721 162.415Z"/>
	<path d="M752.51 231.145L752.062 230.726C749.496 228.283 747.333 225.294 747.166 221.619C747.09 219.946 747.368 218.045 748.554 216.774C750.101 215.116 752.71 214.953 754.824 215.138C759.74 215.57 764.618 218.095 769.459 218.204C778.012 218.397 791.243 213.809 798.79 218.953C801.569 220.847 803.337 223.851 805.796 226.085C808.645 228.674 812.706 229.397 815.112 232.59C817.477 235.729 817.281 239.972 816.642 243.653C814.491 256.045 806.872 271.599 798.654 281.07L798.627 281.64Q802.324 291.195 806.126 300.709C816.695 307.346 828.36 311.784 837.296 320.833C847.556 331.223 852.535 345.622 858.822 358.522C861.961 364.964 865.626 371.131 868.797 377.553C876.709 393.575 884.065 411.556 888.087 429.008C894.441 456.58 887.025 481.312 877.157 506.85C881.141 523.889 885.034 541.398 890.759 557.938C882.864 561.069 875.066 564.426 867.186 567.584C867.412 595.759 868.574 624.136 869.754 652.293C870.52 670.551 871.595 688.683 871.476 706.971C867.407 707.211 863.324 707.53 859.246 707.513C860.554 727.07 863.125 746.656 865.35 766.136C870.457 810.838 876.468 855.529 880.89 900.294L874.048 901.182C875.174 909.959 877.888 920.775 874.323 929.24C860.164 937.919 778.352 947.053 761.688 942.904Q759.153 942.264 756.726 941.29C742.086 945.849 695.664 953.661 682.563 946.879C680.939 946.039 679.429 944.743 678.983 942.885C678.507 940.9 679.276 938.641 680.493 937.073C686.724 929.042 721.741 922.995 725.943 917.779C717.19 919.413 708.36 918.453 699.674 919.76C686.524 921.739 667.998 928.828 655.443 928.706C650.039 931.789 617.118 933.508 609.21 933.513C582.93 933.528 555.596 929.551 531.852 917.806C528.124 915.962 523.649 914.42 520.754 911.313C518.91 909.334 519.11 907.678 519.183 905.112C515.948 905.246 512.702 905.09 509.467 905.007Q510.259 906.004 510.98 907.053Q511.701 908.102 512.349 909.198Q512.996 910.294 513.567 911.432Q514.138 912.57 514.629 913.744Q515.12 914.919 515.529 916.124Q515.939 917.33 516.264 918.56Q516.59 919.791 516.83 921.041Q517.07 922.291 517.224 923.555C518.136 931.3 516.302 940.062 511.322 946.2C508.655 949.486 504.901 952.042 500.576 952.279C497.003 952.474 493.458 951.094 490.817 948.711C485.393 943.814 483.511 935.377 483.28 928.346C482.991 919.546 485.354 911.556 491.501 905.042C461.755 904.598 431.949 905.003 402.196 905.064C401.174 912.462 400.148 919.721 395.191 925.659C392.453 928.939 388.7 931.388 384.343 931.593C380.37 931.78 376.737 930.058 373.877 927.379C367.876 921.759 365.696 912.948 365.395 905.001L270.824 905.041C275.688 909.705 278.671 915.267 279.553 921.995C280.643 930.309 279.212 941.239 273.833 947.954C271.613 950.725 268.441 952.577 264.876 952.865C260.89 953.186 257.228 951.415 254.376 948.732C249.149 943.814 246.925 936.395 246.7 929.388C246.404 920.218 249.84 911.68 256.089 905.022C230.539 903.575 204.519 904.556 178.935 904.967C181.33 907.868 183.251 911.006 184.617 914.514C187.947 923.069 188.005 933.563 184.106 941.952C181.245 948.109 176.919 951.384 170.766 953.755C168.158 953.041 165.777 952.298 163.527 950.726C158.175 946.986 155.217 940.99 154.019 934.708C151.879 923.493 154.728 914.216 161.028 904.96C157.709 905.002 150.592 906.022 148.135 903.543C147.222 902.622 146.998 901.353 147.074 900.11C147.398 894.854 151.552 887.553 155.339 884.154C159.432 880.479 164.273 878.969 169.612 878.258C176.937 877.283 184.576 877.834 191.964 877.879L226.297 877.914L277.315 877.676C286.127 877.653 295.079 877.34 303.874 877.868L303.488 702.034L290.217 701.866C286.107 714.234 283.815 727.142 281.011 739.85C276.911 758.423 272.365 777.149 266.171 795.15C263.457 803.04 260.488 810.332 252.502 814.153C244.123 818.163 204.596 830.976 197.259 827.249C196.195 826.709 195.637 826.265 195.457 825.058C194.375 817.837 212.121 802.541 216.562 796.83C218.65 794.147 220.181 791.477 220.897 788.115C223.678 775.054 222.316 760.293 222.657 747.003C223.026 732.606 224.958 716.534 223.103 702.331L223.01 701.65C219.216 707.656 217.446 715.152 215.229 721.882C212.712 729.522 210.118 737.127 207.742 744.813C203.517 758.478 196.575 786.946 187.651 797.324C179.549 806.747 150.552 814.629 138.306 815.553C135.485 815.766 132.772 815.812 130.522 813.907C126.593 807.075 141.879 793.727 145.799 788.823C148.224 785.79 150.116 782.583 151.657 779.024C157.171 766.284 157.502 751.639 158.839 737.982Q160.459 719.962 162.619 701.999C139.101 701.814 115.603 702.573 92.0807 702.11C85.711 701.984 77.5177 702.691 71.4201 700.89C69.5951 698.865 69.5119 696.052 69.4794 693.439C69.4174 688.447 69.7649 683.004 73.6157 679.354C77.0151 676.131 81.9222 676.525 86.2866 676.526C86.6007 670.96 86.4436 665.348 86.4239 659.774C80.8661 659.845 75.4183 659.719 69.871 659.357C67.1164 656.471 65.6287 653.632 65.4162 649.575C65.2807 646.988 66.0817 644.59 67.9163 642.742C69.739 640.905 72.2002 640.762 74.6483 640.524C86.3312 639.386 98.4426 640.306 110.182 640.357L175.029 640.414C178.234 632.3 182.175 624.946 186.446 617.362C186.313 616.362 186.215 615.385 186.169 614.378C188.01 612.343 191.237 613.777 193.653 612.589C200.107 609.413 205.646 604.242 211.942 600.793C214.497 599.393 217.558 598.874 220.202 597.536C225.765 594.719 231.115 591.52 236.731 588.781C251.706 581.475 267.046 575.016 282.375 568.501C280.5 566.517 279.111 564.531 278.758 561.748C277.366 550.779 289.877 540.508 296.302 533.112Q303.095 525.313 309.396 517.112C307.242 516.105 304.303 515.068 303.025 512.964C303.261 509.248 311.352 500.62 313.598 496.707C315.68 493.077 317.249 489.253 318.504 485.267C324.297 466.861 328.524 447.495 332.784 428.66C334.703 420.176 336.211 411.429 338.758 403.11C339.598 400.368 340.922 395.869 343.139 394.013C347.478 390.38 366.117 392.572 371.956 393.252C373.586 389.586 375.763 386.052 377.59 382.462C375.074 380.454 373.384 378.928 372.748 375.637C372.157 372.578 373.058 369.655 374.923 367.203C378.096 363.035 382.547 361.84 387.467 361.218C388.196 358.635 388.912 356.026 389.849 353.51C391.438 349.243 394.146 345.041 398.477 343.195C403.632 340.997 408.588 342.98 413.423 344.925L413.916 344.692C419.643 342.021 426.107 339.97 432.309 342.434C438.231 344.786 440.628 350.101 443.126 355.487C447.117 355.472 451.211 355.692 454.404 358.397C458.414 361.794 458.669 367.264 459.026 372.114C462.84 373.081 466.678 374.124 469.275 377.31C472.799 381.635 471.732 387.452 471.067 392.518C481.182 392.521 491.305 392.596 501.418 392.463C508.542 392.368 516.174 391.61 523.225 392.662Q524.686 392.868 526.118 393.22Q527.551 393.571 528.941 394.064Q530.332 394.556 531.666 395.186Q533 395.815 534.265 396.574C542.873 401.709 546.958 409.321 549.309 418.782C553.43 419.106 558.029 419.31 561.538 421.755C564.719 423.971 565.816 427.429 565.667 431.154C565.19 443.081 558.892 459.787 555.508 471.642L529.898 562.46C526.256 575.372 519.175 595.881 517.704 608.581C516.602 618.106 519.567 628.589 521.307 637.952L585.088 637.954C598.175 637.996 611.611 638.824 624.645 637.721C640.821 636.353 654.532 622.331 664.446 610.466C664.887 603.802 663.322 597.57 662.743 590.986C661.246 573.957 671.172 555.782 681.644 543.125C679.604 541.416 677.44 539.873 675.29 538.308C678.421 528.632 682.894 519.399 686.403 509.853C694.667 487.37 702.016 463.47 706.772 439.989C713 409.239 711.183 376.036 721.593 346.307C730.386 321.195 752.663 323.616 759.885 299.388C757.837 299.562 755.662 299.851 753.61 299.718C751.02 299.55 748.673 298.184 746.976 296.269C740.193 288.617 739.099 272.971 739.619 263.244C740.07 254.816 741.176 242.875 747.857 236.894L748.2 236.568L748.764 236.017C750.398 234.451 751.463 233.167 752.51 231.145ZM281.898 881.698C273.493 882.668 265.947 884.779 260.388 891.686C258.064 894.574 256.488 897.865 255.209 901.323L493.043 901.446C502.066 901.418 511.105 901.505 520.126 901.325C517.769 894.305 513.318 888.615 506.607 885.237C501.011 882.42 494.66 882.13 488.494 881.8C474.609 881.056 460.511 881.644 446.605 881.674L373.421 881.626L312.46 881.531C302.433 881.524 291.864 880.83 281.898 881.698ZM171.836 881.677C165.701 882.484 159.936 883.843 155.907 888.991C153.104 892.572 152.054 896.799 151.042 901.124C182.355 901.721 213.705 901.111 245.024 901.22C247.285 901.286 249.578 901.273 251.832 901.428C253.996 892.245 257.529 886.787 265.37 881.552L203.507 881.401C193.121 881.406 182.176 880.807 171.836 881.677ZM808.657 813.349C804.025 819.161 802.508 826.002 798.975 832.338C798.522 839.263 799.954 846.881 800.658 853.791C802.318 870.087 804.538 886.581 805.538 902.918C803.296 903.544 801.117 903.858 798.815 904.134C799.156 908.035 799.676 911.899 800.217 915.777C807.14 913.523 813.884 910.352 820.593 907.517C820.32 895.417 817.85 883.021 816.277 871.008C813.763 851.795 811.517 832.513 808.657 813.349ZM104.088 659.748L102.147 660.05C100.008 663.458 101.213 672.639 101.347 676.53L164.625 676.505L165.685 676.241C167.115 671.375 167.411 665.131 167.604 660.039C146.509 659.256 125.201 659.596 104.088 659.748ZM497.487 904.998C491.655 909.308 488.54 914.899 487.44 922.089C486.37 929.086 487.18 938.088 491.657 943.806C493.788 946.527 497.129 948.65 500.622 948.911Q501.757 948.985 502.895 948.982C508.766 944.862 512.086 939.369 513.267 932.293C514.427 925.346 513.222 916.267 509.058 910.469C507.462 908.247 504.559 905.605 501.75 905.17C500.373 904.957 498.88 904.956 497.487 904.998ZM167.677 904.959C161.92 909.045 158.84 913.971 157.645 921.027C156.346 928.692 157.717 938.453 162.441 944.802C163.998 946.894 166.625 949.028 169.268 949.469C170.328 949.646 171.412 949.529 172.46 949.354C178.618 944.762 181.912 939.013 183.03 931.402C184.028 924.61 182.984 915.941 178.857 910.302C177.076 907.869 174.042 905.555 170.993 905.103C169.912 904.943 168.768 904.927 167.677 904.959ZM261.489 905.389C255.451 909.603 252.299 915.698 251.044 922.829C249.822 929.777 250.709 938.845 255.032 944.61C256.703 946.838 259.476 948.842 262.263 949.319C263.289 949.494 264.365 949.443 265.401 949.408C270.939 945.815 273.956 941.009 275.378 934.522C276.969 927.259 276.089 917.921 272.074 911.554C270.477 909.021 267.306 906.047 264.239 905.537C263.341 905.387 262.398 905.392 261.489 905.389ZM394.061 905.25L369.141 905.377C369.725 913.193 371.316 920.096 377.386 925.645C380.32 927.4 382.972 928.61 386.435 927.654C390.296 926.589 392.918 923.055 394.696 919.681C397.048 915.218 398.067 910.132 398.844 905.194L394.061 905.25ZM90.567 659.964C90.4518 665.531 90.3375 671.069 90.594 676.636L97.9289 676.669C97.8007 671.12 97.72 665.565 97.5178 660.018L90.567 659.964Z"/>
	<path fill="#FEFEFE" d="M486.085 517.282C486.638 517.684 486.577 517.591 486.977 518.031C489.626 520.949 490.264 524.292 490.145 528.122C489.438 527.595 488.788 526.999 488.177 526.363C485.736 523.824 485.981 520.535 486.085 517.282Z"/>
	<path fill="#FEFEFE" d="M514.822 625.864C515.499 626.668 515.601 626.996 515.891 627.991C516.873 631.356 517.509 635.255 515.749 638.431C514.635 638.188 514.215 637.896 513.398 637.107C512.069 633.462 513.823 629.428 514.822 625.864Z"/>
	<path fill="#FEFEFE" d="M478.647 540.893C481.12 543.364 481.601 553.18 482.125 556.815C481.176 556.683 480.321 556.505 479.405 556.223C477.157 552.971 478.462 544.933 478.647 540.893Z"/>
	<path fill="#FEFEFE" d="M682.897 576.374C683.367 578.92 681.621 580.929 680.317 582.974C680.812 584.574 681.318 586.183 681.709 587.812C682.389 590.639 683.551 596.629 681.749 599.016C681.31 599.597 681.254 599.438 680.452 599.612C680.535 597.307 680.776 594.806 680.501 592.518C680.167 589.741 678.659 588.363 676.596 586.657C678.211 582.655 679.757 579.471 682.897 576.374Z"/>
	<path fill="#FEFEFE" d="M485.925 527.176C486.799 527.737 487.778 528.279 488.348 529.185C491.236 533.78 486.171 544.991 484.496 549.787C484.358 550.378 484.484 550.001 483.913 550.829C482.051 546.074 485.041 532.658 485.925 527.176Z"/>
	<path fill="#FEFEFE" d="M675.28 589.823C676.997 591.428 676.47 597.36 679.561 601.67C677.803 603.594 676.149 605.007 674.022 606.492C672.777 607.137 671.541 608.119 670.134 608.004C669.394 603.082 673.489 594.467 675.28 589.823Z"/>
	<path fill="#FEFEFE" d="M492.895 536.832C497.192 540.64 497.983 551.463 498.878 556.936L493.197 556.894L486.989 556.695C488.521 549.99 490.673 543.339 492.895 536.832Z"/>
	<path fill="#FEFEFE" d="M331.222 528.021C335.131 529.524 343.645 534.707 345.002 538.897C345.391 540.096 345.038 540.504 344.424 541.445C342.574 542.542 340.192 542.139 338.106 542.081C334.016 542.268 330.063 542.966 326.062 543.79C326.915 538.185 328.37 532.948 331.222 528.021Z"/>
	<path fill="#FEFEFE" d="M509.606 658.748L519.931 658.752C521.12 665.807 521.017 673.35 521.101 680.495C517.979 678.437 515.615 677.641 511.964 677.143C510.687 671.154 509.302 664.898 509.606 658.748Z"/>
	<path fill="#FEFEFE" d="M489.447 658.613L505.016 658.577C505.977 664.826 506.555 671.137 507.522 677.394L493.879 677.418C491.575 671.407 489.932 665.04 489.447 658.613Z"/>
	<path fill="#FEFEFE" d="M384.975 375.841C386.937 369.973 390.688 361.2 396.505 358.234C398.005 357.47 399.613 357.275 401.197 357.905C403.323 358.752 404.616 360.628 405.35 362.724C407.191 367.976 406.716 372.499 410.009 377.377C408.737 377.773 407.317 378.261 405.975 378.23C402.589 378.151 398.797 377.119 395.43 376.591C391.942 376.044 388.501 375.913 384.975 375.841Z"/>
	<path fill="#FEFEFE" d="M757.289 314.362C758.402 320.549 759.115 348.272 757.763 353.861C757.574 354.642 757.745 354.712 757.101 354.995C754.797 356.006 750.724 354.459 748.374 353.858L746.525 353.188C745.561 352.054 745.399 351.016 745.34 349.57C744.972 340.521 751.258 321.221 757.289 314.362Z"/>
	<path fill="#FEFEFE" d="M476.853 559.731C478.133 559.877 479.036 560.052 480.238 560.571C481.735 564.829 468.289 602.917 466.422 609.492Q462.503 623.446 459.244 637.568L443.542 637.554C442.411 637.499 441.388 637.665 440.436 637.021C444.345 631.698 450.251 627.18 454.48 621.767C468.297 604.079 473.331 581.426 476.853 559.731Z"/>
	<path fill="#FEFEFE" d="M756.075 359.965C756.733 360.001 756.99 360.164 757.562 360.465C759.641 364.425 757.78 377.327 757.923 382.821C758.413 401.716 761.337 420.424 763.818 439.128C762.237 436.773 761.305 434.259 760.294 431.626C757.197 421.631 755.33 411.308 752.939 401.133C750.091 389.009 746.582 376.753 745.318 364.334C748.855 362.758 752.469 361.373 756.075 359.965Z"/>
	<path fill="#FEFEFE" d="M380.255 659.245Q396.324 659.026 412.394 659.072Q406.732 662.092 400.88 664.723Q395.027 667.354 389.011 669.584Q382.994 671.815 376.841 673.634Q370.687 675.453 364.425 676.853C353.916 678.805 342.527 677.754 331.876 677.337C341.424 674.757 350.842 671.668 359.837 667.526C365.127 665.09 370.586 661.463 376.074 659.669C377.389 659.239 378.883 659.257 380.255 659.245Z"/>
	<path fill="#FEFEFE" d="M761.02 380.361C767.455 381.303 773.792 381.496 780.28 381.514C776.785 397.872 775.037 414.269 770.037 430.32C769.133 433.482 767.807 436.638 766.703 439.744C765.079 419.906 762.289 400.253 761.02 380.361Z"/>
	<path fill="#FEFEFE" d="M429.268 408.822C431.567 416.37 427.576 424.993 429.596 432.926Q427.223 434.967 424.613 436.696Q422.003 438.424 419.197 439.813C411.39 443.699 402.945 445.12 394.519 442.268C392.892 440.597 392.135 438.902 391.203 436.801C394.007 433.606 396.026 430.448 397.779 426.578C401.397 426.561 404.868 426.263 408.386 425.387C418.245 422.933 424.144 417.375 429.268 408.822Z"/>
	<path fill="#FEFEFE" d="M684.776 546.309C691.768 547.606 698.933 551.598 705.395 554.501C702.622 565.424 697.333 572.824 697.633 584.622C696.28 586.786 694.483 590.123 691.955 591.084C690.628 591.588 690.092 591.375 688.85 590.929C688.143 589.805 687.826 589.177 687.934 587.818C688.19 584.587 690.819 582.949 693.137 581.15C692.81 574.529 692.594 568.215 688.647 562.631C674.663 569.185 674.418 584.883 667.192 596.818C666.944 594.667 666.676 592.496 666.583 590.332C665.89 574.107 674.09 558.013 684.776 546.309Z"/>
	<path fill="#FEFEFE" d="M504.269 577.893C504.425 578.065 504.603 578.218 504.736 578.407C506.498 580.916 506.941 587.156 507.591 590.254C509.255 598.175 512.526 606.443 512.535 614.571C512.543 621.966 509.623 630.436 508.1 637.706L499.104 637.705L489.343 637.649C492.348 616.658 498.207 598.078 504.269 577.893Z"/>
	<path fill="#FEFEFE" d="M318.975 659.756Q342.997 659.051 367.024 659.514C357.657 664.429 348.239 668.535 338.112 671.636C325.49 675.454 309.177 676.809 296.079 676.612L296.084 659.889L318.975 659.756Z"/>
	<path fill="#FEFEFE" d="M263.378 659.75C272.94 659.676 282.512 659.837 292.074 659.902L292.139 676.5L268.648 676.424L239.946 676.394L240.015 659.891L263.378 659.75Z"/>
	<path fill="#FEFEFE" d="M816.665 533.426C824.235 536.682 831.176 542.495 837.816 547.287C834.27 556.35 830.947 565.786 825.656 574.012C824.216 576.25 821.084 580.864 818.414 581.431C817.467 577.861 824.412 569.256 825.316 565.095C825.512 564.193 825.543 564.59 824.99 563.745C819.33 566.853 816.538 579.9 808.949 583.187C807.51 583.103 807.542 583.175 806.541 582.153C808.693 577.022 816.522 573.191 820.503 562.471C815.819 565.678 813.2 569.207 809.896 573.785C807.082 576.942 803.525 580.78 799.194 581.652L798.821 581.065C801.241 574.894 807.698 570.954 811.089 565.254C812.058 563.623 813.296 561.199 812.789 559.311C808.42 560.169 800.873 573.772 795.212 576.52C794.21 577.007 794.055 576.839 793.078 576.459C792.82 575.179 793.014 574.606 793.684 573.472C795.284 570.763 797.786 568.573 799.906 566.284C804.416 561.416 810.011 554.606 812.157 548.228C811.886 547.822 811.762 547.264 811.345 547.011C809.996 546.189 802.94 553.307 796.798 551.969L797.12 551.233L797.416 551.716L797.754 551.554L797.569 550.615C802.075 548.342 812.276 537.397 816.665 533.426Z"/>
	<path fill="#FEFEFE" d="M798.975 832.338C797.179 823.511 796.845 813.918 795.96 804.948L790.581 746.529Q789.798 736.954 788.725 727.408C788.057 721.834 786.897 715.754 787.064 710.154C787.111 708.586 787.286 707.229 788.487 706.108C789.555 705.981 790.338 706.094 791.184 706.863C792.089 707.685 792.717 708.944 793.043 710.112C793.878 713.113 793.948 716.5 794.495 719.592C795.94 727.759 797.434 735.898 798.645 744.106L808.657 813.349C804.025 819.161 802.508 826.002 798.975 832.338Z"/>
	<path fill="#FEFEFE" d="M806.213 306.784C811.195 311.173 813.658 326.621 815.054 333.262Q805.745 336.593 796.254 339.361C799.661 347.319 804.338 354.108 809.388 361.079C800.361 373.171 793.803 387.588 786.361 400.7C783.481 405.953 780.568 411.152 777.435 416.26C781.164 399.004 784.484 381.621 787.887 364.297C789.787 354.628 791.241 344.575 794.065 335.137C796.996 325.343 802.843 316.512 806.213 306.784Z"/>
	<path fill="#FEEEE3" d="M796.037 846.431C798.114 864.351 799.145 882.512 801.593 900.365C794.558 901.571 754.485 908.765 750.615 907.899C749.587 906.802 749.551 905.394 749.54 903.949C763.401 900.051 787.043 858.339 795.702 846.867L796.037 846.431Z"/>
	<path fill="#FEFEFE" d="M544.502 641.75L627.418 641.513C627.665 645.767 627.809 649.753 627.341 654.002C620.318 655.41 613.417 655.225 606.302 655.066C578.753 654.663 551.153 655.003 523.598 655.003C523.384 650.639 522.778 646.239 522.342 641.888L544.502 641.75Z"/>
	<path fill="#FEFEFE" d="M764.729 297.444C775.307 291.064 782.339 283.664 789.565 273.792C792.293 276.627 796.182 278.071 798.654 281.07L798.627 281.64C796.406 289.984 802.661 295.921 802.462 304.015C802.319 309.815 799.243 314.979 795.011 318.785C788.417 324.715 778.106 328.222 769.254 327.545C766.97 327.37 764.769 326.559 763.28 324.754C758.063 318.427 763.792 305.362 764.667 298.018C764.69 297.827 764.708 297.636 764.729 297.444Z"/>
	<path fill="#FEFEFE" d="M485.768 560.571L499.236 560.911C503.81 577.582 494.773 593.177 490.634 609.001C488.151 618.49 486.681 628.164 485.333 637.867L478.75 637.897L463.068 637.847C469.976 611.758 477.166 586.172 485.768 560.571Z"/>
	<path fill="#FEFEFE" d="M434.751 658.743L485.19 658.726C486.146 665.088 487.649 671.331 489.196 677.569L433.151 677.723L377.547 677.433C392.596 671.468 406.375 669.414 419.501 658.925L434.751 658.743Z"/>
	<path fill="#BEBDBD" d="M384.975 375.841C388.501 375.913 391.942 376.044 395.43 376.591C398.797 377.119 402.589 378.151 405.975 378.23C407.317 378.261 408.737 377.773 410.009 377.377L410.623 377.424C414.784 377.707 420.372 376.102 423.962 378.349C424.556 379.361 424.566 379.912 424.522 381.073L423.078 384.811C421.479 387.626 418.552 392.933 419.167 396.19C419.424 397.55 419.692 397.692 420.756 398.42C422.397 398.493 422.56 398.532 423.914 397.551C424.529 397.107 425.025 396.532 425.757 396.251C427.435 395.607 431.108 395.549 432.764 396.208C433.456 396.484 433.401 396.819 433.659 397.448C432.636 400.361 430.626 401.482 428.135 403.062C427.693 404.747 427.266 406.46 426.685 408.103C424.642 413.873 419.836 418.213 414.403 420.769C409.296 423.172 402.374 424.668 396.982 422.596C392.808 420.992 390.208 417.615 388.43 413.636C384.477 404.79 384.28 393.655 387.685 384.699L385.306 378.83Q389.357 379.307 393.418 379.684C391.912 379.185 390.385 378.836 388.86 378.411C386.895 377.863 385.997 377.66 384.975 375.841Z"/>
	<path fill="#FEFEFE" d="M409.482 381.397C414.344 380.945 419.698 380.027 424.522 381.073L423.078 384.811C418.577 383.381 414.098 382.35 409.482 381.397Z"/>
	<path fill="#FEFEFE" d="M425.869 681.69C440.982 681.598 456.077 681.721 471.19 681.501C484.457 681.307 498.37 680.555 511.569 681.679C512.799 681.784 514.687 681.859 515.554 682.837C517.493 685.026 516.949 688.901 516.612 691.579C516.309 693.99 516.105 695.579 514.222 697.289C506.166 699.554 487.386 697.946 478 697.923L410.194 697.986C409.764 692.701 408.772 687.493 408.404 682.191C411.346 682.215 423.902 682.925 425.869 681.69Z"/>
	<path fill="#FEEEE3" d="M286.582 681.442L425.869 681.69C423.902 682.925 411.346 682.215 408.404 682.191C408.772 687.493 409.764 692.701 410.194 697.986C369 697.981 327.949 696.82 286.76 698.496L286.582 681.442Z"/>
	<path fill="#FEEEE3" d="M71.2323 644.561C86.972 643.861 102.919 644.41 118.687 644.427L202.791 644.496C218.756 644.532 234.955 646.066 250.852 644.337C250.532 649.046 251.543 650.992 253.239 655.163L252.544 655.487C245.096 655.548 237.653 656.023 230.204 656.075L135.774 655.994C120.166 655.993 104.517 656.6 88.9168 656.321C85.599 656.261 73.6147 656.65 71.0951 655.004C70.008 654.293 69.543 653.245 69.3123 652.007C68.8315 649.425 69.8436 646.674 71.2323 644.561Z"/>
	<path fill="#FEFEFE" d="M346.378 396.563C355.138 396.308 363.872 397.045 372.603 397.657C374.314 399.784 375.704 401.981 377.108 404.315L376.625 411.003C381.429 420.211 385.982 421.406 394.444 425.849C384.743 444.745 366.094 434.968 351.495 444.81C349.312 446.282 347.562 448.474 345.836 450.443C337.899 459.226 331.301 468.469 324.941 478.405C328.07 464.8 331.663 451.302 334.77 437.694C337.319 426.535 339.224 415.074 342.685 404.156C343.586 401.317 344.484 398.928 346.378 396.563Z"/>
	<path fill="#FEFEFE" d="M796.444 706.8C810.041 707.286 823.69 707.206 837.271 707.913C840.017 708.171 842.68 708.234 845.433 708.208C841.164 720.258 835.701 731.861 831.109 743.79C827.318 753.636 815.433 791.291 810.487 797.556C804.594 767.558 801.529 736.953 796.444 706.8Z"/>
	<path fill="#FEEEE3" d="M752.51 231.145L753.157 231.47C763.236 236.442 789.62 233.752 793.277 237.372C795.268 244.863 783.133 252.913 785.637 261.624L786.497 261.833C790.287 259.198 791.988 253.463 796.682 252.308C798.02 252.709 798.113 252.809 799.007 253.891C799.474 255.896 798.24 258.073 797.234 259.755C794.294 264.671 789.885 268.95 786.076 273.196C778.535 281.6 770.826 292.067 759.276 295.024C756.464 295.744 753.296 295.814 750.75 294.237C747.02 291.925 745.789 287.017 744.991 282.979C743.042 273.125 743.331 262.543 745.153 252.694C746.001 248.109 748.524 241.433 747.857 236.894L748.2 236.568L748.764 236.017C750.398 234.451 751.463 233.167 752.51 231.145Z"/>
	<path d="M757.375 265.125C758.835 265.396 759.805 265.558 760.984 266.55C761.486 268.208 761.218 268.68 760.78 270.316C759.292 269.991 758.097 269.808 756.897 268.79C756.54 267.253 756.912 266.609 757.375 265.125Z"/>
	<path d="M749.321 265.156C749.477 265.223 749.638 265.277 749.787 265.357C750.939 265.971 751.566 266.39 752.037 267.586C751.784 268.729 751.238 270.261 751.579 271.402C753.021 276.241 766.454 269.305 770.013 270.654C770.688 271.874 770.895 272.132 770.553 273.57C769.365 278.567 761.447 284.571 756.999 286.656C756.078 286.883 754.925 287.281 753.986 287.296C752.664 287.316 752.399 286.914 751.547 286.056C751.54 283.13 758.597 281.829 760.9 280.22C762.547 279.071 763.998 277.294 765.357 275.818C760.506 276.575 754.535 277.782 749.911 275.555C748.539 274.894 747.439 273.864 747.095 272.315C746.501 269.642 747.911 267.282 749.321 265.156Z"/>
	<path fill="#FEFEFE" d="M531.201 400.153C535.862 402.289 540.032 406.311 542.504 410.786C544.241 413.931 544.656 416.584 544.222 420.104C542.414 434.736 535.09 453.989 530.813 468.548L505.553 555.61C505.199 556.485 504.831 557.136 504.333 557.928C502.415 553.927 502.092 547.634 500.928 543.231C499.384 537.39 496.987 531.808 494.733 526.214C505.491 483.817 518.557 442.014 531.201 400.153Z"/>
	<path fill="#FEFEFE" d="M548.213 423.027C550.744 423.14 553.527 423.091 555.993 423.674C558.095 424.171 560.065 425.251 561.135 427.19C562.669 429.969 561.739 433.46 561.148 436.41C559.84 442.933 557.671 449.358 555.843 455.759L547.498 485.678Q532.247 540.888 516.223 595.879L514.419 600.939C512.714 592.144 507.297 572.751 507.695 564.997C508.066 557.781 511.067 550.475 513.139 543.609L520.328 519.205L548.213 423.027Z"/>
	<path fill="#FEFEFE" d="M261.568 641.706C270.367 641.045 279.683 641.707 288.541 641.73L343.131 641.83L518.252 642.009Q518.773 648.35 519.427 654.678L511.375 654.705L344.928 655.103C319.44 655.164 293.702 656.366 268.246 655.533C265.463 655.442 262.098 655.402 259.607 654.057C257.626 652.987 255.719 650.996 255.084 648.801C254.706 647.494 254.783 646.206 255.461 645.014C256.8 642.661 259.136 642.277 261.568 641.706Z"/>
	<path fill="#FEEEE3" d="M84.4558 680.745L201.957 680.432C228.664 680.331 255.431 680.021 282.128 680.793L282.405 698.495L271.093 698.427L73.5552 697.984C73.4638 693.509 72.6107 686.667 76.1053 683.19C78.4579 680.849 81.3678 680.852 84.4558 680.745Z"/>
	<path fill="#FEFEFE" d="M465.819 396.517C474.606 396.018 483.521 396.481 492.327 396.442C500.709 396.404 516.224 395.256 523.854 396.981C524.607 397.151 525.791 397.382 526.122 398.144C526.93 400.01 526.034 403.355 525.568 405.29C522.775 416.897 518.451 428.502 515.077 439.994Q503.903 477.834 493.52 515.898L492.647 517.116C492.493 517.1 492.336 517.107 492.186 517.069C489.803 516.451 487.487 512.22 486.131 510.271C487.78 497.291 487.251 472.491 482.841 460.458C474.771 438.434 453.611 440.118 435.913 432.025C438.47 431.376 441.292 430.825 443.645 429.617C449.079 426.829 450.44 421.899 452.213 416.514C456.708 415.868 461.936 415.267 464.828 411.281C467.91 407.032 466.648 401.285 465.819 396.517Z"/>
	<path fill="#FEEEE3" d="M307.512 702.009L333.582 702.014L333.743 877.705Q320.65 878.023 307.558 877.661C306.951 819.134 307.501 760.543 307.512 702.009Z"/>
	<path fill="#FEFEFE" d="M312.278 518.257C316.557 519.197 324.357 520.82 326.964 524.557C330.564 529.717 324.107 538.423 323.296 543.891C323.272 544.053 323.255 544.216 323.235 544.379C318.527 545.591 310.608 547.106 306.923 550.314C306.093 551.037 305.925 551.637 305.956 552.714C305.981 553.602 306.164 553.548 306.734 554.127C311.743 554.086 318.351 550.302 323.248 548.717C326.589 547.636 329.948 546.874 333.399 546.243C338.623 548.717 344.186 551.109 349.069 554.199L349.121 554.851C343.865 556.289 336.133 551.017 331.709 553.531L331.514 554.375C335.221 556.704 339.596 558.061 343.562 559.941C339.822 559.834 333.77 558.851 330.544 560.879C329.754 561.375 329.927 561.457 329.737 562.292C332.262 565.69 339.017 566.579 342.971 567.306C342.205 567.361 341.44 567.399 340.674 567.449C336.11 567.745 330.927 565.517 326.637 566.464C326.363 566.524 326.092 566.603 325.82 566.672L325.812 566.656L324.808 567.767C324.871 567.916 324.904 568.081 324.996 568.215C326.734 570.728 333.066 571.493 335.912 571.645C346.929 572.231 350.379 571.252 358.587 564.001C355.88 560.463 355.824 556.953 355.381 552.676C349.408 548.977 342.766 547.259 336.114 545.168C352.073 546.993 415.875 565.399 425.728 559.777C427.489 558.772 427.923 555.355 428.356 553.528C429.223 547.214 429.498 540.962 429.543 534.599C444.606 535.089 459.68 537.615 474.507 540.184C474.521 543.933 474.343 547.742 474.039 551.48C472.977 564.536 468.788 578.17 458.28 586.811C453.303 590.904 447.558 592.784 441.138 592.574C422.293 591.959 402.198 582.582 383.469 578.938C365.37 575.418 347.016 576.127 328.747 574.559C325.657 574.294 323.554 574.518 321.446 571.963C321.34 571.834 321.237 571.701 321.132 571.571C320.442 572.118 319.749 572.619 319.027 573.123C311.713 573.503 291.691 569.872 285.848 566.289C284.143 565.244 282.857 563.924 282.465 561.913C280.927 554.009 297.418 538.078 302.405 531.9C305.949 527.512 309.179 522.968 312.278 518.257Z"/>
	<path fill="#FEEEE3" d="M337.506 701.91Q357.469 701.701 377.432 701.914Q377.805 789.72 377.284 877.526C364.198 878.173 350.824 877.647 337.706 877.681L337.506 701.91Z"/>
	<path fill="#FEEEE3" d="M837.271 707.913C843.421 707.543 849.626 707.529 855.787 707.502L868.729 822.814C871.431 847.446 873.252 872.849 877.78 897.204C860.09 900.448 842.458 903.584 824.672 906.276C821.426 883.071 818.871 859.775 815.737 836.553Q814.201 825.005 812.504 813.479C811.737 808.26 810.617 802.829 810.487 797.556C815.433 791.291 827.318 753.636 831.109 743.79C835.701 731.861 841.164 720.258 845.433 708.208C842.68 708.234 840.017 708.171 837.271 707.913Z"/>
	<path fill="#FEFEFE" d="M734.913 704.555C741.577 703.97 748.428 703.168 755.118 703.541C759.631 703.792 764.107 704.884 768.601 705.385C773.225 705.9 777.953 705.84 782.603 705.895C785.705 728.117 787.074 750.552 789.131 772.883C791.392 797.425 794.254 821.835 796.037 846.431L795.702 846.867C787.043 858.339 763.401 900.051 749.54 903.949C748.589 896.713 748.241 889.309 747.65 882.033L744.438 841.879Q739.168 773.253 734.913 704.555Z"/>
	<path fill="#FEEEE3" d="M381.007 701.872L410.849 701.893C413.509 744.289 430.423 797.893 450.06 835.497C454.522 844.041 459.624 852.131 464.945 860.155C468.47 865.471 472.52 873.739 477.626 877.495C478.035 877.796 478.171 877.819 478.591 877.97L381.114 877.9L381.007 701.872Z"/>
	<path fill="#FEFEFE" d="M763.247 563.357C766.792 566.452 776.472 596.076 778.63 602.005C787.389 599.097 795.913 595.275 804.524 591.942L863.942 568.976L867.023 673.125L868.176 703.481C832.879 704.668 798.2 703.152 762.981 700.965L763.271 619.922C763.192 601.067 762.297 582.202 763.247 563.357Z"/>
	<path fill="#FEFEFE" d="M285.205 571.724C300.043 574.54 314.888 577.736 329.967 578.95C347.464 580.358 364.995 579.795 382.404 582.533C401.249 585.497 422.076 594.783 440.11 596.296C446.407 596.824 451.941 595.992 457.327 592.461C461.699 589.596 465.486 585.437 468.835 581.462C461.449 603.613 452.208 625.323 431.313 637.903C403.762 638.627 376.138 638.261 348.581 638.139L272.697 637.859C268.219 637.799 263.662 638.001 259.238 638.714C255.923 639.248 251.627 640.679 248.358 640.489C249.793 634.778 290.866 611.462 297.82 607.299C305.934 602.442 313.974 597.807 322.736 594.195C329.236 591.516 340.263 589.801 345.478 585.889L345.572 585.089C341.716 583.066 332.799 586.161 328.763 587.393C311.451 592.675 281.724 611.541 265.875 621.865C259.268 626.169 253.049 631.668 245.737 634.677C245.009 635.605 244.43 636.473 243.838 637.493C243.042 638.865 242.276 639.661 240.731 640.198C238.006 641.145 228.241 640.994 225.245 640.395L224.208 639.404C224.009 639.481 223.811 639.56 223.611 639.635C221.626 640.375 220.161 640.626 218.052 640.536C215.319 640.556 213.26 640.579 210.78 639.285C210.033 639.861 209.364 640.142 208.421 640.271C205.938 640.609 191.11 640.418 189.734 639.265C188.539 638.264 188.254 636.506 186.81 635.468C185.59 636.156 185.635 636.628 185.107 637.851L184.788 639.439C183.553 639.881 181.902 640.644 180.585 640.334C179.823 640.155 180.033 640.078 179.578 639.261C179.794 637.944 179.84 636.934 180.867 635.97C182.459 635.886 182.688 636.378 183.92 637.326C183.564 635.664 182.827 633.433 183.404 631.819C187.467 620.467 195.788 615.434 205.96 610.144Q213.321 606.23 220.886 602.725C221.122 602.635 221.35 602.519 221.594 602.455C222.459 602.232 223.28 602.352 224.012 601.748C226.639 599.577 228.695 598.201 231.773 596.738L235.933 594.615C237.107 593.636 238.821 592.89 240.173 592.139C250.169 586.582 261.002 582.381 271.524 577.882C276.251 575.861 280.966 574.778 285.205 571.724Z"/>
	<path fill="#BEBDBD" d="M213.698 634.927C215.003 635.519 216.869 636.111 217.504 637.491C217.905 638.363 217.995 639.586 218.052 640.536C215.319 640.556 213.26 640.579 210.78 639.285C211.356 637.002 211.77 636.233 213.698 634.927Z"/>
	<path fill="#FEEEE3" d="M235.933 594.615C237.107 593.636 238.821 592.89 240.173 592.139C240.199 592.351 240.224 592.563 240.253 592.774C240.597 595.301 243.748 607.193 245.286 608.504C245.646 608.81 245.762 608.815 246.237 608.743C248.375 608.417 250.006 606.115 251.304 604.583C252.57 604.167 252.502 604.19 253.72 604.744C254.487 606.008 254.58 606.147 254.526 607.613C253.812 608.478 253.251 608.746 252.29 609.275C251.37 609.78 250.6 610.554 249.831 611.261C248.508 611.457 247.479 610.835 246.306 610.308C245.094 610.586 244.102 610.977 243.338 612.047C242.146 613.717 243.329 615.004 242.155 616.402L240.841 616.603L240.384 616.062C240.503 614.68 241.013 613.327 240.099 612.24C238.794 612.316 238.099 612.534 236.954 613.162C235.548 615.03 235.284 617.631 234.791 619.881L231.999 614.885L231.317 614.857L231.304 615.428C231.265 616.692 231.354 617.674 230.556 618.729C228.753 619.641 227.693 619.418 225.794 618.817C224.772 618.494 223.997 618.221 223.167 617.521C222.92 616.347 223.145 615.824 223.764 614.792C224.378 613.77 225.164 613.099 225.41 611.884C224.493 611.071 223.655 610.156 222.796 609.283C223.979 608.348 224.843 607.489 225.794 606.319C224.525 606.078 223.566 607.481 222.045 607.433C221.099 606.282 221.083 604.192 220.886 602.725C221.122 602.635 221.35 602.519 221.594 602.455C222.459 602.232 223.28 602.352 224.012 601.748C226.639 599.577 228.695 598.201 231.773 596.738L235.933 594.615Z"/>
	<path fill="#FEFEFE" d="M231.773 596.738L235.933 594.615C236.741 595.84 236.726 595.794 236.528 597.248C235.338 598.917 233.85 599.622 232.104 600.612L231.773 596.738Z"/>
	<path fill="#BEBDBD" d="M231.773 596.738L232.104 600.612C232.033 602.246 232.228 602.474 231.05 603.696C229.312 604.232 228.416 604.272 227.215 605.674C227.112 606.425 226.879 606.617 227.405 607.241C228.053 608.008 228.762 608.407 229.602 608.937L229.797 609.791C228.532 610.98 227.057 611.449 225.41 611.884C224.493 611.071 223.655 610.156 222.796 609.283C223.979 608.348 224.843 607.489 225.794 606.319C224.525 606.078 223.566 607.481 222.045 607.433C221.099 606.282 221.083 604.192 220.886 602.725C221.122 602.635 221.35 602.519 221.594 602.455C222.459 602.232 223.28 602.352 224.012 601.748C226.639 599.577 228.695 598.201 231.773 596.738Z"/>
	<path fill="#FEEEE3" d="M183.92 637.326C183.564 635.664 182.827 633.433 183.404 631.819C187.467 620.467 195.788 615.434 205.96 610.144Q213.321 606.23 220.886 602.725C221.083 604.192 221.099 606.282 222.045 607.433C223.566 607.481 224.525 606.078 225.794 606.319C224.843 607.489 223.979 608.348 222.796 609.283C221.399 608.914 221.045 608.738 219.68 609.132C218.819 612.586 224.168 616.784 218.821 619.774C217.755 620.37 217.032 620.56 215.795 620.412L215.034 619.556C215.609 616.776 218.446 616.141 218.084 613.145C217.287 612.689 217.358 612.515 216.389 612.746C214.566 613.181 212.133 615.188 211.173 616.781C210.866 617.291 210.871 617.387 210.74 617.885C211.295 618.307 211.868 618.67 212.432 619.067C213.133 619.559 213.433 620.111 213.914 620.797C215.551 623.136 220.271 623.467 219.89 626.6C219.798 627.356 219.395 628.237 219.135 628.959L219.384 629.805C220.623 629.999 220.825 629.932 221.998 629.465C222.408 628.525 222.662 627.673 222.875 626.67C224.005 626.261 224.837 626.512 225.958 626.962C227.345 627.518 227.838 628.046 228.553 629.32C228.529 630.637 228.139 631.534 227.235 632.487Q226.951 632.787 226.637 633.056Q226.323 633.325 225.982 633.56Q225.642 633.794 225.279 633.992Q224.915 634.19 224.533 634.348Q224.152 634.507 223.755 634.624Q223.359 634.742 222.952 634.817Q222.546 634.893 222.134 634.925Q221.721 634.958 221.308 634.947C219.359 634.886 218.329 633.618 217.131 632.248C215.437 630.31 214.434 628.905 214.162 626.287L213.398 626.216C212.599 627.256 212.208 628.011 212.324 629.38C212.472 631.13 213.231 632.502 213.193 634.39L213.698 634.927C211.77 636.233 211.356 637.002 210.78 639.285C210.033 639.861 209.364 640.142 208.421 640.271C205.938 640.609 191.11 640.418 189.734 639.265C188.539 638.264 188.254 636.506 186.81 635.468C185.59 636.156 185.635 636.628 185.107 637.851L184.788 639.439C183.553 639.881 181.902 640.644 180.585 640.334C179.823 640.155 180.033 640.078 179.578 639.261C179.794 637.944 179.84 636.934 180.867 635.97C182.459 635.886 182.688 636.378 183.92 637.326Z"/>
	<path fill="#FEFEFE" d="M812.277 308.534C814.667 309.318 817.051 310.747 819.248 311.964C826.324 315.882 833.022 321.061 838.037 327.446C845.356 336.762 849.892 348.069 855.086 358.632C865.372 379.552 876.244 400.44 882.785 422.913C892.403 455.963 882.955 485.494 868.716 515.319Q860.166 533.314 850.5 550.735C838.956 543.708 827.788 535.908 816.647 528.258C823.133 511.302 832.463 495.518 839.066 478.527C842.177 470.521 845.973 453.064 850.634 447.473C848.135 437.346 843.364 427.358 839.064 417.885C833.194 407.023 828.635 395.62 824.722 383.925C823.66 380.754 822.552 377.554 821.738 374.311C820.602 369.778 820.46 359.892 816.754 357.073C815.686 357.29 815.232 357.346 814.718 358.462C813.362 361.41 815.787 366.636 816.558 369.603C819.2 379.77 821.868 389.978 825.913 399.704C832.344 415.164 840.348 429.579 845.744 445.502C834.283 452.058 820.639 455.522 808.222 459.826Q786.725 467.493 765.346 475.483C765.423 466.882 765.024 457.872 766.877 449.423C768.547 441.811 772.536 434.458 776.075 427.556Q786.384 407.787 797.675 388.562C803.117 379.267 809.463 370.12 813.291 360.013C809.168 354.188 805.243 348.421 802.096 341.989Q811.029 338.853 819.878 335.49C817.751 326.399 814.725 317.543 812.277 308.534Z"/>
	<path fill="#FEFEFE" d="M432.11 435.366C435.729 436.07 439.58 438.096 443.158 439.208C454.741 442.806 467.566 444.131 475.498 454.521C486.912 469.472 482.724 518.803 480.35 537.904C462.656 532.324 442.771 531.846 424.358 530.966Q424.809 513.604 426.485 496.317C426.862 492.254 427.763 488.093 427.969 484.053C428.039 482.69 427.852 481.673 427.347 480.417L426.503 480.074C425.536 480.774 425.173 481.584 424.769 482.676C422.331 489.256 418.898 526.556 421.814 532.666C423.071 533.575 424.715 534.691 425.397 536.132C427.939 541.511 424.514 551.769 423.075 557.367C402.489 556.921 381.845 551.598 361.993 546.596C359.702 546.089 357.395 545.6 355.128 544.994C353.028 544.433 350.669 543.833 349.528 541.864C350.163 541.437 350.557 541.104 351.081 540.568C351.063 540.403 351.066 540.234 351.028 540.073C349.824 535.045 337.62 527.308 333.33 524.34C336.279 515.858 338.42 507.098 341.656 498.709C344.254 491.976 348.119 485.632 350.071 478.678C350.46 477.289 350.597 476.867 349.893 475.591L348.894 475.313C342.38 478.92 333.139 512.329 330.462 521.405C322.891 518.133 314.755 515.427 307.552 511.434C310.504 506.797 314.161 502.554 317.255 497.998C322.29 490.586 326.941 482.891 331.853 475.394C336.838 467.784 347.304 451.218 355.019 447.278C361.432 444.002 378.9 441.605 386.824 439.952C390.597 444.258 394.179 447.183 400.072 447.78C412.123 449.003 423.054 442.524 432.11 435.366Z"/>
	<path fill="#FEFEFE" d="M746.262 323.382L747.181 323.655C747.819 326.1 744.145 336.31 743.426 339.54C742.3 344.597 741.65 349.579 741.445 354.753C745.088 356.026 748.667 357.126 752.428 357.993C749.452 359.053 744.922 360.13 742.444 362.077C740.665 363.475 742.205 368.833 742.672 370.875C747.192 390.608 750.973 410.822 756.391 430.312C757.953 435.93 761.855 440.361 762.556 446.308C763.728 456.259 761.935 467.009 760.957 476.946Q750.991 480.353 741.125 484.038C747.202 500.49 754.277 517.42 757.41 534.728C761.224 555.806 759.387 578.559 759.317 599.913L759.093 699.449C745.374 699.647 731.56 700.725 717.816 701.088Q720.065 640.18 723.209 579.311C724.291 557.739 725.956 536.121 726.59 514.54C729.953 471.017 730.26 427.202 733.27 383.647C733.657 378.049 734.687 372.536 735.148 366.957C735.319 364.895 735.68 361.6 734.258 359.927C734.015 360.097 733.744 360.231 733.531 360.436C731.21 362.674 730.301 369.673 729.962 372.861C728.472 386.881 728.757 401.049 728.188 415.121Q726.204 459.114 723.494 503.068C722.554 519.958 722.625 537.05 720.359 553.829C706.957 551.312 689.839 547.305 680.535 536.718C682.955 526.743 687.576 517.123 690.942 507.417C697.94 487.241 704.393 466.706 709.21 445.893C715.522 418.619 714.859 390.408 720.962 363.156C724.909 345.534 730.689 333.239 746.262 323.382Z"/>
	<path fill="#FEFEFE" d="M660.957 620.981C661.006 621.03 661.065 621.071 661.104 621.128C661.97 622.428 657.444 656.075 657.047 660.669C654.324 692.24 652.83 723.913 649.744 755.453C646.081 792.882 640.409 855.905 609.19 881.199C600.421 888.304 588.829 892.326 577.507 891.06C563.516 889.495 553.631 880.173 545.192 869.672C518.545 830.332 524.807 768.608 525.458 723.37Q525.974 691.022 524.157 658.721C555.244 658.709 586.558 659.581 617.622 658.624C620.534 658.534 628.266 658.7 630.204 656.422C633.243 652.848 631.908 645.295 631.535 641.012C642.689 636.45 651.821 628.623 660.957 620.981Z"/>
	<path fill="#FEFEFE" d="M708.945 555.523C712.795 556.314 716.688 557.268 720.6 557.662C718.124 588.725 717.344 619.861 716.018 650.986L714.559 683.314C714.252 690.257 713.704 697.293 714.098 704.236C719.767 705.387 725.262 705.161 730.989 704.513C732.937 725.51 733.945 746.569 735.303 767.608Q738.068 810.099 741.521 852.54C742.401 863.271 743.04 874.091 744.219 884.791L746.137 908.785C739.438 911.84 732.764 915.007 725.943 917.779C717.19 919.413 708.36 918.453 699.674 919.76C686.524 921.739 667.998 928.828 655.443 928.706C650.039 931.789 617.118 933.508 609.21 933.513C582.93 933.528 555.596 929.551 531.852 917.806C528.124 915.962 523.649 914.42 520.754 911.313C518.91 909.334 519.11 907.678 519.183 905.112C520.153 904.805 521.362 904.49 522.113 903.759C523.01 902.886 523.321 901.365 523.299 900.152C523.223 895.963 519.484 891.287 516.612 888.394C505.924 877.629 492.725 878.04 478.591 877.97C478.171 877.819 478.035 877.796 477.626 877.495C472.52 873.739 468.47 865.471 464.945 860.155C459.624 852.131 454.522 844.041 450.06 835.497C430.423 797.893 413.509 744.289 410.849 701.893L481.756 701.711C492.402 701.703 504.247 703.227 514.713 701.287C517.482 700.773 519.523 699.232 521.516 697.32C522.489 747.503 510.815 843.399 549.273 880.459C558.443 889.295 570.177 895.189 583.111 894.786C596.728 894.361 608.758 887.81 617.874 877.898C650.77 842.132 655.077 750.437 658.034 703.167C659.882 673.615 660.27 643.193 667.785 614.401C675.989 610.035 686.642 605.553 692.801 598.332C694.906 595.864 695.465 592.86 697.879 590.383C698.968 589.265 700.285 588.079 700.791 586.561C702.159 582.46 701.244 577.862 702.414 573.712C704.163 567.512 707.27 561.749 708.945 555.523Z"/>
	<path fill="#FEEEE3" d="M655.443 928.706C659.385 926.356 668.016 925.125 672.86 923.528Q688.406 918.478 703.119 911.358C709.938 908.05 716.963 904.36 723.119 899.942C729.845 895.113 736.636 888.155 744.219 884.791L746.137 908.785C739.438 911.84 732.764 915.007 725.943 917.779C717.19 919.413 708.36 918.453 699.674 919.76C686.524 921.739 667.998 928.828 655.443 928.706Z"/>
</svg>
