<?xml version="1.0" encoding="utf-8" ?>
<svg xmlns="http://www.w3.org/2000/svg" xmlns:xlink="http://www.w3.org/1999/xlink" width="1024" height="1024">
	<path d="M504.818 53.1713C507.009 52.8356 509.342 52.9026 511.564 52.8625C531.237 52.5076 551.071 59.398 565.3 73.2493C578.624 86.2191 581.521 99.8859 581.834 117.852C590.344 127.538 596.773 140.219 603.476 151.18C613.466 167.513 623.995 183.778 632.952 200.7C687.005 215.076 735.257 235.927 779.925 270.112Q782.963 272.456 785.954 274.861Q788.944 277.266 791.887 279.729Q794.829 282.193 797.721 284.714Q800.614 287.236 803.456 289.815Q806.298 292.394 809.088 295.028Q811.878 297.663 814.615 300.353Q817.351 303.043 820.034 305.787Q822.717 308.531 825.345 311.327Q827.972 314.124 830.544 316.972Q833.115 319.821 835.63 322.72Q838.144 325.619 840.6 328.567Q843.056 331.516 845.453 334.513Q847.849 337.51 850.186 340.554Q852.523 343.598 854.799 346.688Q857.074 349.778 859.288 352.912Q861.501 356.047 863.652 359.225Q865.803 362.403 867.89 365.623Q869.977 368.843 872 372.105Q874.022 375.366 875.98 378.666Q877.937 381.967 879.828 385.306Q881.719 388.645 883.544 392.022Q885.368 395.398 887.125 398.809Q888.881 402.221 890.57 405.667Q892.258 409.113 893.878 412.592Q895.497 416.071 897.047 419.582Q898.597 423.092 900.077 426.633Q901.557 430.174 902.966 433.743Q904.375 437.312 905.712 440.909Q907.05 444.506 908.315 448.129Q909.581 451.751 910.774 455.399Q911.968 459.046 913.088 462.716Q914.209 466.386 915.256 470.078C920.816 489.802 924.42 509.712 927.11 530.005C929.282 530.741 931.481 531.358 933.681 532.001C936.17 532.729 940.74 533.597 941.95 536.144C943.381 539.155 943.097 564.196 943.199 569.218L944.836 640.501C945.964 697.091 946.755 763.256 969.718 815.825Q973.987 825.486 979.017 834.772Q984.047 844.059 989.807 852.912C994.032 859.376 999.105 865.522 1002.79 872.29C1002.89 872.483 1002.99 872.678 1003.1 872.872C991.175 891.559 976.295 908.56 964.971 927.605C952.255 927.432 939.777 924.399 927.006 924.346C914.788 924.295 902.83 926.884 890.669 927.264C875.864 927.726 861.18 924.234 846.358 923.989C834.709 923.797 823.373 926.592 811.727 926.316Q794.695 909.896 776.52 894.751Q758.344 879.607 739.12 865.817C715.516 848.589 691.093 832.593 664.872 819.595C619.062 796.885 568.15 784.05 518.055 774.898C516.363 774.538 514.604 774.415 512.876 774.374C500.5 774.078 477.314 780.525 464.506 783.412C361.529 806.624 288.156 854.769 213.026 926.574C201.108 926.585 189.32 923.687 177.25 923.843C161.603 924.046 146.346 927.54 130.633 927.065C117.953 926.683 105.337 924.111 92.6364 924.18C81.4771 924.24 70.722 927.713 59.5104 927.66C50.7309 920.118 41.1271 903.428 34.3096 893.33C29.6372 886.409 24.6848 879.675 20.2723 872.582C24.8282 865.075 30.1943 857.993 34.9267 850.58C47.4935 830.894 58.0336 810.041 64.6936 787.59C73.2753 758.661 75.3199 728.075 77.42 698.121Q80.7938 651.436 81.7325 604.638C82.0617 590.113 82.4831 575.488 82.4946 560.965C82.4994 554.88 81.5041 548.486 81.9008 542.476C82.0194 540.679 82.3858 538.911 83.3529 537.366C85.8868 533.317 90.936 532.564 95.2032 531.556C98.9784 518.071 100.341 503.657 103.519 489.952Q105.151 482.898 107.044 475.909Q108.937 468.921 111.089 462.008Q113.241 455.095 115.649 448.266Q118.057 441.438 120.717 434.704Q123.378 427.97 126.287 421.34Q129.196 414.71 132.351 408.192Q135.505 401.675 138.899 395.28Q142.294 388.885 145.924 382.62Q147.625 379.734 149.375 376.877Q151.124 374.02 152.922 371.194Q154.72 368.367 156.566 365.571Q158.412 362.775 160.305 360.011Q162.197 357.247 164.137 354.516Q166.077 351.784 168.062 349.086Q170.048 346.388 172.079 343.724Q174.111 341.06 176.187 338.431Q178.263 335.802 180.383 333.208Q182.504 330.615 184.668 328.058Q186.833 325.501 189.04 322.981Q191.247 320.461 193.497 317.979Q195.747 315.497 198.039 313.053Q200.33 310.61 202.663 308.205Q204.996 305.801 207.37 303.437Q209.743 301.072 212.156 298.749Q214.569 296.425 217.022 294.143Q219.474 291.86 221.965 289.62Q224.455 287.38 226.984 285.182Q229.512 282.984 232.077 280.83Q234.643 278.675 237.244 276.565Q239.846 274.454 242.483 272.388Q245.12 270.322 247.792 268.301Q250.464 266.28 253.169 264.304Q255.875 262.329 258.614 260.4Q261.353 258.471 264.124 256.588Q266.895 254.706 269.698 252.871Q272.501 251.036 275.334 249.249Q278.168 247.462 281.031 245.723Q283.895 243.984 286.787 242.295Q289.68 240.605 292.601 238.964Q295.522 237.324 298.47 235.733C327.46 220.349 357.936 209.117 389.602 200.682C394.163 194.591 397.927 187.813 401.876 181.309Q412.798 163.082 423.904 144.968C428.581 137.461 437.031 127.393 440.398 119.988C441.758 116.998 441.677 113.374 441.93 110.132C442.734 99.8696 445.541 91.0271 451.632 82.6073C464.769 64.4458 483.371 56.6917 504.818 53.1713ZM512.302 115.827C507.1 123.816 491.54 146.073 489.853 153.845C488.441 160.349 489.969 168.149 490.002 174.825L489.931 230.412L489.887 474.797C482.368 477.211 474.78 479.096 467.395 481.953C438.617 493.085 416.402 512.482 402.335 540.062C387.231 569.676 383.136 604.121 393.557 635.933C403.216 665.42 424.465 691.44 452.284 705.478C470.643 714.743 489.883 718.871 510.377 718.484C545.451 718.36 571.74 712.277 597.477 686.562Q598.601 685.44 599.696 684.29Q600.792 683.141 601.858 681.964Q602.925 680.788 603.962 679.586Q605 678.383 606.007 677.155Q607.014 675.928 607.99 674.675Q608.966 673.423 609.911 672.147Q610.856 670.87 611.769 669.571Q612.682 668.272 613.563 666.95Q614.444 665.629 615.291 664.286Q616.139 662.943 616.953 661.58Q617.767 660.216 618.547 658.833Q619.327 657.45 620.072 656.048Q620.818 654.645 621.528 653.225Q622.239 651.805 622.914 650.368Q623.589 648.93 624.228 647.477Q624.867 646.023 625.47 644.554Q626.073 643.085 626.64 641.601Q627.206 640.118 627.735 638.621Q628.265 637.124 628.757 635.614Q629.249 634.104 629.704 632.583Q630.158 631.061 630.575 629.529Q630.992 627.996 631.37 626.454Q631.749 624.912 632.089 623.361Q632.43 621.81 632.731 620.251Q633.033 618.692 633.296 617.125Q633.559 615.559 633.783 613.987Q634.007 612.415 634.192 610.838Q634.377 609.261 634.523 607.68Q634.669 606.098 634.776 604.514Q634.883 602.93 634.95 601.343Q635.017 599.756 635.045 598.169Q635.073 596.581 635.062 594.993Q635.047 593.482 634.995 591.972Q634.943 590.462 634.855 588.953Q634.766 587.445 634.641 585.939Q634.516 584.433 634.354 582.93Q634.192 581.428 633.993 579.93Q633.795 578.432 633.56 576.939Q633.325 575.447 633.053 573.96Q632.782 572.474 632.474 570.994Q632.167 569.515 631.824 568.043Q631.48 566.571 631.101 565.109Q630.722 563.646 630.307 562.193Q629.893 560.74 629.443 559.297Q628.993 557.854 628.508 556.423Q628.023 554.992 627.503 553.573Q626.983 552.154 626.429 550.749Q625.875 549.343 625.287 547.951Q624.698 546.559 624.077 545.182Q623.455 543.805 622.799 542.443Q622.144 541.081 621.456 539.736Q620.767 538.391 620.046 537.063Q619.325 535.735 618.572 534.425Q617.819 533.115 617.035 531.823Q616.25 530.532 615.434 529.26Q614.618 527.988 613.771 526.737Q612.924 525.485 612.048 524.254Q611.171 523.024 610.264 521.815Q609.357 520.606 608.421 519.42Q607.485 518.233 606.521 517.07Q605.556 515.907 604.564 514.767Q603.571 513.628 602.551 512.513Q601.531 511.398 600.484 510.309Q599.437 509.219 598.364 508.155C580.263 490.411 557.907 480.472 533.518 474.884C532.539 463.649 532.916 452.179 532.909 440.906L532.918 387.188L532.547 221.457L532.545 175.072C532.558 167.73 533.445 159.271 532.159 152.082C531.038 145.814 516.943 120.51 512.302 115.827ZM641.12 211.806C646.264 221.412 652.133 230.67 657.763 239.998L678.847 275.333L757.508 406.665Q781.927 447.096 805.886 487.8L821.078 513.798C825.084 520.726 828.981 527.907 833.645 534.42C847.28 531.302 873.689 521.991 886.154 515.665C892.54 517.567 898.817 519.694 905.101 521.907C909.948 523.594 914.868 525.216 919.483 527.478C911.215 478.938 897.084 434.807 873.267 391.667C844.438 339.449 807.998 300.258 759.371 265.849C723.809 240.684 682.92 223.54 641.12 211.806ZM381.234 211.463C357.479 219.427 334.074 227.457 311.582 238.63C239.973 274.202 178.301 334.705 142.566 406.317Q137.218 417.107 132.506 428.189Q127.795 439.271 123.734 450.608Q119.674 461.946 116.28 473.5Q112.885 485.053 110.167 496.785C107.726 507.407 106.163 518.157 103.985 528.821C109.475 526.549 114.948 524.22 120.463 522.009C126.278 519.868 132.173 518.002 137.996 515.909C155.391 522.208 172.31 529.627 189.757 535.8C203.428 513.734 216.175 491.131 229.401 468.801L308.563 335.869Q341.351 281.664 373.394 227.017C375.529 223.312 381.443 215.305 382.289 211.778C381.469 211.377 381.835 211.397 381.234 211.463ZM269.809 647.248L196.222 647.518C195.351 668.049 197.292 688.796 197.95 709.317L202.106 838.968C206.966 839.692 212.105 840.081 217.021 840.017C249.271 813.975 283.782 792.916 320.633 774.084C351.011 759.285 381.966 746.362 414.355 736.602C429.411 732.065 444.971 729.139 459.935 724.49C450.235 719.588 440.689 714.556 431.827 708.221C410.804 693.192 393.728 670.96 383.598 647.185L269.809 647.248ZM638.823 647.716C626.133 674.666 609.098 698.234 583.473 714.305C577.188 718.246 570.463 721.438 563.83 724.742C576.192 727.57 588.596 730.364 600.792 733.849C664.186 751.964 719.305 779.759 773.952 816.131C783.846 823.23 794.252 830.089 803.04 838.547C810.092 839.001 817.592 838.916 824.594 837.894L825.444 648.178C780.98 647.48 736.447 647.959 691.975 647.886C674.322 647.857 656.456 648.369 638.823 647.716ZM539.39 195.382C538.01 209.14 539.214 223.891 539.27 237.748L539.263 318.544Q539.079 367.687 539.388 416.828L539.396 443.43C539.379 449.601 539.058 455.97 539.811 462.101C575.817 470.749 607.817 491.875 627.331 523.769C637.495 540.382 643.192 558.394 646.613 577.432L662.027 577.479L662.836 577.004C663.074 523.53 661.533 469.927 660.558 416.46L660.138 380.188C660.055 375.778 660.62 370.658 659.608 366.387C657.468 357.357 634.979 322.779 628.87 312.612Q608.38 277.814 587.488 243.255C578.455 228.175 570.312 212.337 560.477 197.774C553.481 196.749 546.456 195.761 539.39 195.382ZM482.048 195.742C475.923 196.239 469.728 196.963 463.593 197.196Q427.392 257.016 391.815 317.206C385.084 328.538 368.676 352.585 364.934 363.669C364.309 365.518 364.081 367.202 364.064 369.144C363.916 386.621 364.822 404.158 364.919 421.641Q364.806 479.924 365.782 538.197C365.986 547.512 364.826 569.961 366.448 577.381C369.37 577.496 372.217 577.591 375.136 577.337C378.378 568.514 379.505 559.143 382.741 550.341Q383.326 548.741 383.95 547.156Q384.574 545.571 385.237 544.002Q385.9 542.432 386.6 540.88Q387.301 539.327 388.04 537.792Q388.778 536.257 389.554 534.74Q390.329 533.223 391.142 531.726Q391.954 530.229 392.803 528.752Q393.652 527.275 394.537 525.819Q395.421 524.363 396.341 522.93Q397.261 521.496 398.216 520.085Q399.17 518.674 400.159 517.287Q401.148 515.9 402.17 514.537Q403.192 513.174 404.248 511.837Q405.303 510.5 406.391 509.189Q407.478 507.878 408.597 506.594Q409.717 505.309 410.867 504.053Q412.017 502.796 413.198 501.568Q414.379 500.341 415.589 499.142Q416.799 497.943 418.038 496.774Q419.278 495.605 420.545 494.467Q421.812 493.329 423.107 492.221Q424.402 491.115 425.723 490.039Q427.045 488.964 428.392 487.922Q429.739 486.879 431.112 485.87Q432.484 484.861 433.88 483.885Q435.277 482.91 436.697 481.969Q438.117 481.028 439.559 480.121Q441.002 479.215 442.466 478.345Q443.93 477.474 445.415 476.639Q446.9 475.804 448.405 475.006Q449.91 474.208 451.434 473.447Q452.958 472.686 454.5 471.962C463.94 467.635 473.773 464.856 483.664 461.823C482.891 435.419 483.489 408.794 483.551 382.366L483.511 254.225C483.49 244.42 484.151 200.518 482.512 195.994L482.048 195.742ZM507.064 725.204C426.849 732.81 348.522 763.716 280.065 805.306C263.541 815.344 247.274 825.66 232.213 837.82C239.543 851.324 245.867 865.631 253.749 878.806C260.358 874.26 266.599 869.128 272.988 864.277Q286.706 853.808 301.081 844.263C351.492 810.889 407.515 789.485 466.06 775.407C480.965 771.823 504.065 765.329 519.077 767.603C589.986 778.975 655.99 801.228 716.267 840.839C735.859 853.713 752.846 867.536 771.65 880.994C775.767 866.084 781.091 850.338 791.116 838.301C782.992 831.276 773.613 825.195 764.784 819.087C705.169 777.847 634.398 748.578 563.881 732.616C545.598 728.477 526.604 723.937 507.733 725.144C507.509 725.159 507.287 725.184 507.064 725.204ZM434.507 140.749Q352.533 272.639 273.955 406.581L225.382 488.623C214.79 506.755 204.728 525.746 192.903 543.083C192.163 552.268 192.297 569.019 193.438 578.055C196.312 577.797 199.199 577.464 202.084 577.379C205.527 583.457 208.277 589.951 211.839 595.942L218.196 585.447L360.306 343.507L432.556 222.586C444.886 201.954 458.054 181.47 469.581 160.393C458.079 153.685 446.474 146.583 434.507 140.749ZM589.391 141.476C577.446 146.831 566.136 153.54 554.264 159.045C564.098 177.649 575.118 195.595 585.946 213.628L630.172 287.187L752.746 491.692C768.753 518.432 785.348 544.908 801.043 571.816C802.216 573.875 803.483 575.921 804.55 578.035C812.368 577.99 820.195 578.027 828.011 577.883C828.08 570.052 829.518 543.126 827.327 537.918C825.124 532.679 821.678 527.77 818.728 522.901Q813.235 513.709 807.909 504.419Q719.304 352.966 627.41 203.486C622.874 196.021 592.669 144.071 590.359 142.07C589.924 141.692 589.843 141.685 589.391 141.476ZM928.195 678.691C916.112 698.876 904.734 719.532 892.371 739.529C887.717 734.437 884.013 728.578 880.179 722.865L861.823 695.623C858.029 690.027 854.436 684.174 850.001 679.059C847.011 679.451 844.001 679.77 841.06 680.448C840.289 712.295 840.964 744.304 840.986 776.168L841.017 809.288C841.027 816.427 840.683 823.842 841.59 830.929C853.398 815.278 863.204 798.355 873.427 781.663C877.325 775.298 881.043 768.527 885.39 762.48C883.134 759.715 881.11 756.845 879.105 753.894C869.479 770.827 860.143 788.614 849.399 804.847L849.618 712.266L849.516 692.708C864.636 712.908 876.593 735.375 892.841 754.754C903.2 734.006 915.517 713.812 927.522 693.966L927.471 694.452C926.349 706.098 927.463 718.435 927.804 730.127C928.176 742.872 928.027 755.659 928.049 768.409C928.06 774.682 928.57 781.48 927.868 787.699C927.69 789.276 927.378 790.43 926.422 791.724C925.261 792.274 925.218 792.189 923.953 791.884C916.68 785.344 908.305 765.542 902.519 756.293L899.45 763.267C906.036 776.425 913.369 789.117 920.294 802.088C925.695 812.205 930.615 823.091 937.017 832.604L936.805 741.293C936.804 720.691 937.581 699.666 935.939 679.137C933.426 679.044 930.656 679.179 928.195 678.691ZM88.1949 678.782C87.4138 694.593 88.2448 710.566 87.9412 726.403L84.9732 829.473C97.4017 809.196 110.346 789.453 121.266 768.291C119.96 766.543 118.776 764.832 117.732 762.915C114.448 768.574 102.521 790.015 97.6613 792.567C96.1501 792.239 95.9066 792.302 95.0708 790.916C93.9031 788.981 94.0375 785.381 94.0328 783.117C94.0097 771.856 95.134 760.485 95.5494 749.222C96.2244 730.914 96.4436 712.528 97.4288 694.238C105.699 702.672 114.9 719.27 121.553 729.647C131.136 744.593 141.248 759.249 150.489 774.407C161.761 792.894 172.163 811.996 184.028 830.127C183.812 827.383 183.677 824.764 183.832 822.008L182.898 679.501C179.563 679.431 176.041 679.58 172.739 679.176C161.909 697.306 149.928 714.642 138.899 732.618L143.663 738C152.949 722.035 162.832 705.602 174.002 690.907L175.133 762.777C175.259 773.627 176.635 785.543 175.065 796.261C174.111 796.98 174.123 796.868 172.92 796.723C171.058 795.536 169.791 794.026 168.55 792.217C163.674 785.104 159.838 777.078 155.131 769.782L96.6325 678.717C93.82 678.705 91.0052 678.657 88.1949 678.782ZM357.14 376.889C352.488 381.881 340.048 402.288 338.601 408.685C336.846 416.439 338.857 438.524 338.914 447.952Q338.892 496.777 339.937 545.592C340.092 554.483 339.799 563.415 340.14 572.297C340.206 574.024 340.276 575.764 340.51 577.477C346.847 577.475 353.198 577.564 359.533 577.447L358.932 475.149Q359.151 437.291 358.453 399.439C358.308 393.316 358.888 382.3 357.14 376.889ZM667.57 377.803C667.29 381.495 667.182 385.214 667.068 388.915C668.032 399.988 667.37 411.255 667.623 422.369Q668.604 461.602 668.367 500.847C669.104 517.868 668.957 534.953 669.01 551.989C669.036 560.398 668.632 569.142 669.466 577.502L688.027 577.465L686.836 410.433C680.127 399.688 674.805 388.277 667.57 377.803ZM792.594 584.394C744.287 584.27 695.875 583.763 647.577 584.477Q647.982 595.534 648.112 606.597L662.75 606.655Q734.418 607.065 806.086 606.644C804.314 603.063 795.204 585.779 792.594 584.394ZM231.973 584.15C226.511 591.408 221.278 598.572 216.78 606.483C234.773 606.989 252.865 606.623 270.868 606.635L360.317 606.644C365.032 606.6 369.754 606.614 374.467 606.502Q374.564 595.41 374.936 584.324C341.245 583.733 307.425 584.303 273.717 584.283L246.483 584.308C241.726 584.315 236.7 584.616 231.973 584.15ZM209.595 617.646C205.674 623.741 201.588 629.732 197.703 635.849C254.982 636.505 312.337 635.885 369.625 635.989L379.52 635.996C378.193 629.941 376.692 623.864 375.715 617.744C320.355 617.033 264.957 617.86 209.595 617.646ZM648.84 618.716L646.92 619.049C644.136 623.146 643.856 630.729 642.715 635.592L819.625 635.617L824.698 635.724C821.569 629.672 817.224 624.393 813.774 618.543L648.84 618.716ZM331.694 419.326C326.893 427.298 315.199 444.187 312.832 452.345C310.813 459.304 311.981 471.596 312.024 479.234Q312.146 506.75 312.794 534.259C313.069 548.588 312.779 562.926 313.052 577.255C313.304 577.423 313.539 577.7 313.841 577.703L333.54 577.692Q332.275 541.046 332.51 504.379C332.505 491.788 333.651 425.511 331.694 419.326ZM693.936 423.396C693.119 438.963 694.578 454.73 694.075 470.335C695.17 482.674 694.5 495.551 694.514 507.96L694.518 577.494C701.135 577.899 707.88 577.593 714.508 577.522L714.402 479.572C714.405 472.593 714.903 464.413 713.41 457.599C711.754 450.042 699.375 428.839 693.936 423.396ZM864.846 664.116Q861.326 670.668 857.954 677.297Q874.785 702.066 891.879 726.656L899.556 713.256L920.765 676.884C918.397 672.681 916.065 668.503 913.21 664.602C897.067 663.907 880.96 664.629 864.846 664.116ZM107.336 665.032L103.384 676.259C113.519 692.754 124.627 708.522 135.086 724.795Q140.807 716.457 146.248 707.934C152.767 697.827 158.929 687.146 166.366 677.705C164.298 673.589 162.534 669.315 160.829 665.037C143.098 664.965 125.033 665.742 107.336 665.032ZM305.304 463.84C299.822 472.613 288.593 488.954 285.919 498.351C285.435 500.051 285.212 501.84 285.149 503.604C284.542 520.48 285.099 537.597 284.985 554.502C284.954 559.057 284.129 572.57 284.855 575.852C285.022 576.607 285.096 576.662 285.42 577.244C286.219 577.621 286.741 577.752 287.625 577.787Q297.2 577.796 306.773 577.661L306.161 491.672C306.056 484.357 307.246 470.459 305.304 463.84ZM720.873 467.731C719.367 480.435 720.773 497.755 720.85 510.877C720.98 533.114 720.317 555.536 721.048 577.75Q731.641 577.64 742.235 577.655C742.985 565.927 742.054 553.694 742.037 541.917C742.026 533.816 743.051 510.095 741.584 503.359C740.171 496.866 726.368 473.71 721.792 468.568C721.389 468.115 721.416 468.177 720.873 467.731ZM134.644 787.814C125.947 804.267 116.352 820.175 107.877 836.757C117.045 838.599 126.894 839.723 136.247 839.979C145.345 840.042 154.134 839.21 163.093 837.637Q153.891 820.423 144.208 803.475C141.266 798.351 138.335 792.441 134.644 787.814ZM137.242 529.345C134.418 549.285 129.321 568.568 122.898 587.64C115.62 609.252 103.935 631.253 103.912 654.563C111.264 636.868 118.497 619.253 125.218 601.306C129.977 588.596 134.595 576.091 137.724 562.861C144.703 590.283 154.615 632.241 169.234 656.383C168.855 651.251 168.537 646.093 167.599 641.027C164.18 622.56 156.515 603.374 151.253 585.21C145.967 566.962 142.225 549.845 138.179 531.298C137.97 530.343 137.899 530.116 137.242 529.345ZM876.618 528.006C862.617 532.837 848.207 537.251 834.523 542.912C833.204 564.398 833.568 586.05 833.149 607.565C832.732 628.964 831.493 650.602 832.16 671.995C833.007 672.778 833.265 672.545 834.375 672.577L841.488 672.452C843.495 630.508 842.077 588.364 842.601 546.383C849.13 544.269 876.497 536.713 878.682 532.019C879.23 530.842 878.945 529.524 878.772 528.299C877.942 527.939 877.515 527.905 876.618 528.006ZM885.374 526.333C885.345 530.226 884.891 534.106 884.968 538.002C885.09 544.192 886.088 550.472 885.335 556.645C884.113 566.649 878.916 577.039 875.364 586.466Q871.272 597.569 867.416 608.757C866.63 612.502 865.168 616.319 863.953 619.955C858.726 635.593 854.228 644.615 855.158 661.573C862.326 648.29 867.09 633.018 872.014 618.781Q880.268 595.587 887.459 572.042C891.59 580.021 894.481 588.913 897.868 597.245C905.715 616.55 913.306 635.958 921.368 655.174C921.165 650.168 921.37 644.782 920.509 639.85C919.016 631.292 915.622 622.849 912.678 614.69Q906.086 596.287 898.839 578.133C896.334 571.81 893.206 565.607 891.366 559.067C890.093 554.54 889.275 550.104 888.906 545.416C888.467 539.826 889.648 529.14 887.524 524.399C886.451 524.744 886.083 525.488 885.374 526.333ZM889.399 789.86C879.921 805.64 869.198 820.742 860.843 837.176C869.522 838.057 878.325 839.135 887.063 839.043Q901.289 838.842 915.392 836.966L901.348 810.634C897.729 803.817 894.373 795.718 889.399 789.86ZM130.909 526.641C116.29 530.121 102.52 536.431 88.3604 541.353L88.4228 595.218C88.3254 606.479 85.8528 667.124 87.6069 671.986L95.9926 671.897Q96.6117 629.311 96.5075 586.721C96.5131 573.271 96.747 559.77 96.3621 546.325C106.443 541.063 118.811 537.218 129.768 534.152C130.437 531.79 131.252 529.434 131.361 526.969L130.909 526.641ZM143.992 525.864C144.002 528.214 144.044 530.44 144.456 532.766C155.6 536.789 167.471 540.49 177.71 546.5C178.136 557.245 177.882 568.008 178.095 578.759C178.324 590.257 179.011 601.803 179.436 613.301C180.147 632.534 182.035 652.285 181.178 671.511L189.444 671.519C189.64 671.265 189.9 671.05 190.033 670.758C190.657 669.382 186.069 554.396 185.978 542.004L158.337 531.471C153.585 529.651 148.572 528.05 143.992 525.864ZM895.247 527.034C895.227 529.383 895.176 531.734 895.258 534.081C906.236 537.735 917.999 540.557 928.506 545.375C928.272 558.507 928.938 571.72 928.853 584.88C928.666 613.87 927.98 642.887 929.099 671.868L937.459 671.96C937.64 643.927 937.206 615.916 937.072 587.889Q936.824 564.779 936.33 541.673C922.89 536.153 908.948 531.856 895.247 527.034ZM84.6902 874.704C67.8616 876.265 50.1232 878.623 33.245 876.579C35.0138 878.972 36.6203 881.32 38.0733 883.92C45.7268 883.838 53.3938 883.782 61.0249 883.133C72.1772 882.185 83.3324 880.479 94.5454 880.547C109.506 880.639 124.238 884.247 139.244 883.959C158.037 883.598 175.606 880.007 194.616 881.536C210.826 883.425 229.812 886.022 245.717 881.702L242.598 875.978C231.657 876.811 220.808 877.625 209.828 876.884C199.42 876.181 189.119 874.354 178.658 874.492C164.203 874.681 150.008 878.259 135.496 877.791C118.675 877.249 101.482 872.938 84.6902 874.704ZM842.826 874.219C822.119 875.762 801.051 880.193 780.412 875.902C779.563 877.973 778.77 880.09 777.842 882.125C785.572 882.994 793.129 883.687 800.927 883.469C814.856 883.079 828.689 880.753 842.625 880.522C855.817 880.303 868.796 883.299 881.933 883.562C896.774 883.858 911.199 881.29 925.952 880.839C938.646 880.792 951.395 882.485 964.063 883.295C971.351 883.761 978.696 883.592 985.996 883.551L990.165 877.009C979.941 877.327 969.828 877.568 959.618 876.781C949.006 875.962 938.481 874.272 927.813 874.287C913.048 874.307 898.431 877.796 883.7 877.475C870.234 877.181 856.216 872.891 842.826 874.219ZM841.33 891.717C823.628 892.879 805.757 895.185 788 894.485C790.726 897.043 793.447 899.639 796.369 901.977C811.871 902.037 827.097 898.604 842.549 897.944C856.6 897.344 870.485 900.35 884.505 900.55C898.548 900.751 912.367 898.299 926.368 898.387C941.982 898.546 957.408 901.737 973.022 901.511Q975.696 898.127 978.429 894.79C961.104 893.961 943.428 891.841 926.113 892.085C912.145 892.281 898.265 894.827 884.283 894.478C871.552 894.16 853.1 889.967 841.33 891.717ZM87.2682 892.211C73.1235 893.14 59.1604 894.274 44.9736 894.433C46.6968 897.159 48.1878 900.506 51.6125 901.282C61.9534 903.625 79.2048 898.657 90.47 898.24C106.636 897.642 122.609 901.358 138.766 901.273C158.013 901.171 173.294 897.203 193.617 898.589C205.58 899.943 217.127 901.034 229.189 900.675C232.163 898.558 234.59 896.102 237.115 893.477C227.922 894.706 217.971 894.944 208.734 894.296C198.587 893.584 188.455 891.984 178.269 892.045C162.569 892.139 147.344 895.254 131.505 894.603C117.163 894.014 101.535 890.465 87.2682 892.211ZM544.942 67.7714C543.098 80.3053 544.347 96.8964 544.343 109.758C544.34 120.014 542.743 131.701 544.882 141.719C545.698 145.536 548.923 149.449 551.067 152.639L556.124 150.45C558.461 148.289 558.174 145.124 558.274 142.084C558.505 135.105 557.999 128.05 557.963 121.063L557.9 75.9C553.721 72.7719 549.747 69.8573 544.942 67.7714ZM921.757 859.71C910.681 860.453 899.335 861.816 888.245 861.931C875.275 862.065 862.363 860.104 849.409 859.874C835.885 859.634 822.354 861.442 808.857 862.055C802.241 862.355 795.518 861.367 788.947 861.826C787.552 861.924 785.919 862.184 784.914 863.263C784.327 863.893 784.206 864.692 784.028 865.496C784.366 866.587 784.058 866.321 784.921 866.812C792.202 870.957 824.329 865.27 833.863 864.589Q843.991 863.881 854.126 864.495C865.148 865.88 876.789 868.087 887.921 867.672C902.123 867.142 915.941 864.192 930.249 864.398C950.397 864.689 968.41 868.542 989.114 867.453C987.982 865.322 986.912 863.123 985.656 861.064C977.819 861.386 970.087 861.882 962.241 861.448C948.914 860.712 935.097 858.523 921.757 859.71ZM91.7543 859.214C73.8449 860.567 56.5472 863.108 38.5714 860.626C37.1695 862.877 35.7423 865.108 34.503 867.455C42.4333 867.653 50.2677 867.792 58.1843 867.094C69.9915 866.051 81.8213 863.878 93.6997 863.963C109.551 864.077 124.979 868.491 140.888 867.995C154.034 867.585 167.097 864.258 180.254 864.466C199.37 864.472 218.803 869.159 237.899 866.55C237.045 864.704 236.238 862.818 235.224 861.054C217.024 863.749 194.971 859.1 176.105 859.504C162.726 859.791 149.422 863.515 136.032 862.912C122.04 862.282 105.354 857.588 91.7543 859.214ZM478.834 68.4376C474.776 71.0729 470.761 73.7068 466.889 76.6157C466.345 85.0054 464.86 147.519 466.863 150.094C467.423 150.814 468.285 151.454 468.986 152.039C470.313 152.636 471.166 153.375 472.64 152.804C476.218 151.419 478.151 144.916 479.042 141.534C480.721 135.163 479.97 76.5587 478.834 68.4376ZM278.212 510.965C271.107 521.657 264.838 533.056 258.121 544.016C258.97 555.267 258.465 566.653 258.578 577.929L278.562 577.889L278.565 535.136C278.571 527.159 279.016 518.903 278.212 510.965ZM749.068 513.889C748.889 535.074 748.679 556.326 749.023 577.509L769.521 577.475C769.601 569.205 770.947 554.808 768.557 547.404C766.323 540.486 761.543 533.65 757.836 527.402C755.485 523.441 752.673 517.312 749.385 514.15C749.286 514.055 749.174 513.976 749.068 513.889ZM132.696 622.719C130.399 623.172 129.915 623.507 128.544 625.507C122.173 634.8 117.936 647.446 113.901 657.922Q125.388 658.027 136.875 658.003L155.97 658.011C151.216 646.007 146.295 634.301 140.545 622.731L132.696 622.719ZM90.255 908.714C79.2967 909.652 68.1582 911.393 57.1722 911.524C58.773 913.774 60.3468 915.939 62.2138 917.981C76.3775 915.543 91.229 914.29 105.577 915.331C116.539 916.127 127.54 917.976 138.543 917.848C153.869 917.67 168.841 914.511 184.25 914.967C194.06 915.35 203.838 916.473 213.649 916.728L217.573 911.584C204.233 910.824 190.744 908.362 177.388 908.663C162 909.01 146.95 911.858 131.49 911.506C118.044 911.2 103.586 906.995 90.255 908.714ZM886.274 621.959C877.372 626.595 871 647.672 867.932 656.98L890.875 656.978L909.526 656.935C906.572 649.373 898.413 625.761 891.125 622.397C889.578 621.683 887.926 621.839 886.274 621.959ZM837.683 909.25Q822.753 910.204 807.926 912.197C809.726 913.865 811.497 915.587 813.362 917.181C826.961 915.556 840.129 914.206 853.854 915.044C864.561 915.697 875.3 917.702 886.028 917.593C904.001 917.41 920.265 914.02 938.622 915.586C946.051 916.093 953.86 916.82 961.165 918.339L966.55 911.672C952.623 911.077 938.716 908.767 924.782 908.964C911.015 909.159 897.43 911.775 883.617 911.498C868.352 911.191 852.953 907.782 837.683 909.25ZM876.677 541.979C867.438 545.117 858.344 548.688 849.097 551.78C849.053 556.997 847.922 582.197 849.998 584.618L866.334 584.504C868.518 578.147 879.397 547.3 877.22 542.057L876.677 541.979ZM126.996 541.524C118.726 544.263 110.791 547.921 102.547 550.74C102.546 555.329 101.774 581.864 103.148 584.032C107.816 584.011 112.491 584.045 117.157 583.953C118.878 578.275 129.473 545.351 127.805 541.567L126.996 541.524ZM896.092 541.634C896.74 551.556 904.738 574.775 908.532 584.382C912.994 584.431 917.614 584.735 922.059 584.416Q922.49 567.483 921.898 550.555C913.342 547.53 904.572 544.814 896.092 541.634ZM525.183 61.0829C524.844 69.5974 525.019 78.1503 525.06 86.6703C525.153 105.752 525.468 115.227 537.518 130.947Q537.952 120.926 538.117 110.897C537.895 106.835 538.295 102.584 538.348 98.505Q538.553 85.5532 538.179 72.6051L537.885 64.3522C533.672 63.0898 529.483 62.0041 525.183 61.0829ZM485.95 64.2986C487.084 70.4318 486.06 78.1549 486.071 84.4901L486.456 124.657C486.542 126.108 486.857 127.433 487.198 128.839C487.342 128.772 487.494 128.721 487.629 128.64C491.252 126.466 495.94 116.53 497.464 112.413C500.113 105.256 498.615 71.9432 498.492 61.8645C494.3 62.4409 490.102 63.4651 485.95 64.2986ZM837.007 844.714C823.619 845.622 808.962 847.567 795.683 845.412L792.489 850.485C809.417 851.884 826.002 847.409 842.891 847.528C858.462 847.639 873.919 851.915 889.411 851.222C903.841 850.576 917.777 846.703 932.382 847.891C942.196 848.084 972.052 853.717 978.247 850.594L978.883 849.662C978.529 848.417 978.158 847.897 977.012 847.224C972.353 844.487 963.923 846.653 958.628 846.574C948.849 846.429 939.226 844.383 929.354 844.443C913.806 844.537 898.368 846.733 882.793 846.505C867.707 846.283 852.02 843.058 837.007 844.714ZM146.96 541.141C150.602 555.39 153.209 570.053 157.9 584.001C162.477 583.987 167.153 583.762 171.72 583.969C171.39 573.087 171.718 562.174 171.239 551.304Q159.192 546.002 146.96 541.141ZM458.645 85.3452C450.879 96.5644 447.371 109.707 448.351 123.285Q443.744 128.992 439.209 134.757L447.269 139.662L459.368 146.355C459.492 137.797 460.677 90.5702 459.031 85.7137L458.645 85.3452ZM565.078 84.7866C564.579 104.925 564.347 125.346 565.049 145.479C569.652 143.417 573.998 141.017 578.386 138.544L585.621 134.525C582.043 129.933 578.119 125.351 574.913 120.502C575.097 108.275 575.03 95.0012 565.974 85.5594C565.589 85.1585 565.468 85.0843 565.078 84.7866ZM88.5255 844.71C81.5557 845.348 74.4261 846.351 67.4329 846.526C61.7093 846.67 55.5448 845.749 49.9218 846.456C48.5267 846.632 46.7808 847.022 45.8102 848.114C45.2502 848.744 44.9961 849.592 44.7223 850.369C45.3857 851.388 45.7909 851.603 46.94 851.878C53.1361 853.364 68.2674 849.667 75.2661 848.767Q81.7134 847.979 88.2045 847.747C97.985 847.426 107.592 848.492 117.238 849.943C124.139 850.981 131.189 852.362 138.186 852.382C146.668 852.406 155.554 850.173 163.884 848.631C169.773 847.862 175.512 847.342 181.466 847.593C191.614 848.021 202.34 850.605 212.327 848.232C200.959 846.611 188.796 844.34 177.317 844.498C161.255 844.72 145.619 847.885 129.431 847.498C117.316 847.209 99.9822 842.826 88.5255 844.71ZM505.521 60.5001C505.229 66.4458 504.432 97.1216 506.026 100.616C510.488 99.4245 512.931 98.5628 517.426 100.063C519.212 91.2263 518.271 70.3288 518.171 60.4162C513.944 60.3461 509.746 60.3155 505.521 60.5001ZM952.961 793.764C951.618 801.473 952.339 810.127 952.4 817.964C952.453 824.742 952.23 831.632 952.579 838.393C959.267 839.134 966.025 839.124 972.747 839.03C968.11 833.143 964.49 824.593 961.704 817.632C960.004 813.384 955.123 795.785 952.961 793.764ZM69.7266 798.345C64.4796 810.918 58.2541 822.865 52.7108 835.272L52.0164 835.28L52.7465 835.84L51.5137 838.783L52.0142 839.575C57.8821 839.57 64.1366 838.972 69.9333 838.041C70.0869 827.021 72.1229 808.536 69.7266 798.345ZM194.703 583.704C192.054 589.795 193.782 613.75 194.61 621.573L198.938 615.12C201.67 611.106 204.279 606.864 207.265 603.041C204.661 597.391 201.846 588.204 197.155 584.19C196.326 583.989 195.551 583.804 194.703 583.704ZM856.47 740.007C857.089 752.477 856.142 765.012 856.957 777.474C857.159 777.628 857.462 777.533 857.716 777.543C862.031 771.159 865.792 764.432 869.496 757.683C866.168 753.497 860.756 741.179 857.105 739.005L856.47 740.007ZM166.788 739.385C162.996 745.61 158.968 751.84 155.835 758.425C158.26 762.496 160.657 768.107 163.591 771.752L168.08 779.579C168.063 773.754 168.884 741.781 166.788 739.385ZM812.065 585.251L810.874 585.686C811.04 591.134 822.463 606.23 826.041 611.245C827.39 609.906 826.939 601.044 826.947 598.785Q826.995 591.967 826.89 585.149C821.939 585.009 817.007 584.809 812.065 585.251ZM103.038 738.36C101.257 747.722 101.544 765.625 101.474 775.702L106.06 768.234C108.769 763.887 111.692 759.574 114.143 755.079C110.836 749.774 107.773 742.479 103.038 738.36ZM539.575 162.797C538.54 170.679 538.963 178.907 539.104 186.844C544.322 187.013 549.635 187.244 554.823 187.869C550.239 179.432 545.678 170.242 539.575 162.797ZM921.332 739.837C917.951 745.185 914.538 750.65 911.843 756.382C914.16 760.327 916.708 764.255 918.769 768.334L921.914 774.081C921.868 766.003 923.46 746.495 921.332 739.837ZM482.327 165.915C480.424 168.879 469.51 185.073 469.979 187.508L470.448 187.663C474.634 187.534 478.779 187.25 482.951 186.883C482.977 182.282 484.162 169.286 482.327 165.915ZM667.068 388.915C666.324 394.962 666.736 401.284 666.64 407.386C666.391 423.186 666.615 438.817 666.754 454.604C666.872 467.898 665.486 487.819 667.951 500.414L668.367 500.847Q668.604 461.602 667.623 422.369C667.37 411.255 668.032 399.988 667.068 388.915ZM250.826 557.425C247.231 563.519 241.991 570.725 239.339 577.183C240.348 577.544 241.206 577.724 242.272 577.834C245.431 577.802 248.634 577.87 251.783 577.643C251.86 573.218 252.906 560.609 250.826 557.425ZM776.565 559.79Q776.41 568.651 776.703 577.508L787.799 577.452C784.368 571.814 781.549 564.188 776.565 559.79ZM867.416 608.757Q871.272 597.569 875.364 586.466C878.916 577.039 884.113 566.649 885.335 556.645C886.088 550.472 885.09 544.192 884.968 538.002C884.891 534.106 885.345 530.226 885.374 526.333L884.54 526.476C882.129 537.368 886.37 548.672 883.683 559.463C881.309 568.999 865.787 602.382 867.416 608.757ZM486.456 124.657L486.071 84.4901C486.06 78.1549 487.084 70.4318 485.95 64.2986L485.258 64.534C484.528 66.8795 484.014 69.1457 483.934 71.6135C483.772 76.6046 484.96 124.07 485.694 125.698C485.754 125.83 485.842 125.946 485.916 126.071L486.456 124.657ZM694.075 470.335C692.775 483.41 694 497.327 693.9 510.501L693.438 557.756C693.425 563.614 693.093 569.617 693.359 575.461C693.388 576.109 693.529 576.516 693.856 577.07L694.518 577.494L694.514 507.96C694.5 495.551 695.17 482.674 694.075 470.335ZM937.072 587.889C937.206 615.916 937.64 643.927 937.459 671.96C937.835 671.753 938.15 671.435 938.477 671.157C939.421 657.331 938.533 642.976 938.496 629.095C938.463 616.49 939.454 603.055 938.084 590.561C937.967 589.496 937.603 588.797 937.072 587.889ZM225.006 843.863C222.129 846.233 219.401 848.682 216.721 851.273L223.356 851.548L231.1 851.486C229.573 848.778 228.072 844.95 225.006 843.863ZM538.179 72.6051Q538.553 85.5532 538.348 98.505C538.295 102.584 537.895 106.835 538.117 110.897L538.74 110.809C540.324 107.773 539.746 77.3936 539.049 72.8806L538.179 72.6051ZM856.957 777.474C856.142 765.012 857.089 752.477 856.47 740.007L855.583 740.492C855.39 744.733 855.078 775.717 855.961 776.674C856.532 777.292 856.274 777.078 856.957 777.474ZM258.578 577.929C258.465 566.653 258.97 555.267 258.121 544.016L257.302 544.502C257.02 551.072 257.455 557.759 257.489 564.343C257.511 568.417 256.767 573.366 257.561 577.334L258.578 577.929Z"/>
	<path d="M258.578 577.929L257.561 577.334C256.767 573.366 257.511 568.417 257.489 564.343C257.455 557.759 257.02 551.072 257.302 544.502L258.121 544.016C258.97 555.267 258.465 566.653 258.578 577.929Z"/>
	<path d="M856.957 777.474C856.274 777.078 856.532 777.292 855.961 776.674C855.078 775.717 855.39 744.733 855.583 740.492L856.47 740.007C857.089 752.477 856.142 765.012 856.957 777.474Z"/>
	<path d="M538.179 72.6051L539.049 72.8806C539.746 77.3936 540.324 107.773 538.74 110.809L538.117 110.897C537.895 106.835 538.295 102.584 538.348 98.505Q538.553 85.5532 538.179 72.6051Z"/>
	<path d="M937.072 587.889C937.603 588.797 937.967 589.496 938.084 590.561C939.454 603.055 938.463 616.49 938.496 629.095C938.533 642.976 939.421 657.331 938.477 671.157C938.15 671.435 937.835 671.753 937.459 671.96C937.64 643.927 937.206 615.916 937.072 587.889Z"/>
	<path d="M694.075 470.335C695.17 482.674 694.5 495.551 694.514 507.96L694.518 577.494L693.856 577.07C693.529 576.516 693.388 576.109 693.359 575.461C693.093 569.617 693.425 563.614 693.438 557.756L693.9 510.501C694 497.327 692.775 483.41 694.075 470.335Z"/>
	<path d="M486.456 124.657L485.916 126.071C485.842 125.946 485.754 125.83 485.694 125.698C484.96 124.07 483.772 76.6046 483.934 71.6135C484.014 69.1457 484.528 66.8795 485.258 64.534L485.95 64.2986C487.084 70.4318 486.06 78.1549 486.071 84.4901L486.456 124.657Z"/>
	<path d="M867.416 608.757C865.787 602.382 881.309 568.999 883.683 559.463C886.37 548.672 882.129 537.368 884.54 526.476L885.374 526.333C885.345 530.226 884.891 534.106 884.968 538.002C885.09 544.192 886.088 550.472 885.335 556.645C884.113 566.649 878.916 577.039 875.364 586.466Q871.272 597.569 867.416 608.757Z"/>
	<path d="M667.068 388.915C668.032 399.988 667.37 411.255 667.623 422.369Q668.604 461.602 668.367 500.847L667.951 500.414C665.486 487.819 666.872 467.898 666.754 454.604C666.615 438.817 666.391 423.186 666.64 407.386C666.736 401.284 666.324 394.962 667.068 388.915Z"/>
	<path d="M510.759 492.976C515.711 499.571 518.892 507.887 522.616 515.251L539.315 547.514L560.833 589.415C565.62 598.614 570.94 607.866 574.883 617.464C577.758 624.46 579.778 631.097 580.168 638.673C581.12 657.186 574.307 673.474 561.848 687.063C549.241 700.814 532.041 708.414 513.48 709.145C502.247 709.223 491.361 707.111 481.239 702.148C464.683 694.032 452.646 678.874 446.74 661.554C443.738 652.75 442.381 642.575 444.306 633.396C447.268 619.277 454.625 606.111 461.077 593.333L476.68 562.459Q493.898 527.805 510.759 492.976Z"/>
</svg>
