<?xml version="1.0" encoding="utf-8" ?>
<svg xmlns="http://www.w3.org/2000/svg" xmlns:xlink="http://www.w3.org/1999/xlink" width="1820" height="1024">
	<path fill="#FEE5A7" d="M911.101 669.409C928.659 673.748 946.698 676.826 964.126 681.414L991.311 770.381C1009.38 829.93 1023.62 881.27 1082.84 912.133C1121.5 932.282 1168.79 938.401 1210.66 925.173C1249.98 912.747 1284.71 885.692 1303.73 848.779C1324.21 809.045 1325.16 763.154 1311.53 721.026C1309.78 715.605 1307.98 709.589 1303.52 705.816C1316.54 702.344 1332.7 705.563 1346.14 706.011C1346.61 706.377 1347.05 706.778 1347.46 707.212C1350.13 710.017 1351.78 715.856 1353.16 719.455C1362.79 744.638 1370.38 773.417 1370.33 800.521C1370.25 846.225 1347.81 882.258 1316.21 913.58C1283.85 945.653 1247.17 969.895 1200.15 969.535C1124.35 968.954 1045.58 926.463 993.327 873.04Q990.841 870.542 988.418 867.983Q985.995 865.424 983.637 862.805Q981.278 860.187 978.986 857.51Q976.694 854.833 974.469 852.1Q972.244 849.367 970.088 846.579Q967.932 843.791 965.846 840.95Q963.761 838.109 961.747 835.217Q959.732 832.325 957.791 829.384Q955.849 826.443 953.982 823.454Q952.115 820.465 950.322 817.43Q948.53 814.396 946.814 811.317Q945.098 808.239 943.459 805.119Q941.821 801.998 940.26 798.838Q938.7 795.678 937.219 792.48Q935.738 789.282 934.337 786.048Q932.937 782.814 931.617 779.546Q930.297 776.278 929.06 772.978Q927.822 769.678 926.667 766.348Q925.512 763.018 924.44 759.66Q923.369 756.303 922.381 752.919Q921.394 749.536 920.491 746.129Q919.588 742.722 918.771 739.294Q917.953 735.865 917.222 732.418Q916.49 728.97 915.845 725.505Q915.199 722.04 914.64 718.56Q914.082 715.08 913.61 711.587Q913.138 708.094 912.754 704.591Q912.369 701.087 912.072 697.575Q911.775 694.063 911.566 690.545Q911.357 687.027 911.235 683.504Q911.114 679.982 911.08 676.458Q911.047 672.933 911.101 669.409Z"/>
	<path fill="#3F3E3E" d="M665.052 657.92C665.231 657.978 665.408 658.038 665.587 658.093C674.352 660.791 684.126 660.774 693.1 663.045Q694.629 663.418 696.147 663.83Q697.665 664.243 699.172 664.696Q700.679 665.148 702.174 665.64Q703.668 666.132 705.149 666.662Q706.63 667.193 708.097 667.763Q709.564 668.333 711.015 668.94Q712.466 669.548 713.901 670.194Q715.336 670.84 716.753 671.523Q718.171 672.206 719.57 672.926Q720.969 673.647 722.348 674.403Q723.728 675.16 725.087 675.953Q726.446 676.745 727.784 677.573Q729.122 678.401 730.438 679.264Q731.754 680.127 733.046 681.024Q734.339 681.921 735.608 682.852Q736.876 683.783 738.12 684.747Q739.364 685.71 740.582 686.707Q741.8 687.703 742.992 688.73Q744.183 689.758 745.348 690.817Q746.512 691.875 747.648 692.964Q748.784 694.053 749.891 695.171Q750.998 696.29 752.075 697.437Q753.152 698.583 754.199 699.758Q755.246 700.933 756.262 702.135Q757.277 703.337 758.261 704.565Q759.245 705.793 760.196 707.047Q761.147 708.301 762.065 709.579Q762.983 710.857 763.867 712.159Q764.752 713.46 765.601 714.785Q766.451 716.109 767.266 717.456Q768.08 718.802 768.859 720.169Q769.638 721.537 770.381 722.924C788.036 755.328 794.634 794.082 784.016 829.812Q783.594 831.208 783.139 832.594Q782.683 833.979 782.194 835.353Q781.705 836.727 781.183 838.089Q780.661 839.451 780.106 840.799Q779.552 842.148 778.964 843.483Q778.377 844.818 777.757 846.138Q777.138 847.458 776.486 848.763Q775.835 850.068 775.152 851.357Q774.469 852.646 773.755 853.917Q773.042 855.189 772.297 856.443Q771.553 857.697 770.778 858.933Q770.003 860.169 769.199 861.385Q768.395 862.602 767.561 863.798Q766.728 864.995 765.865 866.171Q765.003 867.347 764.113 868.502Q763.222 869.657 762.304 870.79Q761.386 871.923 760.44 873.033Q759.495 874.144 758.523 875.231Q757.55 876.318 756.552 877.381Q755.554 878.444 754.531 879.483Q753.507 880.522 752.459 881.535Q751.41 882.549 750.337 883.537Q749.265 884.525 748.168 885.486Q747.072 886.448 745.953 887.383Q744.833 888.317 743.692 889.225Q742.55 890.132 741.387 891.011Q740.224 891.891 739.039 892.742Q737.855 893.593 736.651 894.415Q735.446 895.237 734.222 896.029Q732.998 896.822 731.755 897.584Q730.512 898.347 729.251 899.079Q727.99 899.812 726.712 900.513C694.597 917.919 653.476 920.187 618.757 909.855C587.812 900.646 563.157 880.468 547.808 852.081C541.202 839.863 535.258 825.531 532.916 811.777C531.713 804.713 531.907 794.271 529.076 787.908C525.82 787.315 522.849 787.211 519.544 787.3C522.765 786.708 526.165 786.922 529.436 786.941C530.204 772.927 531.688 759.308 535.779 745.826Q536.395 743.733 537.086 741.664Q537.777 739.595 538.543 737.552Q539.308 735.51 540.148 733.496Q540.987 731.482 541.899 729.501Q542.81 727.519 543.794 725.571Q544.776 723.624 545.83 721.714Q546.882 719.803 548.004 717.932Q549.125 716.061 550.314 714.232Q551.503 712.403 552.757 710.618Q554.011 708.833 555.329 707.095Q556.647 705.357 558.027 703.668Q559.408 701.979 560.848 700.341Q562.289 698.703 563.788 697.118Q565.287 695.534 566.842 694.004Q568.398 692.475 570.008 691.003Q571.618 689.532 573.28 688.119Q574.942 686.707 576.654 685.356Q578.367 684.005 580.127 682.716Q581.887 681.428 583.693 680.205Q585.499 678.981 587.347 677.824Q589.196 676.667 591.086 675.578Q592.976 674.488 594.904 673.468Q596.831 672.448 598.795 671.499Q600.759 670.549 602.755 669.672Q604.752 668.794 606.779 667.99Q608.807 667.185 610.862 666.454Q612.917 665.724 614.997 665.068Q617.077 664.413 619.18 663.833Q621.283 663.254 623.405 662.751Q625.527 662.248 627.666 661.823Q629.805 661.397 631.959 661.049Q634.112 660.701 636.276 660.432C640.921 659.843 661.655 660.021 664.489 658.293C664.681 658.176 664.864 658.044 665.052 657.92ZM662.813 666.516C659.387 674.835 656.618 683.482 652.915 691.666C643.897 711.596 628.788 732.214 609.35 742.969C606.178 742.047 603.863 741.858 601.552 739.447C599.695 732.482 605.671 725.457 600.966 719.946C596.954 718.041 591.343 717.215 587.11 718.94C585 719.8 583.396 721.474 582.575 723.596C581.197 727.162 581.834 732.505 583.548 735.888C584.7 738.162 586.328 740.043 588.099 741.852C579.433 748.018 572.55 754.564 570.816 765.63C570.032 770.638 570.448 775.869 571.076 780.871C559.411 782.663 547.426 785.173 535.664 786.037C535.757 794.146 537.076 802.647 538.836 810.553C545.923 842.378 563.463 872.94 591.493 890.604C620.358 908.793 659.424 914.213 692.504 906.612Q693.922 906.295 695.333 905.942Q696.743 905.59 698.144 905.203Q699.545 904.816 700.936 904.394Q702.327 903.973 703.707 903.517Q705.087 903.061 706.456 902.572Q707.824 902.082 709.18 901.559Q710.536 901.036 711.879 900.479Q713.222 899.922 714.55 899.333Q715.879 898.743 717.193 898.121Q718.506 897.499 719.804 896.845Q721.102 896.19 722.383 895.504Q723.665 894.818 724.929 894.1Q726.193 893.383 727.439 892.634Q728.685 891.885 729.912 891.106Q731.139 890.327 732.347 889.518Q733.554 888.709 734.741 887.87Q735.929 887.031 737.095 886.164Q738.261 885.296 739.405 884.4Q740.55 883.504 741.672 882.579Q742.793 881.655 743.892 880.703Q744.991 879.752 746.066 878.773Q747.141 877.795 748.192 876.79Q749.242 875.785 750.268 874.755Q751.293 873.725 752.293 872.669Q753.292 871.614 754.266 870.535Q755.239 869.455 756.186 868.352Q757.132 867.248 758.051 866.122Q758.97 864.995 759.861 863.847Q760.752 862.698 761.614 861.528Q762.476 860.357 763.309 859.166Q764.143 857.975 764.946 856.763Q765.75 855.552 766.523 854.321C783.671 826.613 786.551 793.161 779.031 761.876C771.28 729.627 751.858 699.109 723.227 681.68C707.945 672.377 691.608 667.679 673.955 665.623C670.462 665.217 666.578 664.337 663.128 665.182L662.813 666.516Z"/>
	<path fill="#B5D4D9" d="M535.664 786.037Q535.685 785.406 535.716 784.775C537.384 750.561 549.601 718.124 575.366 694.768C597.094 675.073 629.313 663.173 658.768 664.801C660.934 664.92 661.276 664.816 662.813 666.516C659.387 674.835 656.618 683.482 652.915 691.666C643.897 711.596 628.788 732.214 609.35 742.969C606.178 742.047 603.863 741.858 601.552 739.447C599.695 732.482 605.671 725.457 600.966 719.946C596.954 718.041 591.343 717.215 587.11 718.94C585 719.8 583.396 721.474 582.575 723.596C581.197 727.162 581.834 732.505 583.548 735.888C584.7 738.162 586.328 740.043 588.099 741.852C579.433 748.018 572.55 754.564 570.816 765.63C570.032 770.638 570.448 775.869 571.076 780.871C559.411 782.663 547.426 785.173 535.664 786.037Z"/>
	<path fill="#3F3E3E" d="M711.689 733.453C709.134 727.996 706.514 722.138 708.762 716.1C709.791 713.338 711.822 711.113 714.533 709.927Q715.179 709.652 715.85 709.445Q716.521 709.238 717.21 709.102Q717.899 708.966 718.598 708.901Q719.297 708.837 720 708.846Q720.702 708.855 721.399 708.937Q722.097 709.018 722.782 709.172Q723.467 709.325 724.133 709.549Q724.798 709.773 725.437 710.064C728.241 711.313 730.481 713.426 731.623 716.316C733.114 720.086 732.595 723.802 730.842 727.37Q729.299 730.482 727.377 733.374C737.874 746.738 746.973 759.855 744.832 777.786C743.539 788.617 738.24 798.699 736.889 809.492C735.526 820.37 741.799 849.11 733.593 856.405C731.418 857.319 729.668 857.631 727.374 856.835C725.315 856.121 724.189 854.063 723.397 852.158C720.887 846.121 721.251 838.655 720.315 832.216C719.789 839.495 719.459 852.987 713.614 858.186C712.987 858.744 712.208 859.101 711.436 859.4C708.878 858.634 707.604 857.614 706.32 855.184C700.085 843.384 702.828 814.773 702.796 800.823L686.234 800.723C686.449 806.866 688.084 817.027 684.406 822.34C674.91 827.429 646.047 824.222 634.575 823.895C634.499 815.44 634.312 806.97 634.383 798.516C626.723 798.151 619.04 797.887 611.413 797.071C611.084 807.407 610.004 848.883 603.402 855.174C601.859 856.644 600.754 856.406 598.722 856.538C596.633 855.449 595.407 854.835 594.554 852.454C593.746 850.2 593.296 847.704 592.773 845.365C590.925 849.557 588.214 856.655 583.342 858.063C581.6 858.567 580.379 858.181 578.902 857.23C576.209 855.498 574.89 852.176 574.383 849.145C572.212 836.14 579.675 813.998 577.693 804.526C577.291 802.6 575.29 800.94 573.932 799.646C571.957 793.543 572.521 787.078 571.076 780.871C570.448 775.869 570.032 770.638 570.816 765.63C572.55 754.564 579.433 748.018 588.099 741.852C586.328 740.043 584.7 738.162 583.548 735.888C581.834 732.505 581.197 727.162 582.575 723.596C583.396 721.474 585 719.8 587.11 718.94C591.343 717.215 596.954 718.041 600.966 719.946C605.671 725.457 599.695 732.482 601.552 739.447C603.863 741.858 606.178 742.047 609.35 742.969C617.454 745.476 637.461 749.11 641.688 756.707Q641.834 756.965 641.952 757.237Q642.069 757.51 642.156 757.793Q642.243 758.077 642.299 758.368Q642.354 758.66 642.378 758.955Q642.402 759.251 642.393 759.548Q642.385 759.844 642.344 760.138Q642.303 760.432 642.231 760.719Q642.158 761.007 642.055 761.285C640.313 766.116 633.177 770.341 628.818 772.737C636.243 775.26 643.51 776.975 651.196 778.475C650.51 769.221 646.874 745.071 652.412 738.149C654.287 735.806 657.803 733.999 660.779 733.87C664.63 733.703 668.92 734.443 672.72 735.14L678.099 747.813C689.501 743.492 700.817 739.009 711.689 733.453ZM721.52 735.906C710.049 740.759 697.954 745.125 686.843 750.711L687.675 750.885C686.39 751.047 686.214 751.011 685.262 751.862C690.961 750.109 698.877 746.628 704.764 747.164L705.439 748.203C703.279 752.497 696.781 755.089 692.472 756.493C686.933 758.298 680.995 759.138 675.189 759.471C673.434 753.192 671.834 746.815 669.88 740.598C665.304 739.895 660.872 739.323 656.233 739.177Q656.826 758.895 656.608 778.621L667.711 778.743C667.946 783.542 669.36 791.995 665.864 795.762C662.982 798.868 657.935 798.496 654.033 798.606L653.9 818.448L680.729 818.535L680.898 795.775C688.143 794.625 695.369 794.713 702.684 794.696C705.077 783.648 708.799 774.097 708.728 762.587C699.514 766.306 685.867 773.224 675.905 768.856C669.128 765.884 666.568 758.022 664.166 751.601C663.403 749.562 663.202 747.714 663.704 745.589C670.124 750.728 673.257 758.053 676.971 765.198C690.421 763.807 702.292 757.581 715.474 755.025C715.312 761.464 715.304 768.022 713.974 774.348C712.22 782.691 709.025 790.825 707.95 799.3C706.65 809.54 708.775 819.453 709.016 829.653C709.18 836.581 708.227 844.079 709.771 850.851L710.847 851.416C716.855 844.172 711.706 814.574 719.57 807.013C720.386 807.216 720.958 807.101 721.406 807.861C728.571 820.01 722.446 839.674 729.025 851.002L730.386 850.845C736.785 840.926 725.222 791.4 732.417 778.082L733.936 777.841C736.416 780.095 736.919 783.359 737.747 786.474C739.499 768.93 737.701 754.723 726.252 740.576C724.89 738.893 723.464 736.929 721.52 735.906ZM593.45 745.614C585.442 750.708 579.171 756.043 576.966 765.786C575.674 771.496 576.173 778.286 578.403 783.709C581.176 782.268 579.697 779.187 583.355 778.817C585.574 781.437 585.315 783.641 585.034 786.974C584.028 798.893 576.337 842.177 581.939 850.656C583.831 849.63 584.611 846.289 585.192 844.248C587.705 835.424 587.312 812.416 593.659 806.849C595.179 807.14 595.289 807.017 596.17 808.306C600.194 814.193 599.99 823.413 599.832 830.35C599.416 836.885 599.069 842.859 600.369 849.323L600.891 849.309C601.393 842.678 601.769 835.956 602.666 829.367C604.114 818.729 607.615 808.094 605.81 797.27C604.084 786.911 599.364 777.386 597.131 767.212C596.393 763.849 595.739 761.571 598.287 759.016C606.916 757.447 622.391 771.053 630.31 766.723C627.965 762.646 621.22 763.281 617.77 760.787C610.53 755.553 606.392 748.921 597.054 746.441Q595.265 745.973 593.45 745.614ZM603.801 766.708C605.516 775.294 607.291 783.002 611.311 790.875C628.273 792.957 644.796 794.389 661.857 792.476C662.133 789.776 662.68 787.016 661.466 784.476C652.707 782.963 643.508 784.269 634.997 781.465C623.945 777.825 614.602 770.708 603.801 766.708ZM639.61 798.925C639.212 804.665 637.45 812.512 641.468 817.2C643.66 818.729 645.873 818.59 648.428 818.649C648.801 813.755 650.683 804.804 647.404 800.808C646.396 799.578 644.957 799.001 643.365 798.905C642.121 798.83 640.855 798.885 639.61 798.925ZM718.02 713.091C715.524 716.247 713.239 719.03 713.665 723.323C713.848 725.167 714.781 726.88 716.343 727.948C718.144 729.178 720.056 729.583 722.178 729.85C724.574 727.272 726.85 724.759 726.734 720.965C726.664 718.664 725.428 716.758 723.661 715.361C721.985 714.036 720.051 713.577 718.02 713.091Z"/>
	<path fill="#F8F8F4" d="M593.679 723.36C594.621 724.035 595.793 724.792 596.513 725.706C597.704 727.218 597.93 728.893 597.55 730.704C596.875 733.924 594.266 735.486 591.664 737.03C589.976 736.239 589.258 735.578 588.165 734.077C588.611 730.688 591.923 730.064 593.813 727.388C594.645 726.209 593.942 724.738 593.679 723.36Z"/>
	<path fill="#B5D4D9" d="M372.079 535.054C409.564 536.884 447.054 530.685 484.232 526.747C537.782 521.075 591.353 516.019 645.243 515.496C666.088 557.373 678.066 611.757 665.052 657.92C664.864 658.044 664.681 658.176 664.489 658.293C661.655 660.021 640.921 659.843 636.276 660.432Q634.112 660.701 631.959 661.049Q629.805 661.397 627.666 661.823Q625.527 662.248 623.405 662.751Q621.283 663.254 619.18 663.833Q617.077 664.413 614.997 665.068Q612.917 665.724 610.862 666.454Q608.807 667.185 606.779 667.99Q604.752 668.794 602.755 669.672Q600.759 670.549 598.795 671.499Q596.831 672.448 594.904 673.468Q592.976 674.488 591.086 675.578Q589.196 676.667 587.347 677.824Q585.498 678.981 583.693 680.205Q581.887 681.428 580.127 682.716Q578.367 684.005 576.654 685.356Q574.942 686.707 573.28 688.119Q571.618 689.532 570.008 691.003Q568.398 692.475 566.842 694.005Q565.287 695.534 563.788 697.118Q562.289 698.703 560.848 700.341Q559.408 701.979 558.027 703.668Q556.647 705.357 555.329 707.095Q554.011 708.833 552.757 710.618Q551.503 712.403 550.314 714.232Q549.125 716.061 548.004 717.932Q546.882 719.803 545.829 721.714Q544.776 723.624 543.793 725.571Q542.81 727.519 541.899 729.501Q540.987 731.482 540.148 733.496Q539.308 735.51 538.543 737.552Q537.777 739.595 537.086 741.664Q536.395 743.733 535.779 745.826C531.688 759.308 530.204 772.927 529.436 786.941C526.165 786.922 522.765 786.708 519.544 787.3C484.137 788.664 445.274 794.434 412.191 806.976C371.754 822.308 343.931 846.127 298.42 847.116C248.714 848.197 195.299 826.609 159.584 792.173C134.675 768.155 116.953 734.724 116.362 699.567Q116.322 696.75 116.451 693.936Q116.58 691.122 116.877 688.32Q117.174 685.519 117.639 682.74Q118.103 679.962 118.733 677.216Q119.364 674.47 120.157 671.767Q120.951 669.064 121.905 666.413Q122.859 663.763 123.97 661.174Q125.082 658.585 126.346 656.068C158.641 591.264 256.387 597.124 316.88 572.769C338.83 563.932 355.707 552.039 372.079 535.054Z"/>
	<path fill="#3F3E3E" d="M759.8 184.117C762.887 171.86 766.587 160.077 772.484 148.845C791.848 111.96 826.065 85.5473 865.587 73.2947C912.751 58.6729 955.184 65.5433 998.293 88.1791C1033.33 113.57 1056.09 145.216 1063.01 188.537C1068.93 225.648 1056.17 254.325 1040.83 287.287C1017.9 336.567 988.638 380.435 957.967 425.151C943.657 446.014 928.189 466.259 915.659 488.269C961.493 476.116 1280.45 392.305 1297.25 396.538L1297.9 397.879C1294.29 401.334 1287.7 403.223 1282.92 404.438L913.926 495.012C929.813 512.303 1058.58 655.357 1059.98 664.345L1060.69 664.075C1073.44 659.091 1084.34 648.184 1096.46 641.641C1135.17 620.745 1189.59 616.559 1230.35 633.739C1256.45 644.738 1292.59 674.515 1302.93 701.455C1303.53 703.019 1303.84 704.164 1303.52 705.816C1307.98 709.589 1309.78 715.605 1311.53 721.026C1325.16 763.154 1324.21 809.045 1303.73 848.779C1284.71 885.692 1249.98 912.747 1210.66 925.173C1168.79 938.401 1121.5 932.282 1082.84 912.133C1023.62 881.27 1009.38 829.93 991.311 770.381L964.126 681.414C946.698 676.826 928.659 673.748 911.101 669.409C904.213 665.217 893.459 663.12 885.707 660.467Q869.724 655.117 854.29 648.345C847.183 666.934 840.769 685.788 833.62 704.362C827.915 719.184 820.618 734.162 816.794 749.577C813.981 760.916 815.654 772.577 815.593 784.12C815.43 815.107 807.123 847.327 789.915 873.318C767.322 907.443 730.245 929.301 690.515 937.198C649.101 945.429 604.945 938.562 569.602 914.907Q568.173 913.969 566.767 912.995Q565.361 912.021 563.98 911.012Q562.6 910.004 561.244 908.961Q559.889 907.918 558.56 906.842Q557.231 905.766 555.93 904.657Q554.628 903.548 553.355 902.407Q552.081 901.266 550.836 900.093Q549.592 898.921 548.377 897.717Q547.162 896.514 545.977 895.281Q544.792 894.048 543.639 892.785Q542.485 891.523 541.364 890.232Q540.242 888.941 539.153 887.623Q538.064 886.304 537.008 884.959Q535.952 883.614 534.93 882.243Q533.908 880.872 532.921 879.476Q531.933 878.079 530.981 876.659Q530.028 875.239 529.112 873.795Q528.195 872.351 527.315 870.885Q526.434 869.419 525.591 867.932Q524.747 866.444 523.941 864.936Q523.135 863.427 522.367 861.899Q521.599 860.372 520.869 858.825Q520.139 857.279 519.448 855.714Q518.757 854.15 518.105 852.569Q517.453 850.988 516.841 849.391Q516.228 847.794 515.656 846.182Q515.084 844.571 514.552 842.945Q514.02 841.32 513.529 839.682Q513.038 838.044 512.588 836.394Q512.138 834.744 511.729 833.083Q511.32 831.423 510.953 829.752Q510.586 828.082 510.26 826.403C509.122 820.563 505.144 801.757 509.036 796.949C509.849 795.946 510.262 796.15 511.453 795.953C516.828 804.588 514.606 819.329 516.714 829.425C518.629 838.599 522.432 848.141 526.449 856.589C541.19 887.595 570.659 913.61 603.027 924.979Q604.924 925.659 606.838 926.291Q608.752 926.923 610.681 927.508Q612.61 928.092 614.553 928.628Q616.496 929.165 618.451 929.653Q620.407 930.141 622.374 930.58Q624.341 931.019 626.318 931.409Q628.296 931.799 630.282 932.139Q632.269 932.48 634.263 932.771Q636.257 933.063 638.258 933.304Q640.259 933.546 642.266 933.738Q644.272 933.929 646.282 934.071Q648.293 934.213 650.306 934.305Q652.32 934.396 654.335 934.438Q656.35 934.48 658.365 934.471Q660.381 934.463 662.395 934.404Q664.41 934.346 666.423 934.237Q668.435 934.128 670.444 933.97Q672.454 933.811 674.458 933.603Q676.463 933.394 678.462 933.136Q680.461 932.877 682.453 932.569Q684.444 932.261 686.428 931.904Q688.411 931.547 690.385 931.14Q692.36 930.734 694.323 930.278Q696.286 929.823 698.238 929.318Q700.189 928.814 702.127 928.262Q704.066 927.709 705.99 927.108Q707.914 926.508 709.822 925.859Q711.73 925.211 713.622 924.516Q715.514 923.82 717.388 923.078Q719.262 922.336 721.116 921.547Q722.971 920.758 724.806 919.923Q726.641 919.089 728.454 918.209C773.397 896.715 805.51 850.779 808.9 800.882C809.981 784.977 806.082 768.277 809.57 752.623C812.664 738.742 819.165 725.326 824.163 712.048Q836.516 678.886 848.254 645.502C827.944 637.819 808.215 625.558 790.668 612.974C775.591 628.296 761.706 644.739 746.226 659.709C754.314 666.431 765.29 676.617 769.791 686.116C771.182 689.05 772.661 692.77 771.514 695.973C769.86 696.089 769.776 695.863 768.532 694.734C765.562 692.04 763.028 687.732 760.548 684.53C755.425 677.917 750.01 671.542 743.891 665.821C736.667 659.069 728.126 653.405 718.641 650.425C711.626 648.221 701.911 647.02 695.955 642.599L695.917 640.557C696.496 639.974 697.055 639.141 697.868 638.972C708.901 636.672 731.833 649.717 740.995 655.584C756.761 641.159 771.176 625.507 785.388 609.574Q781.915 607.242 778.499 604.825Q775.084 602.409 771.729 599.91Q768.374 597.411 765.08 594.831Q761.787 592.251 758.558 589.592Q755.328 586.932 752.165 584.194Q749.001 581.456 745.905 578.642Q742.81 575.828 739.783 572.939Q736.757 570.05 733.802 567.089Q730.848 564.127 727.966 561.093Q725.084 558.06 722.277 554.958Q719.47 551.855 716.74 548.685Q714.01 545.515 711.358 542.279Q708.706 539.043 706.133 535.743Q703.561 532.443 701.07 529.082Q698.579 525.721 696.17 522.299Q693.762 518.878 691.438 515.399C676.591 513.96 660.246 515.422 645.243 515.496C591.353 516.019 537.782 521.075 484.232 526.747C447.054 530.685 409.564 536.884 372.079 535.054C359.577 533.44 347.129 531.304 335.116 527.402C300.54 516.173 273.018 490.549 256.743 458.304C238.495 422.149 234.499 380.688 247.321 342.067Q247.887 340.344 248.495 338.636Q249.103 336.928 249.753 335.236Q250.404 333.543 251.096 331.867Q251.788 330.191 252.521 328.533Q253.255 326.875 254.029 325.236Q254.803 323.596 255.618 321.977Q256.433 320.357 257.288 318.758Q258.143 317.159 259.037 315.582Q259.931 314.005 260.864 312.45Q261.797 310.895 262.768 309.364Q263.739 307.833 264.748 306.327Q265.757 304.821 266.803 303.34Q267.849 301.859 268.931 300.404Q270.014 298.95 271.132 297.523Q272.25 296.096 273.403 294.697Q274.557 293.298 275.744 291.928Q276.932 290.558 278.153 289.218Q279.374 287.878 280.628 286.569Q281.882 285.259 283.168 283.982Q284.454 282.704 285.772 281.458Q287.089 280.213 288.437 279Q289.785 277.788 291.162 276.609Q292.54 275.431 293.946 274.287Q295.353 273.143 296.787 272.034Q298.221 270.925 299.683 269.853Q301.144 268.78 302.632 267.744Q304.119 266.707 305.632 265.708Q307.145 264.709 308.682 263.748Q310.219 262.787 311.779 261.864Q313.34 260.942 314.923 260.058Q316.506 259.174 318.11 258.33Q319.714 257.486 321.339 256.682Q323.075 255.811 324.832 254.984Q326.589 254.156 328.366 253.372Q330.143 252.588 331.938 251.847Q333.734 251.107 335.547 250.411Q337.361 249.715 339.19 249.064Q341.02 248.413 342.865 247.808Q344.711 247.202 346.57 246.642Q348.43 246.082 350.303 245.567Q352.176 245.053 354.06 244.585Q355.945 244.117 357.841 243.696Q359.737 243.274 361.643 242.899Q363.548 242.525 365.463 242.197Q367.377 241.869 369.299 241.589Q371.22 241.308 373.149 241.075Q375.077 240.842 377.01 240.656Q378.943 240.471 380.88 240.333Q382.818 240.195 384.758 240.105Q386.698 240.014 388.639 239.972Q390.581 239.929 392.523 239.935Q394.465 239.94 396.406 239.993Q398.348 240.046 400.287 240.147Q402.227 240.248 404.163 240.396Q406.1 240.545 408.032 240.741Q409.964 240.937 411.891 241.181Q413.818 241.424 415.738 241.715Q417.658 242.006 419.571 242.344Q421.483 242.682 423.387 243.068Q425.29 243.453 427.184 243.884Q429.077 244.316 430.96 244.794Q432.842 245.273 434.712 245.797Q436.582 246.322 438.439 246.892Q440.295 247.462 442.137 248.078C472.572 258.344 503.441 280.001 518.99 308.733C524.42 318.765 527.411 329.739 532.557 339.819C533.881 342.412 535.548 345.198 538.067 346.772C553.888 356.65 573.578 361.447 591.005 368.005C612.865 376.231 634.615 385.371 656.755 392.753C656.229 377.959 658.781 360.67 661.07 346.022C670.777 283.905 709.085 221.19 759.8 184.117ZM389.858 510.429C408.184 510.373 426.519 507.086 443.26 499.484C477.436 483.964 498.298 458.018 511.251 423.429C517.287 386.22 515.977 349.187 493.071 317.569C471.462 287.743 434.639 268.052 398.609 262.379C368.312 257.609 339.691 268.811 315.449 286.5C287.352 307.001 272.306 337.775 267.086 371.718C262.014 404.701 271.892 436.882 291.565 463.528C310.792 489.57 339.543 504.468 371.244 509.183Q380.496 510.625 389.858 510.429ZM374.671 528.504C381.664 524.106 385.444 517.194 389.858 510.429Q380.496 510.625 371.244 509.183C339.543 504.468 310.792 489.57 291.565 463.528C271.892 436.882 262.014 404.701 267.086 371.718C272.306 337.775 287.352 307.001 315.449 286.5C339.691 268.811 368.312 257.609 398.609 262.379C434.639 268.052 471.462 287.743 493.071 317.569C515.977 349.187 517.287 386.22 511.251 423.429C516.03 424.52 520.716 425.402 525.572 426.081C521.263 433.304 515.127 441.415 514.063 449.857L514.688 451.325C517.126 451.28 519.15 449.291 520.791 447.628C526.579 441.763 528.327 433.561 532.774 426.966C582.79 443.904 612.222 465.258 641.741 509.232Q664.486 509.093 687.23 509.303C668.74 476.153 657.782 438.274 657.442 400.301C632.178 389.355 605.808 380.06 579.977 370.504C564.994 364.961 546.743 360.831 533.688 351.452C529.371 348.35 526.903 343.056 524.989 338.254C522.356 331.648 520.153 324.882 516.965 318.51C503.365 291.328 480.58 271.472 452.911 259.397Q451.176 258.64 449.422 257.927Q447.668 257.213 445.898 256.543Q444.127 255.873 442.34 255.247Q440.553 254.621 438.752 254.04Q436.95 253.458 435.135 252.921Q433.319 252.385 431.491 251.893Q429.663 251.401 427.823 250.955Q425.983 250.509 424.133 250.108Q422.282 249.708 420.423 249.353Q418.563 248.998 416.695 248.689Q414.827 248.381 412.953 248.119Q411.078 247.856 409.197 247.641Q407.316 247.425 405.43 247.256Q403.545 247.086 401.656 246.964Q399.767 246.841 397.875 246.766Q395.983 246.69 394.09 246.661Q392.197 246.632 390.304 246.65Q388.411 246.668 386.519 246.733Q384.627 246.798 382.737 246.91Q380.847 247.021 378.961 247.18Q377.074 247.338 375.192 247.543Q373.31 247.748 371.434 247.999Q369.558 248.251 367.688 248.549Q365.818 248.847 363.957 249.191Q362.095 249.535 360.243 249.925Q358.39 250.315 356.548 250.75Q354.705 251.186 352.874 251.667Q351.043 252.149 349.225 252.675Q347.406 253.201 345.601 253.772Q343.796 254.344 342.006 254.959Q340.216 255.575 338.441 256.235Q336.667 256.894 334.909 257.598Q333.303 258.243 331.713 258.928Q330.124 259.612 328.551 260.336Q326.979 261.059 325.424 261.82Q323.87 262.582 322.335 263.381Q320.8 264.18 319.284 265.017Q317.769 265.854 316.275 266.727Q314.78 267.6 313.308 268.51Q311.835 269.42 310.386 270.365Q308.936 271.311 307.51 272.292Q306.083 273.272 304.681 274.288Q303.28 275.303 301.903 276.352Q300.526 277.401 299.176 278.484Q297.825 279.567 296.502 280.682Q295.178 281.797 293.882 282.945Q292.586 284.092 291.318 285.271Q290.051 286.45 288.813 287.659Q287.574 288.869 286.366 290.108Q285.157 291.347 283.98 292.616Q282.802 293.885 281.656 295.182Q280.509 296.479 279.395 297.803Q278.281 299.128 277.199 300.479Q276.118 301.831 275.07 303.209Q274.021 304.586 273.007 305.989Q271.993 307.392 271.013 308.819Q270.034 310.246 269.09 311.697Q268.145 313.148 267.237 314.621Q266.328 316.095 265.456 317.59Q264.583 319.085 263.748 320.601Q262.913 322.117 262.114 323.653Q261.316 325.19 260.556 326.745Q259.796 328.3 259.073 329.873Q258.351 331.446 257.668 333.037Q256.979 334.646 256.329 336.271Q255.68 337.896 255.071 339.537Q254.462 341.178 253.893 342.833Q253.325 344.489 252.797 346.158Q252.27 347.826 251.784 349.508Q251.297 351.189 250.853 352.882Q250.408 354.575 250.006 356.278Q249.603 357.981 249.242 359.694Q248.882 361.407 248.563 363.128Q248.245 364.849 247.969 366.577Q247.694 368.306 247.461 370.041Q247.228 371.775 247.037 373.515Q246.847 375.255 246.7 376.999Q246.553 378.743 246.449 380.49Q246.344 382.238 246.283 383.987Q246.222 385.736 246.204 387.486Q246.186 389.236 246.212 390.986Q246.237 392.737 246.305 394.486Q246.374 396.234 246.485 397.981Q246.596 399.728 246.751 401.471Q246.905 403.215 247.103 404.954Q247.3 406.693 247.541 408.427Q247.781 410.16 248.064 411.888Q248.347 413.615 248.672 415.335Q248.998 417.054 249.365 418.766Q249.733 420.477 250.143 422.178Q250.553 423.88 251.004 425.571Q251.456 427.262 251.949 428.941Q252.442 430.621 252.977 432.287Q253.511 433.954 254.087 435.607Q254.662 437.26 255.278 438.898Q255.894 440.536 256.55 442.159C269.439 474.166 294.379 503.689 326.526 517.328C341.954 523.874 358.017 527.165 374.671 528.504ZM768.93 175.717C777.812 171.455 786.486 165.843 795.121 161.051C798.316 156.325 800.424 150.679 803.255 145.688C812.39 129.586 824.348 117.454 840.137 107.714C875.13 86.127 913.307 82.4227 952.702 91.8346C962.643 91.5462 972.76 89.5337 982.504 87.6619C945.708 69.2072 903.687 67.2608 864.744 80.1122C828.201 92.1715 794.782 118.003 777.446 152.801C773.985 159.749 770.3 168.07 768.93 175.717Z"/>
	<path fill="#F8F8F4" d="M914.054 504.696C927.237 517.844 939.288 532.312 951.524 546.343C946.772 551.629 939.963 561.836 934.577 565.482Q923.427 535.389 914.054 504.696Z"/>
	<path fill="#B5D4D9" d="M1045.87 690.686L1046.46 690.191C1054.3 683.441 1060.27 674.699 1068.23 668.006C1099.99 641.329 1143.36 627.542 1184.69 630.363C1224.56 633.084 1256.38 652.395 1282.19 682.113C1286.17 686.689 1295.4 696.327 1295.22 702.647C1295.19 703.456 1294.94 704.124 1294.67 704.876C1287.41 705.067 1280.21 702.851 1273.02 704.79C1273.08 703.308 1272.88 702.207 1272.2 700.861C1260.22 677.331 1229.06 657.191 1204.66 649.057C1168.07 636.863 1120.85 644.678 1091.05 669.819C1083.21 676.431 1075.95 688.718 1066.84 693.019C1066.66 693.105 1066.48 693.178 1066.29 693.257L1065.77 692.523C1061.84 690.278 1050.79 691.045 1045.87 690.686Z"/>
	<path fill="#B5D4D9" d="M790.668 612.974C813.666 589.348 837.136 566.35 860.738 543.337C873.038 531.345 885.064 518.501 898.102 507.334C885.149 539.297 874.719 572.207 863.441 604.784C858.731 618.387 852.506 631.819 848.254 645.502C827.944 637.819 808.215 625.558 790.668 612.974Z"/>
	<path fill="#B5D4D9" d="M951.524 546.343C963.057 559.535 1054.71 661.906 1055.56 668.432C1055.2 674.14 1042.96 685.593 1038.61 689.432C1037.69 690.238 1036.81 690.939 1035.75 691.553C1032.78 688.894 979.771 683.938 971.623 683.301C969.605 672.45 965.637 661.27 962.536 650.676Q950.199 607.54 934.577 565.482C939.963 561.836 946.772 551.629 951.524 546.343Z"/>
	<path fill="#B5D4D9" d="M906.498 502.659C926.156 562.151 947.296 621.015 964.126 681.414C946.698 676.826 928.659 673.748 911.101 669.409C904.213 665.217 893.459 663.12 885.707 660.467Q869.724 655.117 854.29 648.345C863.715 619.469 874.525 591.002 884.867 562.443C892.062 542.573 898.631 522.244 906.498 502.659Z"/>
	<path fill="#B5D4D9" d="M691.438 515.399Q746.106 513.651 800.478 507.701C833.474 504.157 866.297 499.289 899.257 495.562C883.626 513.62 865.597 529.761 848.408 546.319Q816.153 577.204 785.388 609.574Q781.915 607.242 778.499 604.825Q775.084 602.409 771.729 599.91Q768.374 597.411 765.08 594.831Q761.787 592.251 758.558 589.592Q755.328 586.932 752.165 584.194Q749.001 581.456 745.905 578.642Q742.81 575.828 739.783 572.939Q736.757 570.05 733.802 567.089Q730.848 564.127 727.966 561.093Q725.084 558.06 722.277 554.958Q719.47 551.855 716.74 548.685Q714.01 545.515 711.358 542.279Q708.706 539.043 706.133 535.743Q703.561 532.443 701.07 529.082Q698.579 525.721 696.17 522.299Q693.762 518.878 691.438 515.399Z"/>
	<path fill="#B5D4D9" d="M657.442 400.301C734.235 431.804 812.112 460.384 889.212 491.043C831.935 497.565 774.81 506.919 717.097 508.464C707.591 508.719 696.566 510.191 687.23 509.303C668.74 476.153 657.782 438.274 657.442 400.301Z"/>
	<path fill="#B5D4D9" d="M511.251 423.429C516.03 424.52 520.716 425.402 525.572 426.081C521.263 433.304 515.127 441.415 514.063 449.857L514.688 451.325C517.126 451.28 519.15 449.291 520.791 447.628C526.579 441.763 528.327 433.561 532.774 426.966C582.79 443.904 612.222 465.258 641.741 509.232C605.955 510.662 570.534 512.093 534.839 515.398Q497.931 518.734 461.119 523.008C438.184 525.604 396.224 532.1 374.671 528.504C381.664 524.106 385.444 517.194 389.858 510.429C408.184 510.373 426.519 507.086 443.26 499.484C477.436 483.964 498.298 458.018 511.251 423.429Z"/>
	<path fill="#FEE5A7" d="M971.623 683.301C979.771 683.938 1032.78 688.894 1035.75 691.553C1037.31 698.894 1020.77 713.094 1020.72 723.713C1021.5 725.492 1021.35 725.722 1023.21 726.531C1023.91 726.162 1024.11 726.105 1024.69 725.647C1029.45 721.876 1032 712.977 1035.17 707.821C1037.96 703.296 1041.78 699.641 1044.45 694.977C1045.25 693.586 1045.7 692.289 1045.87 690.686C1050.79 691.045 1061.84 690.278 1065.77 692.523L1066.29 693.257C1066.32 693.398 1066.35 693.538 1066.36 693.68C1066.91 698.471 1054.27 716.019 1051.52 722.253C1028.32 774.842 1035.05 836.582 1079.93 875.386C1105.33 897.343 1141.11 910.858 1174.82 908.32C1210.49 905.634 1246.66 885.84 1269.85 858.863C1290.65 834.679 1298.33 804.573 1295.83 773.129C1294.6 757.621 1286.38 715.144 1273.64 705.237C1273.44 705.081 1273.22 704.939 1273.02 704.79C1280.21 702.851 1287.41 705.067 1294.67 704.876C1300.12 707.812 1302.53 715.974 1304.39 721.588C1317.95 762.441 1317.19 806.544 1297.64 845.318C1279.71 880.876 1246.54 906.352 1209.03 918.551C1168.49 931.735 1123.24 924.837 1085.74 905.676C1029.48 876.936 1015.92 827.547 998.787 771.497Q985.487 727.312 971.623 683.301Z"/>
	<path fill="#B5D4D9" d="M982.504 87.6619C1012.23 100.287 1035.62 127.819 1047.56 157.278C1062.78 194.809 1059.33 229.893 1043.64 266.587C1010.2 344.804 956.913 410.904 911.669 482.189C912.045 441.127 914.791 400.124 915.327 359.087C924.383 357.501 951.506 353.483 957.236 346.358L957.207 344.854C953.462 342.539 948.205 343.83 944.102 344.795C934.763 346.99 922.334 353.071 912.928 352.642C904.283 352.247 875.013 342.042 869.127 346.905C869.499 348.888 869.628 348.983 871.302 350.136C878.254 354.922 899.711 357.606 908.578 358.778C907.176 400.007 905.387 441.19 905.535 482.452Q864.17 413.186 821.924 344.455C806.18 318.56 786.978 292.455 776.308 264.029C766.656 238.313 760.781 205.286 767.991 178.213C768.229 177.32 768.557 176.56 768.93 175.717C777.812 171.455 786.486 165.843 795.121 161.051C793.616 169.384 790.668 177.688 788.959 186.06C783.704 211.805 785.423 239.338 795.528 263.713C807.482 292.545 830.966 314.008 859.595 325.84Q861.1 326.464 862.619 327.052Q864.139 327.639 865.673 328.188Q867.207 328.738 868.753 329.249Q870.3 329.761 871.859 330.234Q873.418 330.707 874.988 331.141Q876.558 331.576 878.139 331.972Q879.719 332.367 881.308 332.724Q882.898 333.081 884.496 333.398Q886.094 333.715 887.699 333.993Q889.305 334.271 890.916 334.509Q892.528 334.747 894.145 334.946Q895.762 335.144 897.383 335.302Q899.005 335.461 900.629 335.579Q902.254 335.697 903.881 335.776Q905.509 335.854 907.137 335.892Q908.766 335.93 910.395 335.928Q912.024 335.926 913.653 335.884Q915.281 335.841 916.908 335.759Q918.535 335.676 920.16 335.554Q921.784 335.431 923.405 335.269Q925.026 335.106 926.643 334.904Q928.259 334.701 929.87 334.459Q931.481 334.217 933.086 333.935Q934.69 333.653 936.288 333.331Q937.885 333.01 939.473 332.649Q941.062 332.288 942.641 331.889Q944.221 331.489 945.79 331.05Q947.359 330.612 948.916 330.134Q950.474 329.657 952.019 329.142Q953.565 328.626 955.097 328.073Q956.629 327.519 958.148 326.928Q959.666 326.337 961.169 325.709Q962.568 325.127 963.952 324.511Q965.335 323.895 966.704 323.245Q968.072 322.595 969.425 321.912Q970.777 321.229 972.112 320.513Q973.447 319.797 974.764 319.049Q976.081 318.3 977.38 317.52Q978.678 316.739 979.957 315.927Q981.236 315.115 982.494 314.272Q983.753 313.429 984.991 312.555Q986.228 311.682 987.444 310.778Q988.66 309.874 989.853 308.941Q991.047 308.008 992.217 307.045Q993.387 306.083 994.533 305.093Q995.68 304.102 996.802 303.084Q997.923 302.065 999.02 301.02Q1000.12 299.974 1001.19 298.902Q1002.26 297.83 1003.3 296.733Q1004.34 295.635 1005.36 294.511Q1006.38 293.388 1007.37 292.241Q1008.36 291.093 1009.32 289.921Q1010.28 288.75 1011.21 287.555Q1012.14 286.36 1013.04 285.143Q1013.95 283.926 1014.82 282.687Q1015.69 281.448 1016.53 280.188Q1017.37 278.928 1018.18 277.648Q1018.99 276.368 1019.77 275.068Q1020.55 273.768 1021.3 272.45Q1022.04 271.132 1022.76 269.796Q1023.47 268.459 1024.15 267.106Q1024.84 265.753 1025.48 264.383Q1026.13 263.014 1026.75 261.629Q1027.36 260.244 1027.94 258.844C1040.83 227.398 1039.68 190.607 1026.57 159.411C1012.45 125.832 985.673 105.231 952.702 91.8346C962.643 91.5462 972.76 89.5337 982.504 87.6619Z"/>
	<path fill="#3F3E3E" d="M525.572 426.081C528.065 418.416 533.296 390.45 538.07 386.627C539.662 387.663 540.003 387.795 540.431 389.672C542.731 399.764 532.72 420.402 532.774 426.966C528.327 433.561 526.579 441.763 520.791 447.628C519.15 449.291 517.126 451.28 514.688 451.325L514.063 449.857C515.127 441.415 521.263 433.304 525.572 426.081Z"/>
	<path fill="#B5D4D9" d="M759.8 184.117C758.267 211.233 759.586 236.95 768.462 262.894C777.101 288.145 794.09 310.391 807.706 333.156Q835.403 379.988 863.595 426.528C876.147 447.218 889.298 467.707 901.351 488.682C833.875 462.263 766.14 436.864 699.002 409.542C689.386 405.629 663.677 397.692 656.755 392.753C656.229 377.959 658.781 360.67 661.07 346.022C670.777 283.905 709.085 221.19 759.8 184.117Z"/>
	<path fill="#3F3E3E" d="M389.858 510.429Q380.496 510.625 371.244 509.183C339.543 504.468 310.792 489.57 291.565 463.528C271.892 436.882 262.014 404.701 267.086 371.718C272.306 337.775 287.352 307.001 315.449 286.5C339.691 268.811 368.312 257.609 398.609 262.379C434.639 268.052 471.462 287.743 493.071 317.569C515.977 349.187 517.287 386.22 511.251 423.429C498.298 458.018 477.436 483.964 443.26 499.484C426.519 507.086 408.184 510.373 389.858 510.429ZM392.699 504.058C398.592 491.216 402.52 478.379 405.177 464.529C413.907 462.797 422.752 460.951 431.694 461.043C438.269 461.111 444.838 462.025 451.414 461.917C455.271 461.854 458.941 460.841 461.668 457.944C468.569 450.614 466.821 436.17 466.603 426.946C475.763 425.359 484.811 424.301 494.086 423.656C497.605 423.33 501.007 423.192 504.54 423.273C511.074 389.237 509.738 353.379 489.653 323.795C469.869 294.654 434.613 275.492 400.489 269.129C372.179 263.849 345.542 273.145 322.3 289.225C294.953 308.145 280.202 335.551 274.409 367.974C268.78 399.486 276.558 430.304 294.779 456.435C313.763 483.66 340.656 497.062 372.841 502.754C378.582 503.77 387.053 505.424 392.699 504.058Z"/>
	<path fill="#B5D4D9" d="M494.086 423.656L504.225 423.781C491.32 456.324 470.402 480.727 437.868 494.79C423.478 501.01 408.337 503.825 392.699 504.058C398.592 491.216 402.52 478.379 405.177 464.529C413.907 462.797 422.752 460.951 431.694 461.043C438.269 461.111 444.838 462.025 451.414 461.917C455.271 461.854 458.941 460.841 461.668 457.944C468.569 450.614 466.821 436.17 466.603 426.946C475.763 425.359 484.811 424.301 494.086 423.656Z"/>
	<path fill="#3F3E3E" d="M353.029 319.207Q387.2 318.99 421.371 319.152L421.476 346.683C435.614 350.166 449.506 354.682 463.416 358.973C463.452 381.589 463.991 404.465 466.603 426.946C466.821 436.17 468.569 450.614 461.668 457.944C458.941 460.841 455.271 461.854 451.414 461.917C444.838 462.025 438.269 461.111 431.694 461.043C422.752 460.951 413.907 462.797 405.177 464.529Q401.956 465.232 398.667 465.472C383.761 466.463 368.461 463.186 353.56 462.507C343.999 462.071 334.287 463.873 324.777 462.567C320.823 462.024 316.816 460.858 313.791 458.133C311.211 455.809 309.883 452.799 309.384 449.404C307.701 437.97 309.347 425.445 309.824 413.897C310.574 395.761 311.197 377.875 310.269 359.722C323.824 353.976 337.762 349.114 351.595 344.08C351.714 335.784 352.446 327.482 353.029 319.207ZM358.206 325.762C357.753 368.967 358.094 412.333 355.431 455.472C360.693 456.562 365.909 457.594 371.241 458.296C370.717 445.49 367.49 420.887 376.742 411.202C379.126 408.706 382.393 407.081 385.881 407.017C389.693 406.947 393.271 408.714 395.909 411.395C398.501 414.028 399.881 417.447 400.879 420.948C403.142 433.232 400.546 445.616 400.91 457.935C405.862 457.806 410.919 457.878 415.837 457.268C416.269 413.266 414.585 369.233 415.158 325.206C396.185 325.421 377.178 325.889 358.206 325.762ZM421.315 353.599L421.971 420.229C422.096 429.054 421.145 439.649 422.775 448.267C423.342 445.291 423.887 442.546 425.113 439.756C427.071 437.587 429.737 437.255 432.457 436.647C440.243 434.681 447.61 434.304 455.454 436.384C456.485 443.38 456.363 450.806 457.994 457.635C462.527 436.454 458.963 414.861 457.368 393.513C456.616 383.454 456.544 373.326 456.225 363.245C444.595 360.019 432.982 356.685 421.315 353.599ZM349.465 352.044C338.504 355.779 327.144 359.117 316.554 363.808C319.551 385.41 312.301 439.333 318.186 452.866L319.672 453.871C322.364 450.952 322.074 447.168 321.918 443.393Q321.782 440.213 321.586 437.037C329.526 435.613 336.815 435.918 344.806 436.619C344.075 441.789 342.049 451.628 345.779 456.035C345.946 456.233 346.134 456.413 346.311 456.602L347.456 456.6C351.475 451.564 352.482 364.843 350.7 354.629C350.512 353.555 350.118 352.89 349.465 352.044ZM383.209 413.007C373.407 423.492 376.686 445.251 376.977 458.83L391.237 458.855L393.64 458.107C397.568 449.63 397.023 429.415 393.825 420.679C392.836 417.978 391.152 414.977 388.346 413.851C386.793 413.228 384.866 413.151 383.209 413.007ZM327.926 442.16C327.703 446.134 327.022 450.583 328.595 454.32C330.571 456.23 331.897 456.819 334.789 456.742Q336.152 456.693 337.509 456.565L337.687 442.364C334.443 442.291 331.168 442.117 327.926 442.16Z"/>
	<path fill="#B5D4D9" d="M422.775 448.267C423.342 445.291 423.887 442.546 425.113 439.756C427.071 437.587 429.737 437.255 432.457 436.647C432.648 442.714 432.712 448.294 429.83 453.833L428.278 454.89C425.788 453.981 424.899 452.976 423.708 450.47C423.366 449.751 423.07 449.006 422.775 448.267Z"/>
	<path fill="#3F3E3E" d="M322.349 367.228L343.852 367.077C344.305 375.979 345.681 384.09 342.222 392.585C335.367 392.753 328.52 393.337 321.682 393.823C320.991 384.844 321.125 376.157 322.349 367.228ZM327.369 373.639C327.257 377.069 326.547 381.666 328.27 384.72C331.34 386.933 333.768 386.831 337.491 386.688L337.601 373.51L327.369 373.639Z"/>
	<path fill="#3F3E3E" d="M321.435 401.111L344.074 401.818C344.724 410.51 345.564 419.213 343.48 427.777C335.839 428.448 328.055 428.324 320.385 428.457C320.543 419.362 320.43 410.157 321.435 401.111ZM326.938 407.824L326.996 422.254L338.5 422.202L338.46 407.995L326.938 407.824Z"/>
	<path fill="#3F3E3E" d="M445.792 367.528C446.08 367.496 446.366 367.431 446.656 367.432C448.65 367.437 450.727 367.848 451.984 369.498C455.811 374.525 453.503 387.598 453.078 393.764C448.428 394.342 443.69 394.333 439.01 394.468C436.593 394.45 434.801 394.485 432.643 393.202C427.832 387.505 430.034 376.036 430.234 369.009C435.318 368.095 440.642 367.938 445.792 367.528ZM436.666 374.127C436.665 377.841 436.025 382.887 437.887 386.18C440.921 388.185 443.479 388.001 447.067 387.726C447.197 384.093 447.973 379.222 446.165 375.991C443.538 373.569 440.01 374.008 436.666 374.127Z"/>
	<path fill="#3F3E3E" d="M443.041 402.173C443.323 402.156 443.604 402.133 443.886 402.121C446.706 402.002 449.906 402.62 451.809 404.824C456.306 410.031 454.854 422.735 454.854 429.393L442.583 429.794C439.941 429.729 437.671 429.675 435.153 428.729C431.871 426.043 430.515 422.496 429.711 418.412C428.656 413.055 429.341 408.596 432.446 404.078C435.203 402.186 439.751 402.392 443.041 402.173ZM438.264 408.865C436.974 411.946 435.37 415.815 436.623 419.166C437.321 421.033 439.04 422.472 440.906 423.094C442.849 423.742 445.254 423.576 447.287 423.566C448.135 419.441 449.567 415.126 447.08 411.326C446.347 410.206 444.728 409.348 443.44 409.132C441.764 408.851 439.963 408.857 438.264 408.865Z"/>
	<path fill="#3F3E3E" d="M376.162 330.955C383.364 331.544 390.708 331.524 397.935 331.766C398.28 340.267 399.751 351.673 396.146 359.502C392.289 359.914 387.48 360.899 383.663 360.284C380.604 359.791 377.604 357.945 375.982 355.284C372.237 349.14 374.666 337.651 376.162 330.955ZM382.963 337.33C381.152 339.808 379.942 343.736 380.275 346.837C380.538 349.289 382.014 351.501 384.006 352.885C385.776 354.115 388.409 353.92 390.543 354.063C391.547 349.361 393.516 343.694 390.895 339.289C388.305 337.374 386.181 337.171 382.963 337.33Z"/>
	<path fill="#3F3E3E" d="M376.954 368.173C384.161 368.066 391.389 368.199 398.598 368.217C399.215 377.722 399.757 388.126 396.555 397.209C391.791 397.622 385.204 398.863 380.587 397.673C378.528 397.143 377.597 396.687 376.645 394.782C373.543 388.569 374.658 374.439 376.954 368.173ZM381.738 374.046C381.503 378.488 380.056 385.93 383.282 389.402C385.196 391.462 387.641 391.413 390.261 391.415Q391.068 391.416 391.875 391.401C392.109 387.039 393.203 381.03 391.407 376.992C388.546 374.142 386.501 374.008 382.592 374.037L381.738 374.046Z"/>
	<path fill="#3F3E3E" d="M795.121 161.051C798.316 156.325 800.424 150.679 803.255 145.688C812.39 129.586 824.348 117.454 840.137 107.714C875.13 86.127 913.307 82.4227 952.702 91.8346C985.673 105.231 1012.45 125.832 1026.57 159.411C1039.68 190.607 1040.83 227.398 1027.94 258.844Q1027.36 260.244 1026.75 261.629Q1026.13 263.014 1025.48 264.383Q1024.84 265.753 1024.15 267.106Q1023.47 268.459 1022.76 269.796Q1022.04 271.132 1021.3 272.45Q1020.55 273.768 1019.77 275.068Q1018.99 276.368 1018.18 277.648Q1017.37 278.928 1016.53 280.188Q1015.69 281.448 1014.82 282.687Q1013.95 283.926 1013.04 285.143Q1012.14 286.36 1011.21 287.555Q1010.28 288.75 1009.32 289.921Q1008.36 291.093 1007.37 292.241Q1006.38 293.388 1005.36 294.511Q1004.34 295.635 1003.3 296.732Q1002.26 297.83 1001.19 298.902Q1000.12 299.974 999.02 301.02Q997.923 302.065 996.802 303.084Q995.68 304.102 994.533 305.093Q993.387 306.083 992.217 307.045Q991.047 308.008 989.853 308.941Q988.66 309.874 987.444 310.778Q986.228 311.682 984.991 312.555Q983.753 313.429 982.494 314.272Q981.236 315.115 979.957 315.927Q978.678 316.739 977.38 317.52Q976.081 318.3 974.764 319.049Q973.447 319.797 972.112 320.513Q970.777 321.229 969.425 321.912Q968.072 322.595 966.704 323.245Q965.335 323.895 963.952 324.511Q962.568 325.127 961.169 325.709Q959.666 326.337 958.148 326.928Q956.63 327.519 955.097 328.073Q953.565 328.626 952.019 329.142Q950.474 329.657 948.916 330.134Q947.359 330.612 945.79 331.05Q944.221 331.489 942.641 331.889Q941.062 332.288 939.473 332.649Q937.885 333.01 936.288 333.331Q934.69 333.653 933.086 333.935Q931.481 334.217 929.87 334.459Q928.259 334.701 926.643 334.904Q925.026 335.106 923.405 335.269Q921.784 335.431 920.16 335.554Q918.535 335.676 916.908 335.759Q915.281 335.841 913.653 335.884Q912.024 335.926 910.395 335.928Q908.766 335.93 907.137 335.892Q905.509 335.854 903.881 335.776Q902.254 335.697 900.629 335.579Q899.005 335.461 897.383 335.302Q895.762 335.144 894.145 334.946Q892.528 334.747 890.916 334.509Q889.305 334.271 887.699 333.993Q886.094 333.715 884.496 333.398Q882.898 333.081 881.308 332.724Q879.719 332.367 878.139 331.972Q876.558 331.576 874.988 331.141Q873.418 330.707 871.859 330.234Q870.3 329.761 868.753 329.249Q867.207 328.738 865.673 328.188Q864.139 327.639 862.619 327.052Q861.1 326.464 859.595 325.84C830.966 314.008 807.482 292.545 795.528 263.713C785.423 239.338 783.704 211.805 788.959 186.06C790.668 177.688 793.616 169.384 795.121 161.051Z"/>
	<path fill="#B5D4D9" d="M911.338 92.7909C911.528 92.7601 911.716 92.7203 911.907 92.6983C937.343 89.7738 967.942 103.353 987.523 118.7C1011.76 137.698 1025.63 165.7 1029.27 196.01C1033.01 227.166 1025.83 258.75 1006.26 283.618C982.747 313.501 950.665 325.382 913.968 329.74C885.198 329.366 857.175 321.782 834.315 303.778Q833.252 302.927 832.21 302.051Q831.167 301.174 830.147 300.272Q829.127 299.37 828.129 298.443Q827.132 297.516 826.157 296.565Q825.182 295.614 824.232 294.639Q823.281 293.664 822.354 292.666Q821.428 291.668 820.526 290.647Q819.625 289.627 818.748 288.584Q817.872 287.542 817.022 286.478Q816.172 285.414 815.348 284.329Q814.524 283.245 813.727 282.141Q812.93 281.036 812.161 279.912Q811.391 278.789 810.65 277.646Q809.909 276.504 809.195 275.344Q808.482 274.183 807.798 273.006Q807.114 271.828 806.458 270.634Q805.803 269.44 805.178 268.231Q804.552 267.021 803.957 265.796Q803.362 264.571 802.796 263.332Q802.231 262.093 801.697 260.84Q801.162 259.587 800.659 258.322Q800.156 257.057 799.683 255.779Q799.211 254.501 798.771 253.213Q798.33 251.924 797.922 250.625Q797.513 249.325 797.137 248.017Q796.76 246.708 796.416 245.39Q796.072 244.072 795.761 242.746Q795.449 241.42 795.17 240.087Q794.892 238.754 794.646 237.414Q794.4 236.075 794.187 234.73Q793.974 233.384 793.795 232.034Q793.615 230.684 793.469 229.33C789.8 197.641 797.032 161.941 817.204 136.623C840.203 107.758 875.982 96.6777 911.338 92.7909Z"/>
	<path fill="#3F3E3E" d="M907.857 133.424C903.235 132.589 897.607 132.297 894.616 128.424C894.896 125.816 896.045 123.706 898.192 122.13C902.439 119.011 909.114 119.348 913.996 120.367C917.858 121.173 922.944 122.936 925.332 126.298C926.281 127.635 926.157 128.052 926.027 129.679C922.7 133.584 913.138 132.147 911.594 135.195C913.347 138.154 916.167 140.07 918.829 142.159C918.368 146.517 917.04 152.196 919.923 155.905C923.841 160.946 937.219 160.753 943.357 162.186C940.447 155.971 936.803 149.237 939.237 142.221C940.186 139.486 942.035 137.413 944.667 136.196C947.683 134.801 951.312 134.879 954.348 136.173C957.449 137.494 959.683 140.024 960.828 143.152C963.132 149.448 960.458 155.331 957.83 161.037C972.73 173.437 976.772 191.249 978.453 209.715C979.018 215.919 979.175 221.902 978.109 228.071C971.405 236.086 968.701 242.701 969.688 253.432C970.446 261.661 977.386 280.754 971.349 287.333C969.499 289.349 966.742 289.915 964.113 289.896C960.491 289.87 957.272 289.114 954.71 286.381C954.332 285.978 953.967 285.564 953.607 285.146L950.772 285.728C948.311 288.761 945.552 290.13 941.871 291.149C939.003 291.943 936.483 292.279 933.782 290.747C929.048 283.754 937.37 281.261 937.535 274.725C937.833 262.941 933.268 251.274 932.557 239.491C931.524 222.352 935.007 204.245 936.44 187.111C929.416 184.218 922.491 181.345 915.808 177.718C905.677 182.443 895.855 184.914 884.932 187.243L881.236 195.475C882.756 209.154 885.008 223.401 883.707 237.171C882.427 250.711 878.942 263.897 878.783 277.561C881.146 279.68 885.633 282.929 885.899 286.25C886.091 288.632 885.423 289.133 883.894 290.732C881.47 291.562 879.414 291.642 876.921 291.191C871.54 290.218 867.964 287.571 864.894 283.173L863.708 283.636C862.553 286.358 861.935 288.153 858.894 289.233C855.298 290.51 850.792 290.247 847.386 288.525C845.289 287.465 843.551 285.703 842.832 283.436C839.715 273.608 848.975 261.964 849.145 251.744C849.331 240.638 844.069 234.214 841.369 224.092C837.318 208.909 842.189 181.73 850.085 168.319C852.643 163.973 856.11 160.977 859.931 157.805C857.568 151.756 855.295 145.739 858.18 139.433C859.562 136.414 861.934 134.305 865.08 133.241C867.846 132.305 871.162 132.663 873.712 134.019C876.568 135.537 878.501 138.183 879.308 141.29C881.117 148.26 877.791 154.862 874.643 160.885C882.618 160.691 890.588 160.529 898.548 159.971C900.189 158.018 903.404 154.993 903.225 152.302C902.529 141.852 901.273 142.42 907.857 133.424Z"/>
	<path fill="#F8F8F4" d="M864.482 259.137L864.894 283.173L863.708 283.636C862.061 281.303 860.387 278.985 858.769 276.633L864.482 259.137Z"/>
	<path fill="#F8F8F4" d="M903.408 172.939L904.833 173.056L905.893 174.674L905.321 175.95C899.186 179.764 890.092 180.706 883.064 181.944C881.742 181.933 881.023 181.475 879.863 180.911L881.094 179.727L880.229 180.169L880.734 178.829C885.641 173.802 896.746 173.454 903.408 172.939Z"/>
	<path fill="#F8F8F4" d="M945.507 140.977C946.378 140.997 947.248 141.021 948.117 141.1C951.077 141.367 952.628 142.196 954.558 144.429C956.478 149.35 954.263 153.429 952.331 157.956L950.771 158.762C949.019 158.352 948.549 158.365 947.455 156.808C944.453 152.537 944.559 145.836 945.507 140.977Z"/>
	<path fill="#F8F8F4" d="M863.481 139.161C865.868 139.194 869.116 139.083 871.214 140.304C872.065 140.8 873.299 141.863 873.632 142.813C875.159 147.176 872.652 151.286 870.867 155.186C869.172 156.525 869.142 156.784 866.882 156.743C866.366 156.32 866.135 156.181 865.735 155.699C862.377 151.654 862.826 143.965 863.481 139.161Z"/>
	<path fill="#F8F8F4" d="M953.202 253.77C956.134 262.071 957.695 270.516 959.191 279.166L953.607 285.146L950.772 285.728C950.708 274.885 951.223 264.446 953.202 253.77Z"/>
	<path fill="#F8F8F4" d="M917.344 164.704C918.719 164.503 920.124 164.362 921.516 164.403C932.141 164.714 953.234 164.751 960.692 172.741C972.306 185.184 973.132 212.984 972.674 229.084C970.514 220.982 968.118 212.26 966.76 204.01C965.991 199.344 966.343 193.932 964.917 189.459C964.295 187.509 963.967 187.145 962.177 186.282C954.262 191.035 965.156 221.26 965.844 229.879C966.569 238.956 962.415 247.542 963.865 256.807C965 264.06 970.538 275.991 967.043 282.522C963.314 279.995 960.68 259.452 959.511 254.434C957.73 247.75 958.335 235.705 954.542 230.344C954.115 229.74 953.225 229.873 952.523 229.779C943.584 237.835 948.924 272.417 943.464 283.963C941.646 279.128 942.959 272.035 942.604 266.714C941.865 255.631 939.165 244.921 939.09 233.709C938.982 217.317 942.239 200.96 942.875 184.502C934.454 179.496 924.615 176.969 916.586 171.339C923.992 173.388 939.753 180.461 946.867 178.236L947.406 177.046C942.694 167.628 925.213 171.199 917.784 165.093C917.633 164.969 917.491 164.834 917.344 164.704Z"/>
	<path fill="#F8F8F4" d="M863.084 164.443C868.523 164.086 874.13 165.737 879.592 166.091C888.704 166.68 897.537 165.871 906.603 165.041C896.391 169.503 885.402 170.717 874.439 171.958C874.254 190.792 877.785 209.495 877.98 228.31C878.075 237.547 876.883 246.228 875.199 255.29C874.252 260.386 871.986 266.788 872.305 271.912C872.552 275.873 874.699 280.118 875.618 284.062L874.988 284.99L872.257 283.776C868.176 278.175 869.551 248.499 867.844 238.978C867.211 235.447 866.005 230.06 862.998 227.963C859.72 231.893 861.017 241.876 861.191 246.786C857.839 263.167 852.976 264.084 854.874 282.646L853.163 283.578C850.738 283.272 850.485 283.422 848.867 281.642C847.286 274.629 851.752 266.899 853.481 260.168C856.401 248.802 852.012 240.158 852.425 229.038C852.823 218.31 863.454 194.001 858.412 185.487L856.881 185.492C851.168 191.287 848.683 216.678 847.541 225.372C845.999 212.095 846.505 196.958 849.808 183.976C851.997 175.371 855.384 169.028 863.084 164.443Z"/>
	<path fill="#3F3E3E" d="M1066.29 693.257C1066.48 693.178 1066.66 693.105 1066.84 693.019C1075.95 688.718 1083.21 676.431 1091.05 669.819C1120.85 644.678 1168.07 636.863 1204.66 649.057C1229.06 657.191 1260.22 677.331 1272.2 700.861C1272.88 702.207 1273.08 703.308 1273.02 704.79C1273.22 704.939 1273.44 705.081 1273.64 705.237C1286.38 715.144 1294.6 757.621 1295.83 773.129C1298.33 804.573 1290.65 834.679 1269.85 858.863C1246.66 885.84 1210.49 905.634 1174.82 908.32C1141.11 910.858 1105.33 897.343 1079.93 875.386C1035.05 836.582 1028.32 774.842 1051.52 722.253C1054.27 716.019 1066.91 698.471 1066.36 693.68C1066.35 693.538 1066.32 693.398 1066.29 693.257Z"/>
	<path fill="#B5D4D9" d="M1077.89 691.496C1106.57 666.18 1136.45 648.115 1176.11 650.506C1206.78 652.356 1237.78 669.368 1257.82 692.378C1259.95 694.825 1263.32 699.034 1262.82 702.524C1262.78 702.733 1262.7 702.929 1262.64 703.131C1250.25 702.807 1217.94 696.935 1208.24 701.305C1209.31 698.906 1209.47 696.8 1209.37 694.203C1209.27 691.481 1208.74 689.35 1206.71 687.429C1193.37 684.028 1148.98 684.719 1135.26 686.659C1131.96 687.126 1130.12 691.825 1128.18 694.328C1111.34 694.522 1094.53 694.311 1077.89 691.496Z"/>
	<path fill="#FEE5A7" d="M1077.89 691.496C1094.53 694.311 1111.34 694.522 1128.18 694.328C1130.08 696.092 1131.45 697.83 1131.71 700.513C1131.92 702.694 1131.03 704.462 1129.55 706.012C1122.29 713.584 1091.87 723.006 1080.93 725.549C1081.01 725.742 1081.1 725.933 1081.18 726.128C1084.52 734.612 1081.87 749.346 1081.68 758.525C1081.3 777.792 1081.49 797.087 1081.39 816.358C1081.33 827.815 1080.26 839.885 1081.67 851.258C1081.96 853.6 1082.61 858.03 1084.88 859.192C1087.87 860.719 1247.11 862.02 1257.73 859.194C1258.83 857.249 1259.2 855.57 1259.31 853.339C1260.32 833.912 1258.6 814.236 1258.38 794.798C1258.22 781.015 1260.62 737.915 1257.39 727.601C1257.02 726.408 1256.56 725.654 1255.77 724.704C1247.69 716.821 1212.87 712.296 1209.28 706.832C1208.7 705.945 1208.65 703.829 1208.54 702.784C1208.46 701.953 1208.5 702.272 1208.24 701.305C1217.94 696.935 1250.25 702.807 1262.64 703.131C1268.74 705.742 1272.91 715.328 1275.47 721.189C1289.54 753.368 1295.42 791.178 1282.21 824.638C1270.29 854.84 1244.3 877.857 1214.92 890.581C1184.07 903.94 1154.37 905.672 1122.93 893.118C1092.78 881.08 1067.36 859.309 1054.48 829.144C1038.87 792.599 1043.35 751.124 1061.75 716.418C1066.16 708.095 1074.48 700.411 1077.72 691.959C1077.78 691.806 1077.83 691.65 1077.89 691.496Z"/>
	<path fill="#3F3E3E" d="M1128.18 694.328C1130.12 691.825 1131.96 687.126 1135.26 686.659C1148.98 684.719 1193.37 684.028 1206.71 687.429C1208.74 689.35 1209.27 691.481 1209.37 694.203C1209.47 696.8 1209.31 698.906 1208.24 701.305C1208.5 702.272 1208.46 701.953 1208.54 702.784C1208.65 703.829 1208.7 705.945 1209.28 706.832C1212.87 712.296 1247.69 716.821 1255.77 724.704C1256.56 725.654 1257.02 726.408 1257.39 727.601C1260.62 737.915 1258.22 781.015 1258.38 794.798C1258.6 814.236 1260.32 833.912 1259.31 853.339C1259.2 855.57 1258.83 857.249 1257.73 859.194C1247.11 862.02 1087.87 860.719 1084.88 859.192C1082.61 858.03 1081.96 853.6 1081.67 851.258C1080.26 839.885 1081.33 827.815 1081.39 816.358C1081.49 797.087 1081.3 777.792 1081.68 758.525C1081.87 749.346 1084.52 734.612 1081.18 726.128C1081.1 725.933 1081.01 725.742 1080.93 725.549C1091.87 723.006 1122.29 713.584 1129.55 706.012C1131.03 704.462 1131.92 702.694 1131.71 700.513C1131.45 697.83 1130.08 696.092 1128.18 694.328Z"/>
	<path fill="#FEE5A7" d="M1165.7 791.552C1167.84 791.266 1170.18 791.046 1172.27 791.663C1175.19 792.524 1177.19 794.403 1178.64 797.004C1183.15 805.087 1183.73 843.184 1181.09 852.378C1178.39 853.964 1174.97 853.44 1171.94 853.38L1157.39 853.302C1167.37 836.314 1152.17 811.144 1165.7 791.552Z"/>
	<path fill="#FEE5A7" d="M1207.14 715.993Q1208.35 715.791 1209.57 715.772C1216.18 715.627 1244.96 725.308 1249.44 729.782C1251.1 732.265 1251.23 734.826 1251.43 737.722C1252.46 751.993 1251.41 766.392 1251.47 780.689C1251.53 797.081 1252.65 813.487 1253.02 829.877C1253.16 836.045 1254.75 848.079 1250.56 852.455C1245.95 856.109 1217.97 853.48 1211.12 853.111C1214.92 839.796 1210.14 787.801 1209.63 770.146C1209.19 754.673 1209.94 739.105 1208.83 723.662C1208.63 720.9 1208.41 718.518 1207.14 715.993Z"/>
	<path fill="#3F3E3E" d="M1224.94 735.554C1230.32 735.392 1237.91 734.597 1242.81 736.801C1244.09 738.312 1244.79 739.726 1245.22 741.643C1246.36 746.711 1246.48 757.563 1243.27 761.833C1241.59 764.06 1239.63 764.006 1237.11 764.464C1233.72 764.67 1228.92 765.276 1225.76 763.896C1223.01 762.691 1220.9 760.099 1219.77 757.361C1217.59 752.115 1218.5 742.923 1220.92 737.83C1221.78 736.015 1223.16 736.082 1224.94 735.554Z"/>
	<path fill="#FEE5A7" d="M1225.33 742.665L1225.78 742.614C1230.05 742.143 1234.48 741.276 1237.91 744.553C1239.31 745.889 1240.08 747.633 1239.87 749.567C1239.6 752.129 1238.32 754.964 1236.33 756.582L1235.15 757.513C1232.41 757.795 1229.7 758.322 1227.11 757.106C1224.86 752.886 1227 748.141 1225.56 743.402L1225.33 742.665Z"/>
	<path fill="#3F3E3E" d="M1220 776.443C1227.62 775.861 1235.78 775.339 1243.37 776.285C1246.18 781.032 1246.17 788.81 1245.73 794.239C1245.35 798.941 1245.4 801.776 1241.71 804.89C1241.61 804.989 1241.51 805.104 1241.39 805.187C1237.79 807.69 1223.23 805.51 1218.53 805.193C1222.42 798.626 1220.36 783.788 1220 776.443Z"/>
	<path fill="#FEE5A7" d="M1225.63 782.665C1230.05 782.179 1234.1 781.038 1237.76 784.221C1239.48 785.714 1240.07 787.416 1240.1 789.609C1240.14 792.381 1238.64 795.832 1236.75 797.783C1236.45 798.448 1235.87 798.752 1235.3 799.193C1232.37 799.319 1229.54 799.76 1226.89 798.322C1225.82 795.952 1226.05 794.64 1226.37 792.095C1226.82 788.535 1226.46 786.128 1225.63 782.665Z"/>
	<path fill="#3F3E3E" d="M1221.22 816.445C1228.9 816.031 1236.64 815.417 1244.2 817.165C1244.79 817.773 1245.36 818.41 1245.79 819.142C1248.62 824.011 1248.53 837.254 1246.75 842.423C1245.8 845.175 1245.03 845.282 1242.55 846.56C1238.94 848.209 1231.96 849.068 1227.96 848.638C1225.67 848.391 1223.44 847.275 1222.13 845.345C1217.58 838.65 1220.1 824.155 1221.22 816.445Z"/>
	<path fill="#FEE5A7" d="M1225.89 823.554C1230.09 823.103 1235.42 822.331 1239.51 823.43C1241.36 825.678 1241.7 827.505 1241.63 830.416C1241.54 834.662 1241.37 837.751 1238.24 840.776C1238.06 840.922 1237.91 841.095 1237.72 841.214C1235.77 842.418 1232.3 843.202 1230.07 842.954C1225.3 838.813 1227.65 830.413 1226.12 824.438L1225.89 823.554Z"/>
	<path fill="#FEE5A7" d="M1126.88 715.105C1128.42 714.881 1129.14 714.902 1130.6 715.41C1131.08 716.173 1131.44 716.7 1131.58 717.607C1132.58 724.333 1131.32 739.391 1131.3 746.96C1131.23 777.764 1132.33 816.253 1129 846.482C1128.72 849.067 1128.52 851.23 1126.93 853.377L1089.56 853.296C1084.26 849.931 1093.3 742.808 1086.36 729.965C1095.36 728.381 1120.71 721.359 1126.88 715.105Z"/>
	<path fill="#3F3E3E" d="M1102.84 775.555C1108.82 775.645 1114.81 775.582 1120.73 776.474C1121.38 777.53 1121.81 778.467 1122.07 779.679C1123.32 785.493 1124.58 797.408 1120.74 802.342C1118.84 804.782 1116.58 804.532 1113.79 804.89C1110.83 805.494 1106.42 805.532 1103.48 804.745C1100.75 804.017 1098.94 802.181 1097.52 799.834C1093.51 793.221 1094.58 784.665 1096.22 777.521C1098.14 775.617 1100.22 775.891 1102.84 775.555Z"/>
	<path fill="#FEE5A7" d="M1101.59 782.663C1104.19 782.404 1107.2 781.873 1109.8 782.127C1112.02 782.344 1114.8 783.702 1116.17 785.507C1117.37 787.088 1117.76 788.39 1117.46 790.383C1117.02 793.271 1115.34 795.965 1113.12 797.783C1112.99 797.837 1112.86 797.907 1112.72 797.946C1109.67 798.824 1106.1 799.346 1103.34 797.836C1101.35 793.679 1103.07 788.165 1101.81 783.468L1101.59 782.663Z"/>
	<path fill="#3F3E3E" d="M1101.37 733.773C1107.06 733.378 1114.18 732.241 1119.62 734.058C1121.58 735.819 1122.07 738.592 1122.5 741.094C1123.63 747.629 1124.38 756.34 1120.35 762.071C1118.05 763.704 1115.97 763.452 1113.28 763.43C1108.7 763.58 1102.26 764.519 1098.1 762.183C1091.19 758.295 1095.15 742.812 1093.2 735.732C1093.13 735.485 1093.06 735.24 1092.99 734.994C1095.79 734.696 1098.58 734.201 1101.37 733.773Z"/>
	<path fill="#FEE5A7" d="M1101.27 739.998C1106.13 739.942 1111.72 739.242 1115.44 743.091C1116.65 744.34 1117.35 745.939 1117.26 747.672C1117.09 750.682 1115.15 754.095 1112.89 756.004C1108.76 757.315 1103.85 756.787 1099.55 756.737C1102.33 752.257 1101.37 745.092 1101.27 739.998Z"/>
	<path fill="#3F3E3E" d="M1098.21 816.443Q1103.76 815.889 1109.34 816.023Q1114.92 816.157 1120.44 816.976C1120.93 817.575 1121.39 818.12 1121.72 818.827C1124.37 824.442 1123.81 838.613 1121.82 844.594C1120.97 847.143 1120.15 847.304 1117.89 848.446C1117.57 848.649 1117.43 848.75 1117.08 848.917C1113.9 850.45 1105.03 850.499 1101.73 849.231C1098.97 848.17 1097.17 846.079 1096.1 843.374C1093.3 836.338 1095.13 823.135 1098.21 816.443Z"/>
	<path fill="#FEE5A7" d="M1101.48 823.551C1104.14 823.21 1107.2 822.586 1109.88 822.769C1112.21 822.929 1114.22 824.129 1115.64 825.991C1117.09 827.895 1117.53 830.089 1117.26 832.436C1116.78 836.624 1116.15 839.906 1112.84 842.61C1109.95 843.136 1107.43 843.407 1104.49 843.26C1100.05 840.152 1103.7 830.01 1101.72 824.243L1101.48 823.551Z"/>
	<path fill="#FEE5A7" d="M1153.26 692.888C1163.61 692.536 1191.11 691.728 1200.3 694.019C1201.66 696.086 1202.03 698.06 1202.17 700.474C1203.56 723.759 1202.18 747.567 1202.88 770.946Q1203.65 794.933 1204.72 818.909C1205.17 829.746 1206.24 841.38 1204.85 852.143C1200.31 854.623 1192.14 853.368 1186.96 853.126C1190.59 843.977 1188.79 805.329 1185.94 795.216C1185.13 792.352 1183.82 791.183 1181.23 789.776C1180.87 789.234 1180.58 788.798 1180.05 788.405C1176.23 785.593 1170.13 784.773 1165.54 785.503C1142.64 789.149 1160.81 839.28 1150.89 852.711C1145.86 854.177 1139.35 853.392 1134.11 853.362C1134.75 852.525 1135.17 851.886 1135.41 850.839C1137.7 840.573 1136.79 827.961 1136.84 817.429Q1136.91 795.731 1137.22 774.035C1137.48 751.071 1139.22 727.503 1138.14 704.634C1137.95 700.7 1137.81 696.973 1135.69 693.539Q1144.48 693.362 1153.26 692.888Z"/>
	<path fill="#3F3E3E" d="M1165.51 745.332C1170.9 745.186 1177.1 744.738 1182.32 746.14C1184.85 748.715 1185.05 754.4 1185.28 757.809C1185.62 762.803 1185.4 770.096 1181.8 774C1179.98 775.977 1176.47 775.687 1173.96 775.773L1157.41 774.897C1162.2 769.422 1157.75 754.989 1159.33 747.789C1161.17 745.403 1162.6 745.783 1165.51 745.332Z"/>
	<path fill="#FEE5A7" d="M1163.85 752.442C1167.72 751.821 1171.84 751.984 1175.77 751.916C1177.28 754.32 1178.03 757.363 1178.12 760.195C1178.22 763.507 1177.24 765.525 1175.08 767.903C1174.42 768.461 1173.49 768.67 1172.68 768.972C1170.75 769.691 1169.63 770.092 1167.57 769.826C1162.96 766.193 1165.6 758.545 1164.05 753.138C1163.99 752.905 1163.92 752.674 1163.85 752.442Z"/>
	<path fill="#3F3E3E" d="M1156.94 701.775C1165.51 700.615 1174.19 701.103 1182.81 701.381C1185.71 705.676 1185.55 712.538 1185.37 717.617C1185.18 722.615 1185.58 728.503 1181.82 732.004C1181.33 732.714 1180.61 733.133 1179.75 733.302C1174.67 734.306 1165.52 734.748 1161.14 731.718C1153.65 726.537 1158.44 710.401 1157.06 702.439C1157.02 702.217 1156.98 701.997 1156.94 701.775Z"/>
	<path fill="#FEE5A7" d="M1165.72 708L1176.53 707.658C1176.93 708.324 1177.35 708.976 1177.67 709.688C1179.4 713.588 1179.74 720.018 1178.07 724.013C1177.28 725.91 1176.32 725.931 1174.56 726.668C1171.06 727.573 1166.15 727.038 1162.48 727.1C1165.68 720.934 1162.33 713.718 1165.72 708Z"/>
	<path fill="#B5D4D9" d="M998.293 88.1791C1033.22 85.7711 1066.61 86.2996 1101.33 91.0988C1188.16 103.102 1272.92 129.544 1358.45 148.455Q1409.31 159.629 1460.5 169.196C1489.57 174.772 1519.15 179.663 1547.34 188.902C1569.7 196.229 1589.95 207.041 1607.7 222.562C1661.05 269.207 1728.51 386.849 1733.05 457.33C1736.28 507.592 1709.58 550.633 1677.53 586.988C1612.36 660.926 1522.5 699.554 1425.28 705.485C1398.82 707.099 1372.43 704.549 1346.14 706.011C1332.7 705.563 1316.54 702.344 1303.52 705.816C1303.84 704.164 1303.53 703.019 1302.93 701.455C1292.59 674.515 1256.45 644.738 1230.35 633.739C1189.59 616.559 1135.17 620.745 1096.46 641.641C1084.34 648.184 1073.44 659.091 1060.69 664.075L1059.98 664.345C1058.58 655.357 929.813 512.303 913.926 495.012L1282.92 404.438C1287.7 403.223 1294.29 401.334 1297.9 397.879L1297.25 396.538C1280.45 392.305 961.493 476.116 915.659 488.269C928.189 466.259 943.657 446.014 957.967 425.151C988.638 380.435 1017.9 336.567 1040.83 287.287C1056.17 254.325 1068.93 225.648 1063.01 188.537C1056.09 145.216 1033.33 113.57 998.293 88.1791Z"/>
	<path fill="#3F3E3E" d="M1458.34 241.333C1480.49 239.22 1504.91 251.668 1522.39 264.075C1555.44 287.528 1577.85 321.371 1584.63 361.522C1591.2 400.428 1582.52 442.6 1559.46 474.763Q1558.33 476.319 1557.15 477.847Q1555.98 479.375 1554.77 480.873Q1553.56 482.372 1552.32 483.841Q1551.08 485.31 1549.79 486.747Q1548.51 488.185 1547.2 489.591Q1545.88 490.998 1544.53 492.371Q1543.19 493.745 1541.8 495.085Q1540.42 496.425 1539.01 497.731Q1537.59 499.037 1536.15 500.308Q1534.7 501.579 1533.22 502.815Q1531.75 504.05 1530.24 505.249Q1528.73 506.448 1527.2 507.61Q1525.66 508.771 1524.1 509.895Q1522.54 511.019 1520.95 512.105Q1519.36 513.19 1517.74 514.236Q1516.12 515.282 1514.48 516.289Q1512.84 517.295 1511.18 518.261Q1509.51 519.227 1507.82 520.152Q1506.13 521.077 1504.42 521.96Q1502.71 522.843 1500.98 523.685Q1499.25 524.526 1497.5 525.325Q1495.75 526.124 1493.98 526.88Q1492.21 527.635 1490.42 528.347Q1488.63 529.06 1486.82 529.728Q1485.02 530.396 1483.2 531.02Q1481.38 531.644 1479.54 532.224Q1477.7 532.803 1475.85 533.337Q1474 533.872 1472.14 534.36Q1470.28 534.849 1468.41 535.293Q1466.53 535.736 1464.65 536.133Q1462.77 536.531 1460.87 536.882Q1458.98 537.233 1457.08 537.538C1406.07 545.821 1350.36 525.089 1315.2 487.518C1311.2 483.243 1307.24 478.764 1303.75 474.06C1300.12 469.158 1297.94 461.662 1292.88 458.209C1292.73 458.101 1292.56 458.004 1292.4 457.902C1293.03 453.943 1291.72 452.01 1294.37 448.62C1294.98 448.667 1295.62 448.558 1296.2 448.76C1297.92 449.365 1312.86 474.735 1316.31 478.897C1328.69 493.814 1345.11 505.594 1362.26 514.427C1398.97 533.333 1437.23 538.687 1476.77 525.919C1514.44 513.755 1546.85 488.614 1564.94 453.075Q1565.74 451.498 1566.5 449.903Q1567.27 448.307 1567.99 446.693Q1568.71 445.079 1569.39 443.447Q1570.07 441.816 1570.72 440.168Q1571.36 438.52 1571.96 436.857Q1572.56 435.194 1573.12 433.516Q1573.68 431.839 1574.2 430.148Q1574.72 428.457 1575.19 426.754Q1575.67 425.051 1576.11 423.337Q1576.54 421.623 1576.93 419.899Q1577.33 418.174 1577.67 416.44Q1578.02 414.707 1578.33 412.965Q1578.64 411.224 1578.9 409.475Q1579.17 407.726 1579.39 405.971Q1579.61 404.217 1579.78 402.457Q1579.96 400.698 1580.09 398.934Q1580.23 397.171 1580.32 395.404Q1580.41 393.638 1580.46 391.87Q1580.5 390.103 1580.5 388.334Q1580.51 386.565 1580.47 384.797Q1580.43 383.029 1580.34 381.263Q1580.26 379.496 1580.13 377.733Q1580 375.969 1579.83 374.208Q1579.66 372.448 1579.45 370.693Q1579.23 368.937 1578.98 367.188Q1578.72 365.438 1578.42 363.695Q1578.12 361.953 1577.77 360.218Q1577.43 358.483 1577.04 356.757Q1576.66 355.031 1576.23 353.316Q1575.8 351.6 1575.33 349.895Q1574.86 348.19 1574.35 346.498Q1573.83 344.805 1573.28 343.126C1560.74 304.811 1530.33 270.485 1492.57 255.562C1482.87 251.73 1470.19 251.645 1461.29 246.317C1458.96 244.926 1458.97 243.807 1458.34 241.333Z"/>
	<path fill="#3F3E3E" d="M1422.78 260.888C1456.7 259.185 1488.66 267.14 1514.91 289.519C1542.11 312.703 1558.34 353.006 1561.14 388.049C1563.52 417.752 1555.32 446.503 1535.78 469.258C1511.58 497.429 1477.08 509.636 1440.91 512.449C1440.61 512.51 1440.31 512.589 1440.01 512.633C1411.93 516.682 1376.97 503.675 1354.39 487.647Q1353.22 486.824 1352.08 485.972Q1350.93 485.121 1349.8 484.242Q1348.68 483.363 1347.57 482.457Q1346.47 481.55 1345.39 480.617Q1344.31 479.685 1343.25 478.726Q1342.19 477.766 1341.16 476.782Q1340.12 475.797 1339.11 474.788Q1338.1 473.778 1337.12 472.745Q1336.13 471.711 1335.17 470.653Q1334.21 469.596 1333.28 468.515Q1332.34 467.434 1331.44 466.331Q1330.53 465.228 1329.65 464.103Q1328.77 462.978 1327.92 461.832Q1327.06 460.686 1326.24 459.52Q1325.42 458.353 1324.62 457.167Q1323.82 455.981 1323.06 454.776Q1322.29 453.57 1321.56 452.347Q1320.82 451.123 1320.11 449.882Q1319.4 448.641 1318.73 447.383Q1318.05 446.125 1317.41 444.85Q1316.76 443.576 1316.15 442.287Q1315.53 440.997 1314.95 439.693Q1314.37 438.389 1313.82 437.071Q1313.27 435.753 1312.75 434.422Q1312.23 433.091 1311.75 431.747Q1311.26 430.404 1310.81 429.049Q1310.35 427.695 1309.93 426.329Q1309.51 424.964 1309.13 423.589Q1308.74 422.214 1308.39 420.83Q1308.04 419.445 1307.72 418.053Q1307.4 416.661 1307.12 415.261Q1306.83 413.861 1306.58 412.455C1300.6 377.162 1310.7 340.335 1331.4 311.462C1354.24 279.61 1385.19 267.153 1422.78 260.888Z"/>
	<path fill="#B5D4D9" d="M1427.61 267.11Q1429 267.023 1430.39 266.969Q1431.78 266.915 1433.17 266.894Q1434.57 266.874 1435.96 266.886Q1437.35 266.899 1438.74 266.944Q1440.14 266.99 1441.53 267.069Q1442.92 267.147 1444.3 267.259Q1445.69 267.371 1447.08 267.516Q1448.46 267.661 1449.84 267.839Q1451.22 268.017 1452.6 268.228Q1453.98 268.439 1455.35 268.682Q1456.72 268.926 1458.08 269.202Q1459.45 269.478 1460.81 269.786Q1462.16 270.095 1463.51 270.436Q1464.86 270.777 1466.21 271.15Q1467.55 271.523 1468.88 271.928Q1470.21 272.332 1471.53 272.769Q1472.86 273.205 1474.17 273.673Q1475.48 274.141 1476.78 274.64Q1478.08 275.139 1479.37 275.669Q1480.66 276.199 1481.93 276.759Q1483.21 277.319 1484.47 277.91Q1485.73 278.5 1486.97 279.121Q1488.22 279.741 1489.45 280.391Q1490.68 281.041 1491.9 281.721Q1493.12 282.4 1494.31 283.108Q1495.51 283.816 1496.7 284.552Q1497.88 285.288 1499.04 286.053Q1500.21 286.817 1501.35 287.609Q1502.5 288.401 1503.62 289.219Q1504.75 290.038 1505.86 290.884Q1506.96 291.729 1508.05 292.601Q1509.14 293.473 1510.2 294.37C1536.33 316.325 1551.86 355.096 1554.62 388.507C1556.95 416.597 1548.76 443.802 1530.41 465.321C1506.83 492.987 1472.33 503.548 1437.2 506.346C1409.74 509.642 1374.83 495.433 1353.55 478.786C1331.3 461.382 1315.83 434.709 1312.45 406.606Q1312.27 405.031 1312.13 403.452Q1311.98 401.873 1311.88 400.292Q1311.77 398.71 1311.71 397.126Q1311.64 395.542 1311.62 393.957Q1311.59 392.372 1311.6 390.787Q1311.61 389.202 1311.66 387.617Q1311.71 386.033 1311.8 384.45Q1311.89 382.867 1312.02 381.287Q1312.15 379.707 1312.31 378.13Q1312.48 376.554 1312.69 374.982Q1312.89 373.41 1313.13 371.844Q1313.38 370.277 1313.66 368.717Q1313.94 367.157 1314.26 365.604Q1314.58 364.051 1314.94 362.507Q1315.29 360.963 1315.69 359.427Q1316.08 357.892 1316.52 356.367Q1316.95 354.842 1317.42 353.328Q1317.89 351.814 1318.39 350.311Q1318.9 348.809 1319.44 347.32Q1319.99 345.83 1320.56 344.355Q1321.14 342.879 1321.76 341.418Q1322.37 339.957 1323.02 338.512Q1323.68 337.066 1324.36 335.637Q1325.05 334.208 1325.77 332.795Q1326.49 331.383 1327.24 329.989Q1328 328.595 1328.78 327.22Q1329.57 325.845 1330.4 324.49Q1331.22 323.134 1332.07 321.799Q1332.93 320.464 1333.81 319.151Q1334.7 317.837 1335.62 316.545Q1336.54 315.254 1337.49 313.985Q1338.44 312.716 1339.42 311.471C1361.84 282.927 1392.46 271.308 1427.61 267.11Z"/>
	<path fill="#3F3E3E" d="M1396.9 309.777C1408.42 308.388 1420.69 309.1 1432.29 309.063C1446.46 309.019 1461.26 308.239 1475.34 309.731C1475.91 310.714 1476.39 311.626 1476.67 312.737C1478.47 319.964 1478.93 339.562 1475.04 345.915C1485.01 347.459 1509.5 354.356 1517.02 360.564C1517.74 361.507 1518.07 362.128 1518.3 363.316C1520.72 375.703 1520.04 455.057 1518.21 469.916C1517.94 472.059 1517.46 473.675 1516.2 475.473C1501.53 477.907 1484.6 475.774 1469.64 475.451Q1436.87 473.766 1404.06 473.468C1391.9 473.285 1364.46 474.663 1354.21 471.776C1351.02 470.879 1349.69 469.313 1348.78 466.259C1346.24 457.76 1347.96 445.614 1348.15 436.671C1348.48 421.815 1351.67 353.373 1346.92 345.712C1346.84 345.584 1346.74 345.462 1346.66 345.338C1355.93 344.396 1386.31 336.328 1393.94 331.548C1396.53 324.797 1394.53 316.929 1396.9 309.777Z"/>
	<path fill="#F8F8F4" d="M1489.68 450.221C1492.04 449.937 1494.68 449.458 1497.04 449.645C1498.91 449.793 1500.35 450.724 1501.51 452.167C1503.07 454.12 1503.74 456.119 1503.53 458.589C1503.18 462.785 1502.89 466.297 1499.55 469.055C1496.25 469.751 1492.34 469.362 1488.94 469.341C1491.93 463.688 1490.91 456.216 1489.68 450.221Z"/>
	<path fill="#F8F8F4" d="M1434.19 415.555C1436.19 415.218 1439.04 414.677 1441 415.318C1443.14 416.018 1444.85 418.28 1445.9 420.197C1451.75 430.881 1452.23 455.61 1449 467.241C1446.6 468.744 1444.89 468.383 1442.09 468.416L1427.93 467.774C1434.03 458.881 1427.86 441.099 1429.17 430.549C1429.81 425.378 1432.05 420.265 1434.19 415.555Z"/>
	<path fill="#F8F8F4" d="M1476.31 354.22C1476.86 354.142 1477.4 354.078 1477.95 354.038C1484.68 353.547 1506.09 361.055 1510.98 365.468C1512.45 368.047 1512.55 371.017 1512.73 373.918C1513.55 387.545 1512.5 401.26 1512.69 414.907C1512.89 429.838 1515.14 450.137 1513 464.393C1512.67 466.538 1512.47 467.865 1510.67 469.177C1506.14 463.973 1511.03 453.627 1506.5 447.195C1506.38 447.015 1506.24 446.84 1506.11 446.663C1506.08 445.827 1505.74 445.279 1505.39 444.528C1498.92 441.389 1489.1 443.246 1482.15 443.684C1484.36 447.208 1484.54 451.446 1484.66 455.513C1484.78 459.544 1484.35 466.849 1481.49 469.91C1479.38 468.11 1479.02 464.954 1478.69 462.26C1477.57 452.92 1478.39 442.937 1478.34 433.516L1477.87 378.198C1477.79 371.3 1478.86 360.445 1476.31 354.22Z"/>
	<path fill="#3F3E3E" d="M1485.67 405.777C1490.74 405.304 1496.88 404.025 1501.72 405.9C1504.84 407.109 1507.07 408.977 1508.42 412.108C1510.48 416.856 1508.98 425.264 1506.92 429.889C1505.83 432.338 1504.69 432.427 1502.33 433.334C1496.73 434.947 1488.43 433.194 1482.66 432.621C1486.59 426.992 1484.18 413.137 1485.67 405.777Z"/>
	<path fill="#F8F8F4" d="M1490.39 412C1492.32 411.834 1494.32 411.607 1496.25 411.647C1498.15 411.687 1499.36 412.726 1500.58 414.113C1501.93 415.643 1502.83 417.583 1502.5 419.659C1502.08 422.374 1500.77 425.058 1498.55 426.696C1498.39 426.766 1498.23 426.856 1498.06 426.906C1495.79 427.575 1493.6 427.402 1491.49 426.51C1489.79 422.573 1490.98 416.461 1490.39 412Z"/>
	<path fill="#3F3E3E" d="M1492.23 368.444C1496.22 368.042 1500.8 367.543 1504.01 370.42C1507.3 373.361 1508.94 378.266 1509.2 382.562C1509.42 386.251 1508.3 392.452 1505.42 395.042C1503.14 397.086 1500.03 396.519 1497.19 396.568C1494.18 396.692 1490.1 397.308 1487.42 395.707C1484.79 394.132 1483.05 390.386 1482.39 387.485C1481.29 382.584 1482.25 375.419 1485.37 371.339C1487.28 368.833 1489.38 368.931 1492.23 368.444Z"/>
	<path fill="#F8F8F4" d="M1491.04 375.555L1491.63 375.534C1493.64 375.481 1496.4 375.072 1498.3 375.697C1499.89 376.218 1501.47 378.474 1502.16 379.897C1503.06 381.764 1502.84 384.22 1502.08 386.098C1500.97 388.845 1500.22 389.04 1497.63 390.123C1495.53 390.132 1493.51 390.497 1491.65 389.327C1490.1 388.345 1488.93 386.258 1488.67 384.456C1488.23 381.483 1489.34 377.953 1491.04 375.555Z"/>
	<path fill="#F8F8F4" d="M1390.7 339.109C1392.36 338.931 1393.05 339.088 1394.59 339.736C1394.87 340.259 1395.13 340.653 1395.3 341.217C1395.8 342.866 1396.36 447.337 1396.14 455.531C1396.04 459.106 1396.07 463.18 1394.58 466.47C1382.41 467.807 1369.43 466.687 1357.15 466.538C1349.09 459.613 1361.77 365.648 1353.59 350.216C1365.65 348.06 1379.78 344.627 1390.7 339.109Z"/>
	<path fill="#3F3E3E" d="M1363.1 437.777C1368.51 437.253 1376.32 436.015 1381.51 437.854C1384.65 438.966 1387.19 440.753 1388.64 443.86C1390.94 448.791 1389.68 456.669 1387.76 461.683C1386.83 464.11 1386.14 463.997 1383.82 465.029L1382.92 465.636C1375.88 466.754 1368.74 464.921 1361.85 463.548C1363.33 454.944 1360.87 446.351 1363.1 437.777Z"/>
	<path fill="#F8F8F4" d="M1367.59 443.999C1370.24 443.752 1373.76 443.126 1376.41 443.494C1378.56 443.794 1381.24 445.143 1382.55 446.896C1383.69 448.428 1384.13 449.813 1383.79 451.737C1383.33 454.327 1381.49 457.312 1379.39 458.819C1378.69 459.288 1379.09 459.1 1378.03 459.316C1375.49 459.836 1373.55 460.84 1370.95 460.075C1367.09 456.616 1368.49 448.976 1367.59 443.999Z"/>
	<path fill="#3F3E3E" d="M1363.24 355.999C1367.38 355.59 1371.9 354.84 1376.05 355.061C1379.95 355.269 1384.35 357.094 1386.85 360.159C1389.41 363.294 1390.3 367.562 1389.69 371.512C1388.95 376.385 1388.01 381.32 1383.93 384.235L1382.72 385.43C1379.51 386.042 1376.36 386.448 1373.09 386.102C1369.75 385.749 1365.03 383.868 1363 381.087C1358.82 375.365 1361.94 362.52 1363.24 355.999Z"/>
	<path fill="#F8F8F4" d="M1367.17 362.221C1369.99 361.879 1373.03 361.498 1375.86 361.634C1377.9 361.731 1379.82 363.09 1381.09 364.621C1382.49 366.315 1382.98 368.619 1382.54 370.763C1381.79 374.4 1380.63 376.625 1377.64 378.658C1374.94 379.336 1371.44 379.842 1368.89 378.639C1367.13 375.869 1368.32 366.799 1367.17 362.221Z"/>
	<path fill="#3F3E3E" d="M1368.32 396C1372.87 395.615 1377.61 395.066 1381.79 397.317C1385.54 399.337 1388.03 403.274 1389.03 407.321C1390.37 412.777 1389.43 419.077 1386.34 423.823C1384.64 426.445 1382.19 426.446 1379.42 426.96C1379.16 427.054 1378.91 427.171 1378.64 427.242C1375.64 428.035 1370.74 428.014 1367.98 426.526C1365.03 424.931 1363.15 421.584 1362.17 418.478C1360.34 412.655 1360.47 403.915 1363.6 398.52C1364.83 396.408 1366.06 396.572 1368.32 396Z"/>
	<path fill="#F8F8F4" d="M1367.81 403.11C1370.44 402.788 1373.67 402.263 1376.29 402.579C1378.28 402.82 1380.66 404.797 1381.78 406.375C1382.87 407.918 1383.3 409.661 1382.98 411.516C1382.45 414.614 1381.42 418.104 1378.78 420.002C1378.65 420.058 1378.53 420.132 1378.39 420.17C1375.21 421.076 1371.79 421.614 1368.99 419.845C1367.25 415.072 1368.95 409.154 1367.98 403.993L1367.81 403.11Z"/>
	<path fill="#F8F8F4" d="M1401.14 315.999C1409.24 314.847 1418.06 315.431 1426.24 315.451L1468.65 315.602C1469.16 316.268 1469.59 316.842 1469.89 317.634C1472.31 324.09 1472.81 448.9 1471.51 464.849C1471.37 466.476 1470.95 467.756 1470.19 469.2C1465.41 469.724 1459.82 469.134 1454.98 469.056C1457.03 464.817 1457.23 460.363 1457.31 455.734C1457.43 448.653 1458.09 430.522 1453.1 425.358C1453.63 424.347 1454.01 423.244 1454.44 422.185C1454.09 418.677 1453.32 416.02 1450.7 413.485C1447.48 410.38 1442.74 408.796 1438.3 408.931C1434.08 409.06 1430.22 410.731 1427.43 413.941C1420.31 422.119 1422.58 436.168 1423.28 446.131C1423.75 452.814 1425.03 462.309 1420.32 467.739L1400.87 467.48C1403.64 460.775 1403.62 327.822 1401.14 315.999Z"/>
	<path fill="#3F3E3E" d="M1427.17 323.999C1432.5 323.533 1438.98 322.304 1444.21 323.629C1447.71 324.518 1450.74 326.285 1452.48 329.596C1455.39 335.146 1453.88 343.866 1451.87 349.576C1450.96 352.142 1450.13 352.239 1447.79 353.333C1444.46 354.847 1437.41 355.701 1433.79 354.898C1430.76 354.225 1428.42 352.136 1426.96 349.467C1422.68 341.64 1424.8 332.049 1427.17 323.999Z"/>
	<path fill="#F8F8F4" d="M1431.1 330.221C1435.43 329.863 1442 328.512 1445.54 331.283C1446.34 333.047 1446.51 334.569 1446.51 336.485C1446.52 340.718 1446.51 343.692 1443.45 346.732C1440.84 348.62 1433.41 347.734 1430.15 347.718C1432.73 342.686 1432.01 335.607 1431.1 330.221Z"/>
	<path fill="#3F3E3E" d="M1428.48 365.778C1434.67 365.417 1442.23 364.69 1448.17 366.691C1450.37 367.434 1451.58 368.262 1452.53 370.42C1455.07 376.155 1455.09 387.62 1452.62 393.37C1451.54 395.878 1450.6 395.919 1448.19 396.89C1448.06 396.937 1447.94 396.992 1447.81 397.03C1443.33 398.34 1434.16 398.607 1430.2 396.092C1427.11 394.138 1425.64 391.09 1424.91 387.64C1423.61 381.533 1425.03 370.922 1428.48 365.778Z"/>
	<path fill="#F8F8F4" d="M1430.74 372.888C1433.66 372.518 1437.02 372.021 1439.96 372.161C1442.22 372.269 1445.02 373.965 1446.4 375.699C1447.58 377.182 1448.04 378.942 1447.83 380.805C1447.5 383.821 1446.76 387.333 1444.29 389.296L1443.67 390.051C1439.95 391.422 1434.5 390.686 1430.52 390.645C1430.68 390.378 1430.86 390.118 1431.01 389.844C1433.82 384.868 1432.33 377.965 1430.74 372.888Z"/>
</svg>
