<?xml version="1.0" encoding="utf-8" ?>
<svg xmlns="http://www.w3.org/2000/svg" xmlns:xlink="http://www.w3.org/1999/xlink" width="1024" height="1024">
	<path d="M968.934 287.772C962.738 282.684 956.858 280.521 950.695 276.174C949.476 275.314 948.415 274.502 948.181 272.991C948.629 272.741 948.669 272.68 949.255 272.573C954.304 271.65 962.56 277.822 966.684 280.505C982.938 295.121 995.372 310.247 996.647 333.106C996.854 336.819 997.051 344.071 994.664 347.037L993.75 347.279C992.763 346.662 992.286 346.537 991.983 345.332C991.066 341.691 992.741 336.826 992.42 332.919C991.008 315.689 981.714 299.153 968.934 287.772Z"/>
	<path d="M217.961 746.729C223.513 752.363 229.399 759.706 233.588 766.382Q234.526 767.889 235.39 769.44Q236.254 770.991 237.042 772.582Q237.83 774.173 238.539 775.801Q239.248 777.428 239.878 779.088Q240.507 780.748 241.056 782.437Q241.604 784.125 242.069 785.838Q242.535 787.552 242.916 789.286Q243.298 791.019 243.595 792.77Q243.892 794.52 244.103 796.283Q244.315 798.045 244.441 799.816Q244.566 801.587 244.606 803.362Q244.645 805.137 244.598 806.912Q244.552 808.686 244.419 810.457Q244.286 812.227 244.067 813.989Q243.848 815.751 243.544 817.5Q243.24 819.249 242.851 820.981C241.106 828.452 236.256 841.314 229.481 845.546C229.213 845.297 228.795 844.929 228.59 844.64C226.351 841.48 233.557 833.717 235.13 830.687C236.75 827.565 237.912 823.936 238.771 820.532C243.632 801.263 239.067 780.486 227.494 764.495C223.872 759.491 218.929 755.131 215.807 749.855C216.133 748.395 216.957 747.815 217.961 746.729Z"/>
	<path d="M131.339 687.364C128.396 679.068 125.398 670.825 123.528 662.204C118.706 639.98 120.654 614.513 130.483 593.839C131.233 592.262 132.009 590.782 133.559 589.88L134.471 589.997C135.073 591.449 134.999 592.225 134.658 593.788C133.839 597.54 132.078 601.342 130.789 604.975Q127.782 613.41 126.341 622.248C123.129 642.114 126.345 671.697 136.684 689.258C147.127 712.22 163.155 735.135 185.92 747.203C193.107 751.013 201.953 753.423 208.076 758.825L208.075 759.644C207.919 759.726 207.771 759.824 207.608 759.89C205.877 760.597 203.034 759.522 201.328 758.922C165.446 746.302 147.358 720.139 131.339 687.364Z"/>
	<path fill="#FCFCFB" d="M773.506 565.213C790.547 566.562 802.048 566.561 819.019 563.695C829.835 566.891 840.914 566.602 852.001 568.065C893.281 573.512 924.485 588.234 945.265 626.186C961.847 656.472 968.338 700.961 958.371 734.203Q958.001 735.441 957.6 736.669Q957.2 737.897 956.769 739.115Q956.339 740.333 955.879 741.54Q955.418 742.747 954.928 743.942Q954.438 745.138 953.919 746.32Q953.4 747.503 952.852 748.673Q952.304 749.843 951.727 750.999Q951.151 752.155 950.546 753.296Q949.941 754.438 949.308 755.564Q948.675 756.69 948.015 757.8Q947.355 758.911 946.667 760.004Q945.98 761.098 945.266 762.175Q944.552 763.251 943.812 764.31Q943.071 765.368 942.305 766.409Q941.539 767.449 940.747 768.469Q939.956 769.49 939.14 770.492Q938.323 771.493 937.483 772.474Q936.642 773.454 935.777 774.414Q934.913 775.374 934.025 776.312Q933.137 777.25 932.226 778.167Q931.315 779.083 930.382 779.976Q929.449 780.87 928.495 781.74Q927.54 782.61 926.564 783.457Q925.589 784.303 924.592 785.126Q923.596 785.948 922.58 786.746Q921.564 787.543 920.528 788.315Q919.493 789.088 918.438 789.834Q917.384 790.581 916.312 791.301Q915.24 792.022 914.15 792.716Q913.06 793.41 911.954 794.076Q910.848 794.743 909.725 795.383Q908.603 796.022 907.465 796.634C871.214 816.043 828.905 818.621 788.585 818.026C778.743 817.881 767.411 818.577 757.869 816.177C757.75 816.147 757.634 816.105 757.517 816.068C757.575 808.752 756.224 801.402 754.362 794.353C751.517 783.587 747.533 773.045 743.921 762.515L726.217 711.098C711.517 668.627 697.416 625.809 681.954 583.618C698.311 577.288 719.798 573.692 737.063 571.145C747.217 569.648 764.929 569.612 773.506 565.213Z"/>
	<path fill="#FCFCFB" d="M131.339 687.364C120.328 685.417 105.104 680.484 94.4223 676.688C74.296 669.535 50.6323 657.346 41.1847 636.985C34.8103 623.247 39.5192 606.808 44.508 593.404C56.438 561.351 78.4054 533.459 110.077 519.105C158.7 497.068 219.038 525.236 264.866 542.561C272.136 571.311 280.366 599.88 288.166 628.498L331.471 787.422C337.767 810.525 344.366 833.581 350.37 856.759C353.543 869.003 355.224 881.944 360.113 893.67Q360.783 895.263 361.577 896.797Q362.371 898.331 363.284 899.798Q364.198 901.264 365.225 902.653Q366.252 904.042 367.386 905.346Q368.52 906.649 369.754 907.858Q370.988 909.067 372.314 910.174Q373.64 911.281 375.05 912.28Q376.46 913.278 377.945 914.161C383.409 917.381 388.446 918.475 394.731 918.537C409.44 918.682 424.745 915.071 439.305 913.042L505.315 903.892C519.982 901.853 534.625 899.497 549.381 898.179C539.293 910.627 524.174 922.738 510.335 930.826C481.36 947.758 443.421 953.472 410.869 944.775C367.476 933.182 335.058 900.048 307.602 866.382C298.545 855.277 288.969 843.559 281.781 831.145C278.758 846.699 272.794 859.882 264.319 873.166C262.754 875.62 260.867 879.257 258.395 880.842C257.156 881.637 256.162 882.035 254.719 881.73C253.751 877.757 259.648 872.622 261.767 869.699C270.714 857.352 277.216 839.567 278.376 824.389C278.389 824.222 278.398 824.055 278.409 823.888C273.775 816.991 269.291 809.509 263.904 803.177C263.681 806.055 264.388 809.109 264.436 812.009C264.567 819.818 262.811 828.705 260.285 836.042C258.151 842.239 249.038 861.934 242.986 864.313C242.223 864.613 242.372 864.429 241.526 863.972C241.481 863.815 241.416 863.663 241.39 863.502C240.748 859.643 247.975 851.99 250.161 848.84C260.291 834.248 262.236 811.927 259.193 794.913C254.51 790.548 251.164 783.464 247.635 778.094Q241.817 769.341 235.44 760.986C226.904 749.932 215.502 742.497 205.26 733.24C197.596 726.315 190.61 718.361 182.464 712.019C176.917 707.7 170.771 704.115 164.583 700.803C171.479 712.156 182.601 723.175 194.161 729.817C198.675 732.411 204.081 733.951 207.525 738.07L206.571 739.05C205.592 739.121 204.72 739.015 203.753 738.84C199.51 738.07 195.319 735.529 191.743 733.217C177.485 724.002 168.007 712.204 158.378 698.494C151.027 696.366 143.892 692.077 136.684 689.258C126.345 671.697 123.129 642.114 126.341 622.248Q127.782 613.41 130.789 604.975C132.078 601.342 133.839 597.54 134.658 593.788C134.999 592.225 135.073 591.449 134.471 589.997L133.559 589.88C132.009 590.782 131.233 592.262 130.483 593.839C120.654 614.513 118.706 639.98 123.528 662.204C125.398 670.825 128.396 679.068 131.339 687.364Z"/>
	<path d="M165.387 626.17C165.865 626.301 166.735 626.522 167.165 626.717C167.984 627.088 168.407 627.305 168.518 628.179C168.9 631.177 167.442 635.487 167.021 638.567Q166.599 641.74 166.451 644.936Q166.302 648.133 166.427 651.331Q166.552 654.529 166.951 657.705Q167.349 660.88 168.017 664.01C170.816 677.379 177.47 690.428 186.342 700.784C188.656 703.484 196.543 709.713 197.419 712.504C197.819 713.776 197.442 714.223 196.835 715.27C187.156 711.071 179.721 700.196 174.611 691.412C162.429 670.469 159.221 649.513 165.387 626.17Z"/>
	<path d="M158.378 698.494C144.454 671.392 135.781 647.065 145.451 616.743C146.294 614.098 147.627 609.969 150.091 608.505L150.981 608.762C152.954 613.461 146.877 626.688 146.108 632.383C143.124 654.501 150.678 683.29 164.583 700.803C171.479 712.156 182.601 723.175 194.161 729.817C198.675 732.411 204.081 733.951 207.525 738.07L206.571 739.05C205.592 739.121 204.72 739.015 203.753 738.84C199.51 738.07 195.319 735.529 191.743 733.217C177.485 724.002 168.007 712.204 158.378 698.494Z"/>
	<path d="M259.193 794.913C255.187 772.529 243.081 749.036 224.114 735.711C220.021 732.835 210.521 729.784 208.247 725.787C208.171 724.67 208.119 724.73 208.837 723.88C213.655 723.032 220.142 727.841 223.93 730.514Q224.897 731.202 225.847 731.914Q226.796 732.626 227.728 733.362Q228.66 734.097 229.573 734.855Q230.486 735.613 231.38 736.394Q232.274 737.174 233.149 737.977Q234.023 738.779 234.878 739.603Q235.732 740.427 236.566 741.272Q237.4 742.117 238.212 742.982Q239.025 743.847 239.816 744.732Q240.607 745.617 241.376 746.521Q242.145 747.425 242.891 748.348Q243.637 749.271 244.36 750.213Q245.083 751.154 245.783 752.113Q246.482 753.072 247.158 754.047Q247.833 755.023 248.485 756.016Q249.136 757.008 249.763 758.016Q250.389 759.024 250.99 760.048Q251.592 761.071 252.167 762.109Q252.743 763.147 253.293 764.198Q253.843 765.25 254.367 766.315Q254.891 767.38 255.388 768.458Q255.885 769.536 256.356 770.626Q256.826 771.716 257.269 772.817Q257.712 773.918 258.128 775.029Q258.544 776.141 258.932 777.263Q259.321 778.384 259.681 779.515Q260.041 780.646 260.374 781.785Q260.706 782.925 261.01 784.072Q261.314 785.22 261.589 786.374Q261.865 787.529 262.111 788.69Q262.358 789.851 262.576 791.017Q262.794 792.184 262.983 793.356C263.513 796.456 264.188 800.037 263.904 803.177C263.681 806.055 264.388 809.109 264.436 812.009C264.567 819.818 262.811 828.705 260.285 836.042C258.151 842.239 249.038 861.934 242.986 864.313C242.223 864.613 242.372 864.429 241.526 863.972C241.481 863.815 241.416 863.663 241.39 863.502C240.748 859.643 247.975 851.99 250.161 848.84C260.291 834.248 262.236 811.927 259.193 794.913Z"/>
	<path d="M278.409 823.888Q278.573 822.505 278.702 821.119Q278.832 819.733 278.928 818.344Q279.023 816.955 279.085 815.564Q279.147 814.173 279.174 812.781Q279.202 811.389 279.195 809.997Q279.189 808.605 279.148 807.213Q279.108 805.822 279.033 804.431Q278.959 803.041 278.85 801.653Q278.741 800.265 278.599 798.88Q278.456 797.495 278.28 796.114Q278.103 794.733 277.893 793.357Q277.683 791.981 277.439 790.61Q277.195 789.239 276.918 787.875Q276.641 786.511 276.33 785.154Q276.019 783.796 275.675 782.447Q275.332 781.098 274.955 779.758Q274.578 778.418 274.169 777.087Q273.759 775.756 273.318 774.436Q272.876 773.116 272.402 771.807Q271.928 770.498 271.422 769.201Q270.916 767.903 270.378 766.619Q269.841 765.335 269.272 764.064Q268.703 762.794 268.103 761.537Q267.503 760.281 266.873 759.039Q266.243 757.798 265.582 756.572Q264.921 755.347 264.231 754.138Q263.541 752.929 262.821 751.737Q262.101 750.545 261.352 749.372Q260.604 748.198 259.826 747.043Q259.049 745.888 258.244 744.752Q257.439 743.616 256.606 742.5Q255.773 741.385 254.913 740.29C245.387 728.173 233.023 716.916 219.239 709.851C214.599 707.472 209.136 706.011 204.729 703.313C203.554 702.594 202.794 701.897 202.681 700.498C203.772 699.708 204.4 699.691 205.74 699.915C209.656 700.57 214.01 702.892 217.566 704.602Q219.33 705.455 221.063 706.368Q222.796 707.28 224.497 708.252Q226.198 709.224 227.865 710.253Q229.532 711.283 231.162 712.369Q232.792 713.455 234.385 714.596Q235.977 715.738 237.529 716.933Q239.081 718.129 240.591 719.377Q242.101 720.625 243.567 721.924Q245.034 723.223 246.454 724.571Q247.875 725.92 249.249 727.316Q250.623 728.713 251.948 730.156Q253.273 731.599 254.548 733.086Q255.822 734.574 257.045 736.104Q258.268 737.635 259.438 739.206Q260.608 740.778 261.723 742.388Q262.838 743.999 263.897 745.647C279.828 770.298 287.442 802.059 281.781 831.145C278.758 846.699 272.794 859.882 264.319 873.166C262.754 875.62 260.867 879.257 258.395 880.842C257.156 881.637 256.162 882.035 254.719 881.73C253.751 877.757 259.648 872.622 261.767 869.699C270.714 857.352 277.216 839.567 278.376 824.389C278.389 824.222 278.398 824.055 278.409 823.888Z"/>
	<path fill="#FCFCFB" d="M233.809 433.003C203.534 427.78 170.574 412.035 145.845 393.882C137.551 387.794 129.496 381.236 122.207 373.964C91.8752 343.707 61.884 295.37 55.4757 252.53C50.4142 218.693 59.2985 189.948 79.5896 162.818C95.7624 141.195 124.106 115.61 148.139 103.129Q154.077 100.056 160.352 97.7489Q166.628 95.4415 173.142 93.9355C197.529 88.1774 225.53 89.8733 250.147 93.9443C259.029 95.4131 267.844 97.7623 276.768 98.8887C285.686 100.014 294.704 100.325 303.633 101.404C336.362 105.358 369.003 110.173 402.075 108.747C452.912 106.556 502.779 97.6959 552.351 86.6599C566.653 83.4759 580.773 79.481 595.044 76.1623Q617.385 71.0317 640.082 67.8266C718.907 56.3268 793.359 65.8181 858.472 114.425C901.9 146.845 933.77 191.192 954.245 241.062C959.537 253.952 964.684 266.624 966.684 280.505C962.56 277.822 954.304 271.65 949.255 272.573C948.669 272.68 948.629 272.741 948.181 272.991C948.415 274.502 949.476 275.314 950.695 276.174C956.858 280.521 962.738 282.684 968.934 287.772C969.425 295.69 969.327 303.443 968.416 311.339C971.373 317.628 978.536 331.835 975.992 338.753C975.708 339.524 975.764 339.363 975.165 339.793C973.939 339.62 973.342 339.212 972.563 338.228C970.439 335.55 970.283 327.172 968.803 323.432C967.422 334.359 961.113 363.052 955.218 371.46C955.706 374.882 956.441 378.195 957.249 381.555C961.885 378.269 966.182 373.318 971.459 371.162C972.755 371.324 972.927 371.324 973.912 372.16C973.904 372.657 973.935 372.945 973.736 373.448C971.982 377.877 962.467 383.573 958.384 386.164C959.676 398.227 958.728 409.388 951.948 419.781C944.479 431.232 933.323 437.078 920.256 439.849C918.198 414.837 913.23 391.836 900.418 370.022C894.935 373.936 889.42 377.725 883.74 381.346C902.874 407.856 911.925 438.189 906.627 470.8C901.802 500.499 884.363 527.207 860.064 544.705C847.237 553.942 834.039 559.249 819.019 563.695C802.048 566.561 790.547 566.562 773.506 565.213Q772.463 564.998 771.426 564.753C734.258 555.968 711.829 535.881 692.155 504.132C679.476 504.539 668.186 497.456 658.727 489.645C655.168 486.705 651.553 483.194 647.543 480.921C647.396 480.838 647.246 480.76 647.098 480.68C644.187 475.464 642.361 468.798 640.459 463.125C636.322 450.781 632.587 438.3 628.534 425.927L576.514 268.869Q569.34 247.313 562.583 225.622C559.786 216.756 557.29 207.584 553.869 198.947C551.164 192.117 547.833 185.701 543.304 179.892C535.621 170.038 524.769 160.46 512.985 155.92C501.144 151.358 488.158 150.483 475.689 148.741C464.639 147.196 453.614 145.429 442.58 143.764L354.04 130.792C337.144 128.317 320.303 125.431 303.352 123.36C301.77 117.416 299.904 111.55 298.098 105.671C290.706 104.529 239.397 96.2948 236.432 97.6735C235.689 98.0189 235.593 99.0987 235.34 99.8192C233.033 101.279 220.895 99.4134 217.31 99.4854Q214.676 99.5245 212.065 99.8716Q209.454 100.219 206.902 100.869C198.025 103.166 189.431 108.404 184.888 116.595C182.808 120.346 181.67 124.91 180.628 129.041C178.022 139.364 176.54 149.935 174.456 160.368C172.423 170.542 167.661 184.3 168.152 194.39C168.484 201.213 171.627 208.572 173.474 215.125L184.615 255.12L216.188 369.031C222.091 390.337 228.238 411.609 233.809 433.003ZM692.155 504.132C711.829 535.881 734.258 555.968 771.426 564.753Q772.463 564.998 773.506 565.213C790.547 566.562 802.048 566.561 819.019 563.695C834.039 559.249 847.237 553.942 860.064 544.705C884.363 527.207 901.802 500.499 906.627 470.8C911.925 438.189 902.874 407.856 883.74 381.346C863.991 356.441 838.339 338.395 806.122 334.707Q804.708 334.543 803.29 334.413Q801.872 334.284 800.451 334.19Q799.03 334.095 797.608 334.036Q796.185 333.977 794.761 333.953Q793.338 333.929 791.914 333.94Q790.49 333.951 789.067 333.997Q787.644 334.043 786.222 334.125Q784.801 334.206 783.382 334.323Q781.963 334.439 780.547 334.59Q779.131 334.742 777.719 334.928Q776.308 335.115 774.901 335.336Q773.495 335.557 772.094 335.813Q770.693 336.069 769.299 336.359Q767.905 336.65 766.519 336.974Q765.133 337.299 763.755 337.658Q762.377 338.017 761.008 338.409Q759.64 338.802 758.281 339.229Q756.923 339.655 755.575 340.115Q754.227 340.575 752.892 341.068Q751.556 341.561 750.233 342.086Q748.909 342.612 747.6 343.171Q746.29 343.729 744.994 344.32Q743.698 344.91 742.418 345.532Q741.137 346.155 739.872 346.808Q738.607 347.462 737.359 348.147Q736.111 348.832 734.879 349.547Q733.648 350.263 732.435 351.008Q731.222 351.754 730.028 352.529Q728.834 353.305 727.659 354.109Q726.484 354.914 725.33 355.747Q724.175 356.58 723.042 357.442Q721.908 358.304 720.796 359.193C697.44 378.023 681.622 407.848 678.61 437.653C676.265 460.848 681.837 483.423 692.155 504.132ZM715.254 340.818C724.822 338.605 734.224 335.617 743.74 333.183C758.888 329.307 784.207 325.23 797.093 316.728C796.55 314.806 795.783 313.098 794.842 311.347C784.796 292.661 765.562 277.079 745.31 270.991C752.488 265.894 760.591 261.712 768.67 258.276C801.401 244.359 837.359 248.441 869.568 261.539C906.25 276.456 932.725 303.224 948.084 339.613L947.523 339.785C935.878 343.245 919.353 343.252 910.499 352.411C903.933 353.441 898.322 354.945 892.178 357.476C894.955 361.632 897.815 365.754 900.418 370.022C913.23 391.836 918.198 414.837 920.256 439.849C933.323 437.078 944.479 431.232 951.948 419.781C958.728 409.388 959.676 398.227 958.384 386.164C962.467 383.573 971.982 377.877 973.736 373.448C973.935 372.945 973.904 372.657 973.912 372.16C972.927 371.324 972.755 371.324 971.459 371.162C966.182 373.318 961.885 378.269 957.249 381.555C956.441 378.195 955.706 374.882 955.218 371.46C955.055 370.687 954.908 369.923 954.777 369.144C953.825 363.456 954.24 360.761 957.589 356.061Q955.734 346.709 952.201 337.853C937.427 300.836 907.622 272.932 871.234 257.571C839.053 243.986 800.953 240.415 768.148 253.909C741.848 264.727 718.784 285.43 707.812 311.968C705.318 317.999 701.853 326.712 704.743 333.074C706.805 337.611 710.864 339.282 715.254 340.818Z"/>
	<path d="M968.803 323.432C967.276 314.651 958.525 305.387 951.461 300.518C948.093 298.196 943.818 296.329 941.02 293.364C940.597 292.047 940.604 292.127 941.194 290.873C942.226 290.334 942.528 290.121 943.729 290.303C951.268 291.446 963.84 305.569 968.416 311.339C971.373 317.628 978.536 331.835 975.992 338.753C975.708 339.524 975.764 339.363 975.165 339.793C973.939 339.62 973.342 339.212 972.563 338.228C970.439 335.55 970.283 327.172 968.803 323.432Z"/>
	<path d="M597.218 162.363C600.398 162.439 602.364 163.673 604.711 165.768C612.898 173.077 618.035 184.501 618.733 195.361C619.712 210.597 613.858 222.003 604.046 233.186C603.48 233.418 602.617 233.322 602.001 233.337L601.364 232.606C601.038 229.264 605.054 226.011 606.976 223.464C617.198 209.918 617.532 188.949 607.595 175.127C604.78 171.212 597.867 167.637 597.262 162.801C597.244 162.655 597.233 162.509 597.218 162.363Z"/>
	<path d="M617.804 142.193C619.896 142.776 621.601 144.409 623.11 145.913C637.094 159.851 645.762 181.071 645.719 200.757C645.674 221.364 636.818 239.533 622.33 253.857C621.714 254.005 620.903 253.882 620.266 253.86C618.993 250.46 623.444 246.81 625.532 244.432Q626.383 243.457 627.195 242.45Q628.006 241.442 628.778 240.403Q629.549 239.364 630.278 238.296Q631.008 237.227 631.694 236.131Q632.381 235.034 633.024 233.911Q633.666 232.788 634.264 231.641Q634.862 230.493 635.414 229.323Q635.966 228.153 636.471 226.962Q636.976 225.771 637.434 224.56Q637.891 223.35 638.301 222.123Q638.71 220.895 639.071 219.653Q639.431 218.41 639.742 217.154Q640.054 215.899 640.315 214.631Q640.576 213.364 640.787 212.088Q640.997 210.811 641.158 209.527Q641.318 208.243 641.427 206.954C642.874 190.453 638.241 172.686 628.571 159.166C625.157 154.392 620.9 150.172 617.102 145.693C616.748 144.378 617.315 143.39 617.804 142.193Z"/>
	<path d="M634.939 125.199C636.457 125.416 637.413 125.728 638.65 126.66C642.628 129.657 645.741 133.933 648.717 137.876C660.216 153.113 667.848 169.715 670.286 188.769C674.344 220.482 662.774 248.161 643.579 272.794L641.442 271.593C640.134 269.368 643.408 266.442 644.839 264.525C657.795 247.167 665.481 228.805 666.622 207.006C667.626 187.82 663.555 168.576 653.765 151.946C651.912 148.798 649.888 145.528 647.547 142.714C643.721 138.114 635.097 131.349 634.939 125.199Z"/>
	<path d="M715.254 340.818C710.864 339.282 706.805 337.611 704.743 333.074C701.853 326.712 705.318 317.999 707.812 311.968C718.784 285.43 741.848 264.727 768.148 253.909C800.953 240.415 839.053 243.986 871.234 257.571C907.622 272.932 937.427 300.836 952.201 337.853Q955.734 346.709 957.589 356.061C954.24 360.761 953.825 363.456 954.777 369.144C954.908 369.923 955.055 370.687 955.218 371.46C955.706 374.882 956.441 378.195 957.249 381.555C961.885 378.269 966.182 373.318 971.459 371.162C972.755 371.324 972.927 371.324 973.912 372.16C973.904 372.657 973.935 372.945 973.736 373.448C971.982 377.877 962.467 383.573 958.384 386.164C959.676 398.227 958.728 409.388 951.948 419.781C944.479 431.232 933.323 437.078 920.256 439.849C918.198 414.837 913.23 391.836 900.418 370.022C897.815 365.754 894.955 361.632 892.178 357.476C898.322 354.945 903.933 353.441 910.499 352.411C919.353 343.252 935.878 343.245 947.523 339.785L948.084 339.613C932.725 303.224 906.25 276.456 869.568 261.539C837.359 248.441 801.401 244.359 768.67 258.276C760.591 261.712 752.488 265.894 745.31 270.991C765.562 277.079 784.796 292.661 794.842 311.347C795.783 313.098 796.55 314.806 797.093 316.728C784.207 325.23 758.888 329.307 743.74 333.183C734.224 335.617 724.822 338.605 715.254 340.818ZM911.182 356.483C910.263 362.486 909.508 368.599 907.667 374.405C909.048 379.939 912.848 385.605 914.944 391.027C920.47 405.32 922.766 419.643 924.269 434.804C930.506 432.595 936.407 429.863 941.439 425.487C949.313 418.641 953.948 408.604 954.654 398.247C955.331 388.323 952.488 378.737 945.799 371.266C936.694 361.095 924.402 357.277 911.182 356.483ZM948.084 339.613L947.523 339.785C935.878 343.245 919.353 343.252 910.499 352.411C926.769 352.934 937.596 358.705 949.894 368.946C949.493 366.015 948.78 362.135 949.372 359.233C949.87 356.793 951.989 354.339 951.878 351.862C951.87 351.679 951.844 351.498 951.83 351.316C951.526 347.365 949.517 343.298 948.084 339.613Z"/>
	<path fill="#FCFCFB" d="M898.665 358.511Q904.818 356.843 911.182 356.483C910.263 362.486 909.508 368.599 907.667 374.405Q902.917 366.599 898.665 358.511Z"/>
	<path fill="#FCFCFB" d="M741.501 273.904C743.051 274.197 744.582 274.753 746.055 275.317C764.904 282.526 783.243 296.449 791.582 315.212C778.303 320.393 764.227 323.694 750.465 327.323C741.63 329.646 725.08 335.099 716.603 335.393C714.052 335.481 711.327 334.818 709.486 332.947C707.826 331.26 707.426 329.031 707.57 326.736C708.702 308.698 728.812 285.514 741.501 273.904Z"/>
	<path d="M692.155 504.132C681.837 483.423 676.265 460.848 678.61 437.653C681.622 407.848 697.44 378.023 720.796 359.193Q721.908 358.304 723.042 357.442Q724.175 356.58 725.33 355.747Q726.484 354.914 727.659 354.109Q728.834 353.305 730.028 352.529Q731.222 351.754 732.435 351.008Q733.648 350.263 734.879 349.547Q736.11 348.832 737.359 348.147Q738.607 347.462 739.872 346.808Q741.137 346.155 742.418 345.532Q743.698 344.91 744.994 344.319Q746.29 343.729 747.6 343.171Q748.909 342.612 750.233 342.086Q751.556 341.561 752.892 341.068Q754.227 340.575 755.575 340.115Q756.923 339.655 758.281 339.229Q759.64 338.802 761.008 338.409Q762.377 338.017 763.755 337.658Q765.133 337.299 766.519 336.974Q767.905 336.65 769.299 336.359Q770.693 336.069 772.094 335.813Q773.495 335.557 774.901 335.336Q776.308 335.115 777.719 334.928Q779.131 334.742 780.547 334.59Q781.963 334.439 783.382 334.323Q784.801 334.206 786.222 334.125Q787.644 334.043 789.067 333.997Q790.49 333.951 791.914 333.94Q793.338 333.929 794.761 333.953Q796.185 333.977 797.608 334.036Q799.03 334.095 800.451 334.19Q801.872 334.284 803.29 334.413Q804.708 334.543 806.122 334.707C838.339 338.395 863.991 356.441 883.74 381.346C902.874 407.856 911.925 438.189 906.627 470.8C901.802 500.499 884.363 527.207 860.064 544.705C847.237 553.942 834.039 559.249 819.019 563.695C802.048 566.561 790.547 566.562 773.506 565.213Q772.463 564.998 771.426 564.753C734.258 555.968 711.829 535.881 692.155 504.132ZM711.441 502.972C727.244 525.128 746.389 541.322 773.432 547.249Q774.581 547.503 775.735 547.729Q776.89 547.954 778.05 548.15Q779.209 548.347 780.374 548.514Q781.538 548.682 782.707 548.82Q783.875 548.958 785.046 549.067Q786.217 549.176 787.391 549.256Q788.565 549.335 789.74 549.386Q790.916 549.436 792.092 549.457Q793.268 549.478 794.444 549.469Q795.621 549.461 796.797 549.423Q797.972 549.385 799.147 549.318Q800.321 549.25 801.494 549.154Q802.666 549.057 803.836 548.931Q805.005 548.805 806.172 548.65Q807.338 548.495 808.5 548.311Q809.661 548.126 810.818 547.913Q811.975 547.7 813.126 547.458Q814.278 547.216 815.422 546.945Q816.567 546.674 817.705 546.375Q818.843 546.075 819.973 545.748Q821.102 545.42 822.224 545.064Q823.345 544.708 824.457 544.324Q825.569 543.941 826.671 543.529Q827.773 543.118 828.865 542.679Q829.956 542.24 831.036 541.774Q832.116 541.308 833.185 540.815Q834.253 540.322 835.308 539.803Q836.364 539.283 837.406 538.737Q838.448 538.192 839.476 537.62Q840.505 537.049 841.518 536.452Q842.532 535.854 843.53 535.232Q844.528 534.61 845.511 533.963C867.67 519.55 883.601 497.412 888.99 471.416C894.745 443.659 887.912 416.848 872.588 393.457C853.231 369.975 831.907 354.795 800.845 351.865Q799.66 351.755 798.472 351.674Q797.285 351.593 796.096 351.542Q794.906 351.491 793.716 351.469Q792.526 351.448 791.336 351.456Q790.146 351.464 788.956 351.502Q787.767 351.54 786.578 351.608Q785.39 351.675 784.204 351.773Q783.017 351.87 781.834 351.997Q780.651 352.123 779.471 352.28Q778.291 352.436 777.115 352.622Q775.939 352.807 774.769 353.022Q773.598 353.237 772.433 353.481Q771.268 353.725 770.109 353.998Q768.951 354.271 767.8 354.573Q766.648 354.875 765.505 355.205Q764.361 355.536 763.227 355.895Q762.092 356.254 760.966 356.641Q759.841 357.028 758.725 357.443Q757.609 357.858 756.505 358.301Q755.4 358.743 754.306 359.213Q753.213 359.684 752.131 360.181Q751.05 360.678 749.981 361.202Q748.913 361.726 747.857 362.277Q746.802 362.827 745.761 363.404Q744.72 363.981 743.693 364.583Q742.667 365.186 741.656 365.814Q740.645 366.442 739.649 367.095Q738.654 367.748 737.676 368.425Q736.697 369.103 735.736 369.805Q734.775 370.506 733.831 371.232Q732.887 371.958 731.962 372.706Q731.037 373.455 730.131 374.227Q729.22 375.008 728.329 375.811Q727.439 376.614 726.568 377.439Q725.697 378.264 724.847 379.11Q723.996 379.956 723.167 380.822Q722.338 381.689 721.531 382.576Q720.723 383.463 719.938 384.37Q719.152 385.276 718.39 386.202Q717.627 387.128 716.887 388.072Q716.148 389.016 715.431 389.979Q714.715 390.941 714.023 391.92Q713.331 392.9 712.663 393.896Q711.995 394.893 711.352 395.905Q710.709 396.918 710.091 397.946Q709.474 398.974 708.881 400.017Q708.289 401.06 707.723 402.117Q707.156 403.175 706.616 404.246Q706.076 405.317 705.563 406.401Q705.049 407.485 704.563 408.581Q704.076 409.677 703.617 410.785Q703.157 411.893 702.725 413.012Q702.293 414.131 701.889 415.261Q701.485 416.39 701.109 417.529Q700.733 418.668 700.385 419.816Q700.037 420.964 699.717 422.12Q699.398 423.276 699.107 424.44Q698.816 425.603 698.554 426.774Q698.292 427.944 698.059 429.121Q697.825 430.297 697.621 431.479Q697.417 432.661 697.242 433.848Q697.068 435.035 696.922 436.225Q696.777 437.416 696.661 438.61Q696.545 439.804 696.458 441C694.674 463.532 700.862 483.333 711.441 502.972ZM882.21 385.73C879.003 388.282 875.67 390.758 872.588 393.457C887.912 416.848 894.745 443.659 888.99 471.416C883.601 497.412 867.67 519.55 845.511 533.963Q844.528 534.61 843.53 535.232Q842.532 535.854 841.518 536.452Q840.505 537.049 839.476 537.62Q838.448 538.192 837.406 538.737Q836.364 539.283 835.308 539.803Q834.253 540.322 833.185 540.815Q832.116 541.308 831.036 541.774Q829.956 542.24 828.865 542.679Q827.773 543.118 826.671 543.529Q825.569 543.941 824.457 544.324Q823.345 544.708 822.224 545.064Q821.102 545.42 819.972 545.748Q818.843 546.075 817.705 546.375Q816.567 546.674 815.422 546.945Q814.278 547.216 813.126 547.458Q811.975 547.7 810.818 547.913Q809.661 548.126 808.5 548.311Q807.338 548.495 806.172 548.65Q805.005 548.805 803.836 548.931Q802.666 549.057 801.494 549.154Q800.321 549.25 799.147 549.318Q797.972 549.385 796.797 549.423Q795.621 549.461 794.444 549.469Q793.268 549.478 792.092 549.457Q790.916 549.436 789.74 549.386Q788.565 549.335 787.391 549.256Q786.217 549.176 785.046 549.067Q783.875 548.958 782.707 548.82Q781.538 548.682 780.374 548.514Q779.209 548.347 778.05 548.15Q776.89 547.954 775.735 547.729Q774.581 547.503 773.432 547.249C746.389 541.322 727.244 525.128 711.441 502.972C707.095 504.484 702.18 504.856 697.636 505.529Q699.041 507.959 700.553 510.324C715.657 534.224 741.08 553.259 768.844 559.457C798.219 566.015 828.399 559.985 853.598 543.737Q854.727 542.995 855.838 542.227Q856.948 541.458 858.041 540.663Q859.132 539.867 860.205 539.046Q861.277 538.225 862.33 537.378Q863.382 536.531 864.414 535.659Q865.445 534.787 866.456 533.89Q867.466 532.994 868.454 532.073Q869.443 531.152 870.409 530.208Q871.375 529.264 872.318 528.296Q873.26 527.329 874.18 526.339Q875.099 525.35 875.994 524.338Q876.889 523.326 877.76 522.294Q878.63 521.261 879.476 520.207Q880.321 519.154 881.141 518.08Q881.961 517.006 882.755 515.913Q883.548 514.82 884.315 513.708Q885.083 512.596 885.823 511.466Q886.563 510.336 887.275 509.189Q887.988 508.041 888.673 506.877Q889.357 505.713 890.014 504.532Q890.67 503.351 891.298 502.155Q891.926 500.959 892.525 499.749Q893.124 498.538 893.693 497.313Q894.263 496.088 894.803 494.85Q895.343 493.611 895.852 492.361Q896.362 491.11 896.842 489.847Q897.321 488.584 897.77 487.31Q898.219 486.036 898.637 484.751Q899.055 483.467 899.442 482.173Q899.829 480.879 900.185 479.576Q900.541 478.272 900.865 476.961Q901.189 475.65 901.482 474.331C908.28 442.436 899.547 412.621 882.21 385.73Z"/>
	<path fill="#FCFCFB" d="M697.636 505.529Q696.502 503.581 695.446 501.59Q694.39 499.599 693.414 497.567Q692.438 495.535 691.544 493.467Q690.65 491.398 689.838 489.295Q689.026 487.192 688.299 485.059Q687.572 482.926 686.93 480.765Q686.288 478.605 685.732 476.42Q685.176 474.236 684.708 472.031Q684.239 469.827 683.859 467.605Q683.478 465.384 683.186 463.149Q682.894 460.914 682.691 458.669Q682.489 456.424 682.375 454.173Q682.261 451.922 682.237 449.668Q682.213 447.415 682.279 445.162Q682.344 442.909 682.499 440.66Q682.654 438.412 682.898 436.171C686.181 407.462 702.121 379.11 724.798 361.242Q725.866 360.407 726.955 359.598Q728.043 358.79 729.151 358.009Q730.26 357.228 731.387 356.475Q732.515 355.722 733.661 354.997Q734.807 354.273 735.97 353.577Q737.134 352.881 738.315 352.214Q739.495 351.548 740.692 350.911Q741.889 350.273 743.101 349.667Q744.314 349.06 745.541 348.483Q746.768 347.907 748.009 347.361Q749.251 346.815 750.505 346.3Q751.759 345.786 753.026 345.303Q754.293 344.819 755.572 344.368Q756.85 343.917 758.139 343.497Q759.429 343.078 760.728 342.691Q762.028 342.304 763.336 341.949Q764.645 341.594 765.962 341.273Q767.279 340.951 768.604 340.662Q769.929 340.373 771.26 340.117Q772.592 339.861 773.929 339.639Q775.267 339.416 776.609 339.227Q777.952 339.038 779.299 338.883Q780.646 338.727 781.996 338.605Q783.346 338.484 784.699 338.395Q786.052 338.307 787.407 338.253Q788.762 338.198 790.118 338.178Q791.473 338.157 792.829 338.171Q794.185 338.184 795.54 338.231Q796.895 338.278 798.248 338.359Q799.602 338.44 800.953 338.554Q802.304 338.669 803.652 338.817Q804.999 338.965 806.343 339.147C838.061 343.135 863.028 360.976 882.21 385.73C879.003 388.282 875.67 390.758 872.588 393.457C853.231 369.975 831.907 354.795 800.845 351.865Q799.66 351.755 798.472 351.674Q797.285 351.593 796.096 351.542Q794.906 351.491 793.716 351.469Q792.526 351.448 791.336 351.456Q790.146 351.464 788.956 351.502Q787.767 351.54 786.578 351.608Q785.39 351.675 784.204 351.773Q783.017 351.87 781.834 351.997Q780.651 352.123 779.471 352.28Q778.291 352.436 777.115 352.622Q775.939 352.807 774.769 353.022Q773.598 353.237 772.433 353.481Q771.268 353.725 770.109 353.998Q768.951 354.271 767.8 354.573Q766.648 354.875 765.505 355.205Q764.361 355.536 763.227 355.895Q762.092 356.254 760.966 356.641Q759.841 357.028 758.725 357.443Q757.609 357.858 756.505 358.301Q755.4 358.743 754.306 359.213Q753.213 359.684 752.131 360.181Q751.05 360.678 749.981 361.202Q748.913 361.726 747.857 362.277Q746.802 362.827 745.761 363.404Q744.72 363.981 743.693 364.583Q742.667 365.186 741.656 365.814Q740.645 366.442 739.649 367.095Q738.654 367.748 737.676 368.425Q736.697 369.103 735.736 369.805Q734.775 370.506 733.831 371.232Q732.887 371.958 731.962 372.706Q731.037 373.455 730.131 374.227Q729.22 375.008 728.329 375.811Q727.439 376.614 726.568 377.439Q725.697 378.264 724.847 379.11Q723.996 379.956 723.167 380.822Q722.338 381.689 721.531 382.576Q720.723 383.463 719.938 384.37Q719.152 385.276 718.39 386.202Q717.627 387.128 716.887 388.072Q716.148 389.016 715.431 389.979Q714.715 390.941 714.023 391.92Q713.331 392.9 712.663 393.896Q711.995 394.893 711.352 395.905Q710.709 396.918 710.091 397.946Q709.474 398.974 708.881 400.017Q708.289 401.06 707.723 402.117Q707.156 403.175 706.616 404.246Q706.076 405.317 705.563 406.401Q705.049 407.485 704.563 408.581Q704.076 409.677 703.617 410.785Q703.157 411.893 702.725 413.012Q702.293 414.131 701.889 415.261Q701.485 416.39 701.109 417.529Q700.733 418.668 700.385 419.816Q700.037 420.964 699.717 422.12Q699.398 423.276 699.107 424.44Q698.816 425.603 698.554 426.774Q698.292 427.944 698.059 429.121Q697.825 430.297 697.621 431.479Q697.417 432.661 697.242 433.848Q697.068 435.035 696.922 436.225Q696.777 437.416 696.661 438.61Q696.545 439.804 696.458 441C694.674 463.532 700.862 483.333 711.441 502.972C707.095 504.484 702.18 504.856 697.636 505.529Z"/>
	<path d="M711.441 502.972C700.862 483.333 694.674 463.532 696.458 441Q696.545 439.804 696.661 438.61Q696.777 437.416 696.922 436.225Q697.068 435.035 697.242 433.848Q697.417 432.661 697.621 431.479Q697.825 430.297 698.059 429.121Q698.292 427.944 698.554 426.774Q698.816 425.603 699.107 424.44Q699.398 423.276 699.717 422.12Q700.037 420.964 700.385 419.816Q700.733 418.668 701.109 417.529Q701.485 416.39 701.889 415.261Q702.293 414.131 702.725 413.012Q703.157 411.893 703.617 410.785Q704.076 409.677 704.563 408.581Q705.049 407.485 705.563 406.401Q706.076 405.317 706.616 404.246Q707.156 403.175 707.723 402.117Q708.289 401.06 708.881 400.017Q709.474 398.974 710.091 397.946Q710.709 396.918 711.352 395.905Q711.995 394.893 712.663 393.896Q713.331 392.9 714.023 391.92Q714.715 390.941 715.431 389.978Q716.148 389.016 716.887 388.072Q717.627 387.128 718.39 386.202Q719.152 385.276 719.938 384.37Q720.723 383.463 721.531 382.576Q722.338 381.689 723.167 380.822Q723.996 379.956 724.847 379.11Q725.697 378.264 726.568 377.439Q727.439 376.614 728.33 375.811Q729.22 375.008 730.131 374.227Q731.037 373.455 731.962 372.706Q732.887 371.958 733.831 371.232Q734.775 370.506 735.736 369.805Q736.697 369.103 737.676 368.425Q738.654 367.748 739.65 367.095Q740.645 366.442 741.656 365.814Q742.667 365.186 743.693 364.583Q744.72 363.981 745.761 363.404Q746.802 362.827 747.857 362.277Q748.913 361.726 749.981 361.202Q751.05 360.678 752.131 360.181Q753.213 359.684 754.306 359.213Q755.4 358.743 756.505 358.3Q757.609 357.858 758.725 357.443Q759.841 357.028 760.966 356.641Q762.092 356.254 763.227 355.895Q764.361 355.536 765.505 355.205Q766.648 354.875 767.8 354.573Q768.951 354.271 770.109 353.998Q771.268 353.725 772.433 353.481Q773.598 353.237 774.769 353.022Q775.939 352.807 777.115 352.622Q778.291 352.436 779.471 352.28Q780.651 352.123 781.834 351.997Q783.017 351.87 784.204 351.773Q785.39 351.675 786.578 351.608Q787.767 351.54 788.956 351.502Q790.146 351.464 791.336 351.456Q792.526 351.448 793.716 351.469Q794.906 351.491 796.096 351.542Q797.285 351.593 798.472 351.674Q799.66 351.755 800.845 351.865C831.907 354.795 853.231 369.975 872.588 393.457C887.912 416.848 894.745 443.659 888.99 471.416C883.601 497.412 867.67 519.55 845.511 533.963Q844.528 534.61 843.53 535.232Q842.532 535.854 841.518 536.452Q840.505 537.049 839.476 537.62Q838.448 538.192 837.406 538.737Q836.364 539.283 835.308 539.803Q834.253 540.322 833.185 540.815Q832.116 541.308 831.036 541.774Q829.956 542.24 828.865 542.679Q827.773 543.118 826.671 543.529Q825.569 543.941 824.457 544.324Q823.345 544.708 822.224 545.064Q821.102 545.42 819.972 545.748Q818.843 546.075 817.705 546.375Q816.567 546.674 815.422 546.945Q814.278 547.216 813.126 547.458Q811.975 547.7 810.818 547.913Q809.661 548.126 808.5 548.311Q807.338 548.495 806.172 548.65Q805.005 548.805 803.836 548.931Q802.666 549.057 801.494 549.154Q800.321 549.25 799.147 549.318Q797.972 549.385 796.797 549.423Q795.621 549.461 794.444 549.469Q793.268 549.478 792.092 549.457Q790.916 549.436 789.74 549.386Q788.565 549.335 787.391 549.256Q786.217 549.176 785.046 549.067Q783.875 548.958 782.707 548.82Q781.538 548.682 780.374 548.514Q779.209 548.347 778.05 548.15Q776.89 547.954 775.735 547.729Q774.581 547.503 773.432 547.249C746.389 541.322 727.244 525.128 711.441 502.972ZM853.432 378.849C848.797 383.144 844.135 387.44 839.875 392.112C832.529 400.168 825.601 409.204 817.022 415.998C811.082 432.633 806.708 449.8 801.109 466.556C792.708 462.885 783.954 458.523 776.055 453.871C757.84 471.382 740.059 492.808 715.425 501.444C720.408 509.353 726.865 516.314 733.938 522.393Q734.795 523.142 735.671 523.87Q736.547 524.598 737.441 525.303Q738.334 526.009 739.246 526.692Q740.157 527.375 741.085 528.034Q742.013 528.694 742.957 529.33Q743.901 529.967 744.861 530.579Q745.821 531.192 746.796 531.78Q747.771 532.368 748.761 532.931Q749.75 533.495 750.754 534.033Q751.757 534.572 752.773 535.085Q753.79 535.598 754.819 536.086Q755.848 536.573 756.889 537.035Q757.93 537.496 758.982 537.931Q760.034 538.367 761.097 538.775Q762.16 539.184 763.232 539.566Q764.305 539.948 765.387 540.303Q766.469 540.658 767.559 540.986Q768.65 541.313 769.748 541.614Q770.847 541.914 771.952 542.186Q773.058 542.459 774.17 542.704Q775.282 542.948 776.4 543.165Q777.518 543.382 778.641 543.571Q779.764 543.759 780.891 543.92Q782.018 544.08 783.149 544.212Q784.28 544.344 785.414 544.448Q786.548 544.552 787.684 544.627Q788.82 544.702 789.958 544.749Q791.096 544.796 792.234 544.814Q793.373 544.832 794.511 544.821Q795.65 544.811 796.788 544.772Q797.926 544.733 799.063 544.666Q800.199 544.598 801.334 544.502C825.681 542.503 849.385 529.363 864.924 510.689Q865.654 509.809 866.362 508.911Q867.07 508.013 867.756 507.099Q868.442 506.184 869.106 505.253Q869.77 504.322 870.411 503.375Q871.051 502.427 871.669 501.465Q872.286 500.503 872.88 499.526Q873.474 498.548 874.044 497.557Q874.613 496.566 875.159 495.561Q875.704 494.556 876.225 493.538Q876.746 492.52 877.242 491.49Q877.738 490.459 878.208 489.417Q878.679 488.375 879.124 487.322Q879.569 486.268 879.988 485.205Q880.407 484.141 880.801 483.067Q881.194 481.993 881.561 480.91Q881.927 479.827 882.268 478.736Q882.608 477.644 882.922 476.545Q883.235 475.445 883.522 474.338Q883.809 473.231 884.069 472.118Q884.328 471.004 884.561 469.885Q884.793 468.765 884.999 467.64Q885.204 466.515 885.381 465.386Q885.559 464.256 885.709 463.123Q885.859 461.989 885.982 460.852Q886.104 459.715 886.198 458.576Q886.293 457.436 886.36 456.295Q886.427 455.153 886.466 454.011Q886.505 452.868 886.516 451.724Q886.527 450.581 886.51 449.438Q886.493 448.294 886.449 447.152Q886.404 446.009 886.332 444.868Q886.259 443.727 886.159 442.588C883.895 418.849 871.899 394.228 853.432 378.849Z"/>
	<path fill="#FCFCFB" d="M715.425 501.444C708.324 490.136 703.572 478.729 701.418 465.505C697.451 441.16 702.947 413.87 717.537 393.799Q718.209 392.882 718.903 391.981Q719.597 391.081 720.313 390.198Q721.029 389.315 721.766 388.449Q722.504 387.584 723.262 386.737Q724.021 385.89 724.799 385.062Q725.578 384.234 726.377 383.425Q727.176 382.616 727.995 381.827Q728.814 381.038 729.651 380.269Q730.489 379.501 731.345 378.753Q732.202 378.005 733.076 377.278Q733.951 376.552 734.843 375.847Q735.735 375.142 736.644 374.459Q737.553 373.776 738.478 373.116Q739.404 372.455 740.345 371.818Q741.286 371.18 742.243 370.566Q743.2 369.952 744.171 369.361Q745.143 368.771 746.128 368.204Q747.114 367.638 748.114 367.096Q749.113 366.554 750.125 366.036Q751.137 365.519 752.162 365.026Q753.187 364.533 754.223 364.066Q755.26 363.599 756.307 363.157Q757.355 362.716 758.413 362.3Q759.471 361.884 760.539 361.494Q761.607 361.104 762.685 360.741Q763.762 360.377 764.848 360.04Q765.933 359.703 767.027 359.393Q768.121 359.083 769.222 358.8Q770.323 358.517 771.431 358.26Q772.539 358.004 773.652 357.775Q774.766 357.546 775.885 357.345Q777.004 357.143 778.127 356.969C807.704 352.559 830.092 361.526 853.432 378.849C848.797 383.144 844.135 387.44 839.875 392.112C832.529 400.168 825.601 409.204 817.022 415.998C811.082 432.633 806.708 449.8 801.109 466.556C792.708 462.885 783.954 458.523 776.055 453.871C757.84 471.382 740.059 492.808 715.425 501.444Z"/>
	<path d="M715.317 470.528C716.707 470.982 718.205 471.53 719.252 472.609C720.13 473.513 720.575 474.652 720.425 475.922C720.221 477.634 718.711 478.859 717.543 479.967C716.112 479.467 714.683 478.902 713.553 477.858C712.652 477.026 711.981 475.968 712.062 474.689C712.192 472.648 713.815 471.594 715.317 470.528Z"/>
	<path d="M720.007 405.375C721.401 405.404 723.272 405.271 724.53 405.931C725.566 406.474 726.469 407.256 726.719 408.436C727.204 410.719 726.037 412.35 724.897 414.208C723.328 414.14 721.679 414.039 720.265 413.289C719.107 412.674 718.306 411.849 718.072 410.507C717.713 408.442 718.896 406.953 720.007 405.375Z"/>
	<path d="M767.484 367.934C769.484 368.197 771.168 368.458 772.652 369.934C773.764 371.04 774.338 372.358 774.191 373.957C773.98 376.258 772.63 377.376 771.01 378.806C768.978 378.703 767.207 378.51 765.691 377.002C764.71 376.025 764.2 374.829 764.244 373.442C764.327 370.82 765.633 369.567 767.484 367.934Z"/>
	<path d="M825.213 369.339C827.061 369.606 828.807 369.904 830.244 371.197C831.471 372.301 831.917 373.62 831.874 375.24C831.813 377.546 830.199 379.072 828.66 380.568C826.998 380.457 825.152 380.247 823.837 379.115C822.623 378.068 821.982 376.857 822.007 375.227C822.047 372.586 823.441 371.123 825.213 369.339Z"/>
	<path d="M825.613 380.651C823.418 392.702 820.414 404.23 817.022 415.998C811.082 432.633 806.708 449.8 801.109 466.556C792.708 462.885 783.954 458.523 776.055 453.871C784.781 441.465 792.573 428.344 800.562 415.457C807.859 403.687 815.011 389.716 825.613 380.651Z"/>
	<path fill="#E89D6D" d="M816.889 398.471C817.256 406.458 801.915 449.9 798.336 460.916L787.67 455.71C785.891 454.674 784.139 453.586 782.376 452.521C794.011 434.586 804.662 416.012 816.889 398.471Z"/>
	<path d="M820.733 523.269C822.263 523.398 823.891 523.845 825.008 524.976C825.953 525.933 826.436 526.849 826.401 528.224C826.346 530.38 825.032 531.543 823.565 532.897C822.166 532.814 820.67 532.498 819.529 531.626C818.632 530.939 818.151 530.058 818.064 528.937C817.868 526.409 819.136 525.017 820.733 523.269Z"/>
	<path d="M866.009 417.436C867.488 417.449 869.493 417.611 870.789 418.385C871.93 419.067 872.741 419.845 872.987 421.207C873.373 423.341 872.178 425.014 871.061 426.683C869.366 426.717 867.633 426.685 866.158 425.737C865.078 425.043 864.307 424.019 864.135 422.718C863.858 420.632 864.916 419.077 866.009 417.436Z"/>
	<path d="M866.573 476.931C868.559 477.24 870.162 477.55 871.531 479.169C872.347 480.133 872.77 481.301 872.566 482.576C872.226 484.705 870.699 485.591 869.026 486.636C867.299 486.108 865.631 485.529 864.337 484.207C863.491 483.343 862.853 482.285 863.01 481.022C863.267 478.965 864.999 477.944 866.573 476.931Z"/>
	<path d="M759.551 516.863C760.859 516.947 762.485 517.004 763.605 517.764C764.695 518.503 765.389 519.361 765.53 520.713C765.886 524.138 763.271 527.281 761.238 529.724C759.925 529.476 758.428 528.992 757.386 528.1C756.288 527.16 755.869 526.158 755.779 524.729C755.595 521.777 757.827 518.999 759.551 516.863Z"/>
	<path d="M233.809 433.003C228.238 411.609 222.091 390.337 216.188 369.031L184.615 255.12L173.474 215.125C171.627 208.572 168.484 201.213 168.152 194.39C167.661 184.3 172.423 170.542 174.456 160.368C176.54 149.935 178.022 139.364 180.628 129.041C181.67 124.91 182.808 120.346 184.888 116.595C189.431 108.404 198.025 103.166 206.902 100.869Q209.454 100.219 212.065 99.8716Q214.676 99.5245 217.31 99.4854C220.895 99.4134 233.033 101.279 235.34 99.8192C235.593 99.0987 235.689 98.0189 236.432 97.6735C239.397 96.2948 290.706 104.529 298.098 105.671C299.904 111.55 301.77 117.416 303.352 123.36C320.303 125.431 337.144 128.317 354.04 130.792L442.58 143.764C453.614 145.429 464.639 147.196 475.689 148.741C488.158 150.483 501.144 151.358 512.985 155.92C524.769 160.46 535.621 170.038 543.304 179.892C547.833 185.701 551.164 192.117 553.869 198.947C557.29 207.584 559.786 216.756 562.583 225.622Q569.34 247.313 576.514 268.869L628.534 425.927C632.587 438.3 636.322 450.781 640.459 463.125C642.361 468.798 644.187 475.464 647.098 480.68C647.246 480.76 647.396 480.838 647.543 480.921C651.553 483.194 655.168 486.705 658.727 489.645C668.186 497.456 679.476 504.539 692.155 504.132C711.829 535.881 734.258 555.968 771.426 564.753Q772.463 564.998 773.506 565.213C764.929 569.612 747.217 569.648 737.063 571.145C719.798 573.692 698.311 577.288 681.954 583.618C697.416 625.809 711.517 668.627 726.217 711.098L743.921 762.515C747.533 773.045 751.517 783.587 754.362 794.353C756.224 801.402 757.575 808.752 757.517 816.068C757.412 828.673 755.202 839.695 745.98 848.793C742.487 852.24 738.526 855.254 734.793 858.436C728.18 864.073 722.158 870.253 714.112 873.902C702.456 879.189 669.916 881.845 656.165 883.724L580.25 894.037C570.197 895.321 559.093 895.337 549.381 898.179C534.625 899.497 519.982 901.853 505.315 903.892L439.305 913.042C424.745 915.071 409.44 918.682 394.731 918.537C388.446 918.475 383.409 917.381 377.945 914.161Q376.46 913.278 375.05 912.279Q373.64 911.281 372.314 910.174Q370.988 909.067 369.754 907.858Q368.52 906.649 367.386 905.346Q366.252 904.042 365.225 902.653Q364.198 901.264 363.284 899.798Q362.371 898.331 361.577 896.797Q360.783 895.263 360.113 893.67C355.224 881.944 353.543 869.003 350.37 856.759C344.366 833.581 337.767 810.525 331.471 787.422L288.166 628.498C280.366 599.88 272.136 571.311 264.866 542.561C263.979 538.112 262.336 533.574 261.062 529.206L252.724 500.831C246.234 478.278 240.48 455.497 233.809 433.003ZM429.703 424.934C401.197 425.676 372.745 430.042 344.397 433.027C333.967 434.126 323.499 435.405 313.037 436.144C306.995 436.571 300.83 436.386 294.825 437.082L319.624 521.654L327.892 550.862C329.479 556.572 330.757 562.746 332.929 568.242C348.016 573.069 363.119 578.016 378.426 582.099Q396.555 586.935 414.915 590.798Q433.276 594.66 451.816 597.539Q470.357 600.418 489.024 602.304Q507.692 604.191 526.433 605.08C535.648 605.494 544.815 606.091 554.048 605.993C577.539 605.742 601.583 603.427 624.781 599.813C635.817 598.094 660.795 594.727 670.558 590.297L623.933 452.508C613.411 450.249 602.914 443.887 592.794 440.073C566.801 430.277 529.598 418.96 501.822 416.806C496.605 410.663 491.087 404.51 487.068 397.49C478.992 383.385 470.534 351.611 451.181 350.477C447.796 350.278 444.141 351.04 441.634 353.442C434.029 360.729 435.462 376.669 435.317 386.263Q435.158 394.187 434.534 402.087Q434.083 407.933 432.87 413.669Q431.657 419.406 429.703 424.934ZM647.098 480.68C650.092 491.353 653.966 501.881 657.47 512.401Q669.438 548.104 681.954 583.618C698.311 577.288 719.798 573.692 737.063 571.145C747.217 569.648 764.929 569.612 773.506 565.213Q772.463 564.998 771.426 564.753C734.258 555.968 711.829 535.881 692.155 504.132C679.476 504.539 668.186 497.456 658.727 489.645C655.168 486.705 651.553 483.194 647.543 480.921C647.396 480.838 647.246 480.76 647.098 480.68ZM238.587 433.846L257.047 499.781C261.156 514.446 265.016 529.258 269.633 543.768C279.57 548.476 290.208 552.018 300.432 556.074L266.238 437.105C257.273 437.029 247.303 435.977 238.587 433.846ZM271.167 438.621L297.61 529.199C300.466 539.038 302.627 549.189 305.729 558.927C310.077 560.036 314.179 561.697 318.345 563.34L281.914 438.5C278.358 438.561 274.715 438.789 271.167 438.621Z"/>
	<path fill="#FCFCFB" d="M240.882 101.556Q267.59 106.127 294.451 109.692C296.08 113.955 297.854 118.203 298.9 122.653C280.962 120.724 263.1 117.587 245.278 114.786C243.671 110.406 242.232 106.022 240.882 101.556Z"/>
	<path fill="#FCFCFB" d="M564.58 877.252C582.34 874.819 600.111 873.054 617.91 871.006L683.314 863.097C698.949 861.201 715.316 860.403 730.706 857.194C724.103 862.801 717.558 868.506 709.195 871.292C699.79 874.426 689.615 875.172 679.82 876.406L645.111 880.83L588.821 888.516C577.859 889.999 566.865 891.711 555.84 892.633C559.051 887.709 564.401 883.064 566.706 877.796L564.58 877.252Z"/>
	<path fill="#FCFCFB" d="M579.364 854.816L679.259 843.115C694.441 841.354 718.593 840.103 732.335 835.81Q733.345 835.49 734.328 835.096Q735.31 834.702 736.261 834.236Q737.212 833.769 738.125 833.233Q739.038 832.697 739.909 832.094Q740.78 831.491 741.603 830.825Q742.426 830.158 743.197 829.432Q743.968 828.707 744.683 827.925Q745.398 827.144 746.052 826.311C749.319 822.217 751.315 817.361 753.299 812.561C753.041 824.682 752.409 837.097 742.981 845.968Q741.652 847.195 740.179 848.246Q738.707 849.297 737.114 850.156Q735.522 851.014 733.835 851.667Q732.148 852.32 730.392 852.756C722.701 854.687 714.415 855.246 706.552 856.141L670.776 860.279C636.867 864.253 602.923 869.078 568.965 872.495C570.727 867.907 576.731 860.395 579.364 854.816Z"/>
	<path fill="#FCFCFB" d="M271.167 438.621C266.442 426.1 263.228 412.043 259.481 399.14L235.775 315.845L205.922 207.373C199.686 184.754 192.754 162.088 187.496 139.227C186.637 135.491 185.002 129.399 185.973 125.606C187.612 119.2 192.53 112.991 198.006 109.467C209.372 102.153 223.976 103.109 236.629 105.737C237.817 108.314 238.871 110.969 239.973 113.586C232.63 113.029 225.238 112.279 218.041 114.311C211.185 116.247 205.438 120.408 201.949 126.695C198.782 132.401 197.85 138.561 198.806 144.99C200.35 155.375 204.285 165.794 207.123 175.922L223.791 235.428L281.914 438.5C278.358 438.561 274.715 438.789 271.167 438.621Z"/>
	<path fill="#FCFCFB" d="M305.729 558.927C310.077 560.036 314.179 561.697 318.345 563.34L372.179 751.785Q379.021 777.116 385.609 802.515C388.887 814.847 391.792 827.585 397.234 839.177Q397.705 840.159 398.213 841.123Q398.721 842.087 399.265 843.03Q399.809 843.974 400.389 844.896Q400.969 845.818 401.583 846.718Q402.198 847.617 402.846 848.492Q403.495 849.368 404.176 850.218Q404.857 851.068 405.57 851.891Q406.283 852.715 407.027 853.51Q407.771 854.306 408.545 855.073Q409.319 855.84 410.121 856.576Q410.924 857.313 411.753 858.019Q412.583 858.724 413.439 859.398Q414.296 860.072 415.177 860.712Q416.058 861.352 416.963 861.959Q417.868 862.565 418.795 863.137Q419.723 863.708 420.671 864.244C427.591 868.133 434.476 870.017 442.393 870.393C459.514 871.208 477.332 867.338 494.299 865.245L579.364 854.816C576.731 860.395 570.727 867.907 568.965 872.495L483.225 882.457C468.562 884.232 453.327 887.831 438.538 887.126C430.549 886.746 423.4 884.438 416.377 880.63Q415.309 880.064 414.264 879.457Q413.219 878.85 412.198 878.202Q411.178 877.554 410.184 876.866Q409.19 876.178 408.224 875.452Q407.258 874.725 406.322 873.961Q405.385 873.197 404.479 872.396Q403.574 871.596 402.7 870.76Q401.827 869.925 400.987 869.055Q400.148 868.186 399.343 867.284Q398.538 866.382 397.77 865.449Q397.001 864.516 396.27 863.553Q395.539 862.59 394.847 861.6Q394.155 860.609 393.502 859.592Q392.849 858.574 392.237 857.532Q391.625 856.49 391.054 855.424Q390.484 854.358 389.956 853.271C383.373 839.717 380.484 824.494 376.673 809.991Q370.121 785.144 363.198 760.397Q335.119 659.475 305.729 558.927Z"/>
	<path fill="#FCFCFB" d="M182.945 139.334C186.676 149.59 188.96 160.343 191.612 170.912Q195.913 187.949 200.647 204.87Q222.507 286.184 245.652 367.141L259.356 414.111C261.598 421.697 263.515 429.692 266.238 437.105C257.273 437.029 247.303 435.977 238.587 433.846C233.437 417.517 229.261 400.817 224.633 384.33L190.962 261.765L179.047 219.031C176.873 211.392 173.167 202.854 172.725 194.937C172.256 186.548 175.274 177.745 177.036 169.591C179.191 159.615 181.418 149.422 182.945 139.334Z"/>
	<path fill="#FCFCFB" d="M269.633 543.768C279.57 548.476 290.208 552.018 300.432 556.074Q329.26 654.301 356.723 752.918L372.396 810.046C376.347 824.918 379.24 840.671 385.957 854.605C392.14 867.434 402.009 877.595 414.473 884.458C422.321 888.78 429.795 890.83 438.742 891.265C453.793 891.997 469.464 888.524 484.377 886.641C511.037 883.275 537.83 879.769 564.58 877.252L566.706 877.796C564.401 883.064 559.051 887.709 555.84 892.633C546.879 894.856 537.184 895.556 528.037 896.732Q504.678 899.676 481.356 902.902L427.095 910.492C415.969 912.1 404.166 914.813 392.926 914.532C388.263 914.415 383.949 912.549 379.989 910.224Q378.659 909.447 377.398 908.564Q376.136 907.682 374.95 906.699Q373.765 905.716 372.663 904.64Q371.562 903.564 370.552 902.401Q369.542 901.239 368.63 899.998Q367.718 898.757 366.911 897.446Q366.103 896.135 365.405 894.762Q364.707 893.389 364.124 891.964C359.18 879.866 357.232 866.602 353.888 854.009L333.493 778.491L290.723 621.503C283.665 595.61 276.316 569.76 269.633 543.768Z"/>
	<path fill="#FCFCFB" d="M226.591 121.561C238.801 120.704 251.85 123.975 263.905 125.831L316.351 133.76Q378.363 142.52 440.272 151.977C460.024 154.901 480.015 156.871 499.621 160.669C505.564 161.821 511.056 163.384 516.44 166.211C542.49 179.891 548.425 209.244 556.489 234.976Q547.887 234.131 539.341 232.835L341.689 205.111L268.559 194.901C251.314 192.455 234.115 189.759 216.803 187.812Q216.522 187.014 216.275 186.204C212.71 174.436 205.961 154.549 205.822 142.848C205.78 139.327 206.556 135.858 208.299 132.783C212.285 125.753 219.255 123.447 226.591 121.561Z"/>
	<path d="M355.214 172.3C365.066 173.049 375.266 175.254 385.061 176.72C396.207 178.388 407.746 179.485 418.752 181.827C420.833 182.269 422.74 182.769 424.611 183.821C425.471 185.237 425.289 185.622 425.181 187.23C415.914 186.312 359.96 179.059 355.199 176.264C354.47 174.633 354.851 174.014 355.214 172.3Z"/>
	<path fill="#FCFCFB" d="M332.929 568.242C348.016 573.069 363.119 578.016 378.426 582.099Q396.555 586.935 414.915 590.798Q433.276 594.66 451.816 597.539Q470.357 600.418 489.024 602.304Q507.692 604.191 526.433 605.08C535.648 605.494 544.815 606.091 554.048 605.993C577.539 605.742 601.583 603.427 624.781 599.813C635.817 598.094 660.795 594.727 670.558 590.297C679.137 614.22 686.543 638.57 694.752 662.622C702.501 685.324 711.191 707.856 717.962 730.874C707.576 732.857 696.551 733.32 686.01 734.21L633.905 738.689Q560.243 745.81 486.5 752.037C453.645 754.924 420.353 757.11 387.681 761.58C381.056 740.206 375.409 718.415 369.317 696.877L332.929 568.242Z"/>
	<path d="M525.145 612.778C531.489 617.828 539.46 631.298 544.992 638.203C551.199 645.949 558.255 653.065 564.184 661.024Q567.711 665.697 570.374 670.91C574.445 679.028 576.584 688.878 573.476 697.695C570.979 704.777 565.716 708.992 559.231 712.208C552.458 714.573 544.824 714.282 538.063 712.028C527.917 708.644 519.52 700.867 514.808 691.335C505.716 672.945 513.667 654.56 518.886 636.381C521.134 628.548 522.522 620.507 525.145 612.778Z"/>
	<path fill="#FCFCFB" d="M527.449 622.219C533.194 627.19 537.672 635.45 542.384 641.479C550.399 651.731 560.647 660.637 566.609 672.359C570.203 679.424 572.234 688.168 569.519 695.882C567.34 702.076 562.763 705.492 557.089 708.211C551.686 709.684 546.809 710.033 541.311 708.475C532.201 705.894 523.917 699.044 519.369 690.784C511.47 676.439 516.21 661.749 520.303 647.074Q523.809 634.627 527.449 622.219Z"/>
	<path d="M627.999 605.663C634.476 609.745 642.945 623.215 648.16 629.592C654.792 637.703 661.836 645.482 668.159 653.844C670.414 656.827 672.542 659.91 674.304 663.213C678.561 671.19 680.657 681.245 677.811 690.045C675.496 697.209 669.94 702.014 663.428 705.274C655.545 707.951 647.117 707.26 639.554 703.934C629.27 699.411 621.008 691.605 616.939 681.022C610.309 663.779 618.159 646.426 622.041 629.588C623.89 621.566 624.607 613.25 627.999 605.663Z"/>
	<path fill="#FCFCFB" d="M630.313 614.776C636.078 618.951 641.478 627.716 646.14 633.43C653.924 642.97 663.184 652.096 669.316 662.829C673.601 670.327 676.533 679.396 674.006 688.002C672.156 694.302 667.537 698.464 662.02 701.6C656.633 703.343 651.236 703.48 645.779 701.898C636.363 699.167 627.468 692.651 622.793 683.954Q621.811 682.107 621.053 680.157Q620.295 678.207 619.771 676.181Q619.248 674.155 618.967 672.082Q618.686 670.009 618.65 667.917C618.409 654.567 626.452 628.005 630.313 614.776Z"/>
	<path d="M416.028 617.097C417.699 617.618 418.908 618.912 420.037 620.195C425.123 625.968 429.283 632.806 434.054 638.885C442.977 650.255 453.026 661.206 460.654 673.497C466.046 682.184 469.426 692.23 466.853 702.462C464.751 710.82 459.237 715.91 452.183 720.239C447.166 722.229 441.489 722.67 436.182 721.781C425.282 719.956 415.022 712.755 408.757 703.777C396.589 686.338 403.826 667.551 408.742 648.961C411.544 638.367 414.141 627.902 416.028 617.097Z"/>
	<path fill="#FCFCFB" d="M418.606 627.202C425.061 631.878 430.042 640.627 434.955 646.825C442.486 656.327 450.961 665.523 457.257 675.921C461.997 683.749 465.056 692.53 462.597 701.74C460.742 708.684 456.079 712.954 450 716.326C444.423 718.007 438.702 718.162 433.066 716.508C423.859 713.808 414.843 706.396 410.295 697.961C402.158 682.87 408.961 666.859 412.663 651.582C414.631 643.461 416.182 635.202 418.606 627.202Z"/>
	<path d="M429.703 424.934Q431.657 419.406 432.87 413.669Q434.083 407.933 434.534 402.087Q435.158 394.187 435.317 386.263C435.462 376.669 434.029 360.729 441.634 353.442C444.141 351.04 447.796 350.278 451.181 350.477C470.534 351.611 478.992 383.385 487.068 397.49C491.087 404.51 496.605 410.663 501.822 416.806C526.007 444.724 554.59 465.315 565.507 502.505C568.359 512.219 569.999 522.672 569.275 532.808C568.116 549.032 561.529 564.655 549.074 575.416C535.969 586.739 519.527 589.67 502.652 588.375C475.35 586.28 451.047 571.226 433.554 550.689C417.196 531.484 406.529 505.768 408.725 480.246C410.77 456.477 421.66 445.089 429.703 424.934Z"/>
	<path fill="#FCFCFB" d="M451.591 378.872C454.763 384.096 455.787 392.734 457.152 398.718C460.039 411.373 462.141 424.622 459.569 437.53C458.243 444.187 455.613 450.301 452.845 456.459C446.664 470.207 444.912 482.265 447.795 497.257C451.763 517.887 464.882 538.361 482.323 550.269C487.461 553.777 493.76 555.687 498.917 559.23C501.146 560.761 504.033 563.125 504.407 565.992C504.548 567.071 503.986 568.042 503.241 568.782C500.443 571.559 496.112 571.618 492.505 571.401C475.756 567.149 461.788 558.221 449.867 545.792C429.223 524.269 418.076 489.895 429.95 461.369C434.602 450.191 442.215 440.667 445.893 429.011C450.972 412.916 451.196 395.595 451.591 378.872Z"/>
	<path fill="#FCFCFB" d="M226.076 200.739C288.624 211.824 351.971 219.164 414.897 227.8L506.685 240.675C523.303 243.06 539.99 245.922 556.665 247.811L601.943 385.949C609.24 408.111 617.678 430.026 623.933 452.508C613.411 450.249 602.914 443.887 592.794 440.073C566.801 430.277 529.598 418.96 501.822 416.806C496.605 410.663 491.087 404.51 487.068 397.49C478.992 383.385 470.534 351.611 451.181 350.477C447.796 350.278 444.141 351.04 441.634 353.442C434.029 360.729 435.462 376.669 435.317 386.263Q435.158 394.187 434.534 402.087Q434.083 407.933 432.87 413.669Q431.657 419.406 429.703 424.934C401.197 425.676 372.745 430.042 344.397 433.027C333.967 434.126 323.499 435.405 313.037 436.144C306.995 436.571 300.83 436.386 294.825 437.082C288.295 416.558 282.52 395.74 276.447 375.075L226.076 200.739Z"/>
</svg>
