<?xml version="1.0" encoding="utf-8" ?>
<svg xmlns="http://www.w3.org/2000/svg" xmlns:xlink="http://www.w3.org/1999/xlink" width="1024" height="1024">
	<path d="M127.391 277.958C125.573 278.318 123.503 278.504 121.742 277.795C120.328 277.226 119.432 276.451 118.785 275.118L119.288 274.141C120.942 273.269 122.378 273.482 124.201 273.587C125.389 274.305 126.722 274.76 127.161 276.201C127.29 276.626 127.349 277.496 127.391 277.958Z"/>
	<path d="M866.581 657.212C868.716 657.951 870.607 658.938 872.078 660.706C873.621 662.562 874.116 664.365 873.955 666.736C872.417 666.276 871.12 665.785 869.876 664.737C867.431 662.678 866.756 660.296 866.581 657.212Z"/>
	<path d="M71.3323 567.694C72.7775 567.314 73.8781 567.465 75.1845 568.083C75.4034 568.827 75.2022 568.989 74.9511 569.698C72.2692 572.09 70.0287 572.07 66.6207 572.33C65.9568 572.404 65.6932 572.451 64.9663 572.435C63.7726 572.408 62.572 572.366 61.759 571.493L62.2726 570.468C65.4386 568.476 67.6932 568.119 71.3323 567.694Z"/>
	<path d="M925.481 589.196C928.198 589.939 931.139 591.192 933.468 592.801C935.78 594.397 936.863 595.73 937.329 598.5C933.671 598.037 929.639 596.336 927.004 593.703C925.501 592.202 925.52 591.188 925.481 589.196Z"/>
	<path d="M798.64 148.436C804.842 135.79 811.212 123.316 816.266 110.145C818.623 104.004 819.845 97.4171 822.261 91.3406C822.956 89.594 823.912 87.2799 825.54 86.1976C825.686 86.1003 825.854 86.0394 826.01 85.9603C826.755 86.7594 826.622 87.1065 826.604 88.159C826.36 102.103 807.885 140.045 800.177 153.029C799.651 151.631 800.438 150.439 800.113 148.943L798.64 148.436Z"/>
	<path d="M639.69 127.512C639.841 127.305 639.995 127.1 640.144 126.891C643.485 122.214 648.643 107.649 652.588 105.054C660.13 106.943 668.617 128.546 674.25 131.815C706.504 135.898 738.711 143.816 770.055 152.367C776.943 154.246 785.958 155.919 792.344 158.834C794.829 156.298 796.81 151.579 798.64 148.436L800.113 148.943C800.438 150.439 799.651 151.631 800.177 153.029C799.055 155.462 797.808 157.782 796.502 160.12C802.931 162.694 809.501 164.884 815.98 167.327C820.47 169.019 824.923 171.017 829.465 172.526C840.951 163.746 852.069 153.829 862.366 143.684C869.29 136.863 875.881 129.691 883.09 123.164C883.937 122.397 884.463 121.991 885.618 121.872L886.741 122.544C887.03 123.842 886.598 124.435 885.878 125.497C883.031 129.695 878.566 133.499 874.916 137.026Q862.171 149.419 848.784 161.116C843.846 165.448 837.846 169.733 833.48 174.553C848.58 181.739 863.599 190.848 876.657 201.317C889.02 195.175 901.446 188.787 913.317 181.742C916.756 179.701 926.549 172.789 929.861 172.237L930.577 172.79C930.264 175.32 928.665 176.504 926.74 178.02C913.631 188.337 894.905 195.932 880.34 204.573C897.123 220.397 911.61 236.881 922.475 257.364C926.602 265.146 929.91 273.349 934.048 281.116C940.934 275.43 969.402 251.684 977.075 251.776L977.424 252.518C976.518 254.156 975.431 255.329 974 256.54C969.704 260.175 964.548 263.051 959.887 266.206C953.674 270.411 947.564 274.956 941.706 279.645C939.797 281.173 937.057 282.938 935.762 284.968C944.587 315.024 948.554 342.694 948.558 373.978C948.559 380.238 948.978 386.916 948.291 393.117C952.434 397.462 967.818 404.416 973.871 407.617C976.684 403.541 981.242 395.259 986.139 394.005L986.753 394.569C986.342 399.656 980.608 405.624 977.5 409.624C981.048 411.741 984.648 413.547 987.201 416.885L987.196 417.857C985.658 418.484 983.595 417.66 982.138 417.042C979.499 415.922 977.019 414.14 974.602 412.607C966.516 423.212 957.952 434.099 948.688 443.711C956.298 441.033 975.092 433.438 982.112 434.917L982.503 435.496C974.576 443.418 944.399 443.64 938.163 455.502C935.542 470.883 929.355 485.575 924.048 500.206Q912.552 531.946 899.272 562.981C894.368 574.542 889.457 586.655 883.505 597.716C890.796 598.426 908.104 598.03 914.008 600.809L914.485 601.562C913.798 602.701 913.266 602.842 912.007 603.099C904.284 604.679 890.447 601.915 881.955 601.688C867.974 629.169 855.677 658.081 844.076 686.649C838.767 699.721 833.977 712.983 828.39 725.943L828.438 726.772C847.767 746.931 858.457 775.943 857.948 803.796C857.739 815.28 855.271 827.55 846.546 835.71C838.088 843.622 827.515 844.186 816.515 844.704C812.266 868.044 807.436 901.715 796.097 922.498C791.358 931.184 784.714 938.988 776.553 944.635C745.104 966.397 694.751 958.072 659.495 951.458C616.153 943.328 574.36 930.073 532.466 916.597C524.143 913.919 505.593 909.348 499.055 904.229C493.602 901.082 470.358 898.179 462.089 896.597C461.819 902.588 464.709 911.486 462.122 916.917L461.33 917.19C458.157 913.927 458.641 903.06 457.992 898.481C451.428 897.079 446.247 893.842 440.09 891.391C430.621 887.623 420.475 884.559 411.367 880.027C404.114 887.008 367.219 922.477 361.336 924.962L360.646 924.65C360.779 922.208 362.871 919.662 364.483 917.948C368.599 913.57 374.076 909.683 378.59 905.646Q393.284 892.589 407.031 878.54C392.079 871.211 377.494 863.166 362.469 855.954C349.865 864.85 338.255 876.53 326.952 887.03C323.118 890.592 319.372 894.641 315.216 897.802C313.85 898.841 312.109 900.294 310.284 900.033C309.606 899.154 309.655 899.059 309.635 897.934C312.888 892.793 322.641 885.513 327.475 881.233L358.721 853.605C354.057 850.337 348.442 846.54 342.914 845.061C334.877 842.91 324.776 843.856 316.468 843.889Q298.619 843.868 280.776 844.361C275.669 848.352 261.011 863.42 256.023 864.252L255.617 863.529C257.714 856.241 268.543 849.122 274.434 844.512C252.941 843.311 207.69 847.229 190.518 839.479C183.264 836.205 176.827 830.302 174.09 822.701C170.072 811.545 172.426 779.187 175.426 767.519C177.27 760.347 180.332 753.68 183.345 746.946C176.844 752.542 170.568 758.417 164.162 764.123C161.42 766.566 158.604 769.477 155.584 771.546C154.446 772.326 153.321 772.616 151.982 772.865L151.411 772.444C151.941 769.851 154.715 767.17 156.538 765.296C165.211 756.381 175.094 748.583 184.251 740.169C192.996 732.133 201.068 723.38 209.203 714.736C203.975 707.291 197.707 700.603 192.149 693.406C185.84 685.237 180.072 676.637 173.275 668.854C154.346 681.539 137.797 698.124 119.45 711.44C118.03 712.471 115.974 714.084 114.243 714.28L113.909 713.213C114.489 711.475 115.192 710.408 116.46 709.08C121.865 703.421 128.723 698.642 134.855 693.75Q152.273 679.689 170.195 666.276C163.312 657.911 149.627 632.159 146.58 622.022C144.948 619.336 142.772 616.992 140.749 614.595Q127.64 622.745 115.13 631.786C107.388 637.465 92.7751 650.376 84.5295 653.647C83.33 654.122 82.7169 654.255 81.5603 653.705L81.6046 652.729C85.1559 646.871 128.124 617.679 137.346 611.713C121.268 591.965 81.8356 545.355 81.5841 520.643C77.3457 518.81 65.1236 516.501 62.631 513.453L62.8517 512.499L64.4477 511.514C69.371 511.083 79.284 515.442 84.2678 517.005C92.6992 506.538 102.353 497.381 111.728 487.788C139.625 459.244 169.398 433.105 202.649 410.898C216.3 401.781 230.391 393.653 244.618 385.495C243.57 384.584 242.583 383.556 241.58 382.593C194.878 397.871 147.002 410.326 97.6434 412.151C89.8945 412.437 80.9453 413.313 73.3947 411.35C72.0978 411.013 71.3805 410.826 70.6683 409.64C72.8612 406.601 83.0798 408.009 86.6568 408.162C97.1274 408.612 107.684 407.715 118.103 406.744Q129.986 405.65 141.795 403.928Q153.604 402.205 165.305 399.859Q177.005 397.512 188.565 394.548Q200.125 391.584 211.511 388.011C219.936 385.453 228.628 382.968 236.722 379.479C225.742 367.836 211.743 359.658 200.01 348.922C197.068 347.753 181.008 348.148 176.87 347.948C151.495 346.719 127.389 343.942 102.693 337.818C98.1647 336.695 91.4101 335.638 87.5864 332.867C86.6886 332.216 86.6829 332.033 86.5433 331.006C89.6508 328.857 105.419 334.628 109.776 335.62Q123.993 338.895 138.437 340.955Q152.881 343.014 167.447 343.843C176.65 344.409 185.868 344.305 195.063 344.911C186.376 335.729 176.211 328.201 166.955 319.634C152.861 306.589 139.96 292.458 127.391 277.958C127.349 277.496 127.29 276.626 127.161 276.201C126.722 274.76 125.389 274.305 124.201 273.587C114.037 257.359 102.411 241.266 100.782 221.579C99.5054 206.161 105.307 190.77 115.322 179.161C165.6 120.88 366.055 116.353 442.175 115.378Q458.917 115.228 475.654 115.636C488.741 116.026 502.276 116.693 515.336 115.702C516.826 115.442 517.837 115.214 519.235 116.037C519.728 116.327 520.028 116.613 520.447 116.976C523.585 118.611 538.274 118.357 541.977 117.265C542.126 117.221 542.268 117.155 542.413 117.101C543.664 116.174 543.905 115.924 545.431 115.779C546.598 116.462 547.008 116.884 547.639 118.081C552.47 120.259 560.192 119.799 565.532 120.037C567.246 118.818 568.993 117.47 570.862 116.504C572.524 115.646 574.877 114.59 576.72 115.24L577.011 116.006C576.454 117.631 575.608 118.715 574.548 120.053C583.051 123.175 596.708 122.92 605.933 123.638C617.145 124.512 628.612 125.572 639.69 127.512ZM248.194 388.961C239.701 392.749 231.432 397.885 223.449 402.664C184.32 426.088 150.796 455.466 118.258 487.196C108.223 496.981 97.4524 506.631 88.9531 517.821C113.928 523.638 138.8 528.494 164.228 531.913C185.897 502.003 200.257 497.52 232.715 484.519C242.136 480.745 251.278 476.565 258.557 469.293C267.144 460.714 271.445 449.403 271.37 437.3C271.251 417.922 261.632 402.142 248.194 388.961ZM141.223 609.367L143.93 607.009Q143.864 603.436 143.984 599.865Q144.103 596.293 144.408 592.733Q144.714 589.172 145.203 585.633Q145.693 582.093 146.366 578.583Q147.039 575.074 147.893 571.604Q148.748 568.134 149.782 564.714Q150.815 561.293 152.025 557.93Q153.235 554.568 154.618 551.273C156.759 546.123 159.761 541.362 161.816 536.18L162.009 535.68C147.672 533.628 133.402 531.488 119.166 528.807C112.438 527.541 89.74 521.44 85.8552 521.715C84.9815 523.172 85.1072 524.311 85.5226 525.886C91.6495 549.112 124.921 590.522 141.223 609.367ZM827.239 731.128C824.297 740.92 821.616 750.818 819.948 760.913C821.55 765.438 825.226 769.423 826.862 774.157C831.544 787.703 831.625 805.433 831.469 819.73C831.399 826.049 830.964 832.538 831.464 838.831L831.524 839.542C836.926 837.904 842.449 834.927 846.145 830.593C853.965 821.424 854.564 807.599 853.783 796.201C852.408 776.145 842.765 744.648 827.239 731.128ZM947.273 397.621C946.232 406.51 945.215 415.399 943.761 424.233C942.609 431.233 940.825 438.515 940.45 445.601C945.599 444.81 966.737 416.372 971.152 410.738Q959.281 404.055 947.273 397.621ZM365.294 852.553C379.598 860.934 394.908 868.91 410.068 875.646C411.445 874.356 413.072 873.063 414.194 871.546C410.864 868.994 406.891 866.911 403.328 864.672C394.098 858.872 384.497 852.807 376.58 845.273C374.604 845.04 373.223 845.341 371.614 846.55C369.305 848.286 367.421 850.603 365.294 852.553ZM654.142 111.127Q649.383 119.851 644.323 128.404C652.002 129.759 660.237 130.702 668.036 130.553C664.106 123.663 658.982 117.388 654.142 111.127ZM422.886 868.727Q418.416 872.878 414.053 877.14Q425.237 881.68 436.521 885.968C433.882 882.106 430.554 878.547 427.641 874.874C426.028 872.84 424.747 870.543 422.886 868.727ZM352.337 845.04L361.866 851.055L364.587 848.326C365.447 847.286 366.028 847.078 365.895 845.664C362.637 843.618 356.123 845.075 352.337 845.04Z"/>
	<path fill="#FEFEFE" d="M516.605 845.159C522.938 844.791 529.284 844.907 535.624 844.942L533.339 849.933C533.29 850.019 533.248 850.11 533.192 850.192C532.696 850.904 532.391 851.69 531.484 851.831C527.129 852.508 520.297 847.384 516.605 845.159Z"/>
	<path fill="#BEBDBC" d="M734.129 235.714Q734.894 235.996 735.643 236.317C738.94 237.705 749.118 241.582 750.402 244.711L749.383 245.339C745.4 246.24 741.355 246.949 737.348 247.743C736.045 243.801 735.12 239.743 734.129 235.714Z"/>
	<path fill="#BEBDBC" d="M415.964 845.184C423.928 844.833 431.921 844.966 439.891 844.987L435.036 849.652L430.698 853.623L415.964 845.184Z"/>
	<path fill="#BEBDBC" d="M547.639 118.081C552.47 120.259 560.192 119.799 565.532 120.037C557.684 125.936 549.261 131.01 540.922 136.171C542.782 129.92 544.701 123.934 547.639 118.081Z"/>
	<path fill="#BEBDBC" d="M460.428 878.709C469.694 883.737 479.123 890.027 487.253 896.709C478.788 896.456 469.898 893.92 461.608 892.154C461.276 887.651 460.551 883.241 460.428 878.709Z"/>
	<path fill="#BEBDBC" d="M287.398 524.576C289.245 527.424 286.883 535.911 286.223 539.294Q274.705 539.629 263.182 539.536L262.883 539.308L263.017 538.612C270.049 533 279.448 528.874 287.398 524.576Z"/>
	<path fill="#BEBDBC" d="M728.655 233.425C731.184 236.99 731.847 243.827 732.766 248.139Q722.509 249.582 712.347 251.586C710.84 251.815 709.52 252.12 708.025 251.654C713.721 244.937 721.942 239.126 728.655 233.425Z"/>
	<path fill="#BEBDBC" d="M446.446 844.579L451.176 845.064C452.609 853.056 453.445 861.108 454.327 869.175L447.284 864.688Q440.985 860.748 434.926 856.449L446.446 844.579Z"/>
	<path fill="#BEBDBC" d="M362.243 187.031C373.191 191.069 384.172 194.544 395.556 197.125C393.778 197.718 391.932 198.118 390.114 198.572C380.935 200.617 371.867 202.004 362.515 202.942Q362.527 194.984 362.243 187.031Z"/>
	<path fill="#FEFEFE" d="M241.58 382.593C248.523 379.922 255.722 377.618 262.516 374.609C280.712 366.552 303.152 353.535 320.671 343.358L318.086 353.126Q299.069 359.653 280.669 367.76Q262.269 375.867 244.618 385.495C243.57 384.584 242.583 383.556 241.58 382.593Z"/>
	<path fill="#BEBDBC" d="M688.255 259.664C689.032 259.515 689.602 259.589 690.383 259.666C690.171 260.995 668.287 278.841 665.383 281.303L660.839 275.709C657.632 271.909 654.241 268.259 650.904 264.573C663.474 263.482 675.8 261.629 688.255 259.664Z"/>
	<path fill="#BEBDBC" d="M146.58 622.022C152.255 626.783 157.232 632.874 162.326 638.263C168.402 644.689 174.798 650.826 180.619 657.488L170.195 666.276C163.312 657.911 149.627 632.159 146.58 622.022Z"/>
	<path fill="#BEBDBC" d="M431.581 859.679C439.503 864.794 447.265 870.418 455.44 875.097C455.604 880.57 456.319 885.938 456.755 891.384C449.955 889.818 443.124 888.254 436.521 885.968C433.882 882.106 430.554 878.547 427.641 874.874C426.028 872.84 424.747 870.543 422.886 868.727C425.328 865.44 428.674 862.57 431.581 859.679Z"/>
	<path fill="#BEBDBC" d="M376.58 845.273C387.167 844.787 397.767 844.934 408.361 845.079L427.637 857.147C423.273 862.094 418.896 866.913 414.194 871.546C410.864 868.994 406.891 866.911 403.328 864.672C394.098 858.872 384.497 852.807 376.58 845.273Z"/>
	<path fill="#BEBDBC" d="M724.784 466.176C738.75 468.911 752.826 471.229 767.08 471.595Q758.803 480.096 750.078 488.136C743.913 493.677 737.273 498.785 730.79 503.947C728.407 491.564 726.11 478.723 724.784 466.176Z"/>
	<path fill="#BEBDBC" d="M184.04 660.81C197.254 672.708 209.707 686.015 223.633 697.03Q216.833 706.221 209.203 714.736C203.975 707.291 197.707 700.603 192.149 693.406C185.84 685.237 180.072 676.637 173.275 668.854C176.897 666.231 180.372 663.356 184.04 660.81Z"/>
	<path fill="#BEBDBC" d="M520.447 116.976C523.585 118.611 538.274 118.357 541.977 117.265C542.126 117.221 542.268 117.155 542.413 117.101C540.428 124.753 537.174 132.197 535.054 139.885C526.96 144.23 519.094 149.079 511.067 153.559C492.858 163.723 473.553 173.531 453.795 180.32C470.996 169.612 487.527 156.014 501.009 140.864C507.818 133.212 514.023 124.957 520.447 116.976Z"/>
	<path fill="#BEBDBC" d="M767.98 477.293C770.968 479.162 780.989 513.219 782.996 519.148C770.883 521.265 758.852 523.097 746.619 524.367L733.982 525.651L731.223 508.774C744.193 499.017 756.192 488.44 767.98 477.293Z"/>
	<path fill="#BEBDBC" d="M796.502 160.12C802.931 162.694 809.501 164.884 815.98 167.327C820.47 169.019 824.923 171.017 829.465 172.526C820.662 178.526 812.468 185.373 803.579 191.321C783.519 204.742 762.363 215.025 740.211 224.473C754.133 211.578 768.273 198.584 780.117 183.698C786.087 176.195 791.298 168.161 796.502 160.12Z"/>
	<path fill="#BEBDBC" d="M609.521 644.417C618.598 643.717 628.022 644.213 637.134 644.213L689.519 644.203L725.834 644.134C733.441 644.121 741.671 643.462 749.152 644.895C759.211 646.821 769.148 651.87 776.89 658.531C791.893 671.44 796.374 688.138 799.705 706.868L790.451 706.868C776.092 689.284 765.762 682.306 745.592 672.344C745.693 672.081 745.842 671.832 745.894 671.555C746.154 670.18 745.028 669.408 744.211 668.489L744.318 667.606C745.023 667.285 745.89 666.973 746.522 666.532C747.635 665.754 747.445 665.145 747.598 663.873C746.749 662.675 746.055 662.774 744.664 662.42C745.01 660.582 746.048 659.923 747.366 658.638L747.098 657.67C741.7 652.776 736.343 655.992 730.331 653.999L730.425 653.593C734.736 652.719 739.072 654.046 743.339 654.374C744.689 654.478 745.03 654.315 746.011 653.411C746.895 650.639 746.47 647.519 746.362 644.639L654.772 644.636L626.153 644.683C620.644 644.69 615.006 644.949 609.521 644.417Z"/>
	<path fill="#BEBDBC" d="M200.01 348.922C224.858 349.367 249.558 347.858 274.32 346.024C286.299 345.137 298.416 343.775 310.409 343.382C294.602 351.826 278.762 360.396 262.576 368.095C254.554 371.911 244.07 375.461 236.722 379.479C225.742 367.836 211.743 359.658 200.01 348.922Z"/>
	<path fill="#BEBDBC" d="M747.78 712.359C761.343 711.4 790.124 709.907 802.872 714.04C808.929 716.003 814.306 719.538 819.075 723.701C821.805 726.084 824.385 728.925 827.239 731.128C824.297 740.92 821.616 750.818 819.948 760.913Q819.394 760.211 818.786 759.556C807.437 747.37 789.598 741.213 773.406 739.554C765.759 738.77 757.959 738.919 750.274 738.615C750.724 729.651 749.694 721.116 747.78 712.359Z"/>
	<path fill="#BEBDBC" d="M531.569 147.39C532.25 147.624 531.928 147.405 532.387 148.222C530.878 156.736 528.149 164.993 526.289 173.437C524.156 183.118 522.956 193.829 519.555 203.138C518.536 205.927 517.377 207.983 515.116 209.919C507.33 210.688 498.814 208.251 491.056 207.268C471.864 204.836 452.652 202.662 433.573 199.41C429.269 198.662 424.909 198.207 420.573 197.681C426.712 195.004 433.201 193.122 439.506 190.872Q453.436 185.826 467.157 180.234C489.478 171.037 510.593 159.266 531.569 147.39Z"/>
	<path fill="#BEBDBC" d="M783.899 523.239C787.981 529.069 801.506 577.68 804.443 587.912C790.88 586.486 777.355 583.377 764.21 579.816C756.317 577.891 748.555 575.447 740.781 573.096C739.23 558.86 736.806 544.587 734.563 530.437C751.073 528.085 767.449 526.157 783.899 523.239Z"/>
	<path fill="#BEBDBC" d="M162.009 535.68C169.75 537.869 178.514 538.274 186.499 539.055C206.071 540.97 225.724 541.865 245.314 543.544C235.823 550.289 225.238 556.026 215.274 562.069C191.271 576.629 166.898 590.837 143.93 607.009Q143.864 603.436 143.984 599.865Q144.103 596.293 144.408 592.733Q144.714 589.172 145.203 585.633Q145.693 582.093 146.366 578.583Q147.039 575.074 147.893 571.604Q148.748 568.134 149.782 564.714Q150.815 561.293 152.025 557.93Q153.235 554.568 154.618 551.273C156.759 546.123 159.761 541.362 161.816 536.18L162.009 535.68Z"/>
	<path fill="#BEBDBC" d="M278.379 595.484C279.87 598.708 274.272 636.941 273.294 642.248C267.735 644.139 262.315 646.16 257.155 648.99C238.388 659.282 230.576 672.383 224.671 692.349C218.747 686.643 212.513 681.208 206.427 675.671C200.012 669.728 193.796 663.553 187.518 657.466Q231.833 624.84 278.379 595.484Z"/>
	<path fill="#BEBDBC" d="M408.726 201.165C419.393 200.627 430.769 203.913 441.336 205.434C457.104 207.704 472.987 209.274 488.716 211.802C480.759 213.338 472.509 213.705 464.492 215.127Q461.881 215.564 459.285 216.075Q456.688 216.586 454.106 217.171Q451.525 217.756 448.962 218.414Q446.398 219.073 443.854 219.805Q441.311 220.536 438.789 221.34Q436.267 222.144 433.77 223.02Q431.272 223.896 428.8 224.842Q426.329 225.789 423.885 226.806Q421.442 227.823 419.028 228.909Q416.615 229.996 414.233 231.151Q411.852 232.306 409.504 233.528Q407.157 234.751 404.845 236.04Q402.534 237.329 400.26 238.684Q397.986 240.039 395.752 241.458Q393.518 242.877 391.325 244.359Q389.132 245.842 386.983 247.386C370.714 259.205 358.216 275.364 346.111 291.187C354.429 264.365 360.36 237.31 361.626 209.172C377.301 206.694 393.009 203.065 408.726 201.165Z"/>
	<path fill="#BEBDBC" d="M833.48 174.553C848.58 181.739 863.599 190.848 876.657 201.317C870.639 205.083 862.89 207.802 856.374 210.641C825.111 224.263 792.289 236.366 758.694 242.683C751.005 239.212 743.551 235.143 736.202 231.009C745.434 226.79 755.051 223.459 764.261 219.204C783.261 210.427 801.247 199.088 818.04 186.643C823.169 182.842 829.127 179.205 833.48 174.553Z"/>
	<path fill="#BEBDBC" d="M935.762 284.968C944.587 315.024 948.554 342.694 948.558 373.978C948.559 380.238 948.978 386.916 948.291 393.117C924.066 378.977 901.385 361.598 880.592 342.821C897.845 322.123 916.414 303.658 935.762 284.968Z"/>
	<path fill="#BEBDBC" d="M574.548 120.053C583.051 123.175 596.708 122.92 605.933 123.638C617.145 124.512 628.612 125.572 639.69 127.512C616.639 153.428 586.649 170.003 556.614 186.532C545.968 192.391 535.421 198.547 524.608 204.089C528.314 183.487 533.009 163.338 538.398 143.118C543.699 139.897 571.336 120.711 574.548 120.053Z"/>
	<path fill="#BEBDBC" d="M933.801 452.138L933.952 452.748C933.713 453.29 933.668 453.456 933.265 453.995C928.989 459.712 921.041 464.95 915.12 469.084C876.536 496.028 832.557 507.834 787.246 518.12L783.857 508.357C779.568 496.356 775.339 484.503 772.706 472.01Q787.773 472.613 802.849 472.297Q817.926 471.98 832.954 470.744Q847.983 469.508 862.908 467.358Q877.834 465.208 892.6 462.152C906.472 459.297 920.062 455.537 933.801 452.138Z"/>
	<path fill="#BEBDBC" d="M674.25 131.815C706.504 135.898 738.711 143.816 770.055 152.367C776.943 154.246 785.958 155.919 792.344 158.834Q789.154 163.622 785.792 168.291Q782.43 172.96 778.9 177.503Q775.37 182.046 771.676 186.457Q767.982 190.868 764.13 195.141Q760.278 199.415 756.273 203.545Q752.267 207.674 748.113 211.656Q743.96 215.637 739.664 219.464Q735.368 223.29 730.935 226.958C715.052 193.326 695.302 162.402 674.25 131.815Z"/>
	<path fill="#BEBDBC" d="M254.126 544.068C264.314 543.771 274.552 544.154 284.738 544.441C283.809 559.4 281.538 574.506 279.85 589.418Q250.155 607.822 221.466 627.757C209.066 636.461 197.165 645.842 184.538 654.226C182.766 652.844 181.145 651.248 179.493 649.726C167.24 637.64 155.762 625.016 144.237 612.243C164.779 598.256 185.809 585.222 206.947 572.168C222.513 562.554 237.976 552.682 254.126 544.068Z"/>
	<path fill="#BEBDBC" d="M248.194 388.961C270.344 377.444 292.65 366.492 316.398 358.61Q299.052 437.812 288.805 518.241C279.558 524.093 264.308 534.741 253.879 537.747C241.533 541.306 179.68 534.215 164.228 531.913C185.897 502.003 200.257 497.52 232.715 484.519C242.136 480.745 251.278 476.565 258.557 469.293C267.144 460.714 271.445 449.403 271.37 437.3C271.251 417.922 261.632 402.142 248.194 388.961Z"/>
	<path fill="#BEBDBC" d="M741.248 577.964C750.351 579.965 759.205 583.258 768.239 585.604C780.744 588.852 793.486 591.005 806.212 593.172C813.026 612.545 818.631 632.455 825.105 651.965C827.731 659.88 830.136 669.199 834.217 676.479C835.053 677.97 836.149 679.735 837.893 680.195L838.667 679.534C839.193 677.348 838.885 675.255 838.278 673.106C836.192 665.716 832.49 658.396 829.884 651.119C823.156 632.331 816.723 613.548 811.488 594.28C818.673 594.851 825.898 596.078 833.061 596.975C849.235 598.999 865.662 601.016 881.955 601.688C867.974 629.169 855.677 658.081 844.076 686.649C838.767 699.721 833.977 712.983 828.39 725.943C820.968 718.838 813.281 713.184 803.943 708.858C803.351 698.045 801.714 687.701 797.137 677.795C790.564 663.566 778.234 651.499 763.895 645.157C758.941 642.965 753.717 641.559 748.648 639.681Q746.172 608.676 741.248 577.964Z"/>
	<path fill="#BEBDBC" d="M788.533 522.266C845.474 510.703 894.575 495.629 938.163 455.502C935.542 470.883 929.355 485.575 924.048 500.206Q912.552 531.946 899.272 562.981C894.368 574.542 889.457 586.655 883.505 597.716C858.854 595.923 834.473 592.566 809.991 589.326C803.27 566.868 795.699 544.59 788.533 522.266Z"/>
	<path fill="#FEFEFE" d="M242.408 667.947Q245.145 664.429 248.348 661.329C257.022 652.878 268.565 647.991 280.425 646.14C294.629 643.923 309.25 644.952 323.577 644.966L379.784 644.623C456.324 644.149 532.984 643.717 609.521 644.417C615.006 644.949 620.644 644.69 626.153 644.683L654.772 644.636L746.362 644.639C746.47 647.519 746.895 650.639 746.011 653.411C745.03 654.315 744.689 654.478 743.339 654.374C739.072 654.046 734.736 652.719 730.425 653.593L730.331 653.999C736.343 655.992 741.7 652.776 747.098 657.67L747.366 658.638C746.048 659.923 745.01 660.582 744.664 662.42C746.055 662.774 746.749 662.675 747.598 663.873C747.445 665.145 747.635 665.754 746.522 666.532C745.89 666.973 745.023 667.285 744.318 667.606L744.211 668.489C745.028 669.408 746.154 670.18 745.894 671.555C745.842 671.832 745.693 672.081 745.592 672.344C738.777 670.027 732.056 667.875 724.84 667.326C704.258 665.761 683.338 666.706 662.7 666.647L526.567 667.233L333.754 667.49C303.296 667.584 272.856 666.828 242.408 667.947Z"/>
	<path fill="#BEBDBC" d="M764.28 246.42C804.625 237.134 843.076 222.444 880.34 204.573C897.123 220.397 911.61 236.881 922.475 257.364C926.602 265.146 929.91 273.349 934.048 281.116C927.941 287.971 917.407 296.064 910.458 302.797C898.462 314.419 887.742 327.303 877.051 340.112C858.287 322.816 840.189 304.667 820.718 288.161C802.823 272.99 783.738 259.488 764.28 246.42Z"/>
	<path fill="#BEBDBC" d="M877.493 346.702C899.502 365.104 921.733 384.182 947.273 397.621C946.232 406.51 945.215 415.399 943.761 424.233C942.609 431.233 940.825 438.515 940.45 445.601C933.348 446.109 925.512 449.637 918.664 451.621Q906.891 454.919 894.925 457.429Q880.432 460.363 865.8 462.494Q851.167 464.624 836.44 465.944Q821.712 467.264 806.934 467.769Q792.156 468.274 777.372 467.963C801.741 440.586 824.663 411.601 847.731 383.128C857.602 370.944 866.892 358.273 877.493 346.702Z"/>
	<path fill="#BEBDBC" d="M733.237 252.702C733.622 252.679 733.958 252.979 734.299 253.158C738.519 260.51 740.704 277.354 742.598 286.275C755.611 347.572 764.843 404.942 767.976 467.653Q745.715 465.538 723.696 461.646C723.344 457.465 722.462 453.264 721.776 449.122C711.905 390.103 700.303 337.126 667.895 285.709C676.212 277.818 691.885 261.292 702.575 257.773C711.514 254.831 723.777 254.078 733.237 252.702Z"/>
	<path fill="#FEFEFE" d="M212.821 721.413C219.271 715.342 227.324 713.472 235.937 712.692C251.907 711.246 268.547 712.409 284.626 712.357L394.865 712.493L747.78 712.359C749.694 721.116 750.724 729.651 750.274 738.615C738.077 738.293 725.798 738.578 713.593 738.576L642.319 738.569L460.442 738.312L371.968 738.455C349.225 738.513 326.318 739.036 303.635 737.154C293.179 736.286 282.718 734.366 272.359 732.726C252.355 729.56 232.547 726.024 212.821 721.413Z"/>
	<path fill="#BEBDBC" d="M694.431 728.246C699.248 727.269 710.191 727.37 714.726 729.261C711.542 729.55 708.289 729.609 705.093 729.713C701.925 729.816 696.794 730.469 694.431 728.246Z"/>
	<path fill="#BEBDBC" d="M644.323 128.404C652.002 129.759 660.237 130.702 668.036 130.553C673.625 136.993 678.116 144.844 682.798 151.969C699.231 176.976 713.734 202.621 727.348 229.258C718.783 235.963 711.253 244.078 702.29 250.264C691.074 258.005 660.702 258.888 646.394 260.13C639.473 253.063 631.366 247.283 623.025 242.018C592.596 222.814 557.826 213.229 521.997 211.333C530.888 204.814 541.013 200.205 550.642 194.89C582.998 177.033 621.185 157.985 644.323 128.404Z"/>
	<path fill="#BEBDBC" d="M755.851 248.617C755.974 248.598 756.096 248.564 756.221 248.559C761.514 248.352 769.013 254.678 773.335 257.59C810.293 282.492 841.572 313.052 874.032 343.291C853.713 369.181 832.599 394.525 811.945 420.158C799.037 435.711 786.803 451.579 772.671 466.075C771.529 457.653 771.397 449.103 770.769 440.629Q769.055 416.3 766.274 392.07C760.57 344.699 750.42 298.209 738.972 251.94L755.851 248.617Z"/>
	<path fill="#FEFEFE" d="M496.869 216.29C545.193 213.287 597.285 225.469 635.221 256.677C681.379 294.649 698.744 357.452 710.35 413.526C716.881 445.076 721.602 476.786 726.416 508.625C732.959 551.908 739.793 595.425 744.034 639.001Q692.34 638.467 640.644 638.693L381.2 638.568C373.994 629.895 365.308 622.432 357.298 614.514L532.25 614.137L645.446 614.065C666.98 614.13 688.553 614.929 710.074 614.092C709.984 605.184 708.85 596.208 707.911 587.354L703.586 548.337Q699.802 513.638 694.932 479.074C690.313 444.752 685.092 410.357 675.407 377.041C662.353 332.138 641.621 285.596 598.599 262.186C556.472 239.263 500.938 235.714 455.359 249.268Q453.747 249.732 452.147 250.234Q450.547 250.735 448.959 251.275Q447.371 251.815 445.797 252.392Q444.222 252.969 442.662 253.583Q441.101 254.198 439.556 254.849Q438.01 255.5 436.481 256.188Q434.951 256.875 433.438 257.599Q431.925 258.323 430.43 259.082Q428.935 259.842 427.458 260.637Q425.981 261.431 424.524 262.261Q423.066 263.09 421.629 263.954Q420.191 264.818 418.775 265.715Q417.358 266.613 415.963 267.544Q414.568 268.475 413.196 269.439Q411.824 270.403 410.474 271.399Q409.125 272.395 407.8 273.423Q406.475 274.451 405.175 275.51Q403.874 276.569 402.599 277.658Q401.324 278.748 400.076 279.867Q398.827 280.987 397.605 282.136Q396.383 283.284 395.189 284.462Q393.995 285.639 392.829 286.845Q391.663 288.05 390.526 289.283Q389.389 290.515 388.282 291.775Q387.174 293.034 386.097 294.319Q385.02 295.605 383.973 296.915Q382.927 298.226 381.911 299.561Q380.896 300.895 379.913 302.254Q378.93 303.613 377.979 304.994Q377.029 306.376 376.111 307.779Q375.193 309.183 374.309 310.608Q373.425 312.033 372.575 313.479C367.824 321.446 364.631 329.965 360.217 338.026L360.017 338.386C362.73 325.885 364.737 313.288 366.836 300.676C368.582 290.183 370.192 278.988 373.759 268.938C374.865 265.819 376.106 263.193 378.348 260.7C383.286 255.209 389.835 250.874 395.983 246.832C426.095 227.034 461.141 217.978 496.869 216.29Z"/>
	<path fill="#BEBDBC" d="M456.329 845.467C469.334 845.257 498.309 842.767 509.017 846.416C515.988 848.793 523.054 853.4 529.755 856.629C525.152 866.114 518.62 876.411 516.292 886.685C515.969 888.109 515.603 889.615 516.409 890.88C516.553 890.841 516.704 890.822 516.841 890.763C521.67 888.702 531.453 864.635 534.082 858.904C542.488 862.716 579.586 881.748 585.882 879.592L586.03 878.764C584.948 876.815 583.092 875.558 581.17 874.498C577.242 872.331 572.53 871.049 568.385 869.252Q552.186 862.175 536.105 854.833C537.588 851.49 539.001 848.135 540.911 845.008Q628.928 845.665 716.945 845.027L781.69 844.976C793.201 844.966 805.049 845.545 816.515 844.704C812.266 868.044 807.436 901.715 796.097 922.498C791.358 931.184 784.714 938.988 776.553 944.635C745.104 966.397 694.751 958.072 659.495 951.458C616.153 943.328 574.36 930.073 532.466 916.597C524.143 913.919 505.593 909.348 499.055 904.229C499.193 904.153 499.335 904.083 499.468 904C500.799 903.173 501.607 902.448 501.991 900.919C501.427 899.738 500.495 899.187 499.448 898.462C495.274 895.577 490.68 893.175 486.387 890.454Q472.679 881.851 459.701 872.181C458.011 863.428 457.356 854.326 456.329 845.467Z"/>
	<path d="M548.863 885.628C549.021 885.693 549.191 885.735 549.338 885.822C550.407 886.448 551.048 886.984 551.282 888.254C552.243 893.447 545.637 906.991 543.03 911.57C541.903 911.062 541.274 910.772 540.542 909.758C539.399 903.377 545.994 891.525 548.863 885.628Z"/>
	<path fill="#BEBDBC" d="M124.201 273.587C114.037 257.359 102.411 241.266 100.782 221.579C99.5054 206.161 105.307 190.77 115.322 179.161C165.6 120.88 366.055 116.353 442.175 115.378Q458.917 115.228 475.654 115.636C488.741 116.026 502.276 116.693 515.336 115.702C492.103 146.588 464.74 172.754 428.522 187.539C422.859 189.852 416.625 192.95 410.544 193.789C397.501 195.587 373.71 187.482 361.937 181.303C361.628 177.747 361.488 173.656 358.75 170.951C358.307 170.513 358.148 170.481 357.651 170.254C356.763 170.801 356.788 170.911 356.554 171.897C356.142 173.626 356.262 175.611 356.153 177.391C354.573 177.075 353.471 175.561 351.955 175.734C351.331 176.738 351.197 177.007 351.437 178.253C351.945 180.882 355.072 182.756 357.069 184.128C357.409 190.315 357.501 196.473 357.517 202.668Q341.792 202.2 326.163 200.398C317.171 199.387 294.179 194.299 287.369 195.911L286.666 196.605C287.833 198.715 291.779 199.831 294.027 200.474C298.899 201.867 304.213 202.325 309.233 202.96C321.63 204.527 334.165 205.271 346.528 206.963C317.654 210.593 288.6 213.637 259.453 213.02C253.082 212.886 222.761 209.601 219.178 212.179C219.212 212.935 219.028 213.216 219.652 213.759C223.517 217.124 233.926 216.528 238.964 216.761Q252.308 217.341 265.665 217.319Q279.022 217.297 292.364 216.672Q305.706 216.048 319.006 214.822Q332.307 213.596 345.538 211.771Q351.352 210.979 357.152 210.087C354.164 254.79 340.426 296.569 322.29 337.297C280.088 320.018 238.154 277.451 212.446 240.412C209.989 236.872 202.398 222.449 198.301 223.547C197.787 224.673 197.863 225.276 198.264 226.459C200.422 232.819 206.552 239.594 210.384 245.202Q214.293 250.908 218.463 256.427Q222.633 261.945 227.055 267.264Q231.477 272.583 236.141 277.69Q240.805 282.798 245.701 287.684Q250.597 292.57 255.715 297.223Q260.833 301.875 266.161 306.286Q271.49 310.696 277.017 314.854Q282.544 319.012 288.259 322.909C296.37 328.393 304.831 333.15 313.271 338.092Q267.608 343.56 221.63 344.554C212.841 344.723 203.824 345.387 195.063 344.911C186.376 335.729 176.211 328.201 166.955 319.634C152.861 306.589 139.96 292.458 127.391 277.958C127.349 277.496 127.29 276.626 127.161 276.201C126.722 274.76 125.389 274.305 124.201 273.587Z"/>
	<path d="M155.445 248.066C163.275 251.512 175.232 257.767 181.532 263.335C181.997 264.811 181.594 265.421 181.155 266.878C172.641 263.483 161.777 258.245 155.005 252.089C154.516 250.582 155.05 249.578 155.445 248.066Z"/>
	<path fill="#FEFEFE" d="M500.359 246.711C500.532 246.69 500.705 246.664 500.878 246.648C528.549 243.992 564.875 251.519 589.937 263.518Q593.7 265.336 597.34 267.388Q600.98 269.44 604.484 271.718Q607.987 273.996 611.339 276.491Q614.692 278.986 617.88 281.687C672.638 328.135 685.531 440.885 694.085 509.437C698.233 542.679 702.281 576.102 704.947 609.498L521.75 609.387Q419.121 608.956 316.495 609.874C316.214 586.567 320.288 562.557 323.001 539.435C331.434 467.577 346.269 348.362 393.199 293.219C419.891 261.858 460.78 249.739 500.359 246.711Z"/>
	<path fill="#BEBDBC" d="M415.886 294.109L416.945 294.25C417.107 295.361 416.972 294.999 417.384 295.928C417.797 296.862 417.702 296.237 417.54 297.485C415 299.077 410.069 298.478 407.152 298.461C406.907 298.074 407.043 298.344 406.918 297.584C408.564 297.456 410.829 297.871 412.188 296.868L412.269 295.546C413.175 294.295 414.417 294.418 415.886 294.109Z"/>
	<path d="M509.822 293.426C512.41 293.523 513.811 294.205 515.742 295.948C524.966 304.272 532.766 320.529 538.518 331.572C550.871 355.289 561.194 380.076 571.679 404.66C579.536 423.082 589.005 444.068 594.912 463.07C596.49 468.145 597.739 473.299 598.002 478.622C599.148 501.805 590.907 523.348 575.34 540.528Q574.609 541.343 573.858 542.14Q573.108 542.937 572.337 543.715Q571.567 544.493 570.777 545.251Q569.987 546.01 569.179 546.748Q568.37 547.486 567.544 548.204Q566.717 548.922 565.873 549.619Q565.028 550.316 564.167 550.992Q563.305 551.667 562.427 552.321Q561.549 552.975 560.655 553.607Q559.761 554.239 558.851 554.848Q557.941 555.457 557.016 556.044Q556.092 556.63 555.153 557.193Q554.214 557.756 553.261 558.295Q552.308 558.835 551.342 559.35Q550.376 559.865 549.397 560.356Q548.419 560.847 547.428 561.314Q546.438 561.78 545.436 562.222Q544.434 562.663 543.421 563.079Q542.409 563.496 541.386 563.887Q540.363 564.278 539.331 564.643Q538.299 565.008 537.258 565.347Q536.217 565.686 535.168 566Q534.119 566.313 533.062 566.599Q532.005 566.886 530.942 567.146Q529.878 567.407 528.809 567.64Q527.739 567.874 526.664 568.081Q525.589 568.288 524.509 568.467Q523.429 568.647 522.344 568.8Q521.26 568.953 520.173 569.078Q519.085 569.204 517.995 569.303Q516.904 569.401 515.812 569.472Q514.719 569.543 513.625 569.587C505.069 570.33 496.006 569.211 487.736 566.984C465.604 561.023 447.145 545.865 435.815 526.054C424.23 505.799 421.835 485.034 427.94 462.621C431.307 450.257 436.169 438.246 440.842 426.329C446.449 412.032 452.05 397.65 458.239 383.593C461.11 377.073 464.359 370.719 467.336 364.245C476.611 344.08 485.588 322.394 498.598 304.314C501.793 299.873 505.035 296.168 509.822 293.426Z"/>
	<path fill="#FEFEFE" d="M519.773 564.797C501.325 565.573 484.77 563.687 468.749 553.76Q467.868 553.205 467.001 552.629Q466.134 552.053 465.281 551.456Q464.428 550.859 463.59 550.241Q462.752 549.624 461.929 548.986Q461.106 548.349 460.299 547.691Q459.491 547.034 458.7 546.357Q457.909 545.68 457.135 544.984Q456.361 544.288 455.603 543.574Q454.846 542.859 454.107 542.127Q453.367 541.394 452.645 540.644Q451.924 539.893 451.22 539.126Q450.517 538.358 449.833 537.574Q449.148 536.789 448.483 535.988Q447.818 535.188 447.172 534.371Q446.527 533.554 445.901 532.722Q445.276 531.889 444.671 531.042Q444.066 530.195 443.481 529.334Q442.897 528.472 442.333 527.596Q441.77 526.721 441.228 525.832Q440.686 524.943 440.166 524.041Q439.646 523.139 439.148 522.225Q438.65 521.311 438.174 520.385Q437.698 519.459 437.245 518.522Q436.792 517.584 436.362 516.636Q435.931 515.688 435.524 514.73Q435.117 513.772 434.733 512.804Q434.35 511.837 433.99 510.86Q433.629 509.883 433.293 508.898Q432.957 507.912 432.644 506.919Q432.332 505.926 432.044 504.926Q431.756 503.925 431.492 502.918Q431.228 501.911 430.989 500.898C428.9 491.853 428.899 482.568 430.619 473.46C432.979 460.969 437.851 448.893 442.213 436.992Q455.71 400.432 472.185 365.114C480.928 346.079 489.906 327.053 501.04 309.28C502.914 306.29 507.674 298.732 511.299 298.222C511.93 298.134 512.624 298.536 513.058 298.966C514.061 299.961 514.732 302.094 514.423 303.485C513.446 307.883 508.551 313.461 506.101 317.296C500.106 326.678 483.447 353.004 483.621 363.475C480.179 369.524 476.961 375.612 474.17 381.997C472.917 384.44 471.638 386.859 470.59 389.399C461.627 405.004 444.347 452.607 442.228 469.488Q441.722 473.338 441.6 477.219Q441.478 481.1 441.741 484.974Q442.004 488.848 442.649 492.677Q443.295 496.506 444.316 500.252Q444.589 501.225 444.885 502.192Q445.182 503.158 445.502 504.117Q445.822 505.076 446.166 506.026Q446.509 506.977 446.876 507.919Q447.243 508.861 447.633 509.793Q448.022 510.726 448.435 511.649Q448.847 512.572 449.282 513.484Q449.717 514.396 450.175 515.298Q450.632 516.199 451.111 517.089Q451.59 517.979 452.091 518.857Q452.592 519.735 453.115 520.601Q453.637 521.466 454.18 522.318Q454.724 523.171 455.288 524.009Q455.852 524.848 456.437 525.673Q457.021 526.497 457.626 527.308Q458.23 528.118 458.855 528.913Q459.479 529.708 460.122 530.487Q460.766 531.266 461.429 532.03Q462.091 532.793 462.772 533.54Q463.453 534.287 464.152 535.017Q464.852 535.747 465.568 536.46Q466.285 537.173 467.019 537.867Q467.753 538.562 468.504 539.239Q469.255 539.916 470.023 540.574Q470.79 541.232 471.573 541.871Q472.356 542.51 473.155 543.129Q473.954 543.749 474.767 544.349Q475.581 544.948 476.409 545.528Q477.237 546.108 478.079 546.667Q478.921 547.226 479.777 547.765Q480.632 548.303 481.501 548.82Q482.369 549.337 483.25 549.833C490.473 553.973 498.595 557.504 506.856 558.848C510.994 561.643 515.062 563.215 519.773 564.797Z"/>
	<path fill="#BC4825" d="M483.621 363.475C486.521 401.397 464.358 456.976 473.626 488.786L473.766 489.253L474.685 492.518C480.524 515.486 490.686 541.301 506.856 558.848C498.595 557.504 490.473 553.973 483.25 549.833Q482.369 549.337 481.501 548.82Q480.632 548.303 479.777 547.764Q478.921 547.226 478.079 546.667Q477.237 546.108 476.409 545.528Q475.581 544.948 474.767 544.349Q473.954 543.749 473.155 543.129Q472.356 542.51 471.573 541.871Q470.79 541.232 470.023 540.574Q469.255 539.916 468.504 539.239Q467.753 538.562 467.019 537.867Q466.285 537.173 465.568 536.46Q464.852 535.747 464.152 535.017Q463.453 534.287 462.772 533.54Q462.091 532.793 461.429 532.03Q460.766 531.266 460.122 530.487Q459.479 529.708 458.855 528.913Q458.23 528.118 457.626 527.308Q457.021 526.497 456.437 525.673Q455.852 524.848 455.288 524.009Q454.724 523.171 454.18 522.318Q453.637 521.466 453.115 520.601Q452.592 519.735 452.091 518.857Q451.59 517.979 451.111 517.089Q450.632 516.199 450.175 515.298Q449.717 514.396 449.282 513.484Q448.847 512.572 448.435 511.649Q448.022 510.726 447.633 509.793Q447.243 508.861 446.876 507.919Q446.509 506.977 446.166 506.026Q445.822 505.076 445.502 504.117Q445.182 503.158 444.885 502.192Q444.589 501.225 444.316 500.252Q443.295 496.506 442.649 492.677Q442.004 488.848 441.741 484.974Q441.478 481.1 441.6 477.219Q441.722 473.338 442.228 469.488C444.347 452.607 461.627 405.004 470.59 389.399C471.638 386.859 472.917 384.44 474.17 381.997C476.961 375.612 480.179 369.524 483.621 363.475Z"/>
	<path fill="#CB5738" d="M473.766 489.253L474.685 492.518C474.108 494.668 473.753 497.14 471.712 498.403C470.932 498.885 471.188 498.733 470.205 498.438C469.411 496.998 469.335 495.3 469.829 493.732C470.514 491.562 471.76 490.226 473.766 489.253Z"/>
	<path fill="#CB5738" d="M474.17 381.997C475.277 382.4 476.374 382.751 477.492 383.115C478.463 383.43 478.822 383.845 479.475 384.587L479.501 385.583C477.602 387.492 473.224 388.714 470.59 389.399C471.638 386.859 472.917 384.44 474.17 381.997Z"/>
</svg>
