<?xml version="1.0" encoding="utf-8" ?>
<svg xmlns="http://www.w3.org/2000/svg" xmlns:xlink="http://www.w3.org/1999/xlink" width="1820" height="1024">
	<path fill="#4E5252" d="M1022.21 488.079C1024.83 488.01 1027.04 488.138 1029.5 489.139C1032.34 490.3 1034.17 491.734 1035.42 494.637C1035.43 497.439 1035.28 497.992 1033.89 500.429L1033.01 500.767L1031.64 499.425C1031.11 497.431 1030.53 495.533 1029.59 493.69C1029.46 493.438 1029.32 493.19 1029.19 492.938C1027.75 490.163 1024.93 489.286 1022.21 488.079Z"/>
	<path fill="#4E5252" d="M997.204 506.709C995.623 506.965 994.469 507.021 992.887 506.738C989.43 503.083 987.713 500.791 987.619 495.566C988.202 493.861 988.906 492.315 990.422 491.236C992.611 489.679 996.305 488.766 998.933 489.182C998.679 491.088 995.033 490.288 993.639 492.463C992.298 494.555 991.951 498.643 992.619 500.96C993.235 503.098 995.122 504.067 996.944 505.045L997.656 505.422L997.204 506.709Z"/>
	<path fill="#4E5252" d="M1021.65 488.879C1022.07 492.546 1018.03 496.195 1018.67 500.209Q1020.78 500.507 1022.87 500.888C1020.57 502.408 1019.22 502.901 1018.06 505.44C1018.88 510.754 1023.85 511.489 1025.75 515.416C1025.88 515.664 1025.98 515.922 1026.09 516.176Q1024.57 516.016 1023.07 515.765C1019.69 515.184 1016.93 513.602 1014.98 510.748C1012.99 507.846 1012.16 504.125 1012.85 500.668C1013.96 495.088 1017.03 491.844 1021.65 488.879Z"/>
	<path fill="#474F4A" d="M1000.09 489.719C1002.58 487.67 1004.99 485.096 1008.36 484.896C1009.66 485.363 1010.56 485.354 1011.19 486.657C1012.52 489.426 1011.4 492.814 1010.33 495.501C1008.8 499.339 1006.56 504.226 1002.41 505.747C1000.79 506.343 998.915 506.501 997.204 506.709L997.656 505.422C999.71 504.879 1000.92 505.022 1001.97 503.041C1003.75 499.685 1001.68 494.152 1000.49 490.797Q1000.3 490.254 1000.09 489.719Z"/>
	<path fill="#4E5252" d="M922.579 489.406C924.644 489.572 925.764 489.689 927.416 490.987C931.616 497.447 929.675 509.646 929.639 517.191C927.573 516.955 926.176 516.752 924.392 515.648C920.077 509.435 923.777 497.052 922.579 489.406Z"/>
	<path fill="#4E5252" d="M976.246 475.329C976.474 475.418 976.708 475.494 976.931 475.597C985.931 479.774 978.343 504.281 981.676 512.854C982.277 514.398 983.443 514.476 984.897 515.109L982.03 516.567C979.351 516.072 976.449 515.881 974.281 514.126C977.588 503.272 973.496 480.86 974.658 477.516C974.875 476.893 975.829 475.903 976.246 475.329Z"/>
	<path fill="#4E5252" d="M968.996 488.697L969.752 488.918L970.109 489.908C968.163 490.71 966.489 491.688 965.24 493.44C962.633 497.096 961.733 503.206 962.586 507.559C963.411 511.77 966.534 513.944 969.804 516.242C962.084 519.846 957.651 506.028 953.325 505.105C952.484 508.007 953.172 511.605 953.421 514.614C953.34 515.569 952.968 515.85 952.43 516.619L950.125 516.505C948.932 515.751 947.846 514.86 947.222 513.559C945.141 509.219 945.85 495.245 947.203 490.422L948.29 489.826C951.91 492.809 953.971 498.924 955.936 503.164C956.778 500.566 957.57 497.69 958.927 495.314C961.272 491.209 964.688 489.908 968.996 488.697Z"/>
	<path fill="#4E5252" d="M987.842 507.909C994.108 514.706 1003.75 509.784 1010.96 514.877C1012.96 516.296 1013.07 517.225 1013.39 519.467C1012.32 523.534 1008.18 526.914 1004.99 529.41C1004.57 529.526 1004.15 529.639 1003.72 529.736C999.528 530.687 990.538 531.997 986.773 529.708C983.901 523.472 988.943 520.674 988.5 515.217C988.216 511.724 986.646 512.857 987.842 507.909ZM992.388 516.63C990.82 518.911 990.001 520.334 989.867 523.215C990.813 525.565 991.171 526.461 993.553 527.704C996.874 529.436 1001.9 528.945 1005.38 528.063C1007.05 525.994 1008.62 524.309 1009 521.571C1008.39 519.484 1008.21 518.553 1006.06 517.552C1002.12 515.724 996.609 516.305 992.388 516.63Z"/>
	<path fill="#4E5252" d="M765.923 478.933L770.614 479.186C778.559 485.488 770.342 504.108 773.257 513.199C773.969 515.419 774.856 516.604 776.919 517.677C779.32 518.055 781.002 517.71 782.98 516.22C785.267 514.497 786.843 511.668 787.09 508.814C787.437 504.809 785.62 502.075 783.049 499.307C781.924 498.096 785.903 487.349 781.774 480.302L781.253 479.425C783.521 479.078 786.108 480.961 788.183 481.965C789.74 484.389 790.612 486.051 791.001 488.965C790.014 492.061 788.608 492.765 786.164 494.834C786.071 495.084 785.371 496.747 785.408 496.86C786.289 499.605 792.967 502.059 794.309 506.166C794.864 507.865 794.656 509.175 793.845 510.732C791.837 514.587 785.048 517.363 781.08 518.526C777.842 519.475 773.774 519.908 770.767 518.045C764.446 514.131 767.521 497.589 767.465 491.401C767.426 487.134 766.857 483.091 765.923 478.933Z"/>
	<path fill="#4E5252" d="M902.483 516.99C899.53 516.095 896.172 515.486 894.62 512.558C889.551 502.997 897.137 492.987 891.797 478.927C893.396 477.895 894.62 478.383 896.482 478.546C898.67 480.296 899.082 482.519 899.38 485.161Q899.628 487.497 899.759 489.842C899.97 489.951 900.179 490.067 900.393 490.169C904.667 492.202 915.733 488.657 918.985 497.41C920.357 501.104 919.513 506.495 917.694 509.932C915.99 513.152 913.185 515.835 909.626 516.866C907.47 517.49 904.637 517.575 902.483 516.99ZM902.483 516.99C904.564 516.592 906.713 516.224 908.465 514.951C911.167 512.988 912.982 509.686 913.546 506.428C914.483 501.017 912.935 496.338 909.791 491.999C907.583 491.47 905.381 491.564 903.125 491.563C901.141 492.631 900.341 493.101 899.464 495.335C897.025 501.544 899.65 511.321 902.483 516.99Z"/>
	<path fill="#4E5252" d="M879.842 478.159C882.23 478.119 883.92 478.07 886.15 479.105C889.868 487.697 888.891 506.963 887.501 516.298C882.01 516.476 875.725 518.413 870.393 516.752C865.815 515.326 864.019 511.235 862.08 507.278C859.779 509.919 857.408 512.937 854.63 515.07C852.088 517.022 848.672 518.558 845.419 517.964C840.318 517.032 837.382 512.962 834.729 508.915C831.837 511.555 826.565 517.306 822.706 517.506L822.191 516.487Q822.818 515.166 823.426 513.836C825.561 509.153 828.075 503.88 825.9 498.737Q825.695 498.241 825.44 497.769Q825.184 497.296 824.881 496.853Q824.578 496.41 824.231 496Q823.884 495.59 823.497 495.219Q823.109 494.847 822.686 494.518Q822.262 494.188 821.806 493.904Q821.35 493.62 820.868 493.385Q820.385 493.15 819.881 492.966C818.763 492.568 817.379 492.297 816.292 492.833C814.403 493.763 812.972 496.997 812.336 498.924C809.932 506.208 813.015 512.539 816.195 518.973C812.937 516.875 807.809 512 804.24 511.587C803.436 513.276 803.263 514.475 803.184 516.346L803.163 516.988C801.029 518.152 800.549 517.967 798.089 517.714C794.465 514.047 797.095 494.183 796.928 488.316C796.832 484.941 796.134 481.487 795.533 478.169C797.328 478.151 798.872 478.325 800.621 478.73C804.636 482.759 802.439 494.979 803.552 500.836C808.44 500.916 811.076 493.721 814.659 490.923C816.193 489.725 817.977 488.914 819.963 489.341C825.694 490.572 830.562 497.886 833.22 502.662C835.266 499.231 837.568 495.149 840.685 492.57C842.141 491.365 843.27 491.206 845.077 491.297C843.897 493.403 842.71 495.524 841.684 497.711C839.827 501.669 837.609 507.932 839.492 512.228C840.16 513.753 841.479 515.053 843.052 515.621C845.692 516.575 848.273 516.543 850.862 515.507C857.563 509.841 852.305 499.633 853.018 492.263L854.477 492.734C857.871 495.966 859.411 499.395 861.243 503.601C862.753 499.966 864.465 495.262 867.673 492.822C869.35 491.546 870.779 490.953 872.832 491.174C869.905 496.534 867.14 502.746 867.56 508.993C867.7 511.074 868.189 513.166 869.928 514.504C872.529 516.503 876.357 515.948 879.369 515.548C879.789 515.128 880.02 514.957 880.316 514.475C883.807 508.793 881.439 484.812 879.842 478.159Z"/>
	<path fill="#DFB39D" d="M241.368 628.822C217.141 624.385 197.718 617.051 178.708 600.932C140.422 568.469 121.616 517.721 117.536 468.765C110.467 383.955 146.325 303.085 200.355 239.374C272.555 154.239 408.313 78.5133 520.24 69.6535C566.427 65.9974 601.949 75.7292 637.315 105.899Q595.532 105.458 553.758 104.506C518.465 103.802 426.125 97.1555 401.179 121.951C390.441 132.625 388.436 147.838 388.569 162.289C388.885 196.543 392.061 231.209 393.669 265.477C386.55 262.735 377.678 259.007 370.153 262.303C366.764 263.788 364.76 266.381 363.58 269.805C359.871 280.567 360.585 293.141 360.023 304.388C359.201 320.828 357.214 338.945 351.533 354.506C346.262 368.945 335.976 380.615 330.112 394.64C317.718 424.286 312.497 455.601 296.432 484.091C284.392 505.444 261.849 520.88 253.511 544.273C244.724 568.926 245.994 602.007 241.368 628.822Z"/>
	<path fill="#DFB39D" d="M1015.97 361.749C1009.38 333.777 1006.6 304.764 997.172 277.51C981.421 231.97 933.314 183.311 963.471 134.186C990.706 89.8205 1062.93 70.1682 1111.15 58.8258C1243.21 27.767 1380.95 35.067 1498.41 107.914C1593.02 166.596 1667.92 262.775 1693.32 372.074C1709.73 442.655 1700.76 517.351 1661.99 579.188C1641.69 611.581 1615.01 638.08 1583.08 658.975C1576.24 663.452 1568.22 669.149 1560.19 670.976C1559.74 671.076 1559.24 671.121 1558.79 671.174C1560.61 658.35 1552.38 639.216 1550.15 625.981C1546.57 604.78 1546.97 583.058 1543.53 561.825C1542.46 555.196 1540.89 548.404 1538.21 542.228C1528.34 519.498 1507.48 503.188 1494.99 481.976C1477.75 452.709 1475.9 425.618 1463.68 396.552C1457.51 381.889 1446.5 369.736 1441.08 354.542C1432.28 329.886 1435.38 304.545 1430.08 279.523C1428.96 274.218 1427.14 266.283 1422.14 263.3C1414.64 258.823 1403.04 262.752 1395.24 264.567C1396 263.718 1396.69 262.817 1397.1 261.745C1400.05 254.189 1403.4 167.438 1402.86 155.945C1402.55 149.178 1401.72 142.439 1399.1 136.13C1394.66 125.42 1386.32 118.667 1375.76 114.353C1364.35 109.686 1351.39 107.478 1339.16 106.361C1303.47 103.102 1120.86 102.134 1098.42 111.984C1071.3 123.883 1072.17 166.99 1071.17 191.837C1070.83 200.397 1071.19 210.494 1067.82 218.51L1067.44 219.394C1065.53 216.762 1063.04 214.935 1060.27 213.277C1053.13 208.998 1043.47 207.259 1035.37 209.457C1029.51 211.048 1023.71 216.048 1020.8 221.329C1010.53 239.948 1032.28 271.319 1043.23 285.66C1049.29 293.594 1059.61 303.235 1062.28 312.877C1064.87 322.221 1061.33 370.116 1056.83 377.86C1056.62 377.16 1056.39 376.655 1055.87 376.127C1045.97 366.021 1029.72 361.914 1015.97 361.749Z"/>
	<path fill="#474F4A" d="M393.669 265.477C392.061 231.209 388.885 196.543 388.569 162.289C388.436 147.838 390.441 132.625 401.179 121.951C426.125 97.1555 518.465 103.802 553.758 104.506Q595.532 105.458 637.315 105.899C658.406 106.459 690.417 104.512 706.311 121.014C725.22 140.645 723.239 189.926 725.297 216.404C734.796 211.711 744.343 207.047 755.101 210.662C761.756 212.898 768.045 217.764 771.04 224.213C775.141 233.043 772.925 243.333 769.588 252.02C761.717 272.509 746.522 292.499 731.325 308.111C731.663 330.894 731.929 354.978 734.832 377.567C747.805 370.524 763.402 359.99 778.754 364.677C785.116 366.619 790.21 371.013 793.304 376.879C797.434 384.709 797.557 394.295 794.839 402.602C787.478 425.098 757.952 446.877 739.395 459.816C740.072 483.113 739.847 507.804 742.737 530.914C748.106 532.784 752.442 534.4 756.766 538.26C765.677 546.216 770.278 557.659 778.385 566.258C786.879 575.269 802.428 581.141 807.823 592.404C810.023 596.998 809.679 601.899 807.965 606.584C804.328 616.529 796.356 622.623 786.993 626.876Q784.752 627.898 782.417 628.68C791.661 633.054 808.272 638.986 811.619 649.474C812.847 653.322 811.467 657.304 809.522 660.646C803.763 670.54 792.34 679.486 781.153 682.198C770.145 684.867 758.588 681.319 748.36 677.396C749.671 699.875 753.055 741.106 737.303 758.696C730.689 766.082 721 770.274 711.706 773.202C691.221 779.656 669.068 781.819 647.841 784.655C615.525 788.973 583.006 792.691 550.949 798.67C541.772 807.799 532.655 816.721 521.969 824.119C507.307 834.27 491.297 842.245 477.02 852.996C454.762 869.759 436.578 890.757 411.585 903.912C387.369 916.657 360.39 921.592 336.953 936.044Q325.355 943.268 314.744 951.877C306.753 958.346 296.717 970.045 287.203 973.674L286.076 972.798C288.821 962.836 330.157 934.21 341.109 928C363.612 915.241 389.315 910.058 412.056 897.791C436.864 884.408 455.658 862.543 478.097 845.825C490.095 836.887 503.576 829.992 516.102 821.83C525.581 815.653 534.189 808.306 542.647 800.821C514.051 807.906 472.939 819.172 445.822 802.718C431.405 793.969 424.285 778.688 420.554 762.867C416.152 744.203 415.994 724.671 415.881 705.586C409.706 720.546 387.979 774.472 375.766 780.485C375.584 780.575 375.384 780.623 375.193 780.692L373.366 779.391C373.367 779.388 373.369 779.385 373.37 779.382C373.452 779.143 373.532 778.903 373.616 778.665C376.606 770.254 383.43 762.98 388.167 755.508C392.123 749.268 395.409 742.351 398.467 735.631C425.048 677.212 436.106 598.006 408.515 537.869C404.895 529.979 400.424 522.603 395.724 515.321C395.145 522.804 394.624 530.204 395.004 537.711C395.267 542.925 396.55 548.686 396.042 553.853C395.818 556.133 395.056 558.097 394.03 560.131L392.79 560.506C388.616 553.855 390.779 541.903 389.288 534.2C367.452 571.839 319.644 613.881 277.214 625.211C266.702 628.017 256.534 628.791 245.7 628.722C240.501 654.862 233.132 681.429 222.113 705.74C216.346 718.466 209.201 730.019 200.771 741.148C187.144 759.138 126.149 825.031 109.486 831.269L108.436 830.665C109.326 827.606 111.335 825.006 113.563 822.772C117.965 818.359 123.578 814.639 128.282 810.469C137.446 802.344 146.236 793.703 154.903 785.054C174.394 765.601 194.489 744.321 208.736 720.676C225.303 693.182 233.984 659.869 241.368 628.822C245.994 602.007 244.724 568.926 253.511 544.273C261.849 520.88 284.392 505.444 296.432 484.091C312.497 455.601 317.718 424.286 330.112 394.64C335.976 380.615 346.262 368.945 351.533 354.506C357.214 338.945 359.201 320.828 360.023 304.388C360.585 293.141 359.871 280.567 363.58 269.805C364.76 266.381 366.764 263.788 370.153 262.303C377.678 259.007 386.55 262.735 393.669 265.477ZM435.61 425.6C438.648 421.439 441.958 417.543 445.291 413.619C448.462 445.524 449.084 477.786 450.535 509.811L457.845 678.029C458.993 704.236 457.666 742.153 461.64 766.673C462.746 773.5 465.188 778.04 469.595 783.304C474.838 788.403 482.198 791.233 489.467 791.335C499.691 791.478 510.632 789.515 520.782 788.091C544.232 784.801 567.519 780.418 590.943 776.954C626.764 771.657 665.062 770.413 699.85 760.22C709.282 757.456 716.498 753.204 723.477 746.407C730.096 738.63 733.204 728.275 734.488 718.301C738.92 683.863 734.461 642.936 732.607 607.899L724.487 455.373L714.042 267.371C712.206 236.747 711.711 205.59 707.844 175.155C706.469 164.34 704.721 151.922 697.821 143.136C687.101 129.484 668.976 127.993 653.036 126.223C649.526 120.968 645.528 115.97 641.72 110.924C615.926 108.529 590.156 109.488 564.299 108.923C527.495 108.119 487.501 104.158 451.101 110.416C442.399 111.912 433.826 114.709 426.977 120.484C419.031 127.183 415.538 136.06 414.771 146.241C413.605 161.721 416.977 178.114 417.968 193.641C419.666 220.262 421.078 246.879 423.582 273.441C426.214 301.351 429.943 329.183 432.08 357.136C432.791 366.429 433.686 422.479 435.61 425.6ZM641.72 110.924C645.528 115.97 649.526 120.968 653.036 126.223C668.976 127.993 687.101 129.484 697.821 143.136C704.721 151.922 706.469 164.34 707.844 175.155C711.711 205.59 712.206 236.747 714.042 267.371L724.487 455.373L732.607 607.899C734.461 642.936 738.92 683.863 734.488 718.301C733.204 728.275 730.096 738.63 723.477 746.407C716.498 753.204 709.282 757.456 699.85 760.22C665.062 770.413 626.764 771.657 590.943 776.954C567.519 780.418 544.232 784.801 520.782 788.091C510.632 789.515 499.691 791.478 489.467 791.335C482.198 791.233 474.838 788.403 469.595 783.304C465.188 778.04 462.746 773.5 461.64 766.673C457.666 742.153 458.993 704.236 457.845 678.029L450.535 509.811C449.084 477.786 448.462 445.524 445.291 413.619C441.958 417.543 438.648 421.439 435.61 425.6C435.526 425.887 435.412 426.166 435.357 426.46C433.889 434.348 435.983 448.355 436.373 456.839C438.181 496.169 441.745 535.445 443.325 574.756C444.773 610.764 446.409 647.038 446.916 683.058C447.271 708.268 445.603 734.499 448.747 759.494C450.237 771.34 453.544 783.683 461.788 792.69C468.997 800.565 479.103 804.116 489.602 804.486C517.544 805.47 550.822 793.666 579.206 789.154C620.11 782.651 662.793 780.812 702.964 770.732C713.237 768.154 724.548 764.666 732.339 757.161C743.916 746.009 744.712 722 744.833 706.898C745.093 674.571 742.546 641.869 741.38 609.537Q736.309 485.081 729.254 360.722L722.75 251.836C721.231 222.003 720.943 191.821 716.325 162.258C714.234 148.869 711.238 132.321 701.205 122.442C687.49 108.937 659.6 110.875 641.72 110.924ZM734.826 383.253C736.824 406.973 738.137 431.161 738.615 454.96C755.914 440.938 772.693 427.3 786.644 409.766C786.456 402.839 785.946 396.072 785.122 389.192L788.799 388.306C789.495 391.384 789.658 394.474 791.779 396.855C793.293 395.022 792.609 391.058 792.381 388.677C791.781 382.392 788.317 376.167 783.381 372.193C779.014 368.677 773.669 367.59 768.174 368.237C756.49 369.614 744.691 377.195 734.826 383.253ZM743.597 536.261C741.176 557.699 745.078 594.682 746.513 617.22C758.959 622.396 772.441 627.765 785.758 622.172C791.331 619.832 795.511 616.148 799.375 611.568C800.95 608.923 802.667 606.29 804.091 603.564C798.144 597.54 769.677 575.359 769.567 568.994C771.73 568.806 772.806 569.715 774.659 570.696C775.014 569.898 775.231 569.915 774.876 569.05C770.409 558.177 754.336 540.959 743.597 536.261ZM740.111 214.281C735.294 216.795 730.353 219.18 725.882 222.285C727.197 248.859 727.94 275.666 730.683 302.136C734.45 297.563 738.336 293.044 741.965 288.362C753.137 272.833 771.265 251.115 767.784 230.678C766.948 225.772 764.798 221.401 760.631 218.514C754.758 214.445 747.023 213.717 740.111 214.281ZM746.548 622.548C747.339 639.371 748.383 656.233 748.401 673.077C762.266 677.501 775.556 681.045 789.333 673.925C791.999 672.547 794.269 670.807 796.556 668.883C800.312 664.698 803.33 660.412 805.998 655.459C798.558 651.59 791.172 647.473 784.292 642.665C777.546 637.95 771.03 632.191 763.655 628.487C758.392 625.844 752.214 624.154 746.548 622.548ZM413.739 487.042C408.587 489.608 403.386 492.086 398.495 495.134L396.799 506.119Q404.413 519.618 412.416 532.89L417.807 542.789C417.086 531.33 416.948 495.351 413.739 487.042ZM411.097 447.086C408.432 454.03 398.28 481.548 400.347 487.57L401.909 487.428L414.296 481.736C413.885 471.741 415.086 456.17 411.097 447.086Z"/>
	<path fill="#DFB39D" d="M368.924 268.022Q369.558 268.367 370.181 268.731C376.521 272.439 379.886 278.612 381.652 285.596C385.261 299.868 383.336 315.609 375.814 328.219C373.586 329.008 370.318 330.03 367.914 329.722C365.602 329.427 365.114 328.712 363.854 326.972C363.249 318.585 366.699 275.05 368.924 268.022Z"/>
	<path fill="#4E5252" d="M785.122 389.192C782.74 383.511 773.693 375.996 774.444 369.936L776.122 369.917C783.238 373.913 786.092 380.959 788.799 388.306L785.122 389.192Z"/>
	<path fill="#DFB39D" d="M361.722 333.22C363.374 333.609 365.048 334.003 366.737 334.183C371.397 334.68 375.424 333.357 378.988 330.342C391.328 319.899 389.904 293.258 384.715 279.344C383.188 275.249 377.738 270.303 378.132 266.054L379.983 265.523C387.319 267.249 394.172 270.45 399.493 275.908C407.533 284.155 410.803 296.394 413.863 307.193C431.169 368.272 413.744 405.191 399.123 463.046C393.201 486.478 389.739 510.01 389.288 534.2C367.452 571.839 319.644 613.881 277.214 625.211C266.702 628.017 256.534 628.791 245.7 628.722C254.989 602.684 247.477 572.034 258.365 545.004C265.535 527.206 281.192 514.891 292.149 499.602C311.106 473.151 320.611 440.942 329.606 410.05C336.807 410.645 343.546 413.496 350.678 411.442L350.77 410.366C344.04 407.038 338.432 406.152 331.052 405.77L335.514 395.229C340.89 395.419 349.39 398.525 354.182 396.592L353.638 395.159C348.359 391.018 343.708 391.21 337.325 390.952C349.702 372.959 356.559 354.292 361.722 333.22Z"/>
	<path fill="#4E5252" d="M435.61 425.6C433.686 422.479 432.791 366.429 432.08 357.136C429.943 329.183 426.214 301.351 423.582 273.441C421.078 246.879 419.666 220.262 417.968 193.641C416.977 178.114 413.605 161.721 414.771 146.241C415.538 136.06 419.031 127.183 426.977 120.484C433.826 114.709 442.399 111.912 451.101 110.416C487.501 104.158 527.495 108.119 564.299 108.923C590.156 109.488 615.926 108.529 641.72 110.924C645.528 115.97 649.526 120.968 653.036 126.223C668.976 127.993 687.101 129.484 697.821 143.136C704.721 151.922 706.469 164.34 707.844 175.155C711.711 205.59 712.206 236.747 714.042 267.371L724.487 455.373L732.607 607.899C734.461 642.936 738.92 683.863 734.488 718.301C733.204 728.275 730.096 738.63 723.477 746.407C716.498 753.204 709.282 757.456 699.85 760.22C665.062 770.413 626.764 771.657 590.943 776.954C567.519 780.418 544.232 784.801 520.782 788.091C510.632 789.515 499.691 791.478 489.467 791.335C482.198 791.233 474.838 788.403 469.595 783.304C465.188 778.04 462.746 773.5 461.64 766.673C457.666 742.153 458.993 704.236 457.845 678.029L450.535 509.811C449.084 477.786 448.462 445.524 445.291 413.619C441.958 417.543 438.648 421.439 435.61 425.6ZM479.985 132.628C467.979 131.362 448.758 128.153 438.73 136.527C434.27 140.251 432.208 146.54 431.846 152.175C430.642 170.937 433.653 191.084 435.208 209.849L443.524 312.038Q445.693 342.409 447.278 372.816C447.918 384.332 447.621 397.024 450.051 408.256C448.65 419.15 451.136 432.198 451.77 443.284Q453.613 477.807 455.038 512.35L462.124 675.3C463.228 702.306 462.838 729.476 465.237 756.403C465.942 764.318 466.617 772.129 471.419 778.74C475.673 782.843 481.411 786.622 487.489 786.796C502.085 787.214 516.661 784.07 530.988 781.684Q555.582 777.538 580.244 773.825C617.801 768.375 661.139 766.765 697.178 756.224C706.022 753.638 713.391 749.474 720.149 743.24C726.84 734.127 729.397 725.183 730.597 714.117C733.605 686.37 730.358 650.297 728.92 621.967L720.89 474.219L709.711 269.796C707.792 239.324 707.029 208.161 703.221 177.881C701.891 167.308 700.551 154.21 693.571 145.767C684.252 134.496 669.475 132.464 655.821 131.124C649.764 130.099 641.587 128.252 636.151 132.106C628.084 137.825 629.675 150.452 621.296 156.07C609.481 163.992 524.482 160.656 508.14 158.576C499.998 157.54 493.646 155.957 488.473 149.222C484.778 144.41 482.06 138.304 479.985 132.628Z"/>
	<path fill="#DFB39D" d="M435.61 425.6C433.686 422.479 432.791 366.429 432.08 357.136C429.943 329.183 426.214 301.351 423.582 273.441C421.078 246.879 419.666 220.262 417.968 193.641C416.977 178.114 413.605 161.721 414.771 146.241C415.538 136.06 419.031 127.183 426.977 120.484C433.826 114.709 442.399 111.912 451.101 110.416C487.501 104.158 527.495 108.119 564.299 108.923C590.156 109.488 615.926 108.529 641.72 110.924C645.528 115.97 649.526 120.968 653.036 126.223C645.09 126.38 635.258 125.821 629.278 132.071C618.141 143.71 633.108 154.425 602.432 155.589C586.912 156.178 571.255 155.72 555.721 155.68C538.412 155.635 519.386 157.286 502.46 153.196C499.152 152.396 496.868 151.109 494.381 148.767C488.72 143.435 485.774 135.224 483.036 128.099C468.568 126.771 447.481 122.907 435.48 132.931C429.802 137.672 427.937 144.182 427.386 151.323C425.475 176.068 430.04 203.153 432.16 227.932Q437.704 291.653 441.953 355.474C443.197 374.645 445.376 394.436 445.291 413.619C441.958 417.543 438.648 421.439 435.61 425.6Z"/>
	<path fill="#4E5252" d="M605.475 136.289C607.246 136.645 608.736 137.332 610.372 138.084C611.386 140.43 610.809 141.479 610.276 143.843C608.881 143.87 607.735 143.188 606.501 142.613C605.161 140.162 605.376 139.008 605.475 136.289Z"/>
	<path fill="#4E5252" d="M559.589 137.297C565.31 137.096 571.114 137.343 576.838 137.472C582.341 137.595 592.975 137.093 596.852 141.151C590.969 144.331 580.518 143.14 574.006 143.097C564.907 143.099 541.565 144.947 534.565 140.774L534.153 139.034C537.324 136.335 554.45 137.398 559.589 137.297Z"/>
	<path fill="#4E5252" d="M598.084 710.381C602.227 710.154 606.608 709.995 610.574 711.377C616.723 713.52 621.819 717.761 624.571 723.713Q624.813 724.24 625.028 724.779Q625.244 725.317 625.432 725.866Q625.621 726.414 625.783 726.972Q625.944 727.529 626.078 728.093Q626.212 728.658 626.317 729.228Q626.423 729.798 626.501 730.373Q626.578 730.948 626.628 731.526Q626.677 732.104 626.698 732.684Q626.718 733.263 626.71 733.843Q626.702 734.423 626.666 735.002Q626.629 735.581 626.564 736.158Q626.499 736.734 626.406 737.307Q626.313 737.879 626.191 738.446Q626.07 739.014 625.921 739.574Q625.772 740.135 625.595 740.687Q625.419 741.24 625.215 741.783C622.105 749.885 616.287 753.765 608.625 757.087C604.117 757.43 599.65 757.333 595.372 755.722Q594.83 755.52 594.299 755.292Q593.768 755.063 593.249 754.809Q592.73 754.554 592.224 754.274Q591.718 753.994 591.227 753.689Q590.735 753.385 590.26 753.056Q589.784 752.727 589.325 752.376Q588.866 752.024 588.425 751.65Q587.985 751.276 587.563 750.88Q587.141 750.485 586.739 750.069Q586.338 749.653 585.957 749.218Q585.577 748.782 585.218 748.329Q584.859 747.875 584.524 747.404Q584.188 746.934 583.876 746.447Q583.564 745.96 583.277 745.458Q582.989 744.956 582.727 744.441Q582.464 743.926 582.228 743.398Q581.994 742.868 581.786 742.326Q581.578 741.785 581.396 741.235Q581.215 740.684 581.061 740.125Q580.907 739.566 580.78 739Q580.653 738.435 580.554 737.863Q580.455 737.292 580.384 736.717Q580.313 736.141 580.271 735.563Q580.228 734.985 580.214 734.405Q580.199 733.825 580.213 733.246Q580.227 732.666 580.269 732.088Q580.311 731.51 580.382 730.934Q580.452 730.359 580.551 729.787Q580.649 729.216 580.775 728.65Q580.901 728.084 581.055 727.525Q581.209 726.966 581.39 726.415Q581.57 725.864 581.778 725.323C584.851 717.464 590.622 713.583 598.084 710.381ZM600.129 714.639C593.909 717.348 589.44 720.263 586.863 726.808Q586.682 727.264 586.523 727.728Q586.365 728.192 586.23 728.663Q586.095 729.135 585.983 729.612Q585.871 730.09 585.784 730.572Q585.696 731.055 585.632 731.541Q585.568 732.027 585.529 732.516Q585.489 733.005 585.474 733.495Q585.459 733.985 585.468 734.475Q585.477 734.966 585.511 735.455Q585.544 735.944 585.602 736.431Q585.66 736.918 585.742 737.402Q585.824 737.885 585.929 738.364Q586.035 738.843 586.165 739.316Q586.294 739.789 586.447 740.255Q586.599 740.721 586.775 741.179Q586.951 741.636 587.149 742.085Q587.511 742.893 587.952 743.66Q588.392 744.427 588.907 745.147Q589.422 745.867 590.006 746.532Q590.59 747.197 591.237 747.8Q591.884 748.403 592.588 748.939Q593.292 749.475 594.046 749.939Q594.8 750.402 595.596 750.788Q596.392 751.173 597.223 751.478C600.746 752.795 604.345 752.836 608.033 752.436C614.266 749.242 618.777 745.641 620.901 738.708C622.381 733.879 621.959 728.42 619.437 724.001C616.893 719.541 612.435 716.477 607.505 715.197C605.178 714.593 602.517 714.54 600.129 714.639Z"/>
	<path fill="#4E5252" d="M677.976 277.265C680.506 269.107 672.719 248.936 678.597 240.942L679.76 241.174C683.395 247.335 681.827 258.133 682.714 265.253L682.814 266.024C682.768 266.251 682.72 266.477 682.677 266.705C680.896 276.186 683.547 293.549 684.118 303.825Q686.33 346.176 689.336 388.477C690.397 404.047 697.014 471.04 693.687 482.593C691.925 483.657 690.557 483.747 688.561 483.869C666.733 485.205 644.705 484.94 622.834 485.779L478.35 491.558C475.106 457.255 472.911 422.553 468.853 388.359C467.176 376.329 466.89 364.21 465.781 352.128C464.804 341.485 458.406 301.304 462.474 293.959C469.124 303.527 471.601 368.612 473.008 385.067C472.904 394.716 474.834 405.286 475.721 414.956C477.919 438.941 480.423 463.012 481.84 487.053C551.329 484.946 621.215 483.65 690.59 479.014C690.288 460.514 688.578 441.914 687.366 423.454L681.528 332.53C680.818 321.247 680.365 284.985 677.976 277.265Z"/>
	<path fill="#4E5252" d="M688.41 525.904C691.029 526.44 693.17 526.492 694.963 528.773C698.548 533.332 700.145 573.579 698.832 580.047C698.304 582.646 697.617 583.995 695.646 585.732C673.835 589.739 650.178 589.138 627.998 590.772Q580.475 594.573 532.903 597.707C518.379 598.579 502.408 600.55 487.937 598.97C482.87 583.584 483.095 556.926 483.477 540.271C485.974 538.327 667.676 528.851 688.41 525.904ZM690.607 530.065C663.486 534.259 635.48 533.787 608.126 535.56C567.956 538.164 527.761 542.258 487.51 543.143C487.727 560.586 489.372 578.202 490.71 595.601C522.919 595.854 555.638 591.697 587.788 589.621C623.251 587.331 659.92 586.94 695.089 582.047C695.022 567.853 694.11 553.196 692.902 539.042C692.652 536.106 692.856 531.961 690.607 530.065Z"/>
	<path fill="#4E5252" d="M571.498 559.414C573.21 559.651 574.865 560.134 576.534 560.572C578.3 562.801 578.098 563.909 578.265 566.664C576.715 566.837 575.148 566.322 573.643 565.982C571.857 563.65 571.912 562.282 571.498 559.414Z"/>
	<path fill="#474F4A" d="M598.937 556.564C600.445 557.052 601.595 557.927 602.874 558.829C603.747 561.789 603.128 563.14 602.425 566.103C601.007 565.182 599.642 564.156 598.262 563.178C597.375 560.443 598.111 559.238 598.937 556.564Z"/>
	<path fill="#4E5252" d="M532.013 561.991C533.763 562.393 535.032 562.974 536.588 563.861C537.831 566.632 537.362 567.844 536.965 570.807C535.498 570.266 534.093 569.565 532.676 568.903C531.331 566.247 531.767 564.915 532.013 561.991Z"/>
	<path fill="#4E5252" d="M585.511 557.452C587.139 557.851 588.502 558.612 589.977 559.389C591.261 562.253 590.754 563.775 590.41 566.853C588.878 566.195 587.438 565.255 586 564.41C584.769 561.763 585.23 560.32 585.511 557.452Z"/>
	<path fill="#4E5252" d="M559.486 560.118C561.259 560.572 562.675 561.194 564.292 562.046C565.414 564.482 564.909 566.045 564.65 568.65C562.727 568.226 561.282 567.636 559.58 566.648C558.514 564.078 559.02 562.792 559.486 560.118Z"/>
	<path fill="#4E5252" d="M546.86 561.988C547.068 561.968 547.275 561.913 547.483 561.929C549.452 562.073 550.228 562.692 551.307 564.206C551.404 566.627 551.02 567.746 549.648 569.734L543.998 566.585L543.847 565.133L546.86 561.988Z"/>
	<path fill="#4E5252" d="M694.496 604.823C697.261 604.476 700.399 603.939 702.95 605.409C705.266 606.744 705.823 608.31 706.435 610.769C708.522 619.156 711.099 662.501 707.061 669.152C694.465 673.085 666.356 673.768 651.694 674.918C604.796 678.598 557.663 680.941 510.84 685.3C506.876 685.512 501.796 686.286 498.099 684.539C496.533 683.799 495.842 682.755 495.261 681.103C492.168 672.31 489.992 628.219 494.023 619.977C497.129 617.968 501.496 617.671 505.122 617.275C524.163 615.195 543.654 615.002 562.786 613.757L694.496 604.823ZM686.798 609.403L564.119 617.8C541.568 619.17 517.792 618.484 495.606 622.665Q496.479 651.968 498.903 681.184L512.959 680.723L641.452 671.378C662.555 669.8 684.787 669.422 705.614 665.834C705.019 646.894 703.945 627.741 702.453 608.85C697.242 608.893 691.977 608.77 686.798 609.403Z"/>
	<path fill="#4E5252" d="M558.148 636.877C559.846 637.338 562.194 638.257 563.435 639.543C564.721 640.875 565.201 642.03 565.075 643.91C564.898 646.536 562.292 648.591 560.505 650.265C559.468 649.794 558.405 649.322 557.424 648.741C555.141 647.39 554.563 646.02 553.913 643.646C554.463 640.565 556.081 639.038 558.148 636.877Z"/>
	<path fill="#4E5252" d="M586.602 635.019C587.963 635.197 589.671 635.301 590.952 635.791C593.268 636.678 593.842 637.545 594.978 639.576C595.2 642.649 593.766 644.632 592.226 647.129C590.95 647.056 589.243 647.083 588.037 646.662C585.613 645.814 585.132 644.862 584.054 642.735C583.882 639.524 585.045 637.707 586.602 635.019Z"/>
	<path fill="#4E5252" d="M617.105 632.345C618.265 632.676 619.762 633.006 620.822 633.616C623.131 634.944 623.547 635.831 624.419 638.19C624.283 641.335 622.714 643.193 620.921 645.637C619.509 645.22 617.664 644.825 616.395 644.084C614.297 642.858 613.991 641.824 613.325 639.667C613.683 636.488 615.186 634.775 617.105 632.345Z"/>
	<path fill="#4E5252" d="M560.51 412.854C561.957 412.712 563.344 412.573 564.774 412.925C566.429 413.332 566.913 413.338 567.744 414.793C560.533 419.835 513.798 419.39 502.766 419.598C500.591 419.732 498.684 419.533 496.54 419.162L495.925 418.118C504.818 412.291 547.668 413.3 560.51 412.854Z"/>
	<path fill="#4E5252" d="M563.77 401.399Q567.565 401.032 571.371 400.81C574.83 400.627 580.819 400.324 583.553 402.764C577.41 407.551 524.874 407.609 514.763 407.939C509.655 408.136 498.235 409.384 494.212 406.026L494.619 405.289C509.544 400.357 546.533 402.193 563.77 401.399Z"/>
	<path fill="#4E5252" d="M491.041 366.212C511.685 365.255 629.874 357.856 641.358 362.165L641.508 363.297C639.482 364.76 637.31 364.992 634.877 365.228C623.752 366.308 612.128 365.948 600.935 366.221Q567.57 367.116 534.221 368.493C518.659 369.111 502.276 369.29 486.875 371.585C487.872 368.603 488.508 367.925 491.041 366.212Z"/>
	<path fill="#4E5252" d="M511.67 353.479L512.492 353.566C529.525 355.25 635.834 347.844 640.476 351.725C628.59 357.871 546.626 357.536 529.131 358.025C519.906 358.283 509.377 357.764 500.41 359.719C495.372 359.945 490.958 360.482 486.331 358.142L486.396 357.094C493.506 354.028 507.506 356.017 511.67 353.479Z"/>
	<path fill="#DFB39D" d="M479.985 132.628C482.06 138.304 484.778 144.41 488.473 149.222C493.646 155.957 499.998 157.54 508.14 158.576C524.482 160.656 609.481 163.992 621.296 156.07C629.675 150.452 628.084 137.825 636.151 132.106C641.587 128.252 649.764 130.099 655.821 131.124C660.509 142.938 667.474 153.731 672.452 165.446C682.707 189.581 696.226 237.419 684.65 262.845C684.141 263.962 683.499 265.008 682.814 266.024L682.714 265.253C681.827 258.133 683.395 247.335 679.76 241.174L678.597 240.942C672.719 248.936 680.506 269.107 677.976 277.265C661.081 289.534 643.43 298.596 624.641 307.487C632.004 307.167 645.276 305.064 651.743 308.424L651.793 309.81C643.965 316.132 626.113 310.426 616.783 312.52C613.555 314.063 608.843 315.669 606.459 318.294C614.727 317.928 642.473 314.864 648.641 319.406L648.441 320.774C640.189 325.335 596.863 323.382 585 324.052C559.838 332.226 534.825 340.405 511.67 353.479C507.506 356.017 493.506 354.028 486.396 357.094L486.331 358.142C490.958 360.482 495.372 359.945 500.41 359.719C497.142 361.726 493.898 363.633 491.041 366.212C488.508 367.925 487.872 368.603 486.875 371.585C483.766 376.786 477.285 380.697 473.008 385.067C471.601 368.612 469.124 303.527 462.474 293.959C458.406 301.304 464.804 341.485 465.781 352.128C466.89 364.21 467.176 376.329 468.853 388.359C462.099 394.602 456.101 401.349 450.051 408.256C447.621 397.024 447.918 384.332 447.278 372.816Q445.693 342.409 443.524 312.038L435.208 209.849C433.653 191.084 430.642 170.937 431.846 152.175C432.208 146.54 434.27 140.251 438.73 136.527C448.758 128.153 467.979 131.362 479.985 132.628Z"/>
	<path fill="#4E5252" d="M624.641 307.487C632.004 307.167 645.276 305.064 651.743 308.424L651.793 309.81C643.965 316.132 626.113 310.426 616.783 312.52C597.245 312.139 488.886 317.87 480.761 313.388L480.929 312.461C495.039 308.065 513.119 310.422 527.853 310.054C549.277 309.519 570.732 308.5 592.163 308.55C600.378 308.569 616.891 310.336 624.208 307.661C624.354 307.608 624.496 307.545 624.641 307.487Z"/>
	<path fill="#4E5252" d="M606.459 318.294C614.727 317.928 642.473 314.864 648.641 319.406L648.441 320.774C640.189 325.335 596.863 323.382 585 324.052C566.379 321.478 494.271 329.054 483.532 324.448C482.793 324.131 483.112 324.308 482.718 323.284C484.094 321.665 485.228 321.539 487.295 321.283C496.779 320.107 507.043 320.482 516.616 320.278L581.415 319.461C588.524 319.371 599.864 320.579 606.459 318.294Z"/>
	<path fill="#4E5252" d="M562.629 198.41C572.314 197.823 581.382 197.885 590.355 202.15Q591.318 202.607 592.257 203.112Q593.196 203.617 594.109 204.167Q595.022 204.718 595.907 205.313Q596.791 205.908 597.645 206.546Q598.5 207.184 599.321 207.864Q600.142 208.544 600.929 209.263Q601.716 209.983 602.466 210.74Q603.216 211.498 603.928 212.292Q604.639 213.086 605.311 213.914Q605.982 214.742 606.612 215.603Q607.242 216.463 607.828 217.354Q608.414 218.245 608.955 219.163Q609.497 220.082 609.992 221.026Q610.487 221.97 610.935 222.938Q611.383 223.905 611.783 224.894Q612.182 225.883 612.532 226.89C615.678 236.225 615.055 246.93 610.574 255.73C604.804 267.061 594.792 272.6 583.148 276.3C574.934 277.419 566.922 277.304 559.063 274.385Q558.099 274.027 557.154 273.621Q556.21 273.215 555.286 272.763Q554.363 272.31 553.463 271.812Q552.563 271.315 551.689 270.773Q550.815 270.231 549.969 269.646Q549.123 269.061 548.307 268.435Q547.492 267.809 546.708 267.143Q545.924 266.477 545.175 265.773Q544.425 265.069 543.712 264.328Q542.998 263.587 542.323 262.812Q541.647 262.037 541.01 261.229Q540.374 260.421 539.779 259.583Q539.183 258.744 538.63 257.877Q538.077 257.01 537.568 256.116Q537.059 255.223 536.595 254.305Q536.131 253.387 535.713 252.447C531.502 242.971 531.008 231.915 534.951 222.265C540.176 209.477 550.573 203.528 562.629 198.41Z"/>
	<path fill="#DFB39D" d="M552.571 251.47C559.873 246.535 567.166 243.134 576.19 244.913C581.75 246.008 586.783 248.976 591.125 252.529L591.121 254.142C585.55 257.376 565.675 257.061 558.809 256.616C556.04 256.437 553.171 256.33 551.278 254.209L552.571 251.47Z"/>
	<path fill="#DFB39D" d="M548.184 250.746C547.339 253.437 547.075 256.621 544.742 258.259C544.245 258.063 543.887 257.958 543.453 257.672C539.781 255.255 537.559 249.229 536.946 245.079C535.439 234.882 537.951 224.037 544.108 215.752C549.102 209.032 555.777 204.194 564.145 203.009C575.178 201.448 586.995 203.229 595.996 210.166C603.667 216.079 608.388 225.178 609.486 234.742C610.549 243.999 607.618 253.233 601.794 260.454C596.089 267.529 588.133 272.108 579.062 273.048C565.871 274.414 555.381 268.466 545.507 260.477C559.656 260.824 582.195 263.124 595.325 258.911C596.216 258.032 596.897 257.791 596.888 256.449C596.863 252.909 592.866 249.188 590.576 246.862L591.125 252.529C586.783 248.976 581.75 246.008 576.19 244.913C567.166 243.134 559.873 246.535 552.571 251.47L548.184 250.746Z"/>
	<path fill="#474F4A" d="M565.047 240.429C562.618 236.596 560.081 232.391 558.619 228.087C557.164 223.807 556.972 218.961 559.118 214.886C560.754 211.781 563.945 209.556 567.277 208.625C571.332 207.494 575.915 207.949 579.581 210.06Q580.167 210.395 580.716 210.786Q581.266 211.178 581.774 211.622Q582.282 212.066 582.743 212.559Q583.204 213.051 583.615 213.587Q584.025 214.123 584.38 214.697Q584.735 215.271 585.031 215.877Q585.327 216.483 585.562 217.116Q585.796 217.749 585.967 218.402C588.059 226.344 583.83 234.095 580.073 240.81C583.846 242.578 587.203 244.412 590.576 246.862L591.125 252.529C586.783 248.976 581.75 246.008 576.19 244.913C567.166 243.134 559.873 246.535 552.571 251.47L548.184 250.746C552.824 244.754 558.126 242.739 565.047 240.429Z"/>
	<path fill="#DFB39D" d="M566.184 212.512C568.909 212.301 573.317 211.679 575.81 212.755C578.013 213.705 580.123 215.446 580.88 217.658L579.194 218.326C574.76 217.983 567.896 219.835 564.109 217.509L563.839 215.587L566.184 212.512Z"/>
	<path fill="#DFB39D" d="M564.706 222.444C568.803 222.192 573.67 221.777 577.444 223.703C578.888 224.439 580.072 225.684 580.446 227.269C581.376 231.2 578.528 234.742 576.514 237.85L573.589 238.741C572.233 238.549 570.948 238.3 569.768 237.561C566.554 235.55 563.868 231.711 563.249 227.946C562.824 225.359 563.276 224.445 564.706 222.444Z"/>
	<path fill="#474F4A" d="M1067.44 219.394L1067.82 218.51C1071.19 210.494 1070.83 200.397 1071.17 191.837C1072.17 166.99 1071.3 123.883 1098.42 111.984C1120.86 102.134 1303.47 103.102 1339.16 106.361C1351.39 107.478 1364.35 109.686 1375.76 114.353C1386.32 118.667 1394.66 125.42 1399.1 136.13C1401.72 142.439 1402.55 149.178 1402.86 155.945C1403.4 167.438 1400.05 254.189 1397.1 261.745C1396.69 262.817 1396 263.718 1395.24 264.567C1403.04 262.752 1414.64 258.823 1422.14 263.3C1427.14 266.283 1428.96 274.218 1430.08 279.523C1435.38 304.545 1432.28 329.886 1441.08 354.542C1446.5 369.736 1457.51 381.889 1463.68 396.552C1475.9 425.618 1477.75 452.709 1494.99 481.976C1507.48 503.188 1528.34 519.498 1538.21 542.228C1540.89 548.404 1542.46 555.196 1543.53 561.825C1546.97 583.058 1546.57 604.78 1550.15 625.981C1552.38 639.216 1560.61 658.35 1558.79 671.174C1566.44 679.086 1568.5 696.403 1573.12 706.574C1577.04 715.216 1582.55 723.461 1588.15 731.099C1605.94 755.406 1628.53 777.066 1650.37 797.719C1658.69 805.592 1667.52 813.074 1675.41 821.385C1678 824.109 1681.42 827.46 1682.36 831.195L1681.49 832.055C1667.28 827.815 1603.32 757.492 1590.72 742.06C1584 733.831 1577.73 725.459 1572.65 716.113C1568.68 708.783 1565.28 701.381 1562.56 693.493C1560.78 688.313 1559.38 682.272 1556.97 677.369C1556.23 675.858 1555.2 674.824 1553.88 673.823C1553.71 673.977 1553.55 674.157 1553.35 674.284C1547.4 678.121 1537.83 680.326 1530.99 682.287C1492.09 693.427 1454.11 694.236 1414.94 683.566C1407.95 681.66 1400.66 679.844 1393.96 677.063C1386.71 674.056 1379.4 669.852 1371.85 667.778L1371.15 667.592C1374.98 677.57 1376.78 688.142 1379.62 698.422C1383.12 711.11 1388.01 723.537 1393.43 735.518Q1397.35 744.304 1402.04 752.703C1406.62 760.802 1414.52 769.241 1414.75 778.933L1413.85 779.788C1398.31 770.044 1382.47 709.226 1372.32 701.522C1372.1 701.355 1371.87 701.192 1371.65 701.026C1379.3 712.757 1371.59 757.365 1368.97 772.742C1366.99 784.274 1362.31 795.273 1352.44 802.113C1324.47 821.488 1275.17 806.293 1244.53 800.729C1254.74 804.521 1261.53 811.911 1270.37 817.826C1285.1 827.681 1301.7 834.786 1315.69 845.786C1334.18 860.335 1345.18 875.662 1366.41 889.531Q1371.89 893.136 1377.57 896.429Q1383.24 899.722 1389.09 902.693Q1394.94 905.664 1400.95 908.303Q1406.96 910.942 1413.1 913.241C1425.05 917.716 1438 921.418 1449.29 927.378C1462.5 934.351 1474.5 944.635 1485.74 954.373C1491.05 958.98 1499.01 964.599 1502.62 970.612C1503.41 971.914 1503.36 971.864 1503.02 973.319C1496.61 973.541 1474.83 952.283 1469.1 947.614C1447.58 930.069 1431.73 926.412 1407.04 916.315Q1400.78 913.806 1394.67 910.955Q1388.56 908.104 1382.61 904.922Q1376.66 901.739 1370.9 898.233Q1365.14 894.728 1359.58 890.91C1341.24 878.181 1327.54 861.2 1310 847.798C1296.12 837.186 1279.52 830.841 1265.36 820.722C1256.96 814.717 1249.92 805.331 1240.74 800.687C1230.75 795.631 1215.89 795.725 1204.78 794.356L1141.63 786.387C1119.29 783.52 1095.19 781.968 1074.23 773.265C1041.94 759.862 1040.65 729.51 1042.04 699.219C1042.31 693.188 1043.64 684.539 1041.14 678.916C1041.05 678.72 1040.95 678.532 1040.86 678.34C1040.54 678.734 1040.44 678.896 1039.96 679.209C1032.21 684.24 1018.1 683.761 1009.51 681.862C999.132 679.569 987.624 672.988 981.958 663.732C979.777 660.168 978.728 656.13 979.756 652C982.532 640.848 999.016 633.658 1008.31 628.263C998.416 623.872 989.801 619.114 984.892 608.911C982.751 604.463 981.715 599.604 983.539 594.856C988.277 582.518 1005.56 577.518 1014.06 567.976C1021.44 559.688 1024.18 548.054 1032.66 540.54C1037.09 536.619 1042.88 536.35 1048.02 533.906L1048.89 533.483C1052.19 525.33 1054.55 473.637 1053.58 463.209C1053.28 460.053 1052.43 459.526 1050.06 457.688C1047.84 454.431 1033.91 447.341 1029.9 445.022C1027.96 442.007 1023.75 439.009 1021.16 436.416C1010.02 425.262 996.622 411.27 995.39 394.683C995.11 389.821 995.209 385.423 996.824 380.775C1000.08 371.401 1007.39 366.004 1015.97 361.749C1029.72 361.914 1045.97 366.021 1055.87 376.127C1056.39 376.655 1056.62 377.16 1056.83 377.86C1061.33 370.116 1064.87 322.221 1062.28 312.877C1059.61 303.235 1049.29 293.594 1043.23 285.66C1032.28 271.319 1010.53 239.948 1020.8 221.329C1023.71 216.048 1029.51 211.048 1035.37 209.457C1043.47 207.259 1053.13 208.998 1060.27 213.277C1063.04 214.935 1065.53 216.762 1067.44 219.394ZM1059.68 425.645L1060.06 426.717C1060.18 432.679 1061.66 442.559 1058.83 447.912C1058.89 448.092 1058.96 448.27 1059.02 448.452C1061.39 455.997 1057.49 481.799 1056.96 491.179L1050.34 617.657C1048.67 649.117 1042.5 708.68 1049.15 737.056C1052.02 749.339 1057.92 758.97 1069.13 765.136C1079.16 770.649 1090.71 773.598 1101.84 775.872C1118.67 779.31 1135.91 781.05 1152.94 783.187Q1190.36 787.796 1227.72 792.925C1249.94 796.011 1271.71 802.281 1294 804.494C1301.58 805.246 1309.45 805.378 1316.81 803.166C1326.23 800.334 1333.31 793.839 1337.91 785.242C1341.22 779.068 1343.07 772.2 1344.09 765.299C1346.24 750.83 1349.94 673.075 1346.13 662.283C1345.82 661.386 1345.37 660.832 1344.74 660.157C1344.54 659.944 1344.34 659.726 1344.15 659.51C1344.88 658.672 1345.52 657.746 1345.85 656.673C1349.4 645.169 1349.2 593.567 1350.03 577.686L1362.68 352.76C1366.63 288.021 1375.41 223.595 1377.27 158.715C1377.56 148.602 1376.77 138.783 1371.87 129.689C1367.16 120.951 1358.14 116.025 1348.9 113.298C1339.1 110.403 1328.55 109.622 1318.4 109.027C1286.41 107.149 1254.12 108.546 1222.09 108.764C1187.55 109 1152.42 107.878 1118.05 111.841C1111.54 112.592 1103.63 113.614 1097.88 116.861C1089.64 121.511 1084.31 129.91 1081.66 138.805C1074.23 163.684 1074.26 207.615 1072.53 234.884C1069.58 281.148 1066.09 327.432 1063.59 373.718C1062.71 389.955 1064.68 409.401 1059.92 424.882L1059.68 425.645ZM1042.92 539.964C1039.67 542.062 1036.28 544.177 1033.78 547.173C1027.54 554.645 1023.67 563.741 1017.88 571.502C1008.6 583.957 997.871 593.621 990.038 607.376C992.859 611.638 995.758 615.837 999.979 618.849C1013.03 624.857 1026.3 625.344 1039.81 620.265C1041.21 619.738 1042.53 619.141 1043.82 618.365C1046.05 614.995 1051.15 546.696 1049.41 541.048C1049.2 540.386 1049.12 540.345 1048.75 539.873C1046.76 539.784 1044.89 539.723 1042.92 539.964ZM999.124 389.486L998.793 392.966C997.451 397.361 1000.26 403.475 1002.37 407.432C1009.04 419.918 1019.75 427.333 1027.59 438.394C1029.04 440.443 1030.39 442.487 1029.9 445.022C1033.91 447.341 1047.84 454.431 1050.06 457.688C1050.59 456.789 1050.91 456.14 1051.87 455.663C1053.58 454.821 1054.29 454.407 1055.26 452.698C1055.41 452.435 1055.55 452.164 1055.7 451.901C1058.38 447.164 1057.88 441.261 1056.87 436.051C1059.29 440.11 1059.53 443.303 1058.83 447.912C1061.66 442.559 1060.18 432.679 1060.06 426.717L1059.68 425.645C1056.98 422.587 1058.77 419.96 1054.74 417.564C1055.29 419.787 1055.94 420.832 1054.89 423.007L1053.41 423.943C1052.9 418.227 1042.49 407.565 1038.93 402.496Q1027.06 385.4 1017.19 367.071C1008.15 371.309 1003.91 376.048 1000.52 385.456Q999.799 387.463 999.124 389.486ZM1041.92 624.424C1036.65 628.056 1028.92 628.179 1022.69 628.598C1010.6 639.075 997.591 648.321 985.483 658.661C988.666 664.308 992.012 667.766 997.234 671.541C1007.95 677.736 1019.93 680.282 1032.09 676.946C1035.32 676.059 1038.41 674.848 1041.13 672.857C1045.18 667.226 1046.31 634.195 1044.8 626.597C1044.64 625.747 1044.35 625.196 1043.95 624.434L1041.92 624.424Z"/>
	<path fill="#DFB39D" d="M1382.22 447.552C1382.98 447.844 1383.73 447.909 1384.18 448.616C1388.13 454.855 1393.36 479.251 1391.98 486.04L1389.65 486.669C1389.59 486.532 1389.55 486.391 1389.48 486.258C1387.63 482.61 1381.69 481.058 1378.11 480.002C1378.42 479.682 1378.6 479.506 1378.89 479.142C1383.95 472.903 1383.12 455.219 1382.22 447.552Z"/>
	<path fill="#DFB39D" d="M1378.97 486.665C1379.24 486.669 1379.51 486.662 1379.78 486.676C1383.66 486.875 1389.02 490.107 1391.49 493.028C1394.48 496.566 1395.4 501.438 1394.89 505.956C1393.92 514.68 1385.46 528.46 1378.71 533.824C1378.82 535.185 1378.79 536.76 1378.31 538.052C1377.58 540.025 1376.44 543.028 1374.54 543.94C1373.34 536.878 1376.79 525.164 1377.6 517.688C1378.73 507.34 1379.39 497.072 1378.97 486.665Z"/>
	<path fill="#DFB39D" d="M1416.24 270.665C1417.32 270.528 1418.46 270.349 1419.55 270.363C1420.97 270.382 1422.47 270.482 1423.32 271.752C1426.48 276.452 1429.94 324.909 1428.71 331.288C1426.08 332.171 1422.22 331.01 1419.47 330.543C1411.6 319.71 1409.51 321.849 1407.79 305.889C1406.38 292.731 1407.7 281.14 1416.24 270.665Z"/>
	<path fill="#DFB39D" d="M1017.19 367.071C1030.28 367.002 1046.53 372.012 1055.83 381.632C1056.54 382.373 1056.89 382.885 1057.21 383.862C1059.84 391.172 1058.82 408.867 1055.63 415.97C1055.38 416.529 1055.08 417.056 1054.74 417.564C1055.29 419.787 1055.94 420.832 1054.89 423.007L1053.41 423.943C1052.9 418.227 1042.49 407.565 1038.93 402.496Q1027.06 385.4 1017.19 367.071Z"/>
	<path fill="#DFB39D" d="M1035.24 213.752C1041.23 213.109 1045.91 213.323 1051.72 215.049C1056.95 216.607 1064.24 219.992 1066.92 225.023C1067.07 225.234 1067.23 225.438 1067.37 225.655C1070.3 230.176 1065.35 294.397 1063.74 302.671C1062.04 302.917 1059.54 300.9 1058 300.012C1058.53 290.993 1022.77 257.973 1023.69 233.232C1024.03 223.871 1028.75 219.726 1035.24 213.752Z"/>
	<path fill="#4E5252" d="M998.793 392.966C1005.61 389.965 1006.47 373.019 1015.97 372.179L1018.07 373.368C1018.29 375.292 1017.29 376.25 1016.1 377.721C1006.09 390.095 1006.71 387.258 1002.86 403.904C1009.27 414.477 1016.29 424.423 1025.21 433.062C1030.44 438.124 1049.86 449.136 1052.06 454.389C1056.36 449.117 1056.37 437.037 1055.77 430.545C1055.54 428.031 1054.97 425.977 1053.41 423.943L1054.89 423.007C1055.94 420.832 1055.29 419.787 1054.74 417.564C1058.77 419.96 1056.98 422.587 1059.68 425.645L1060.06 426.717C1060.18 432.679 1061.66 442.559 1058.83 447.912C1059.53 443.303 1059.29 440.11 1056.87 436.051C1057.88 441.261 1058.38 447.164 1055.7 451.901C1055.55 452.164 1055.41 452.435 1055.26 452.698C1054.29 454.407 1053.58 454.821 1051.87 455.663C1050.91 456.14 1050.59 456.789 1050.06 457.688C1047.84 454.431 1033.91 447.341 1029.9 445.022C1030.39 442.487 1029.04 440.443 1027.59 438.394C1019.75 427.333 1009.04 419.918 1002.37 407.432C1000.26 403.475 997.451 397.361 998.793 392.966Z"/>
	<path fill="#DFB39D" d="M1393.84 516.883C1393.98 517.084 1394.13 517.283 1394.27 517.485C1401.01 527.307 1391.84 552.775 1397.52 559.326C1399.32 558.294 1399.63 556.624 1400.13 554.669C1402.49 545.401 1401.96 534.956 1401.78 525.456C1400.24 443.425 1355.76 394.541 1378.81 305.275C1382.05 292.704 1387.4 276.872 1398.95 269.67C1401.96 267.793 1407.93 265.254 1411.51 266.019C1411.87 266.097 1412.33 266.346 1412.65 266.497C1412.37 270.8 1407.01 274.152 1405.27 278.112C1399.64 290.945 1402.73 317.848 1411.75 328.069C1416.78 333.774 1421.55 335.544 1428.87 336.928C1431.32 339.082 1432.39 341.802 1433.59 344.76C1437.08 353.386 1439.11 362.706 1442.87 371.19C1445.89 377.989 1450.95 383.691 1453.55 390.757L1453.28 392.282C1447.32 394.079 1440.74 390.963 1434.78 392.82L1434.42 394.212C1436.77 396.694 1438.46 397.494 1441.91 397.583C1446.62 397.704 1453.07 396.037 1457.45 397.514C1459.35 399.796 1461.02 401.724 1461.94 404.6C1461.68 405.821 1461.89 406.423 1460.77 407.148C1455.91 410.299 1442.86 404.578 1440.2 409.262C1441.62 411.242 1443.43 411.613 1445.78 411.994C1451.11 412.856 1456.96 413.051 1462.29 412.054C1463.6 413.438 1464.68 414.878 1465.38 416.661C1468.32 424.15 1469.86 432.516 1472.09 440.267C1475.1 450.764 1479.19 461.228 1483.69 471.172C1497.13 500.828 1530.34 527.298 1537.41 554.676C1542.83 575.695 1540.86 598.539 1544.23 620.034C1546.35 633.551 1555.25 658.71 1554.65 670.605C1554.59 671.683 1554.28 672.829 1553.88 673.823C1553.71 673.977 1553.55 674.157 1553.35 674.284C1547.4 678.121 1537.83 680.326 1530.99 682.287C1492.09 693.427 1454.11 694.236 1414.94 683.566C1407.95 681.66 1400.66 679.844 1393.96 677.063C1386.71 674.056 1379.4 669.852 1371.85 667.778L1371.15 667.592C1373.85 657.904 1368.47 638.746 1367.86 627.849C1366.72 607.653 1368.05 587.487 1373 567.835C1375.91 556.244 1380.06 545.759 1385.81 535.298C1388.31 530.747 1391.89 525.888 1393.77 521.097C1394.3 519.748 1394.04 518.279 1393.84 516.883Z"/>
	<path fill="#DFB39D" d="M1059.68 425.645L1059.92 424.882C1064.68 409.401 1062.71 389.955 1063.59 373.718C1066.09 327.432 1069.58 281.148 1072.53 234.884C1074.26 207.615 1074.23 163.684 1081.66 138.805C1084.31 129.91 1089.64 121.511 1097.88 116.861C1103.63 113.614 1111.54 112.592 1118.05 111.841C1152.42 107.878 1187.55 109 1222.09 108.764C1254.12 108.546 1286.41 107.149 1318.4 109.027C1328.55 109.622 1339.1 110.403 1348.9 113.298C1358.14 116.025 1367.16 120.951 1371.87 129.689C1376.77 138.783 1377.56 148.602 1377.27 158.715C1375.41 223.595 1366.63 288.021 1362.68 352.76L1350.03 577.686C1349.2 593.567 1349.4 645.169 1345.85 656.673C1345.52 657.746 1344.88 658.672 1344.15 659.51C1344.34 659.726 1344.54 659.944 1344.74 660.157C1345.37 660.832 1345.82 661.386 1346.13 662.283C1349.94 673.075 1346.24 750.83 1344.09 765.299C1343.07 772.2 1341.22 779.068 1337.91 785.242C1333.31 793.839 1326.23 800.334 1316.81 803.166C1309.45 805.378 1301.58 805.246 1294 804.494C1271.71 802.281 1249.94 796.011 1227.72 792.925Q1190.36 787.797 1152.94 783.187C1135.91 781.05 1118.67 779.31 1101.84 775.872C1090.71 773.598 1079.16 770.649 1069.13 765.136C1057.92 758.97 1052.02 749.339 1049.15 737.056C1042.5 708.68 1048.67 649.117 1050.34 617.657L1056.96 491.179C1057.49 481.799 1061.39 455.997 1059.02 448.452C1058.96 448.27 1058.89 448.092 1058.83 447.912C1061.66 442.559 1060.18 432.679 1060.06 426.717L1059.68 425.645ZM1077.16 359.901C1082.88 362.413 1102.94 378.061 1105.08 383.957C1105.19 384.266 1105.28 384.583 1105.39 384.896L1105.45 385.353C1108.34 408.01 1104.45 433.635 1102.67 456.403C1102.1 463.804 1100.96 471.578 1101.44 478.973C1101.69 482.883 1102.34 488.494 1105.82 490.947C1116.45 498.439 1167.19 489.208 1174.68 496.253C1178.35 499.76 1196.42 527.307 1196.95 531.573C1207.11 534.817 1220.88 533.977 1231.56 534.526Q1258.78 535.796 1285.97 537.624C1292.42 538.072 1301.23 537.838 1307.18 540.429L1307.97 542.188L1305.49 543.944C1311.11 550.984 1307.52 571.192 1306.54 579.778C1305.98 584.752 1305.58 592.629 1302.29 596.462L1299.35 597.511C1300.08 598.665 1300.73 599.497 1300.97 600.865C1295.39 604.535 1269.01 598.934 1260.01 599.805C1267.75 603.901 1277.3 611.416 1283.18 617.902C1283.38 617.99 1283.58 618.083 1283.78 618.166C1289.85 620.689 1300.86 618.983 1303.92 625.889C1305.14 628.658 1304.63 632.422 1304.31 635.382C1310.17 638.614 1325.79 645.939 1329.08 650.834C1329.32 650.613 1329.57 650.401 1329.8 650.169C1333.56 646.444 1333.14 627.275 1333.46 621.272C1335.18 589.098 1336.06 556.857 1337.62 524.667Q1343.07 412.561 1350.2 300.549Q1353.03 254.227 1357 207.988C1358.52 191.328 1362.38 169.684 1361.67 153.436C1361.4 147.386 1360.39 142.279 1355.8 138.084L1354.5 135.853C1344.93 129.005 1323.52 132.579 1312.46 133.538C1313.35 137.481 1310.81 142.462 1308.78 145.753C1305.17 151.595 1299.05 157.635 1292.15 159.166C1275.27 162.911 1255.32 159.7 1238.05 159.279C1216.97 158.766 1195.96 158.931 1174.88 157.961C1173.31 154.113 1169.02 152.205 1166.78 148.759C1163.15 143.157 1163.34 136.239 1158.21 131.357C1141.23 131.343 1114.91 129.266 1101.9 142.274C1095.36 148.814 1091.7 158.527 1089.67 167.408C1084.64 189.437 1085.28 213.627 1084.24 236.138L1079.87 322.877C1079.38 334.035 1081.7 349.191 1077.34 359.47C1077.28 359.613 1077.22 359.757 1077.16 359.901ZM1077.16 359.901C1076.75 361.59 1077.48 386.125 1077.07 391.844C1072.42 456.156 1070.13 520.707 1066.71 585.113L1062.76 657.073C1061.91 672.397 1060.55 687.91 1060.9 703.261C1061.16 714.926 1062.63 728.142 1068.75 738.3C1075.75 749.919 1087.59 756.06 1100.41 759.078C1131.33 766.361 1163.96 768.141 1195.42 772.377C1221.72 775.919 1247.93 780.123 1274.32 783.007C1284.54 784.124 1295.25 785.715 1305.52 785.734C1309.8 785.742 1313.97 784.668 1317.6 782.37C1323.04 778.931 1325.6 772.739 1326.88 766.665C1330.41 749.841 1329.13 727.613 1329.68 710.131C1330.2 693.414 1331.96 676.056 1331.07 659.385C1330.91 656.459 1330.56 653.416 1329.08 650.834C1325.79 645.939 1310.17 638.614 1304.31 635.382C1304.63 632.422 1305.14 628.658 1303.92 625.889C1300.86 618.983 1289.85 620.689 1283.78 618.166C1283.58 618.083 1283.38 617.99 1283.18 617.902C1277.3 611.416 1267.75 603.901 1260.01 599.805C1269.01 598.934 1295.39 604.535 1300.97 600.865C1300.73 599.497 1300.08 598.665 1299.35 597.511L1302.29 596.462C1305.58 592.629 1305.98 584.752 1306.54 579.778C1307.52 571.192 1311.11 550.984 1305.49 543.944L1307.97 542.188L1307.18 540.429C1301.23 537.838 1292.42 538.072 1285.97 537.624Q1258.78 535.796 1231.56 534.526C1220.88 533.977 1207.11 534.817 1196.95 531.573C1196.42 527.307 1178.35 499.76 1174.68 496.253C1167.19 489.208 1116.45 498.439 1105.82 490.947C1102.34 488.494 1101.69 482.883 1101.44 478.973C1100.96 471.578 1102.1 463.804 1102.67 456.403C1104.45 433.635 1108.34 408.01 1105.45 385.353L1105.39 384.896C1105.28 384.583 1105.19 384.266 1105.08 383.957C1102.94 378.061 1082.88 362.413 1077.16 359.901ZM1069.67 409.808C1067.39 415.543 1065.33 423.042 1060.06 426.717C1060.18 432.679 1061.66 442.559 1058.83 447.912C1058.89 448.092 1058.96 448.27 1059.02 448.452C1061.39 455.997 1057.49 481.799 1056.96 491.179L1050.34 617.657C1048.67 649.117 1042.5 708.68 1049.15 737.056C1052.02 749.339 1057.92 758.97 1069.13 765.136C1079.16 770.649 1090.71 773.598 1101.84 775.872C1118.67 779.31 1135.91 781.05 1152.94 783.187Q1190.36 787.796 1227.72 792.925C1249.94 796.011 1271.71 802.281 1294 804.494C1301.58 805.246 1309.45 805.378 1316.81 803.166C1326.23 800.334 1333.31 793.839 1337.91 785.242C1341.22 779.068 1343.07 772.2 1344.09 765.299C1346.24 750.83 1349.94 673.075 1346.13 662.283C1345.82 661.386 1345.37 660.832 1344.74 660.157C1344.54 659.944 1344.34 659.726 1344.15 659.51C1344.09 659.359 1344.05 659.199 1343.97 659.057C1342.4 656.252 1336.68 654.41 1333.86 653.318C1337.07 662.225 1333 752.733 1331.19 767.674C1330.38 774.375 1326.9 781.154 1321.47 785.26C1317.79 788.04 1313.21 789.81 1308.59 790.028C1291.84 790.82 1255.04 784.633 1237.02 782.294C1201.34 777.664 1165.53 773.792 1129.91 768.786C1108.29 765.747 1081.36 763.565 1067.38 744.536C1060.54 735.227 1057.78 723.466 1056.76 712.121C1054.71 689.198 1058.12 664.521 1059.37 641.531L1068.11 480.606C1069.16 460.047 1072.56 438.393 1071.91 417.921C1071.8 414.446 1071.77 412.601 1069.67 409.808Z"/>
	<path fill="#4E5252" d="M1184.14 137.325C1185.08 137.215 1186.07 137.094 1187.02 137.182C1189.02 137.368 1190.2 138.114 1191.45 139.616C1190.8 141.847 1190.22 141.864 1188.35 143.116C1186.81 144.052 1186.95 144.05 1185.19 143.636C1183.92 141.618 1184.13 139.626 1184.14 137.325Z"/>
	<path fill="#4E5252" d="M1310.37 130.629C1321.08 127.295 1345.43 126.089 1355.44 131.464C1356.98 132.292 1358.01 133.44 1359.06 134.821L1359.54 136.956L1355.8 138.084L1354.5 135.853C1344.93 129.005 1323.52 132.579 1312.46 133.538L1310.37 130.629Z"/>
	<path fill="#4E5252" d="M1215.76 138.22C1225.37 137.722 1249.79 135.818 1257.52 140.243L1257.12 141.371C1253.71 143.102 1250.33 142.873 1246.58 142.851C1236.09 143.18 1224.68 143.308 1214.27 142.004C1212.02 141.722 1209.01 141.708 1207.62 139.873C1209.61 138.079 1213.17 138.39 1215.76 138.22Z"/>
	<path fill="#474F4A" d="M1069.67 409.808C1071.74 407.934 1072.23 406.034 1072.64 403.354C1075.35 385.695 1074.14 366.739 1074.98 348.84L1080.79 230.294C1081.72 207.696 1080.95 183.342 1086.87 161.385C1088.98 153.541 1093.14 145.951 1098.94 140.225C1114.33 125.025 1140.58 127.149 1160.53 127.106C1162.31 128.425 1174.36 151.315 1175.1 154.069C1192.63 155.464 1210.43 154.995 1228.01 155.466C1246.22 155.953 1265.18 157.617 1283.32 156.308C1287.51 156.006 1292.34 155.386 1296.06 153.29C1304.15 148.724 1308.02 139.149 1310.37 130.629L1312.46 133.538C1313.35 137.481 1310.81 142.462 1308.78 145.753C1305.17 151.595 1299.05 157.635 1292.15 159.166C1275.27 162.911 1255.32 159.7 1238.05 159.279C1216.97 158.766 1195.96 158.931 1174.88 157.961C1173.31 154.113 1169.02 152.205 1166.78 148.759C1163.15 143.157 1163.34 136.239 1158.21 131.357C1141.23 131.343 1114.91 129.266 1101.9 142.274C1095.36 148.814 1091.7 158.527 1089.67 167.408C1084.64 189.437 1085.28 213.627 1084.24 236.138L1079.87 322.877C1079.38 334.035 1081.7 349.191 1077.34 359.47C1077.28 359.613 1077.22 359.757 1077.16 359.901C1076.75 361.59 1077.48 386.125 1077.07 391.844C1072.42 456.156 1070.13 520.707 1066.71 585.113L1062.76 657.073C1061.91 672.397 1060.55 687.91 1060.9 703.261C1061.16 714.926 1062.63 728.142 1068.75 738.3C1075.75 749.919 1087.59 756.06 1100.41 759.078C1131.33 766.361 1163.96 768.141 1195.42 772.377C1221.72 775.919 1247.93 780.123 1274.32 783.007C1284.54 784.124 1295.25 785.715 1305.52 785.734C1309.8 785.742 1313.97 784.668 1317.6 782.37C1323.04 778.931 1325.6 772.739 1326.88 766.665C1330.41 749.841 1329.13 727.613 1329.68 710.131C1330.2 693.414 1331.96 676.056 1331.07 659.385C1330.91 656.459 1330.56 653.416 1329.08 650.834C1329.32 650.613 1329.57 650.401 1329.8 650.169C1333.56 646.444 1333.14 627.275 1333.46 621.272C1335.18 589.098 1336.06 556.857 1337.62 524.667Q1343.07 412.561 1350.2 300.549Q1353.03 254.227 1357 207.988C1358.52 191.328 1362.38 169.684 1361.67 153.436C1361.4 147.386 1360.39 142.279 1355.8 138.084L1359.54 136.956C1362.29 138.521 1363.36 140.336 1364.18 143.312C1368.33 158.329 1362.73 187.202 1361.46 203.363L1356.3 271.402Q1345.16 434.216 1338.25 597.265C1337.86 607.267 1338.34 646.237 1334.68 652.341C1334.43 652.765 1334.22 652.941 1333.86 653.318C1337.07 662.225 1333 752.733 1331.19 767.674C1330.38 774.375 1326.9 781.154 1321.47 785.26C1317.79 788.04 1313.21 789.81 1308.59 790.028C1291.84 790.82 1255.04 784.633 1237.02 782.294C1201.34 777.664 1165.53 773.792 1129.91 768.786C1108.29 765.747 1081.36 763.565 1067.38 744.536C1060.54 735.227 1057.78 723.466 1056.76 712.121C1054.71 689.198 1058.12 664.521 1059.37 641.531L1068.11 480.606C1069.16 460.047 1072.56 438.393 1071.91 417.921C1071.8 414.446 1071.77 412.601 1069.67 409.808Z"/>
	<path fill="#474F4A" d="M1185.3 710.665C1192.29 709.966 1197.77 709.923 1203.82 713.921Q1204.31 714.252 1204.79 714.607Q1205.27 714.962 1205.73 715.34Q1206.19 715.719 1206.63 716.119Q1207.07 716.52 1207.49 716.941Q1207.91 717.363 1208.31 717.805Q1208.71 718.247 1209.08 718.709Q1209.46 719.17 1209.81 719.649Q1210.17 720.128 1210.49 720.625Q1210.82 721.121 1211.13 721.633Q1211.43 722.144 1211.71 722.671Q1211.99 723.197 1212.24 723.736Q1212.49 724.276 1212.72 724.827Q1212.94 725.378 1213.14 725.94Q1213.34 726.501 1213.51 727.072Q1213.68 727.643 1213.82 728.221Q1213.96 728.799 1214.07 729.384C1215.33 735.701 1214.24 742.699 1210.55 748.051C1206.9 753.339 1201.65 756.251 1195.43 757.366C1192.89 758.777 1187.64 758.201 1184.85 757.667C1179.79 756.699 1175.78 753.366 1173.01 749.122C1169.24 743.318 1168.12 735.908 1169.75 729.207C1171.96 720.148 1177.6 715.241 1185.3 710.665ZM1185.86 715.108C1179.59 719.444 1175.79 723.416 1174.36 731.16C1173.34 736.678 1174.43 743.033 1177.66 747.683C1179.81 750.786 1182.55 752.721 1186.32 753.39C1188.84 753.836 1192.25 754.108 1194.54 752.882C1200.01 751.551 1204.27 749.215 1207.21 744.225C1209.98 739.507 1210.43 733.688 1208.92 728.478Q1208.79 728.012 1208.63 727.553Q1208.48 727.094 1208.3 726.643Q1208.12 726.192 1207.93 725.75Q1207.73 725.309 1207.5 724.878Q1207.28 724.447 1207.04 724.027Q1206.8 723.608 1206.54 723.201Q1206.27 722.794 1205.99 722.401Q1205.71 722.008 1205.41 721.629Q1205.1 721.25 1204.78 720.887Q1204.46 720.524 1204.12 720.177Q1203.79 719.83 1203.43 719.501Q1203.08 719.171 1202.7 718.859Q1202.33 718.548 1201.95 718.255Q1201.56 717.963 1201.16 717.69Q1200.76 717.417 1200.35 717.164Q1199.94 716.911 1199.51 716.679C1195.19 714.352 1190.6 714.296 1185.86 715.108Z"/>
	<path fill="#4E5252" d="M1098.52 585.632C1101.06 578.671 1099.02 547.137 1102.75 534.431C1103.51 531.849 1104.56 529.749 1107.16 528.663C1118.48 523.929 1189.49 535.719 1196.95 531.573C1207.11 534.817 1220.88 533.977 1231.56 534.526Q1258.78 535.796 1285.97 537.624C1292.42 538.072 1301.23 537.838 1307.18 540.429L1307.97 542.188L1305.49 543.944C1301.33 540.918 1209.87 536.509 1200.41 536.99C1193.27 533.829 1118.46 531.394 1106.64 531.977C1106.67 532.161 1106.69 532.344 1106.71 532.528C1107.8 543.504 1097.92 576.893 1105.65 583.865C1115.38 586.39 1126.59 586.607 1136.63 587.385Q1164.62 589.453 1192.63 591.216C1211.93 592.474 1235.85 595.721 1254.68 594.416C1265.33 595.365 1290.6 599.715 1299.35 597.511C1300.08 598.665 1300.73 599.497 1300.97 600.865C1295.39 604.535 1269.01 598.934 1260.01 599.805C1253.47 596.034 1126.68 593.949 1098.52 585.632Z"/>
	<path fill="#DFB39D" d="M1200.41 536.99C1209.87 536.509 1301.33 540.918 1305.49 543.944C1311.11 550.984 1307.52 571.192 1306.54 579.778C1305.98 584.752 1305.58 592.629 1302.29 596.462L1299.35 597.511C1290.6 599.715 1265.33 595.365 1254.68 594.416C1254.66 594.26 1254.66 594.098 1254.62 593.946C1253.5 589.956 1206.13 541.258 1200.41 536.99Z"/>
	<path fill="#4E5252" d="M1212.32 563.11C1215.24 562.777 1218.24 562.456 1221.09 563.34C1221.86 563.58 1221.81 563.952 1222.16 564.639L1220.52 566.359C1218.69 567.736 1217.83 567.34 1215.59 567.263C1213.23 565.752 1213.1 565.776 1212.32 563.11Z"/>
	<path fill="#4E5252" d="M1176.72 560.441Q1178.26 560.277 1179.8 560.195C1182.35 560.08 1184.68 560.308 1186.56 562.059L1185.36 564.002L1184.93 564.642C1183.19 565.644 1182.31 565.726 1180.33 565.548C1177.62 563.765 1177.67 563.572 1176.72 560.441Z"/>
	<path fill="#4E5252" d="M1192.65 562.222C1196.82 561.727 1201.6 560.65 1205.19 563.131L1204.42 565.14C1204.25 565.282 1204.1 565.443 1203.92 565.567C1202.46 566.582 1199.48 566.751 1197.83 566.371C1195.02 565.726 1194.24 564.395 1192.65 562.222Z"/>
	<path fill="#474F4A" d="M1304.31 635.382C1303.84 636.696 1304.06 637.887 1304.1 639.254C1304.44 650.499 1305.62 675.397 1297.6 683.94C1293.35 685.921 1288.12 685.676 1283.52 685.558C1257.51 684.889 1231.58 681.034 1205.65 679.016C1179.22 676.96 1152.77 675.31 1126.37 672.822C1117.05 671.943 1105.32 671.95 1096.51 668.929C1094.11 668.104 1092.88 666.892 1091.88 664.534C1088.96 657.662 1091.91 619.135 1095.16 611.394C1096.53 608.127 1098.58 606.634 1101.93 605.949C1115.33 603.214 1132.98 607.108 1146.56 608.228C1161.66 609.473 1278.56 620.14 1282.4 618.311C1282.67 618.185 1282.92 618.038 1283.18 617.902C1283.38 617.99 1283.58 618.083 1283.78 618.166C1289.85 620.689 1300.86 618.983 1303.92 625.889C1305.14 628.658 1304.63 632.422 1304.31 635.382ZM1098.44 610.219C1098.45 610.417 1098.46 610.614 1098.46 610.812C1098.94 628.126 1091.78 646.262 1096.28 663.48L1097.26 662.368L1098.06 664.666C1110.11 668.817 1124.86 668.77 1137.58 669.905Q1179.51 673.465 1221.49 676.286C1242.17 677.834 1262.77 680.761 1283.48 681.77C1286.65 681.924 1290.5 682.383 1293.45 681.137L1294 680.448C1297.51 677.711 1297.65 675.229 1298.18 670.992C1299.15 663.25 1302.58 633.041 1298.82 627.656C1295.12 625.31 1290.83 624.581 1286.56 623.926C1252.14 618.64 1216.25 617.488 1181.48 614.764C1160.87 613.149 1116.51 607.479 1098.44 610.219Z"/>
	<path fill="#474F4A" d="M1201.69 638.665C1204.3 638.447 1206.81 638.199 1209.05 639.897C1210.99 641.367 1211.22 642.113 1211.49 644.361C1210.24 646.653 1209.6 647.027 1207.36 648.447C1206.67 649.284 1205.51 649.744 1204.57 650.269C1203.2 649.797 1202.88 649.49 1202.13 648.202C1200.29 645.082 1200.79 641.959 1201.69 638.665Z"/>
	<path fill="#4E5252" d="M1172.96 636.883C1173.16 636.858 1173.36 636.824 1173.56 636.808C1176.18 636.602 1178.53 636.814 1180.53 638.758C1182.21 640.383 1182.24 641.373 1182.22 643.516C1180.73 645.666 1180.1 645.929 1177.71 647.072C1176.75 647.394 1175.84 647.721 1174.81 647.579C1172.93 647.318 1172.89 646.781 1171.9 645.367C1171.26 641.934 1171.71 640.091 1172.96 636.883Z"/>
	<path fill="#474F4A" d="M1229.75 641.331Q1231.2 641.053 1232.67 640.92C1235.17 640.695 1237.45 641.257 1239.33 643.009C1240.92 644.497 1240.8 644.978 1240.94 647.042C1239.91 649.233 1238.74 649.968 1236.65 651.114C1235.29 652.252 1234.96 652.248 1233.27 652.498C1232.78 652.147 1232.31 651.785 1231.89 651.332C1229.38 648.583 1229.55 644.783 1229.75 641.331Z"/>
	<path fill="#DFB39D" d="M1077.16 359.901C1077.22 359.757 1077.28 359.613 1077.34 359.47C1081.7 349.191 1079.38 334.035 1079.87 322.877L1084.24 236.138C1085.28 213.627 1084.64 189.437 1089.67 167.408C1091.7 158.527 1095.36 148.814 1101.9 142.274C1114.91 129.266 1141.23 131.343 1158.21 131.357C1163.34 136.239 1163.15 143.157 1166.78 148.759C1169.02 152.205 1173.31 154.113 1174.88 157.961C1195.96 158.931 1216.97 158.766 1238.05 159.279C1255.32 159.7 1275.27 162.911 1292.15 159.166C1299.05 157.635 1305.17 151.595 1308.78 145.753C1310.81 142.462 1313.35 137.481 1312.46 133.538C1323.52 132.579 1344.93 129.005 1354.5 135.853L1355.8 138.084C1360.39 142.279 1361.4 147.386 1361.67 153.436C1362.38 169.684 1358.52 191.328 1357 207.988Q1353.03 254.227 1350.2 300.549Q1343.07 412.561 1337.62 524.667C1336.06 556.857 1335.18 589.098 1333.46 621.272C1333.14 627.275 1333.56 646.444 1329.8 650.169C1329.57 650.401 1329.32 650.613 1329.08 650.834C1325.79 645.939 1310.17 638.614 1304.31 635.382C1304.63 632.422 1305.14 628.658 1303.92 625.889C1300.86 618.983 1289.85 620.689 1283.78 618.166C1283.58 618.083 1283.38 617.99 1283.18 617.902C1277.3 611.416 1267.75 603.901 1260.01 599.805C1269.01 598.934 1295.39 604.535 1300.97 600.865C1300.73 599.497 1300.08 598.665 1299.35 597.511L1302.29 596.462C1305.58 592.629 1305.98 584.752 1306.54 579.778C1307.52 571.192 1311.11 550.984 1305.49 543.944L1307.97 542.188L1307.18 540.429C1301.23 537.838 1292.42 538.072 1285.97 537.624Q1258.78 535.796 1231.56 534.526C1220.88 533.977 1207.11 534.817 1196.95 531.573C1196.42 527.307 1178.35 499.76 1174.68 496.253C1167.19 489.208 1116.45 498.439 1105.82 490.947C1102.34 488.494 1101.69 482.883 1101.44 478.973C1100.96 471.578 1102.1 463.804 1102.67 456.403C1104.45 433.635 1108.34 408.01 1105.45 385.353L1105.39 384.896C1105.28 384.583 1105.19 384.266 1105.08 383.957C1102.94 378.061 1082.88 362.413 1077.16 359.901ZM1116.62 182.866C1117.71 184.916 1117.85 186.976 1117.84 189.247C1117.7 217.239 1114.41 245.652 1112.75 273.616C1110.76 307.069 1110.15 340.612 1107.72 374.039C1107.49 377.164 1107.84 382.775 1105.39 384.896L1105.45 385.353C1108.34 408.01 1104.45 433.635 1102.67 456.403C1102.1 463.804 1100.96 471.578 1101.44 478.973C1101.69 482.883 1102.34 488.494 1105.82 490.947C1116.45 498.439 1167.19 489.208 1174.68 496.253C1186.41 494.869 1200.05 496.982 1211.88 497.715Q1247.45 500.024 1283.05 501.822C1291.84 502.225 1302.35 503.636 1310.97 502.206C1313.2 501.837 1314.9 500.966 1316.08 498.98C1317.55 496.509 1317.76 493.201 1318.02 490.412C1319.76 471.753 1320.51 452.946 1322.01 434.253C1323.92 410.476 1341.22 217.975 1339.38 212.226L1338.34 211.807C1335.76 214.433 1335.46 220.031 1335 223.603C1332.12 246.131 1331.6 269.069 1329.77 291.715L1319.2 420.93C1317.51 444.134 1317.73 471.997 1313.3 494.413C1312.96 496.147 1312.37 497.403 1311.2 498.745C1302.88 499.956 1178.29 492.667 1171.24 490.752C1171.91 487.785 1170.39 484.918 1169.26 482.227C1162.23 465.55 1123.58 395.927 1109.57 390.189C1109.8 389.556 1109.99 388.976 1110.16 388.321C1112.37 379.488 1111.82 369.179 1112.24 360.083L1114.58 313.79C1116.62 274.475 1120.52 235.083 1121.24 195.74C1121.3 192.51 1121.46 189.426 1119.73 186.57L1259.45 188.458C1274.78 188.735 1319.58 191.828 1330.96 188.758L1331.48 187.781C1329.23 186.38 1327.18 185.895 1324.59 185.677C1303.6 183.908 1282.17 184.977 1261.1 184.627L1116.62 182.866Z"/>
	<path fill="#474F4A" d="M1307.97 542.188C1310.02 543.308 1310.72 543.308 1311.43 545.623C1314.05 554.284 1310.83 590.452 1306.28 598.185C1305.52 599.475 1304.47 600.224 1303 600.542C1302.33 600.687 1301.65 600.775 1300.97 600.865C1300.73 599.497 1300.08 598.665 1299.35 597.511L1302.29 596.462C1305.58 592.629 1305.98 584.752 1306.54 579.778C1307.52 571.192 1311.11 550.984 1305.49 543.944L1307.97 542.188Z"/>
	<path fill="#4E5252" d="M1138.94 411.998C1152.32 410.172 1167.78 411.784 1181.29 412.498C1185.19 412.704 1194.02 412.41 1196.59 415.269L1194.59 417.335C1188.59 419.064 1147.83 416.629 1141.43 414.655C1139.74 414.135 1139.75 413.488 1138.94 411.998Z"/>
	<path fill="#4E5252" d="M1127.17 399.555C1136.78 398.543 1209.65 400.167 1213.87 403.168L1212.49 404.804C1205.19 407.177 1137.59 404.433 1130.27 402.24C1128.18 401.616 1128.19 401.363 1127.17 399.555Z"/>
	<path fill="#4E5252" d="M1130.48 362.219C1140 360.593 1268.23 364.162 1271.78 366.309L1270.17 368.445C1261.35 369.95 1142.86 366.93 1134.21 365.058C1132 364.579 1131.67 363.969 1130.48 362.219Z"/>
	<path fill="#4E5252" d="M1130.45 352.443C1140.54 351.106 1151.52 352.24 1161.7 352.577L1212.28 354.166C1229.12 354.624 1246.53 353.375 1263.22 354.939C1265.89 355.19 1268.5 355.315 1270.24 357.458L1268.21 359.436C1259.54 360.545 1137.46 356.963 1132.63 355.348C1131.01 354.807 1131.01 353.872 1130.45 352.443Z"/>
	<path fill="#4E5252" d="M1133.65 319.554Q1137.79 319.217 1141.94 319.115C1169.61 318.351 1197.9 320.739 1225.6 321.561C1242.83 322.072 1264.61 320.989 1281.17 322.659C1283.39 322.884 1284.31 323.088 1285.97 324.662L1284.51 326.269C1284.31 326.377 1284.11 326.493 1283.9 326.595C1283.45 326.817 1139.87 324.118 1136.35 322.79C1134.42 322.064 1134.41 321.339 1133.65 319.554Z"/>
	<path fill="#4E5252" d="M1135.1 308.888C1151.72 308.505 1280.81 309.931 1285.78 313.487L1284.5 315.111C1273.07 317.17 1145.03 314.232 1137.57 311.792C1135.91 311.251 1135.87 310.38 1135.1 308.888Z"/>
	<path fill="#474F4A" d="M1215.16 207.554C1225.01 206.531 1233.51 208.178 1241.36 214.598Q1242.11 215.212 1242.82 215.863Q1243.54 216.513 1244.23 217.198Q1244.91 217.882 1245.56 218.6Q1246.21 219.318 1246.82 220.067Q1247.44 220.815 1248.01 221.594Q1248.59 222.372 1249.12 223.177Q1249.66 223.983 1250.16 224.814Q1250.65 225.645 1251.11 226.499Q1251.56 227.354 1251.98 228.229Q1252.39 229.105 1252.76 230Q1253.12 230.895 1253.45 231.807Q1253.77 232.719 1254.05 233.646Q1254.33 234.573 1254.56 235.513Q1254.8 236.453 1254.98 237.403Q1255.17 238.352 1255.31 239.31Q1255.45 240.268 1255.54 241.232Q1255.62 242.158 1255.65 243.086Q1255.68 244.014 1255.66 244.943Q1255.65 245.872 1255.58 246.798Q1255.52 247.725 1255.41 248.648Q1255.31 249.57 1255.15 250.486Q1255 251.402 1254.8 252.309Q1254.6 253.216 1254.35 254.112Q1254.11 255.009 1253.82 255.891Q1253.53 256.774 1253.2 257.641Q1252.87 258.508 1252.49 259.358Q1252.11 260.208 1251.7 261.037Q1251.28 261.867 1250.82 262.675Q1250.36 263.483 1249.87 264.267Q1249.37 265.051 1248.83 265.81Q1248.3 266.568 1247.72 267.298Q1247.15 268.029 1246.54 268.73C1239.85 276.345 1230.89 280.113 1220.91 280.832C1214.13 281.316 1206.76 279.435 1200.73 276.394C1192.94 272.467 1187.26 265.882 1184.72 257.523C1181.8 247.898 1182.94 238.068 1187.8 229.286Q1188.33 228.299 1188.92 227.341Q1189.5 226.382 1190.13 225.454Q1190.76 224.526 1191.44 223.631Q1192.12 222.736 1192.84 221.877Q1193.56 221.017 1194.33 220.194Q1195.09 219.372 1195.89 218.589Q1196.7 217.806 1197.54 217.065Q1198.38 216.324 1199.26 215.626Q1200.14 214.928 1201.05 214.275Q1201.97 213.622 1202.91 213.016Q1203.85 212.41 1204.83 211.852Q1205.8 211.294 1206.8 210.786Q1207.8 210.278 1208.83 209.821Q1209.85 209.364 1210.9 208.96Q1211.95 208.555 1213.01 208.203Q1214.08 207.852 1215.16 207.554Z"/>
	<path fill="#DFB39D" d="M1212.35 211.998C1221.37 211.08 1228.85 210.851 1236.74 216.218C1244.19 221.279 1249.27 229.542 1250.87 238.361Q1251.02 239.183 1251.14 240.012Q1251.25 240.841 1251.32 241.674Q1251.39 242.508 1251.42 243.344Q1251.45 244.18 1251.44 245.016Q1251.43 245.853 1251.38 246.687Q1251.32 247.522 1251.23 248.353Q1251.13 249.184 1251 250.01Q1250.86 250.835 1250.68 251.653Q1250.51 252.47 1250.29 253.278Q1250.07 254.086 1249.81 254.881Q1249.56 255.677 1249.26 256.459Q1248.96 257.241 1248.63 258.007Q1248.29 258.773 1247.92 259.522Q1247.54 260.271 1247.13 260.999Q1246.72 261.728 1246.28 262.436Q1245.83 263.144 1245.35 263.828C1239.86 271.589 1232.21 275.589 1223 277.112C1207.71 278.486 1202.52 270.911 1190.89 263.644C1190.7 263.529 1190.52 263.418 1190.33 263.306C1190.74 255.011 1184.74 250.334 1187.04 240.421C1190.07 227.376 1201.51 218.609 1212.35 211.998Z"/>
	<path fill="#474F4A" d="M1215.5 235.108C1218.31 234.756 1221.02 234.6 1223.66 235.877C1225.56 236.798 1227.05 238.511 1227.52 240.594C1228.27 243.854 1226.38 247.659 1224.72 250.356C1224.9 250.471 1225.08 250.583 1225.26 250.7C1228.88 253.11 1233 257.057 1233.84 261.45C1233.41 262.881 1233.35 263.865 1232.19 264.87C1228.77 267.826 1223.59 266.723 1219.42 266.376C1213.8 265.57 1208.64 267.958 1203.4 264.399C1202.7 263.918 1202.76 262.885 1202.61 262.063C1204.62 256.889 1208.71 253.267 1210.98 248.417C1213.4 243.235 1210.51 240.795 1215.5 235.108Z"/>
	<path fill="#DFB39D" d="M1214.65 239.552C1216.64 239.224 1218.91 238.859 1220.85 239.669C1223.03 240.585 1223.89 241.277 1224.85 243.374C1223.8 245.838 1223.23 246.055 1220.96 247.559C1220.03 248.604 1219.14 248.68 1217.84 249.107L1215.81 247.604C1214.28 244.576 1214.22 242.87 1214.65 239.552Z"/>
	<path fill="#DFB39D" d="M1211.11 252.885C1213.62 253.04 1214.41 253.01 1216.5 254.342C1216.81 255.904 1216.99 257.104 1218.03 258.378C1220.3 255.666 1221.95 253.72 1225.48 253.076C1227.05 253.859 1227.8 254.664 1228.66 256.187C1229.8 258.2 1229.23 258.724 1228.65 260.891L1227.29 261.896C1222.68 262.277 1216.75 263.329 1212.25 262.291C1209.81 261.73 1209.12 261.132 1207.85 259.149C1208.27 256.175 1209.31 255.24 1211.11 252.885Z"/>
	<path fill="#474F4A" d="M1116.62 182.866L1261.1 184.627C1282.17 184.977 1303.6 183.908 1324.59 185.677C1327.18 185.895 1329.23 186.38 1331.48 187.781L1330.96 188.758C1319.58 191.828 1274.78 188.735 1259.45 188.458L1119.73 186.57C1121.46 189.426 1121.3 192.51 1121.24 195.74C1120.52 235.083 1116.62 274.475 1114.58 313.79L1112.24 360.083C1111.82 369.179 1112.37 379.488 1110.16 388.321C1109.99 388.976 1109.8 389.556 1109.57 390.189C1123.58 395.927 1162.23 465.55 1169.26 482.227C1170.39 484.918 1171.91 487.785 1171.24 490.752C1178.29 492.667 1302.88 499.956 1311.2 498.745C1312.37 497.403 1312.96 496.147 1313.3 494.413C1317.73 471.997 1317.51 444.134 1319.2 420.93L1329.77 291.715C1331.6 269.069 1332.12 246.131 1335 223.603C1335.46 220.031 1335.76 214.433 1338.34 211.807L1339.38 212.226C1341.22 217.975 1323.92 410.476 1322.01 434.253C1320.51 452.946 1319.76 471.753 1318.02 490.412C1317.76 493.201 1317.55 496.509 1316.08 498.98C1314.9 500.966 1313.2 501.837 1310.97 502.206C1302.35 503.636 1291.84 502.225 1283.05 501.822Q1247.45 500.024 1211.88 497.715C1200.05 496.982 1186.41 494.869 1174.68 496.253C1167.19 489.208 1116.45 498.439 1105.82 490.947C1102.34 488.494 1101.69 482.883 1101.44 478.973C1100.96 471.578 1102.1 463.804 1102.67 456.403C1104.45 433.635 1108.34 408.01 1105.45 385.353L1105.39 384.896C1107.84 382.775 1107.49 377.164 1107.72 374.039C1110.15 340.612 1110.76 307.069 1112.75 273.616C1114.41 245.652 1117.7 217.239 1117.84 189.247C1117.85 186.976 1117.71 184.916 1116.62 182.866ZM1104.01 487.671C1113.12 488.222 1167.97 492.711 1171.24 490.752C1171.91 487.785 1170.39 484.918 1169.26 482.227C1162.23 465.55 1123.58 395.927 1109.57 390.189C1111.12 406.313 1108.19 474.968 1104.01 487.671Z"/>
</svg>
